<svg viewBox="0 0 40 40" xmlns="http://www.w3.org/2000/svg" fill-rule="evenodd" stroke-linejoin="round" clip-rule="evenodd" stroke-miterlimit="1.41421"><path d="m27.6 40h-15.2c-2.592 0-4.48-.013-6.32-.798-2.371-1.01-4.271-2.912-5.282-5.282-.785-1.84-.798-3.729-.798-6.32v-15.2c0-2.592.013-4.48.798-6.32 1.01-2.371 2.912-4.271 5.282-5.282 1.84-.785 3.729-.798 6.32-.798h15.2c2.592 0 4.48.013 6.32.798 2.371 1.01 4.271 2.912 5.282 5.282.785 1.84.798 3.729.798 6.32v15.2c0 2.592-.013 4.48-.798 6.32-1.01 2.371-2.912 4.271-5.282 5.282-1.84.785-3.729.798-6.32.798m-13.268-28.56c.808 0 1.606.068 2.29.254.684.124 1.284.389 1.781.7.497.311.896.776 1.145 1.336.249.56.382 1.289.382 2.035 0 .87-.201 1.667-.636 2.226-.373.559-1.035 1.09-1.781 1.463 1.057.311 1.92.908 2.417 1.654.497.746.827 1.742.827 2.799 0 .87-.198 1.668-.509 2.29-.311.622-.84 1.217-1.399 1.59-.56.373-1.289.704-2.035.89-.746.187-1.544.318-2.29.318h-8.523v-17.555m20.29 14.565c.497.497 1.295.763 2.29.763.684 0 1.347-.198 1.845-.509.497-.373.83-.772.954-1.145h3.117c-.497 1.492-1.295 2.624-2.29 3.307-.995.622-2.259 1.018-3.689 1.018-.995 0-1.927-.198-2.735-.509-.808-.311-1.476-.778-2.035-1.399-.559-.559-1.023-1.291-1.272-2.099-.311-.808-.445-1.74-.445-2.735 0-.933.134-1.863.445-2.671.311-.808.776-1.541 1.336-2.163.559-.559 1.289-1.088 2.035-1.399.808-.311 1.677-.509 2.671-.509 1.057 0 2.054.201 2.862.636.808.435 1.474.971 1.972 1.717.497.684.896 1.547 1.145 2.417.124.87.189 1.804.127 2.799h-9.223c0 .995.393 1.983.89 2.481m-12.276.064c.373 0 .771-.065 1.081-.127.311-.062.642-.195.891-.382.249-.186.45-.389.636-.7.124-.311.254-.71.254-1.145 0-.87-.266-1.537-.763-1.972-.497-.373-1.227-.573-2.035-.573h-4.198v4.898m20.417-6.742c-.435-.435-1.164-.7-1.972-.7-.559 0-1.026.131-1.399.318-.373.186-.642.451-.89.7-.249.249-.383.58-.445.89-.062.311-.127.578-.127.827h5.724c-.124-.933-.455-1.6-.89-2.035m-16.474-.763c.684 0 1.282-.198 1.717-.509.435-.311.636-.906.636-1.59 0-.373-.067-.769-.191-1.018-.124-.249-.324-.45-.573-.636-.249-.124-.516-.256-.827-.318-.311-.062-.645-.064-1.018-.064h-3.689v4.134m14.82-5.915h7.124v1.717h-7.124v-1.717"/></svg>