<svg viewBox="0 0 40 40" xmlns="http://www.w3.org/2000/svg" fill-rule="evenodd" stroke-linejoin="round" clip-rule="evenodd" stroke-miterlimit="1.41421"><path d="m27.6 40h-15.2c-2.592 0-4.48-.013-6.32-.798-2.371-1.011-4.271-2.912-5.282-5.282-.785-1.84-.798-3.729-.798-6.32v-15.2c0-2.592.013-4.48.798-6.32 1.011-2.371 2.912-4.271 5.282-5.282 1.84-.785 3.729-.798 6.32-.798h15.2c2.592 0 4.48.013 6.32.798 2.371 1.011 4.271 2.912 5.282 5.282.785 1.84.798 3.729.798 6.32v15.2c0 2.592-.013 4.48-.798 6.32-1.011 2.371-2.912 4.271-5.282 5.282-1.84.785-3.729.798-6.32.798m-17.5-10.1c2.534 2.534 6.03 4.101 9.899 4.101 7.732 0 14-6.268 14-14 0-3.866-1.567-7.366-4.101-9.899l3.757-3.757c-.718-.718-1.573-1.301-2.521-1.705-1.472-.628-2.983-.638-5.056-.638h-12.16c-2.073 0-3.584.01-5.056.638-1.896.809-3.417 2.329-4.226 4.226-.628 1.472-.638 2.983-.638 5.056v12.16c0 2.073.01 3.584.638 5.056.404.948.987 1.802 1.705 2.521l3.757-3.757m19.799-19.799l-19.799 19.799.587-3.677-3.622-.865 1.95-3.173-3.02-2.185 3.02-2.185-1.95-3.173 3.622-.865-.587-3.677 3.677.587.865-3.622 3.173 1.95 2.185-3.02 2.185 3.02 3.173-1.95.865 3.622 3.677-.587"/></svg>