<svg viewBox="0 0 40 40" xmlns="http://www.w3.org/2000/svg" fill-rule="evenodd" stroke-linejoin="round" clip-rule="evenodd" stroke-miterlimit="1.41421"><path d="m16 40h-3.6c-2.592 0-4.48-.013-6.32-.798-2.371-1.011-4.271-2.912-5.282-5.282-.785-1.84-.798-3.729-.798-6.32v-15.2c0-2.592.013-4.48.798-6.32 1.011-2.371 2.912-4.271 5.282-5.282 1.84-.785 3.729-.798 6.32-.798h15.2c2.592 0 4.48.013 6.32.798 2.371 1.011 4.271 2.912 5.282 5.282.785 1.84.798 3.729.798 6.32v15.2c0 2.592-.013 4.48-.798 6.32-1.011 2.371-2.912 4.271-5.282 5.282-1.84.785-3.729.798-6.32.798h-3.6c.002-3.739 0-8.722 0-9.327 0-1.866-.482-2.712-1.2-3.33 4.454-.495 8.608-1.19 8.608-8.871 0-2.182-.567-3.426-1.849-4.824.206-.506.912-2-.179-4.758 0 0-1.122-.744-4.939 1.843-1.597-.443-2.803-.597-4.501-.605-1.7.007-2.906.162-4.501.605-3.82-2.587-4.944-1.843-4.944-1.843-1.087 2.753-.382 4.252-.175 4.758-1.279 1.398-1.851 2.642-1.851 4.824 0 7.661 4.091 8.381 8.531 8.886-.572.499-.818.896-1 2.188-1.139.511-3.932 1.776-5.715-1.279 0 0-.747-1.711-2.754-1.853 0 0-1.939-.147-.124 1.094 0 0 1.087.32 1.996 2.629 0 0 1.034 3.536 6.596 2.328.001.222-.001 4.61 0 7.535" fill="#181717"/></svg>