<svg viewBox="0 0 40 40" xmlns="http://www.w3.org/2000/svg" fill-rule="evenodd" stroke-linejoin="round" clip-rule="evenodd" stroke-miterlimit="1.41421"><path d="m27.6 40h-15.2c-2.592 0-4.48-.013-6.32-.798-2.371-1.01-4.271-2.912-5.282-5.282-.785-1.84-.798-3.729-.798-6.32v-15.2c0-2.592.013-4.48.798-6.32 1.01-2.371 2.912-4.271 5.282-5.282 1.84-.785 3.729-.798 6.32-.798h15.2c2.592 0 4.48.013 6.32.798 2.371 1.01 4.271 2.912 5.282 5.282.785 1.84.798 3.729.798 6.32v15.2c0 2.592-.013 4.48-.798 6.32-1.01 2.371-2.912 4.271-5.282 5.282-1.84.785-3.729.798-6.32.798m-13.46-5.6c-5.6 0-8.14-3.12-8.14-6.04 0-.9.28-3.18 3-4.76 1.5-.94 3.66-1.6 6.24-1.82-.38-.5-.68-1.1-.68-1.98 0-.3.04-.62.12-.92h-.78c-3.9 0-6.3-3.1-6.3-6.1 0-3.46 2.58-7.18 8.22-7.18h8.44l-2.1 2.1-.16.12h-1.4c.82.84 1.8 2.18 1.8 4.32 0 2.8-1.48 4.18-3.12 5.46-.28.24-.84.76-.84 1.4 0 .64.48 1 .78 1.28.26.22.58.44.94.72 1.62 1.1 3.84 2.66 3.84 5.72 0 3.54-2.58 7.68-9.86 7.68m3-10.78c-.22-.02-.38-.02-.64-.02h-.04c-.52 0-2.3.1-3.64.54-1.28.48-2.82 1.44-2.82 3.4 0 2.16 2.08 4.46 5.92 4.46 3.08 0 4.88-2 4.88-4 0-1.5-.92-2.42-3.66-4.38m16.86-3.62h-4v4h-2v-4h-4v-2h4v-4h2v4h4v2m-15.6-6.26c0-2.04-1.26-6.04-4.16-6.04-1.24 0-2.64.88-2.64 3.3 0 2.4 1.24 5.9 3.94 5.9.12 0 2.86-.02 2.86-3.16"/></svg>