<svg viewBox="0 0 40 40" xmlns="http://www.w3.org/2000/svg" fill-rule="evenodd" stroke-linejoin="round" clip-rule="evenodd" stroke-miterlimit="1.41421"><path d="m0 27.6v-15.2c0-2.592.013-4.48.798-6.32 1.011-2.371 2.912-4.271 5.282-5.282 1.84-.785 3.729-.798 6.32-.798h15.2c2.592 0 4.48.013 6.32.798 2.371 1.011 4.271 2.912 5.282 5.282.785 1.84.798 3.729.798 6.32v15.2c0 2.592-.013 4.48-.798 6.32-1.011 2.371-2.912 4.271-5.282 5.282-1.84.785-3.729.798-6.32.798h-15.2c-2.592 0-4.48-.013-6.32-.798-2.371-1.011-4.271-2.912-5.282-5.282-.785-1.84-.798-3.729-.798-6.32m20 6.4v-8h12v-12h-12v-8l-14 14 14 14"/></svg>