<svg viewBox="0 0 40 40" xmlns="http://www.w3.org/2000/svg" fill-rule="evenodd" stroke-linejoin="round" clip-rule="evenodd" stroke-miterlimit="1.41421"><path d="m27.6 40h-15.2c-2.592 0-4.48-.013-6.32-.798-2.371-1.01-4.271-2.912-5.282-5.282-.785-1.84-.798-3.729-.798-6.32v-15.2c0-2.592.013-4.48.798-6.32 1.01-2.371 2.912-4.271 5.282-5.282 1.84-.785 3.729-.798 6.32-.798h15.2c2.592 0 4.48.013 6.32.798 2.371 1.01 4.271 2.912 5.282 5.282.785 1.84.798 3.729.798 6.32v15.2c0 2.592-.013 4.48-.798 6.32-1.01 2.371-2.912 4.271-5.282 5.282-1.84.785-3.729.798-6.32.798m.4-22h-6v7.8c0 1.46.28 2.2 2.2 2.2h3.8v6c0 0-2.06.2-4.2.2-5.3 0-7.8-3.2-7.8-6.8v-9.4h-4v-5.6c4.82-.4 5.24-4.08 5.6-6.4h4.4v6h6v6"/></svg>