<svg viewBox="0 0 40 40" xmlns="http://www.w3.org/2000/svg" fill-rule="evenodd" stroke-linejoin="round" clip-rule="evenodd" stroke-miterlimit="1.41421"><path d="m27.6 40h-15.2c-2.592 0-4.48-.013-6.32-.798-2.371-1.011-4.271-2.912-5.282-5.282-.785-1.84-.798-3.729-.798-6.32v-15.2c0-2.592.013-4.48.798-6.32 1.011-2.371 2.912-4.271 5.282-5.282 1.84-.785 3.729-.798 6.32-.798h15.2c2.592 0 4.48.013 6.32.798 2.371 1.011 4.271 2.912 5.282 5.282.785 1.84.798 3.729.798 6.32v15.2c0 2.592-.013 4.48-.798 6.32-1.011 2.371-2.912 4.271-5.282 5.282-1.84.785-3.729.798-6.32.798m4.621-25.764c-.14 9.24-7.183 16.788-16 17.188-3.64.16-6.918-1.189-9.218-2.649 2.68.42 6.6-.806 8.4-2.326-2.64-.28-4.559-1.909-5.299-4.049.76.12 1.735.075 2.455-.065-2.38-.8-4.4-2.692-4.48-5.772.66.32 1.535.651 2.455.711-1.78-1.02-3.202-5.271-1.702-7.711 2.64 2.9 6.669 5.689 11.889 6.01-1.32-5.6 6.808-9.02 9.908-5.277 1.32-.24 2.643-.818 3.683-1.378-.42 1.28-1.412 2.446-2.412 3.166 1.08-.14 2.282-.463 3.102-.883-.5 1.06-1.819 2.237-2.779 3.037"/></svg>