<?xml version="1.0" standalone="no"?>
<!DOCTYPE svg PUBLIC "-//W3C//DTD SVG 1.1//EN" "http://www.w3.org/Graphics/SVG/1.1/DTD/svg11.dtd" >
<svg xmlns="http://www.w3.org/2000/svg" xmlns:xlink="http://www.w3.org/1999/xlink" version="1.1">
<metadata></metadata>
<defs>
<font id="gidolelight" horiz-adv-x="470" vert-adv-y="1000" >
<font-face units-per-em="1000" ascent="760" descent="-240" />
<missing-glyph horiz-adv-x="280" />
<glyph horiz-adv-x="1000" vert-adv-y="0" />
<glyph horiz-adv-x="1000" vert-adv-y="0" />
<glyph unicode="&#xd;" horiz-adv-x="1000" vert-adv-y="0" />
<glyph unicode=" "  horiz-adv-x="280" />
<glyph unicode="&#x09;" horiz-adv-x="280" />
<glyph unicode="&#xa0;" horiz-adv-x="280" />
<glyph unicode="!" horiz-adv-x="240" vert-adv-y="0" d="M79 45q0 19 11 30t30 11t30 -11t11 -30t-11 -30t-30 -11t-30 11t-11 30zM136 190h-34l-10 233v234h54v-234z" />
<glyph unicode="&#x22;" horiz-adv-x="292" d="M195 456l-5 191h51l-4 -191h-42zM55 456l-5 191h51l-4 -191h-42z" />
<glyph unicode="#" horiz-adv-x="570" vert-adv-y="0" d="M188 467l35 190h39l-36 -190h162l40 190h44l-40 -190h83v-37h-91l-40 -193h96v-37h-104l-40 -200h-44l40 190h-155l-35 -190h-44l40 198h-83v39h91l35 193h-91v37h98zM340 237l40 193h-160l-36 -193h156z" />
<glyph unicode="$" horiz-adv-x="449" vert-adv-y="0" d="M250 641v67h34v-67h10q47 0 100 -72l-35 -28q-26 52 -65 52h-10v-230l8 -2q52 -20 82 -63t16 -103q0 -40 -18 -77t-49.5 -62t-69.5 -30l-9 -1v-66h-34v66l-9 1q-91 8 -145 76l34 28q42 -50 109 -57l11 -1l40 250l-11 1q-97 18 -142 55.5t-45 102.5q0 45 22 79t63.5 54.5 t99.5 25.5zM250 588l-17 -2q-61 -8 -96 -36t-35 -73q0 -38 35 -64t94 -40l19 -4v219zM244 79l12 2q40 9 62.5 41.5t22.5 76.5q10 26 5 48.5t-17.5 38t-31.5 24.5l-13 5z" />
<glyph unicode="%" horiz-adv-x="672" vert-adv-y="0" d="M236 545q0 37 -19.5 57.5t-45.5 20.5q-27 0 -48 -20.5t-21 -57.5v-47q0 -37 21 -57.5t48 -20.5q26 0 45.5 20.5t19.5 57.5v47zM60 543q0 59 32.5 89.5t78.5 30.5q43 0 74 -30.5t31 -89.5v-43q0 -59 -31 -89.5t-74 -30.5q-46 0 -78.5 30.5t-32.5 89.5v43zM143 0l330 647 h50l-329 -647h-51zM570 169q0 37 -21 57.5t-48 20.5q-17 0 -31.5 -8.5t-24 -26.5t-9.5 -43v-47q0 -37 19.5 -57.5t45.5 -20.5q27 0 48 20.5t21 57.5v47zM396 167q0 59 31 89.5t74 30.5q46 0 78.5 -30.5t32.5 -89.5v-43q0 -59 -32.5 -89.5t-78.5 -30.5q-43 0 -74 30.5 t-31 89.5v43z" />
<glyph unicode="&#x26;" horiz-adv-x="562" d="M369 124l2 3v193h-132q-55 0 -92 -40.5t-37 -93.5q0 -34 16.5 -65.5t46.5 -51t66 -19.5q78 0 130 74zM119 490q0 -49 35 -86.5t85 -37.5h132v95h44v-95h92v-46h-92v-188q0 -24 9 -41t24 -25t29 -11t30 -3v-52q-18 0 -29.5 1t-29 5.5t-32 16t-24.5 29.5l-8 12l-8 -11 q-23 -34 -61.5 -46.5t-75.5 -12.5q-78 0 -128.5 55.5t-50.5 131.5q0 33 10.5 63.5t29 54t41.5 35.5l15 9l-15 9q-31 19 -51.5 56.5t-20.5 81.5q0 70 48 121.5t122 51.5q16 0 26 -0.5t28 -4.5t33 -12t33.5 -23t35.5 -37l-36 -29q-20 26 -45.5 40.5t-41 17t-33.5 2.5 q-50 0 -85 -39t-35 -88z" />
<glyph unicode="'" horiz-adv-x="152" d="M55 456l-5 191h51l-4 -191h-42z" />
<glyph unicode="(" horiz-adv-x="285" d="M255 -153v-38q-73 4 -124 56t-51 148v579q0 96 51 148.5t124 56.5v-38q-57 -4 -95 -48t-38 -119v-579q0 -38 12 -69t31.5 -51t42.5 -32t47 -14z" />
<glyph unicode=")" horiz-adv-x="285" d="M205 13q0 -39 -10 -72.5t-26.5 -56.5t-39 -40t-47.5 -25t-52 -10v38q35 3 64.5 22t49 56.5t19.5 87.5v579q0 74 -39.5 118t-93.5 49v38q34 -2 65 -15.5t56 -37.5t39.5 -63.5t14.5 -88.5v-579z" />
<glyph unicode="*" horiz-adv-x="332" vert-adv-y="0" d="M151 551l-3 96h31l-3 -95l91 32l10 -30l-93 -26l59 -76l-25 -19l-55 79l-54 -79l-25 18l58 77l-92 27l10 30z" />
<glyph unicode="+" horiz-adv-x="480" d="M80 233v36h144v152h32v-152h144v-36h-144v-152h-32v152h-144z" />
<glyph unicode="," horiz-adv-x="182" d="M50 55q0 20 12 30.5t29 10.5t29 -10.5t12 -30.5q0 -17 -8 -42l-43 -134h-25l28 135l-9 2q-25 9 -25 39z" />
<glyph unicode="-" horiz-adv-x="350" d="M80 238v46h190v-46h-190z" />
<glyph unicode="." horiz-adv-x="182" vert-adv-y="0" d="M50 55q0 19 11 30t30 11t30 -11t11 -30t-11 -30t-30 -11t-30 11t-11 30z" />
<glyph unicode="/" horiz-adv-x="302" vert-adv-y="0" d="M245 797h41l-235 -927h-41z" />
<glyph unicode="0" horiz-adv-x="480" d="M415 473v-279q0 -97 -52 -143.5t-123 -46.5t-123 46.5t-52 143.5v279q0 97 52 143.5t123 46.5t123 -46.5t52 -143.5zM119 473v-279q0 -71 36.5 -105.5t84.5 -34.5t84.5 34.5t36.5 105.5v279q0 71 -36.5 105.5t-84.5 34.5t-84.5 -34.5t-36.5 -105.5z" />
<glyph unicode="1" horiz-adv-x="301" d="M55 594l106 53h52v-647h-54v589l-80 -42z" />
<glyph unicode="2" horiz-adv-x="475" d="M332 480q0 54 -28.5 88.5t-79.5 34.5q-71 0 -129 -46l-31 40q65 56 160 56q50 0 87 -23t56 -62t19 -88q0 -37 -11.5 -71.5t-49.5 -83.5l-191 -275h281v-50h-355v37l231 321q41 61 41 122z" />
<glyph unicode="3" horiz-adv-x="471" vert-adv-y="0" d="M392 186q0 -79 -47.5 -130.5t-126.5 -51.5q-40 0 -87 14.5t-80 43.5l34 37q54 -45 133 -45q55 0 87.5 37.5t32.5 94.5q0 54 -29.5 93t-90.5 39h-49v50h49q49 0 80 34.5t31 87.5q0 26 -8 48.5t-22 39t-35 26t-46 9.5q-68 0 -126 -46l-31 40q65 56 157 56q50 0 88 -23 t57.5 -62t19.5 -88q0 -46 -20 -81.5t-53 -56.5l-13 -8l14 -9q36 -21 58.5 -60t22.5 -89z" />
<glyph unicode="4" horiz-adv-x="490" d="M60 213l187 444h46l-176 -434h211v170h50v-170h57v-48h-57v-175h-50v175h-268v38z" />
<glyph unicode="5" horiz-adv-x="472" d="M403 205q0 -105 -47.5 -153t-123.5 -48q-42 0 -89 14.5t-81 43.5l34 37q54 -45 136 -45q53 0 85 36.5t32 114.5q0 68 -32.5 102.5t-84.5 34.5q-47 0 -92 -26l-57 25v316h279v-50h-227v-245l15 8q39 22 82 22q74 0 122.5 -46.5t48.5 -140.5z" />
<glyph unicode="6" d="M235 54q53 0 87 36.5t34 114.5t-34 114.5t-87 36.5t-87 -36.5t-34 -114.5t34 -114.5t87 -36.5zM163 387l24 10q19 9 48 9q77 0 126 -48.5t49 -152.5t-49 -152.5t-126 -48.5t-126 48.5t-49 152.5q0 48 11.5 89t48.5 115l114 248h47z" />
<glyph unicode="7" horiz-adv-x="465" d="M55 597v50h350v-38l-239 -609h-57l233 597h-287z" />
<glyph unicode="8" d="M358 186q0 54 -30.5 94t-92.5 40t-92.5 -40t-30.5 -94q0 -58 33.5 -96t89.5 -38t89.5 38t33.5 96zM349 490q0 54 -31 89.5t-83 35.5t-83 -35.5t-31 -89.5t31.5 -89t82.5 -35t82.5 35t31.5 89zM69 490q0 76 44.5 124.5t121.5 48.5t121.5 -48.5t44.5 -124.5 q0 -46 -20 -81.5t-52 -56.5l-14 -8l14 -9q36 -21 58.5 -60t22.5 -89q0 -79 -47.5 -130.5t-127.5 -51.5t-127.5 51.5t-47.5 130.5q0 50 22.5 89t58.5 60l14 9l-14 8q-21 14 -36.5 33t-25.5 46.5t-10 58.5z" />
<glyph unicode="9" d="M236 613q-55 0 -88.5 -36.5t-33.5 -114.5t33.5 -114.5t88.5 -36.5t87.5 36.5t32.5 114.5t-32.5 114.5t-87.5 36.5zM311 280l-23 -10q-10 -4 -23.5 -6.5t-28.5 -2.5q-78 0 -127 48t-49 153t49 153t127 48q77 0 125.5 -48t48.5 -153q0 -48 -11.5 -89t-47.5 -115l-114 -258 h-51z" />
<glyph unicode=":" horiz-adv-x="182" vert-adv-y="0" d="M50 45q0 19 11 30t30 11t30 -11t11 -30t-11 -30t-30 -11t-30 11t-11 30zM50 334q0 19 11 30t30 11t30 -11t11 -30t-11 -30t-30 -11t-30 11t-11 30z" />
<glyph unicode=";" horiz-adv-x="182" vert-adv-y="0" d="M50 35q0 20 12 30.5t29 10.5t29 -10.5t12 -30.5q0 -17 -8 -42l-43 -114h-25l28 115l-9 2q-25 9 -25 39zM50 334q0 19 11 30t29 11q19 0 30 -11t11 -30t-11 -30t-30 -11q-18 0 -29 11t-11 30z" />
<glyph unicode="&#x3c;" horiz-adv-x="480" d="M80 278l320 160v-44l-303 -143l303 -153v-43l-320 169v54z" />
<glyph unicode="=" horiz-adv-x="480" d="M80 300v36h320v-36h-320zM80 166v36h320v-36h-320z" />
<glyph unicode="&#x3e;" horiz-adv-x="480" d="M80 438l320 -160v-54l-320 -169v43l303 153l-303 143v44z" />
<glyph unicode="?" horiz-adv-x="428" vert-adv-y="0" d="M39 607q25 21 57 34.5t55.5 17.5t45.5 4q74 0 123 -47t49 -126q0 -96 -79 -146q-39 -25 -55.5 -51t-17.5 -67l-2 -36h-33v47q0 91 70 142q63 39 63 111q0 57 -33 90t-85 33q-69 0 -126 -46zM167 45q0 19 9 30t24 11t24.5 -11t9.5 -30q0 -7 -1.5 -13.5t-4.5 -11.5t-7 -8.5 t-9.5 -5.5t-11.5 -2q-15 0 -24 11t-9 30z" />
<glyph unicode="@" horiz-adv-x="824" vert-adv-y="0" d="M334 608v46h63q84 0 147 -19t110 -60t71 -111t24 -168v-268q0 -113 -61.5 -165.5t-161.5 -52.5h-232q-46 0 -84 12t-69 37.5t-48.5 69.5t-17.5 102v220q0 58 17.5 102t49 69.5t70.5 37.5t85 12h109q34 0 62 -10t50 -31.5t34 -58.5t12 -86l-3 -286h-48v69l-16 -18 q-16 -18 -31.5 -30t-38 -19.5t-49.5 -7.5q-59 0 -98.5 40t-39.5 104q1 146 193 146q18 0 38 -1t36 -4l11 -2v12q0 46 -14.5 78t-39 46.5t-58.5 14.5h-109q-73 0 -120.5 -44t-47.5 -133v-220q0 -89 46 -131t119 -42h232q77 0 126 41.5t49 128.5v268q0 165 -77.5 238.5 t-226.5 73.5h-63zM441 243q-156 0 -156 -100q0 -42 28 -68t73 -26q51 0 89 38t38 107v44l-3 1q-34 4 -69 4z" />
<glyph unicode="A" horiz-adv-x="569" d="M35 0l222 667h48l221 -667h-54l-54 165h-274l-54 -165h-55zM402 225l-121 377l-123 -377h244z" />
<glyph unicode="B" horiz-adv-x="510" vert-adv-y="0" d="M401 189q0 52 -33 91t-88 39h-141v-260h141q55 0 88 36t33 94zM85 667h195q70 0 113 -49t43 -126q0 -92 -72 -139l-14 -9l14 -9q39 -24 65 -62.5t26 -87.5q0 -81 -47 -133t-128 -52h-195v667zM382 487q0 52 -29 86.5t-73 34.5h-141v-241h141q44 0 73 33.5t29 86.5z" />
<glyph unicode="C" horiz-adv-x="521" vert-adv-y="0" d="M280 613q-161 0 -161 -160v-239q0 -160 161 -160q88 0 141 45l35 -37q-35 -30 -82 -44t-94 -14q-44 0 -80 10t-67.5 33t-49.5 65.5t-18 101.5v239q0 114 60.5 162t154.5 48q101 0 166 -56l-31 -40q-58 46 -135 46z" />
<glyph unicode="D" horiz-adv-x="550" vert-adv-y="0" d="M290 667q90 0 137.5 -53t47.5 -151v-258q0 -99 -47 -152t-138 -53h-205v667h205zM290 60q131 0 131 149v250q0 148 -131 148h-151v-547h151z" />
<glyph unicode="E" vert-adv-y="0" d="M85 0v667h319v-52h-267v-247h217v-50h-215v-266h266v-52h-320z" />
<glyph unicode="F" horiz-adv-x="464" vert-adv-y="0" d="M85 0v667h319v-52h-265v-247h215v-50h-215v-318h-54z" />
<glyph unicode="G" horiz-adv-x="540" vert-adv-y="0" d="M396 567q-53 46 -125 46q-30 0 -55 -7t-48 -24t-36 -50t-13 -79v-239q0 -46 13 -79t36 -50t48 -24t55 -7t54.5 7t47.5 24t35.5 50t12.5 79v83h-129v50h183v-133q0 -59 -17 -102t-47.5 -65.5t-64.5 -32.5t-75 -10t-75.5 10t-65 32.5t-48 65.5t-17.5 102v239q0 59 17.5 102 t48 65.5t65 32.5t75.5 10q94 0 155 -56z" />
<glyph unicode="H" horiz-adv-x="570" vert-adv-y="0" d="M85 0v667h54v-299h292v299h54v-667h-54v318h-292v-318h-54z" />
<glyph unicode="I" horiz-adv-x="224" vert-adv-y="0" d="M85 667h54v-667h-54v667z" />
<glyph unicode="J" horiz-adv-x="451" vert-adv-y="0" d="M319 224v443h54v-443q0 -35 -5 -64t-13.5 -50.5t-21 -38t-27 -27t-31.5 -17.5t-34.5 -10t-36.5 -3q-37 0 -79 15t-70 56l40 32q42 -53 109 -53q22 0 40.5 6.5t36.5 22.5t28 49t10 82z" />
<glyph unicode="K" horiz-adv-x="544" vert-adv-y="0" d="M139 230v-230h-54v667h54v-361l276 361h60l-237 -308l251 -359h-62l-221 313z" />
<glyph unicode="L" horiz-adv-x="480" vert-adv-y="0" d="M85 0v667h54v-615h286v-52h-340z" />
<glyph unicode="M" horiz-adv-x="701" vert-adv-y="0" d="M85 0v667h49l216 -436l216 436h50v-667h-54v544l-187 -379h-50l-186 377v-542h-54z" />
<glyph unicode="N" horiz-adv-x="570" vert-adv-y="0" d="M85 0v667h49l297 -547v547h54v-667h-49l-297 547v-547h-54z" />
<glyph unicode="O" horiz-adv-x="560" vert-adv-y="0" d="M495 453v-239q0 -59 -18.5 -101.5t-50.5 -65.5t-68 -33t-78 -10t-78 10t-68 33t-50.5 65.5t-18.5 101.5v239q0 59 18.5 101.5t50.5 65.5t68 33t78 10t78 -10t68 -33t50.5 -65.5t18.5 -101.5zM119 453v-239q0 -46 14 -79t38.5 -50t51 -24t57.5 -7t57.5 7t51 24t38.5 50 t14 79v239q0 46 -14 79t-38.5 50t-51 24t-57.5 7t-57.5 -7t-51 -24t-38.5 -50t-14 -79z" />
<glyph unicode="P" horiz-adv-x="492" vert-adv-y="0" d="M139 317h123q53 0 87 36.5t34 108.5t-34 108.5t-87 36.5h-123v-290zM85 667h177q76 0 125.5 -49.5t49.5 -150.5t-49.5 -150.5t-125.5 -49.5h-124v-267h-53v667z" />
<glyph unicode="Q" horiz-adv-x="560" vert-adv-y="0" d="M119 453v-239q0 -46 14 -79t38 -50t51 -24t59 -7t58.5 7t50.5 24t37.5 50t13.5 79v239q0 46 -13.5 79t-37.5 50t-50.5 24t-58.5 7t-59 -7t-51 -24t-38 -50t-14 -79zM413 28l-13 -9l100 -68l-26 -42l-131 90h-4q-32 -5 -58 -5q-44 0 -80 10t-68 33t-50 65.5t-18 101.5v239 q0 59 18 101.5t50 65.5t68 33t79.5 10t79.5 -10t67.5 -33t49.5 -65.5t18 -101.5v-239q0 -124 -82 -176z" />
<glyph unicode="R" horiz-adv-x="522" vert-adv-y="0" d="M85 667h178q84 0 134 -49.5t50 -151.5q0 -137 -96 -183l-9 -4l110 -279h-56l-101 269l-7 -1q-8 -1 -25 -1h-125v-267h-53v667zM139 317h124q61 0 95.5 36t34.5 109t-34.5 109t-95.5 36h-124v-290z" />
<glyph unicode="S" horiz-adv-x="501" vert-adv-y="0" d="M424 186q0 -85 -52.5 -133.5t-139.5 -48.5q-42 0 -93 15t-84 43l35 37q55 -45 142 -45q61 0 99.5 34.5t38.5 97.5q0 33 -12.5 58t-34.5 39.5t-43.5 22.5t-49.5 13q-177 33 -177 169q0 59 26.5 99.5t66.5 58t89 17.5q37 0 83.5 -13.5t81.5 -42.5l-31 -40 q-35 27 -69.5 36.5t-64.5 9.5q-54 0 -91 -31t-37 -94q0 -30 11.5 -52t32.5 -35t41 -20.5t47 -13.5q39 -8 68 -19.5t57.5 -31.5t44 -53t15.5 -77z" />
<glyph unicode="T" horiz-adv-x="520" vert-adv-y="0" d="M55 615v52h410v-52h-181l-7 -615h-54l13 615h-181z" />
<glyph unicode="U" horiz-adv-x="540" vert-adv-y="0" d="M129 667v-443q0 -88 40 -124t101 -36t101 36t40 124v443h54v-443q0 -59 -16.5 -102t-45.5 -65.5t-61.5 -32.5t-71.5 -10t-71.5 10t-61.5 32.5t-45.5 65.5t-16.5 102v443h54z" />
<glyph unicode="V" horiz-adv-x="569" d="M257 0l-222 667h56l190 -582l190 582h55l-221 -667h-48z" />
<glyph unicode="W" horiz-adv-x="762" vert-adv-y="0" d="M213 0l-178 667h54l149 -592l117 427h48l116 -426l148 591h54l-178 -667h-50l-114 415l-115 -415h-51z" />
<glyph unicode="X" horiz-adv-x="527" vert-adv-y="0" d="M224 334l-178 333h60l151 -286l153 286h57l-177 -333l177 -334h-58l-152 287l-154 -287h-58z" />
<glyph unicode="Y" horiz-adv-x="501" vert-adv-y="0" d="M218 278l-183 389h59l150 -321l153 321h56l-184 -389v-278h-51v278z" />
<glyph unicode="Z" horiz-adv-x="500" vert-adv-y="0" d="M70 615v52h360v-38l-311 -577h321v-52h-380v38l309 577h-299z" />
<glyph unicode="[" horiz-adv-x="249" vert-adv-y="0" d="M85 -190v987h134v-37h-94v-913h94v-37h-134z" />
<glyph unicode="\" horiz-adv-x="302" vert-adv-y="0" d="M10 797h41l235 -927h-41z" />
<glyph unicode="]" horiz-adv-x="249" vert-adv-y="0" d="M30 797h134v-987h-134v37h94v913h-94v37z" />
<glyph unicode="^" horiz-adv-x="378" d="M256 546l-83 77l-82 -77h-41l109 101h29l109 -101h-41z" />
<glyph unicode="_" horiz-adv-x="400" vert-adv-y="0" d="M35 -46v46h330v-46h-330z" />
<glyph unicode="`" horiz-adv-x="232" d="M122 546l-72 101h52l63 -101h-43z" />
<glyph unicode="a" horiz-adv-x="461" vert-adv-y="0" d="M87 445q65 28 141 28q74 0 119.5 -44.5t45.5 -138.5v-280h-48v67l-17 -18q-26 -27 -55 -41t-71 -14q-63 0 -105 38.5t-42 100.5q0 141 201 141q46 0 77 -5l12 -2v12q0 69 -31.5 104.5t-85.5 35.5q-66 0 -124 -25zM264 243q-161 0 -161 -100q0 -42 29.5 -68t77.5 -26 q56 0 95.5 39.5t39.5 115.5v34l-9 1q-35 4 -72 4z" />
<glyph unicode="b" horiz-adv-x="480" vert-adv-y="0" d="M425 283v-69q0 -56 -15.5 -97t-41 -62.5t-52.5 -31t-56 -9.5q-78 0 -117 54l-18 23v-71h-50v647h50v-261l18 23q39 54 117 54q29 0 56 -9.5t52.5 -31t41 -62.5t15.5 -97zM251 427q-25 0 -46 -7.5t-39.5 -24.5t-29.5 -48.5t-11 -73.5v-69q0 -82 36.5 -118t89.5 -36 t88.5 36t35.5 118v69q0 25 -3.5 46t-10 36.5t-16 28t-20 20.5t-23.5 13t-25.5 7.5t-25.5 2.5z" />
<glyph unicode="c" horiz-adv-x="406" vert-adv-y="0" d="M115 204q0 -82 36.5 -118t89.5 -36q25 0 47.5 8.5t40.5 24.5l22 -42q-14 -12 -30 -20t-36.5 -12.5t-43.5 -4.5q-35 0 -64.5 10t-55.5 31.5t-41 62t-15 96.5v69q0 56 15 96.5t41 62t55.5 31.5t64.5 10q32 0 57 -8.5t44 -21.5l-22 -42q-37 26 -79 26q-25 0 -46 -7.5 t-39.5 -24.5t-29.5 -48.5t-11 -73.5v-69z" />
<glyph unicode="d" horiz-adv-x="480" vert-adv-y="0" d="M222 14q-29 0 -56 9.5t-53 31t-42 62.5t-16 97v69q0 56 16 97t42 62.5t53 31t56 9.5q73 0 115 -54l18 -23v261h50v-647h-50v71l-18 -23q-42 -54 -115 -54zM355 204v69q0 81 -37.5 117.5t-87.5 36.5t-87.5 -36.5t-37.5 -117.5v-69q0 -81 37.5 -117.5t87.5 -36.5t87.5 36.5 t37.5 117.5z" />
<glyph unicode="e" horiz-adv-x="456" vert-adv-y="0" d="M63 154q-5 28 -5 89q0 62 5 89q15 74 60.5 107.5t105.5 33.5q55 0 98 -29t61 -94q10 -35 10 -102q0 -6 -1 -20h-291v-14q0 -83 37.5 -124.5t96.5 -41.5q7 0 15 0.5t16 2t15.5 3t16 4.5t16 6.5t15.5 7.5t16 10l22 -40q-61 -38 -132 -38q-67 0 -114.5 36.5t-62.5 113.5z M106 282v-10h244v10q0 76 -36 111.5t-85 35.5t-85 -35t-38 -112z" />
<glyph unicode="f" horiz-adv-x="350" vert-adv-y="0" d="M45 436v41h80v70q0 59 32.5 89.5t77.5 30.5h70v-42h-70q-25 0 -42.5 -20.5t-17.5 -57.5v-70h110v-41h-110v-416h-50v416h-80z" />
<glyph unicode="g" horiz-adv-x="480" vert-adv-y="0" d="M355 71l-18 -23q-42 -54 -115 -54q-29 0 -56 9.5t-53 31t-42 62.5t-16 97v69q0 56 16 97t42 62.5t53 31t56 9.5q73 0 115 -54l18 -23v71h50v-467q0 -73 -52.5 -126.5t-131.5 -53.5q-74 0 -139 38l23 41q53 -33 116 -33q56 0 95 39.5t39 94.5v81zM355 204v69 q0 81 -37.5 117.5t-87.5 36.5t-87.5 -36.5t-37.5 -117.5v-69q0 -81 37.5 -117.5t87.5 -36.5t87.5 36.5t37.5 117.5z" />
<glyph unicode="h" horiz-adv-x="478" vert-adv-y="0" d="M125 283v-263h-50v647h50v-258l18 23q10 13 23 23t27 16t29 9t31 3q29 0 55.5 -9.5t51.5 -31t40 -62.5t15 -97v-263h-50v263q0 81 -35 117.5t-85 36.5t-85 -36.5t-35 -117.5z" />
<glyph unicode="i" horiz-adv-x="212" vert-adv-y="0" d="M81 10v457h50v-457h-50zM69 607q0 17 10 27t26 10q17 0 27.5 -10t10.5 -27t-10.5 -27t-27.5 -10q-16 0 -26 10t-10 27z" />
<glyph unicode="j" horiz-adv-x="211" vert-adv-y="0" d="M130 457v-522q0 -59 -32.5 -89.5t-77.5 -30.5h-20v42h20q25 0 42.5 20t17.5 58v522h50zM68 607q0 17 10 27t27 10t27 -10t10 -27t-10 -27t-27 -10t-27 10t-10 27z" />
<glyph unicode="k" horiz-adv-x="429" vert-adv-y="0" d="M75 20v647h50v-459l182 269h57l-144 -207l160 -250h-57l-132 219l-66 -89v-130h-50z" />
<glyph unicode="l" horiz-adv-x="200" vert-adv-y="0" d="M75 20v647h50v-647h-50z" />
<glyph unicode="m" horiz-adv-x="710" vert-adv-y="0" d="M75 467h50v-67l18 22q39 51 97 51q32 0 61.5 -17t49.5 -53l9 -15l9 15q42 70 131 70q24 0 47 -8.5t46.5 -27.5t37.5 -57.5t14 -91.5v-278h-50v279q0 40 -9.5 68.5t-25.5 43t-33 20.5t-36 6t-36 -6t-34 -20.5t-26.5 -43t-9.5 -69.5v-278h-50v279q0 40 -9.5 68.5t-25.5 43 t-33 20.5t-36 6t-36 -6t-34 -20.5t-26.5 -43t-9.5 -69.5v-278h-50v457z" />
<glyph unicode="n" horiz-adv-x="478" vert-adv-y="0" d="M75 10v457h50v-68l18 23q37 51 112 51q29 0 55.5 -9.5t51 -31t39 -62.5t14.5 -97v-263h-50v263q0 82 -33.5 118t-85.5 36t-86.5 -36t-34.5 -118v-263h-50z" />
<glyph unicode="o" horiz-adv-x="460" vert-adv-y="0" d="M405 273v-69q0 -45 -10 -80t-26.5 -57.5t-39.5 -37t-47 -20t-51 -5.5q-35 0 -64.5 10t-55.5 31.5t-41 62t-15 96.5v69q0 56 15 96.5t41 62t55.5 31.5t64 10t64 -10t55 -31.5t40.5 -62t15 -96.5zM105 273v-69q0 -82 36.5 -118t89.5 -36t88.5 36t35.5 118v69q0 43 -10.5 74 t-29 48t-39.5 24.5t-45 7.5q-53 0 -89.5 -36t-36.5 -118z" />
<glyph unicode="p" horiz-adv-x="480" vert-adv-y="0" d="M143 48l-18 23v-261h-50v647h50v-71l18 23q42 54 115 54q29 0 56 -9.5t53 -31t42 -62.5t16 -97v-69q0 -45 -11 -81t-27.5 -57.5t-39.5 -36t-44.5 -20t-44.5 -5.5q-73 0 -115 54zM250 427q-50 0 -87.5 -36.5t-37.5 -117.5v-69q0 -81 37.5 -117.5t87.5 -36.5t87.5 36.5 t37.5 117.5v69q0 81 -37.5 117.5t-87.5 36.5z" />
<glyph unicode="q" horiz-adv-x="480" vert-adv-y="0" d="M355 71l-18 -23q-42 -54 -115 -54q-29 0 -56 9.5t-53 31t-42 62.5t-16 97v69q0 56 16 97t42 62.5t53 31t56 9.5q73 0 115 -54l18 -23v71h50v-647h-50v261zM355 204v69q0 81 -37.5 117.5t-87.5 36.5t-87.5 -36.5t-37.5 -117.5v-69q0 -81 37.5 -117.5t87.5 -36.5t87.5 36.5 t37.5 117.5z" />
<glyph unicode="r" horiz-adv-x="358" vert-adv-y="0" d="M75 10v457h50v-68l18 23q41 51 122 51q23 0 47 -4l-7 -44q-23 2 -50 2q-57 0 -93.5 -36t-36.5 -118v-263h-50z" />
<glyph unicode="s" horiz-adv-x="397" vert-adv-y="0" d="M191 473q78 0 136 -31l-21 -41q-49 26 -115 26q-43 0 -70 -19.5t-27 -58.5q0 -15 5 -26.5t12.5 -19.5t21.5 -14t27.5 -9.5t34.5 -7.5q149 -27 149 -135q0 -45 -24 -76.5t-57.5 -44t-71.5 -12.5q-37 0 -78 10.5t-70 27.5l21 42q51 -34 127 -34q47 0 76.5 21.5t29.5 65.5 q0 41 -28.5 61t-81.5 30q-21 4 -37 8t-37 13t-34.5 21.5t-22.5 32.5t-9 46q0 43 23 72t54 40.5t67 11.5z" />
<glyph unicode="t" horiz-adv-x="350" vert-adv-y="0" d="M45 435v42h80v104h50v-104h110v-42h-110v-295q0 -35 17.5 -54.5t42.5 -19.5h70v-46h-70q-45 0 -77.5 30.5t-32.5 89.5v295h-80z" />
<glyph unicode="u" vert-adv-y="0" d="M235 50q48 0 84 36.5t36 117.5v263h50v-263q0 -56 -15 -96.5t-40.5 -62t-54 -31.5t-60.5 -10t-60.5 10t-54 31.5t-40.5 62t-15 96.5v263h50v-263q0 -81 36 -117.5t84 -36.5z" />
<glyph unicode="v" horiz-adv-x="467" d="M208 10l-173 457h52l142 -406l141 406h53l-173 -457h-42z" />
<glyph unicode="w" horiz-adv-x="690" d="M186 10l-151 457h50l123 -398l112 398h43l113 -398l121 398h50l-149 -457h-43l-114 417l-112 -417h-43z" />
<glyph unicode="x" horiz-adv-x="414" vert-adv-y="0" d="M175 238l-135 229h55l104 -201l106 201h53l-135 -229l135 -228h-55l-104 201l-106 -201h-53z" />
<glyph unicode="y" horiz-adv-x="490" vert-adv-y="0" d="M35 477h52l153 -427l153 427h52l-247 -662h-48l66 181z" />
<glyph unicode="z" horiz-adv-x="410" vert-adv-y="0" d="M55 421v46h300v-37l-242 -374h242v-46h-300v37l242 374h-242z" />
<glyph unicode="{" horiz-adv-x="304" vert-adv-y="0" d="M260 797h4v-36h-4q-41 0 -59.5 -27t-18.5 -80v-219q0 -79 -55 -117l-11 -8l11 -8q55 -41 55 -123v-230q0 -104 78 -104h4v-36h-4q-59 0 -89.5 32.5t-30.5 107.5v240q0 32 -10 56t-28 37t-42 14v31q80 4 80 97v230q0 77 30.5 110t89.5 33z" />
<glyph unicode="|" horiz-adv-x="212" vert-adv-y="0" d="M85 797h42v-982h-42v982z" />
<glyph unicode="}" horiz-adv-x="304" vert-adv-y="0" d="M40 761v36h4q59 0 89.5 -33t30.5 -110v-230q0 -20 4 -36t11 -27t17 -18.5t22 -11t26 -4.5v-31q-37 -2 -58.5 -30t-21.5 -77v-240q0 -75 -30.5 -107.5t-89.5 -32.5h-4v36h4q78 0 78 104v230q0 82 55 123l11 8l-11 8q-55 38 -55 117v219q0 53 -18.5 80t-59.5 27h-4z" />
<glyph unicode="~" horiz-adv-x="480" vert-adv-y="0" d="M165 269q-38 0 -76 -34l-23 34q51 46 101 46q43 0 78 -33q36 -33 66 -33q33 0 74 38l23 -34q-52 -49 -101 -49q-38 0 -78 36q-32 29 -64 29z" />
<glyph unicode="&#xa1;" horiz-adv-x="240" vert-adv-y="0" d="M79 437q0 19 11 30t30 11t30 -11t11 -30t-11 -30t-30 -11t-30 11t-11 30zM92 49l10 233h34l10 -233v-234h-54v234z" />
<glyph unicode="&#xa2;" horiz-adv-x="400" vert-adv-y="0" d="M200 463v80h30v-80l9 -1q68 -6 110 -37l-26 -38q-32 24 -82 28l-11 1v-376l11 1q52 5 87 34l28 -37q-44 -38 -117 -43l-9 -1v-80h-30v80l-7 1q-57 9 -100 60t-43 139v68q0 88 43 139.5t100 60.5zM200 427l-9 -2q-41 -9 -67 -48t-26 -104v-69q0 -65 25.5 -104t67.5 -48 l9 -2v377z" />
<glyph unicode="&#xa3;" horiz-adv-x="481" vert-adv-y="0" d="M122 343v104q0 57 14 100.5t37.5 67.5t50.5 36t56 12q74 0 137 -77l-41 -32q-48 59 -96 59q-43 0 -73.5 -41t-30.5 -125v-104h166v-41h-166v-250h236v-52h-352v52h62v250h-60v41h60z" />
<glyph unicode="&#xa5;" horiz-adv-x="511" vert-adv-y="0" d="M163 414l-123 243h57l152 -328l155 328h54l-123 -243h84v-36h-107l-40 -89h137v-36h-136l-7 -253h-54l12 253h-135v36h137l-41 89h-106v36h84z" />
<glyph unicode="&#xa6;" horiz-adv-x="212" vert-adv-y="0" d="M85 0v244h42v-244h-42zM85 414v243h42v-243h-42z" />
<glyph unicode="&#xa7;" horiz-adv-x="469" vert-adv-y="0" d="M65 541q0 58 48.5 90t112.5 32q91 0 156 -40l-27 -38q-19 11 -42 19t-44.5 11t-42.5 3q-49 0 -80 -20.5t-31 -56.5q0 -34 26 -51.5t90 -28.5q37 -6 65.5 -15.5t53 -25t38 -38.5t13.5 -54q0 -62 -42 -95l-11 -8l11 -8q42 -31 42 -87q0 -59 -47 -92.5t-129 -33.5 q-92 0 -159 45l30 37q54 -37 129 -37q64 0 95 21.5t31 59.5q0 36 -32 56.5t-97 31.5q-30 5 -52 11t-42.5 15.5t-33.5 22.5t-21 32.5t-8 43.5q0 63 44 93l11 8l-11 8q-44 32 -44 89zM146 433l-4 -4q-27 -24 -27 -76q0 -41 25.5 -60t90.5 -30q23 -4 44 -9.5t39 -12.5l8 -3l5 6 q24 26 24 74q0 42 -31.5 64.5t-97.5 33.5q-42 7 -69 15z" />
<glyph unicode="&#xa8;" horiz-adv-x="354" vert-adv-y="0" d="M230 587q0 17 10 27t27 10t27 -10t10 -27t-10 -27t-27 -10t-27 10t-10 27zM50 587q0 17 10 27t27 10t27 -10t10 -27t-10 -27t-27 -10t-27 10t-10 27z" />
<glyph unicode="&#xa9;" horiz-adv-x="600" vert-adv-y="0" d="M491 446q0 88 -53.5 132.5t-137.5 44.5t-137.5 -44.5t-53.5 -132.5v-224q0 -89 53.5 -133.5t137.5 -44.5t137.5 44.5t53.5 133.5v224zM65 446q0 113 63.5 165t171.5 52t171.5 -52t63.5 -165v-224q0 -113 -63.5 -165.5t-171.5 -52.5t-171.5 52.5t-63.5 165.5v224zM181 403 q0 46 17 76t42.5 42t58.5 12q16 0 28 -1.5t33 -12t36 -29.5l-28 -23q-10 12 -24.5 18t-22.5 6.5t-22 0.5q-33 0 -55.5 -21t-22.5 -68v-139q0 -47 22.5 -68t55.5 -21q45 0 75 29l26 -23q-10 -14 -23 -23.5t-22.5 -14t-22 -7t-18 -2.5h-15.5q-52 0 -85 31.5t-33 98.5v139z" />
<glyph unicode="&#xab;" horiz-adv-x="505" d="M214 427h38l-139 -177l139 -187h-38l-134 168v38zM368 427h45l-145 -177l145 -187h-45l-127 168v38z" />
<glyph unicode="&#xac;" d="M80 243v36h310v-185h-40v149h-270z" />
<glyph unicode="&#xae;" horiz-adv-x="600" vert-adv-y="0" d="M308 491h-68v-166h68q29 0 50 22t21 63q0 20 -6 36t-16.5 25.5t-22.5 14.5t-26 5zM202 138v391h106q45 0 74.5 -30t29.5 -89q0 -41 -15.5 -70t-39.5 -42l-8 -4l65 -156h-38l-63 149h-73v-149h-38zM65 446q0 113 63.5 165t171.5 52t171.5 -52t63.5 -165v-224 q0 -113 -63.5 -165.5t-171.5 -52.5t-171.5 52.5t-63.5 165.5v224zM491 446q0 88 -53.5 132.5t-137.5 44.5t-137.5 -44.5t-53.5 -132.5v-224q0 -89 53.5 -133.5t137.5 -44.5t137.5 44.5t53.5 133.5v224z" />
<glyph unicode="&#xaf;" horiz-adv-x="350" d="M50 556v36h250v-36h-250z" />
<glyph unicode="&#xb0;" horiz-adv-x="304" vert-adv-y="0" d="M50 551q0 46 28 74t74 28t74 -28t28 -74t-28 -74t-74 -28t-74 28t-28 74zM220 551q0 30 -19 49t-49 19t-49 -19t-19 -49t19 -49t49 -19t49 19t19 49z" />
<glyph unicode="&#xb1;" horiz-adv-x="480" d="M224 339v92h32v-92h144v-36h-144v-92h-32v92h-144v36h144zM80 105v36h320v-36h-320z" />
<glyph unicode="&#xb4;" horiz-adv-x="316" d="M50 456l139 191h57l-150 -191h-46z" />
<glyph unicode="&#xb5;" horiz-adv-x="520" vert-adv-y="0" d="M75 -185v642h50v-263q0 -73 35.5 -113.5t85.5 -40.5t84.5 40.5t34.5 113.5v263h50v-343q0 -35 17.5 -54.5t42.5 -19.5v-46q-12 0 -23.5 2.5t-22 8t-19.5 13.5t-16 19t-12 24l-6 21l-12 -19q-38 -69 -118 -69q-65 0 -103 57l-18 25v-261h-50z" />
<glyph unicode="&#xb6;" horiz-adv-x="502" vert-adv-y="0" d="M245 647h172v-647h-53v598h-106v-598h-53v261l-8 2q-63 13 -102.5 61t-39.5 128q0 96 54 145.5t136 49.5z" />
<glyph unicode="&#xb7;" horiz-adv-x="242" vert-adv-y="0" d="M80 260q0 19 11 30t30 11t30 -11t11 -30t-11 -30t-30 -11t-30 11t-11 30z" />
<glyph unicode="&#xb8;" horiz-adv-x="322" d="M155 0h31l-18 -56l15 -1q45 -4 65 -16.5t20 -40.5q0 -41 -30 -59t-95 -18q-58 0 -93 11l18 33q30 -9 75 -9q19 0 31.5 1t26.5 5t21.5 13t7.5 23q0 21 -7 35t-20.5 19.5t-24 7.5t-25.5 2h-24z" />
<glyph unicode="&#xbb;" horiz-adv-x="505" d="M279 427l134 -158v-38l-134 -168h-38l139 187l-139 177h38zM126 427l126 -158v-38l-126 -168h-46l145 187l-145 177h46z" />
<glyph unicode="&#xbc;" horiz-adv-x="784" vert-adv-y="0" d="M491 132l110 260h36l-107 -251h121v98h35v-98h34v-35h-34v-106h-35v106h-160v26zM123 625l65 32h35v-382h-38v339l-45 -23zM203 0l335 647h39l-332 -647h-42z" />
<glyph unicode="&#xbd;" horiz-adv-x="784" vert-adv-y="0" d="M534 325l-29 22q42 49 103 49q46 0 75.5 -31.5t29.5 -75.5q0 -40 -37 -88l-126 -164h171v-37h-224v27l151 198q27 35 27 65q0 29 -19 49.5t-48 20.5q-43 0 -74 -35zM123 625l65 32h35v-382h-38v339l-45 -23zM203 0l329 647h42l-329 -647h-42z" />
<glyph unicode="&#xbe;" horiz-adv-x="784" vert-adv-y="0" d="M90 589l-29 22q43 49 103 49q46 0 75.5 -30.5t29.5 -73.5q0 -23 -10 -43.5t-25 -32.5l-9 -8l10 -8q38 -31 38 -84q0 -45 -30 -77t-79 -32q-62 0 -107 51l29 23q33 -38 78 -38q32 0 52.5 21.5t20.5 51.5q0 27 -19 50t-54 23h-37v36h37q29 0 48.5 19.5t19.5 47.5 q0 18 -8.5 33.5t-24 25t-35.5 9.5q-43 0 -74 -35zM491 132l110 260h35l-107 -251h121v98h35v-98h34v-35h-34v-106h-35v106h-159v26zM203 0l334 647h40l-333 -647h-41z" />
<glyph unicode="&#xbf;" horiz-adv-x="338" vert-adv-y="0" d="M209 282h31q1 -32 1 -47q0 -46 -16.5 -79.5t-52.5 -63.5q-63 -40 -63 -110q0 -37 18 -66t44 -43t56 -14q60 0 109 52l43 -32q-30 -32 -71.5 -51t-80.5 -19q-68 0 -120 47.5t-52 125.5q0 96 79 146q26 16 41 32t23 37t9 49zM256 437q0 -19 -9 -30t-24 -11t-24 11t-9 30 t9 30t24 11t24 -11t9 -30z" />
<glyph unicode="&#xc0;" horiz-adv-x="569" d="M247 736l-72 101h57l63 -101h-48zM35 0l222 667h48l221 -667h-54l-54 165h-274l-54 -165h-55zM402 225l-121 377l-123 -377h244z" />
<glyph unicode="&#xc1;" horiz-adv-x="569" d="M293 837h57l-72 -101h-48zM35 0l222 667h48l221 -667h-54l-54 165h-274l-54 -165h-55zM402 225l-121 377l-123 -377h244z" />
<glyph unicode="&#xc2;" horiz-adv-x="569" d="M328 736l-73 67l-72 -67h-51l109 101h29l109 -101h-51zM35 0l222 667h48l221 -667h-54l-54 165h-274l-54 -165h-55zM402 225l-121 377l-123 -377h244z" />
<glyph unicode="&#xc3;" horiz-adv-x="569" d="M258 775q-15 24 -40 24q-23 0 -36.5 -15t-16.5 -38h-30q3 36 25 59.5t56 23.5q42 0 67 -37q16 -22 43 -22q12 0 23 6t18 18t9 28h30q-3 -38 -27 -60t-55 -22q-42 0 -66 35zM35 0l222 667h48l221 -667h-54l-54 165h-274l-54 -165h-55zM402 225l-121 377l-123 -377h244z " />
<glyph unicode="&#xc4;" horiz-adv-x="569" d="M324 777q0 17 10 27t27 10t27 -10t10 -27t-10 -27t-27 -10t-27 10t-10 27zM144 777q0 17 10 27t27 10t27 -10t10 -27t-10 -27t-27 -10t-27 10t-10 27zM35 0l222 667h48l221 -667h-54l-54 165h-274l-54 -165h-55zM402 225l-121 377l-123 -377h244z" />
<glyph unicode="&#xc5;" horiz-adv-x="569" d="M194 786q0 45 21 71t56 26t56 -26t21 -71q0 -35 -21 -56t-56 -21t-56 21t-21 56zM326 786q0 33 -15.5 55t-39.5 22t-39 -22t-15 -55q0 -24 15 -40t39 -16t39.5 16t15.5 40zM35 0l222 667h48l221 -667h-54l-54 165h-274l-54 -165h-55zM402 225l-121 377l-123 -377h244z " />
<glyph unicode="&#xc6;" horiz-adv-x="752" d="M177 175l-86 -175h-56l333 667h302v-52h-218v-248h195v-49h-195v-267h228v-51h-277v175h-226zM403 225v404l-201 -404h201z" />
<glyph unicode="&#xc7;" horiz-adv-x="521" vert-adv-y="0" d="M245 0h31l-18 -56l15 -1q45 -4 65 -16.5t20 -40.5q0 -41 -30 -59t-95 -18q-58 0 -93 11l18 33q30 -9 75 -9q19 0 31.5 1t26.5 5t21.5 13t7.5 23q0 21 -7 35t-20.5 19.5t-24 7.5t-25.5 2h-24zM280 613q-161 0 -161 -160v-239q0 -160 161 -160q88 0 141 45l35 -37 q-35 -30 -82 -44t-94 -14q-44 0 -80 10t-67.5 33t-49.5 65.5t-18 101.5v239q0 114 60.5 162t154.5 48q101 0 166 -56l-31 -40q-58 46 -135 46z" />
<glyph unicode="&#xc8;" vert-adv-y="0" d="M207 736l-72 101h57l63 -101h-48zM85 0v667h319v-52h-267v-247h217v-50h-215v-266h266v-52h-320z" />
<glyph unicode="&#xc9;" vert-adv-y="0" d="M253 837h57l-72 -101h-48zM85 0v667h319v-52h-267v-247h217v-50h-215v-266h266v-52h-320z" />
<glyph unicode="&#xca;" vert-adv-y="0" d="M288 736l-73 67l-72 -67h-51l109 101h29l109 -101h-51zM85 0v667h319v-52h-267v-247h217v-50h-215v-266h266v-52h-320z" />
<glyph unicode="&#xcb;" vert-adv-y="0" d="M284 777q0 17 10 27t27 10t27 -10t10 -27t-10 -27t-27 -10t-27 10t-10 27zM104 777q0 17 10 27t27 10t27 -10t10 -27t-10 -27t-27 -10t-27 10t-10 27zM85 0v667h319v-52h-267v-247h217v-50h-215v-266h266v-52h-320z" />
<glyph unicode="&#xcc;" horiz-adv-x="224" vert-adv-y="0" d="M78 736l-72 101h57l63 -101h-48zM85 667h54v-667h-54v667z" />
<glyph unicode="&#xcd;" horiz-adv-x="224" vert-adv-y="0" d="M124 837h57l-72 -101h-48zM85 667h54v-667h-54v667z" />
<glyph unicode="&#xce;" horiz-adv-x="224" vert-adv-y="0" d="M159 736l-73 67l-72 -67h-51l109 101h29l109 -101h-51zM85 667h54v-667h-54v667z" />
<glyph unicode="&#xcf;" horiz-adv-x="224" vert-adv-y="0" d="M155 777q0 17 10 27t27 10t27 -10t10 -27t-10 -27t-27 -10t-27 10t-10 27zM-25 777q0 17 10 27t27 10t27 -10t10 -27t-10 -27t-27 -10t-27 10t-10 27zM85 667h54v-667h-54v667z" />
<glyph unicode="&#xd0;" horiz-adv-x="581" vert-adv-y="0" d="M127 363v304h176q45 0 82 -12.5t67 -38t47 -69.5t17 -104v-218q0 -60 -17 -104.5t-47 -70t-67 -38t-82 -12.5h-176v323h-72v40h72zM300 323h-123v-263h126q71 0 115 40.5t44 127.5v212q0 45 -12.5 78t-34.5 52t-50 28t-62 9h-126v-244h123v-40z" />
<glyph unicode="&#xd1;" horiz-adv-x="570" vert-adv-y="0" d="M262 775q-15 24 -40 24q-23 0 -36.5 -15t-16.5 -38h-30q3 36 25 59.5t56 23.5q42 0 67 -37q16 -22 43 -22q12 0 23 6t18 18t9 28h30q-3 -38 -27 -60t-55 -22q-42 0 -66 35zM85 0v667h49l297 -547v547h54v-667h-49l-297 547v-547h-54z" />
<glyph unicode="&#xd2;" horiz-adv-x="560" vert-adv-y="0" d="M246 736l-72 101h57l63 -101h-48zM495 453v-239q0 -59 -18.5 -101.5t-50.5 -65.5t-68 -33t-78 -10t-78 10t-68 33t-50.5 65.5t-18.5 101.5v239q0 59 18.5 101.5t50.5 65.5t68 33t78 10t78 -10t68 -33t50.5 -65.5t18.5 -101.5zM119 453v-239q0 -46 14 -79t38.5 -50t51 -24 t57.5 -7t57.5 7t51 24t38.5 50t14 79v239q0 46 -14 79t-38.5 50t-51 24t-57.5 7t-57.5 -7t-51 -24t-38.5 -50t-14 -79z" />
<glyph unicode="&#xd3;" horiz-adv-x="560" vert-adv-y="0" d="M292 837h57l-72 -101h-48zM495 453v-239q0 -59 -18.5 -101.5t-50.5 -65.5t-68 -33t-78 -10t-78 10t-68 33t-50.5 65.5t-18.5 101.5v239q0 59 18.5 101.5t50.5 65.5t68 33t78 10t78 -10t68 -33t50.5 -65.5t18.5 -101.5zM119 453v-239q0 -46 14 -79t38.5 -50t51 -24 t57.5 -7t57.5 7t51 24t38.5 50t14 79v239q0 46 -14 79t-38.5 50t-51 24t-57.5 7t-57.5 -7t-51 -24t-38.5 -50t-14 -79z" />
<glyph unicode="&#xd4;" horiz-adv-x="560" vert-adv-y="0" d="M327 736l-73 67l-72 -67h-51l109 101h29l109 -101h-51zM495 453v-239q0 -59 -18.5 -101.5t-50.5 -65.5t-68 -33t-78 -10t-78 10t-68 33t-50.5 65.5t-18.5 101.5v239q0 59 18.5 101.5t50.5 65.5t68 33t78 10t78 -10t68 -33t50.5 -65.5t18.5 -101.5zM119 453v-239 q0 -46 14 -79t38.5 -50t51 -24t57.5 -7t57.5 7t51 24t38.5 50t14 79v239q0 46 -14 79t-38.5 50t-51 24t-57.5 7t-57.5 -7t-51 -24t-38.5 -50t-14 -79z" />
<glyph unicode="&#xd5;" horiz-adv-x="560" vert-adv-y="0" d="M257 775q-15 24 -40 24q-23 0 -36.5 -15t-16.5 -38h-30q3 36 25 59.5t56 23.5q42 0 67 -37q16 -22 43 -22q12 0 23 6t18 18t9 28h30q-3 -38 -27 -60t-55 -22q-42 0 -66 35zM495 453v-239q0 -59 -18.5 -101.5t-50.5 -65.5t-68 -33t-78 -10t-78 10t-68 33t-50.5 65.5 t-18.5 101.5v239q0 59 18.5 101.5t50.5 65.5t68 33t78 10t78 -10t68 -33t50.5 -65.5t18.5 -101.5zM119 453v-239q0 -46 14 -79t38.5 -50t51 -24t57.5 -7t57.5 7t51 24t38.5 50t14 79v239q0 46 -14 79t-38.5 50t-51 24t-57.5 7t-57.5 -7t-51 -24t-38.5 -50t-14 -79z" />
<glyph unicode="&#xd6;" horiz-adv-x="560" vert-adv-y="0" d="M323 777q0 17 10 27t27 10t27 -10t10 -27t-10 -27t-27 -10t-27 10t-10 27zM143 777q0 17 10 27t27 10t27 -10t10 -27t-10 -27t-27 -10t-27 10t-10 27zM495 453v-239q0 -59 -18.5 -101.5t-50.5 -65.5t-68 -33t-78 -10t-78 10t-68 33t-50.5 65.5t-18.5 101.5v239 q0 59 18.5 101.5t50.5 65.5t68 33t78 10t78 -10t68 -33t50.5 -65.5t18.5 -101.5zM119 453v-239q0 -46 14 -79t38.5 -50t51 -24t57.5 -7t57.5 7t51 24t38.5 50t14 79v239q0 46 -14 79t-38.5 50t-51 24t-57.5 7t-57.5 -7t-51 -24t-38.5 -50t-14 -79z" />
<glyph unicode="&#xd7;" horiz-adv-x="500" d="M130 112l-23 23l115 115l-116 116l25 25l116 -119l115 118l23 -23l-115 -115l116 -116l-25 -25l-116 119z" />
<glyph unicode="&#xd8;" horiz-adv-x="561" vert-adv-y="0" d="M384 584q-46 34 -108 34q-73 0 -119.5 -41.5t-46.5 -129.5v-227q0 -47 19 -88l8 -18l254 465zM150 36l-9 6l-39 -69h-40l52 94l-4 5q-50 61 -50 147v230q0 60 17 104t47.5 69.5t68.5 37.5t83 12q18 0 35 -2.5t33 -7.5t31 -12.5t29 -17.5l8 -6l37 67h41l-53 -93l4 -5 q24 -30 36.5 -64.5t12.5 -81.5v-230q0 -60 -17 -104.5t-47 -70t-67.5 -37.5t-82.5 -12q-34 0 -66 10.5t-60 30.5zM422 535l-7 18l-253 -466l7 -5q43 -33 107 -33q34 0 63 9.5t52 29t36 53.5t13 79v227q0 47 -18 88z" />
<glyph unicode="&#xd9;" horiz-adv-x="540" vert-adv-y="0" d="M236 736l-72 101h57l63 -101h-48zM129 667v-443q0 -88 40 -124t101 -36t101 36t40 124v443h54v-443q0 -59 -16.5 -102t-45.5 -65.5t-61.5 -32.5t-71.5 -10t-71.5 10t-61.5 32.5t-45.5 65.5t-16.5 102v443h54z" />
<glyph unicode="&#xda;" horiz-adv-x="540" vert-adv-y="0" d="M282 837h57l-72 -101h-48zM129 667v-443q0 -88 40 -124t101 -36t101 36t40 124v443h54v-443q0 -59 -16.5 -102t-45.5 -65.5t-61.5 -32.5t-71.5 -10t-71.5 10t-61.5 32.5t-45.5 65.5t-16.5 102v443h54z" />
<glyph unicode="&#xdb;" horiz-adv-x="540" vert-adv-y="0" d="M317 736l-73 67l-72 -67h-51l109 101h29l109 -101h-51zM129 667v-443q0 -88 40 -124t101 -36t101 36t40 124v443h54v-443q0 -59 -16.5 -102t-45.5 -65.5t-61.5 -32.5t-71.5 -10t-71.5 10t-61.5 32.5t-45.5 65.5t-16.5 102v443h54z" />
<glyph unicode="&#xdc;" horiz-adv-x="540" vert-adv-y="0" d="M313 777q0 17 10 27t27 10t27 -10t10 -27t-10 -27t-27 -10t-27 10t-10 27zM133 777q0 17 10 27t27 10t27 -10t10 -27t-10 -27t-27 -10t-27 10t-10 27zM129 667v-443q0 -88 40 -124t101 -36t101 36t40 124v443h54v-443q0 -59 -16.5 -102t-45.5 -65.5t-61.5 -32.5 t-71.5 -10t-71.5 10t-61.5 32.5t-45.5 65.5t-16.5 102v443h54z" />
<glyph unicode="&#xdd;" horiz-adv-x="501" vert-adv-y="0" d="M256 837h57l-72 -101h-48zM218 278l-183 389h59l150 -321l153 321h56l-184 -389v-278h-51v278z" />
<glyph unicode="&#xde;" horiz-adv-x="502" vert-adv-y="0" d="M85 0v667h53v-133h126q49 0 89.5 -20.5t67 -67t26.5 -112.5q0 -98 -53.5 -149.5t-129.5 -51.5h-126v-133h-53zM264 479h-126v-291h126q54 0 92 38.5t38 107.5q0 24 -5 44.5t-13.5 36t-21 28t-27 20.5t-30.5 12t-33 4z" />
<glyph unicode="&#xdf;" horiz-adv-x="490" vert-adv-y="0" d="M339 343l18 -8q42 -15 62.5 -56.5t5.5 -89.5q0 -51 -14.5 -90.5t-47 -64t-79.5 -24.5q-39 0 -70.5 28.5t-35.5 81.5h47q4 -31 21.5 -47.5t37.5 -16.5q34 0 55 20.5t28.5 48.5t7.5 64q15 52 -19.5 92t-95.5 40h-57v44h57q55 0 85.5 39t30.5 94q0 49 -33.5 86t-82.5 37 q-40 0 -70 -17t-47.5 -53.5t-17.5 -88.5v-442h-50v442q0 53 14 93t39.5 64t58.5 36t73 12q72 0 119 -50t47 -119q0 -46 -20 -84.5t-51 -59.5z" />
<glyph unicode="&#xe0;" horiz-adv-x="461" vert-adv-y="0" d="M194 545l-72 101h57l63 -101h-48zM87 445q65 28 141 28q74 0 119.5 -44.5t45.5 -138.5v-280h-48v67l-17 -18q-26 -27 -55 -41t-71 -14q-63 0 -105 38.5t-42 100.5q0 141 201 141q46 0 77 -5l12 -2v12q0 69 -31.5 104.5t-85.5 35.5q-66 0 -124 -25zM264 243 q-161 0 -161 -100q0 -42 29.5 -68t77.5 -26q56 0 95.5 39.5t39.5 115.5v34l-9 1q-35 4 -72 4z" />
<glyph unicode="&#xe1;" horiz-adv-x="461" vert-adv-y="0" d="M240 646h57l-72 -101h-48zM87 445q65 28 141 28q74 0 119.5 -44.5t45.5 -138.5v-280h-48v67l-17 -18q-26 -27 -55 -41t-71 -14q-63 0 -105 38.5t-42 100.5q0 141 201 141q46 0 77 -5l12 -2v12q0 69 -31.5 104.5t-85.5 35.5q-66 0 -124 -25zM264 243q-161 0 -161 -100 q0 -42 29.5 -68t77.5 -26q56 0 95.5 39.5t39.5 115.5v34l-9 1q-35 4 -72 4z" />
<glyph unicode="&#xe2;" horiz-adv-x="461" vert-adv-y="0" d="M275 545l-73 67l-72 -67h-51l109 101h29l109 -101h-51zM87 445q65 28 141 28q74 0 119.5 -44.5t45.5 -138.5v-280h-48v67l-17 -18q-26 -27 -55 -41t-71 -14q-63 0 -105 38.5t-42 100.5q0 141 201 141q46 0 77 -5l12 -2v12q0 69 -31.5 104.5t-85.5 35.5q-66 0 -124 -25z M264 243q-161 0 -161 -100q0 -42 29.5 -68t77.5 -26q56 0 95.5 39.5t39.5 115.5v34l-9 1q-35 4 -72 4z" />
<glyph unicode="&#xe3;" horiz-adv-x="461" vert-adv-y="0" d="M205 584q-15 24 -40 24q-23 0 -36.5 -15t-16.5 -38h-30q3 36 25 59.5t56 23.5q42 0 67 -37q16 -22 43 -22q12 0 23 6t18 18t9 28h30q-3 -38 -27 -60t-55 -22q-42 0 -66 35zM87 445q65 28 141 28q74 0 119.5 -44.5t45.5 -138.5v-280h-48v67l-17 -18q-26 -27 -55 -41 t-71 -14q-63 0 -105 38.5t-42 100.5q0 141 201 141q46 0 77 -5l12 -2v12q0 69 -31.5 104.5t-85.5 35.5q-66 0 -124 -25zM264 243q-161 0 -161 -100q0 -42 29.5 -68t77.5 -26q56 0 95.5 39.5t39.5 115.5v34l-9 1q-35 4 -72 4z" />
<glyph unicode="&#xe4;" horiz-adv-x="461" vert-adv-y="0" d="M271 586q0 17 10 27t27 10t27 -10t10 -27t-10 -27t-27 -10t-27 10t-10 27zM91 586q0 17 10 27t27 10t27 -10t10 -27t-10 -27t-27 -10t-27 10t-10 27zM87 445q65 28 141 28q74 0 119.5 -44.5t45.5 -138.5v-280h-48v67l-17 -18q-26 -27 -55 -41t-71 -14q-63 0 -105 38.5 t-42 100.5q0 141 201 141q46 0 77 -5l12 -2v12q0 69 -31.5 104.5t-85.5 35.5q-66 0 -124 -25zM264 243q-161 0 -161 -100q0 -42 29.5 -68t77.5 -26q56 0 95.5 39.5t39.5 115.5v34l-9 1q-35 4 -72 4z" />
<glyph unicode="&#xe5;" horiz-adv-x="461" vert-adv-y="0" d="M141 595q0 45 21 71t56 26t56 -26t21 -71q0 -35 -21 -56t-56 -21t-56 21t-21 56zM273 595q0 33 -15.5 55t-39.5 22t-39 -22t-15 -55q0 -24 15 -40t39 -16t39.5 16t15.5 40zM87 445q65 28 141 28q74 0 119.5 -44.5t45.5 -138.5v-280h-48v67l-17 -18q-26 -27 -55 -41 t-71 -14q-63 0 -105 38.5t-42 100.5q0 141 201 141q46 0 77 -5l12 -2v12q0 69 -31.5 104.5t-85.5 35.5q-66 0 -124 -25zM264 243q-161 0 -161 -100q0 -42 29.5 -68t77.5 -26q56 0 95.5 39.5t39.5 115.5v34l-9 1q-35 4 -72 4z" />
<glyph unicode="&#xe6;" horiz-adv-x="713" vert-adv-y="0" d="M371 280v-10h218v10q0 45 -15.5 80t-40 53t-52.5 18q-43 0 -76.5 -40.5t-33.5 -110.5zM249 245q-36 0 -66 -6.5t-56 -31t-26 -64.5q0 -39 26.5 -67.5t72.5 -28.5q52 0 89.5 42.5t37.5 114.5v36l-9 1q-35 4 -69 4zM78 435q66 38 140 38q88 0 124 -77l9 -19l9 18 q20 40 51.5 59t69.5 19q62 0 108 -52t46 -153l20 -38h-284v-26q0 -74 36.5 -115.5t92.5 -41.5q53 0 102 37l28 -35q-63 -45 -130 -45q-48 0 -85 22t-58 65l-9 19l-9 -18q-22 -44 -61.5 -66t-85.5 -22q-59 0 -98 40t-39 99q0 139 186 139q43 0 74 -5l12 -2v12q0 68 -30.5 106 t-78.5 38q-61 0 -116 -32z" />
<glyph unicode="&#xe7;" horiz-adv-x="406" vert-adv-y="0" d="M206 0h31l-18 -56l15 -1q45 -4 65 -16.5t20 -40.5q0 -41 -30 -59t-95 -18q-58 0 -93 11l18 33q30 -9 75 -9q19 0 31.5 1t26.5 5t21.5 13t7.5 23q0 21 -7 35t-20.5 19.5t-24 7.5t-25.5 2h-24zM115 204q0 -82 36.5 -118t89.5 -36q25 0 47.5 8.5t40.5 24.5l22 -42 q-14 -12 -30 -20t-36.5 -12.5t-43.5 -4.5q-35 0 -64.5 10t-55.5 31.5t-41 62t-15 96.5v69q0 56 15 96.5t41 62t55.5 31.5t64.5 10q32 0 57 -8.5t44 -21.5l-22 -42q-37 26 -79 26q-25 0 -46 -7.5t-39.5 -24.5t-29.5 -48.5t-11 -73.5v-69z" />
<glyph unicode="&#xe8;" horiz-adv-x="456" vert-adv-y="0" d="M199 545l-72 101h57l63 -101h-48zM63 154q-5 28 -5 89q0 62 5 89q15 74 60.5 107.5t105.5 33.5q55 0 98 -29t61 -94q10 -35 10 -102q0 -6 -1 -20h-291v-14q0 -83 37.5 -124.5t96.5 -41.5q7 0 15 0.5t16 2t15.5 3t16 4.5t16 6.5t15.5 7.5t16 10l22 -40q-61 -38 -132 -38 q-67 0 -114.5 36.5t-62.5 113.5zM106 282v-10h244v10q0 76 -36 111.5t-85 35.5t-85 -35t-38 -112z" />
<glyph unicode="&#xe9;" horiz-adv-x="456" vert-adv-y="0" d="M245 646h57l-72 -101h-48zM63 154q-5 28 -5 89q0 62 5 89q15 74 60.5 107.5t105.5 33.5q55 0 98 -29t61 -94q10 -35 10 -102q0 -6 -1 -20h-291v-14q0 -83 37.5 -124.5t96.5 -41.5q7 0 15 0.5t16 2t15.5 3t16 4.5t16 6.5t15.5 7.5t16 10l22 -40q-61 -38 -132 -38 q-67 0 -114.5 36.5t-62.5 113.5zM106 282v-10h244v10q0 76 -36 111.5t-85 35.5t-85 -35t-38 -112z" />
<glyph unicode="&#xea;" horiz-adv-x="456" vert-adv-y="0" d="M280 545l-73 67l-72 -67h-51l109 101h29l109 -101h-51zM63 154q-5 28 -5 89q0 62 5 89q15 74 60.5 107.5t105.5 33.5q55 0 98 -29t61 -94q10 -35 10 -102q0 -6 -1 -20h-291v-14q0 -83 37.5 -124.5t96.5 -41.5q7 0 15 0.5t16 2t15.5 3t16 4.5t16 6.5t15.5 7.5t16 10 l22 -40q-61 -38 -132 -38q-67 0 -114.5 36.5t-62.5 113.5zM106 282v-10h244v10q0 76 -36 111.5t-85 35.5t-85 -35t-38 -112z" />
<glyph unicode="&#xeb;" horiz-adv-x="456" vert-adv-y="0" d="M276 586q0 17 10 27t27 10t27 -10t10 -27t-10 -27t-27 -10t-27 10t-10 27zM96 586q0 17 10 27t27 10t27 -10t10 -27t-10 -27t-27 -10t-27 10t-10 27zM63 154q-5 28 -5 89q0 62 5 89q15 74 60.5 107.5t105.5 33.5q55 0 98 -29t61 -94q10 -35 10 -102q0 -6 -1 -20h-291v-14 q0 -83 37.5 -124.5t96.5 -41.5q7 0 15 0.5t16 2t15.5 3t16 4.5t16 6.5t15.5 7.5t16 10l22 -40q-61 -38 -132 -38q-67 0 -114.5 36.5t-62.5 113.5zM106 282v-10h244v10q0 76 -36 111.5t-85 35.5t-85 -35t-38 -112z" />
<glyph unicode="&#xec;" horiz-adv-x="194" vert-adv-y="0" d="M63 546l-72 101h57l63 -101h-48zM72 10v457h50v-457h-50z" />
<glyph unicode="&#xed;" horiz-adv-x="194" vert-adv-y="0" d="M109 647h57l-72 -101h-48zM72 10v457h50v-457h-50z" />
<glyph unicode="&#xee;" horiz-adv-x="194" vert-adv-y="0" d="M144 546l-73 67l-72 -67h-51l109 101h29l109 -101h-51zM72 10v457h50v-457h-50z" />
<glyph unicode="&#xef;" horiz-adv-x="194" vert-adv-y="0" d="M140 587q0 17 10 27t27 10t27 -10t10 -27t-10 -27t-27 -10t-27 10t-10 27zM-40 587q0 17 10 27t27 10t27 -10t10 -27t-10 -27t-27 -10t-27 10t-10 27zM72 10v457h50v-457h-50z" />
<glyph unicode="&#xf0;" horiz-adv-x="473" vert-adv-y="0" d="M331 576q44 -67 58 -149.5t14 -212.5q0 -97 -51 -148.5t-121 -51.5q-33 0 -63.5 12.5t-56 36t-41 63t-15.5 88.5v18q0 98 48.5 149.5t118.5 51.5q71 0 114 -62l19 -29l-3 36q-9 103 -49 176l-5 9l-60 -46l-18 28l60 46l-6 8q-24 31 -48 54l22 21q11 -10 20 -19t18 -18.5 t16 -18.5l6 -6l55 41l19 -28l-56 -40zM355 222q0 38 -10.5 68t-28.5 48.5t-39.5 28.5t-45.5 10q-51 0 -88.5 -40.5t-37.5 -113.5v-19q0 -73 37.5 -113.5t88.5 -40.5q50 0 87 40.5t37 113.5v18z" />
<glyph unicode="&#xf1;" horiz-adv-x="478" vert-adv-y="0" d="M232 585q-15 24 -40 24q-23 0 -36.5 -15t-16.5 -38h-30q3 36 25 59.5t56 23.5q42 0 67 -37q16 -22 43 -22q12 0 23 6t18 18t9 28h30q-3 -38 -27 -60t-55 -22q-42 0 -66 35zM75 10v457h50v-68l18 23q37 51 112 51q29 0 55.5 -9.5t51 -31t39 -62.5t14.5 -97v-263h-50v263 q0 82 -33.5 118t-85.5 36t-86.5 -36t-34.5 -118v-263h-50z" />
<glyph unicode="&#xf2;" horiz-adv-x="460" vert-adv-y="0" d="M196 546l-72 101h57l63 -101h-48zM405 273v-69q0 -45 -10 -80t-26.5 -57.5t-39.5 -37t-47 -20t-51 -5.5q-35 0 -64.5 10t-55.5 31.5t-41 62t-15 96.5v69q0 56 15 96.5t41 62t55.5 31.5t64 10t64 -10t55 -31.5t40.5 -62t15 -96.5zM105 273v-69q0 -82 36.5 -118t89.5 -36 t88.5 36t35.5 118v69q0 43 -10.5 74t-29 48t-39.5 24.5t-45 7.5q-53 0 -89.5 -36t-36.5 -118z" />
<glyph unicode="&#xf3;" horiz-adv-x="460" vert-adv-y="0" d="M242 647h57l-72 -101h-48zM405 273v-69q0 -45 -10 -80t-26.5 -57.5t-39.5 -37t-47 -20t-51 -5.5q-35 0 -64.5 10t-55.5 31.5t-41 62t-15 96.5v69q0 56 15 96.5t41 62t55.5 31.5t64 10t64 -10t55 -31.5t40.5 -62t15 -96.5zM105 273v-69q0 -82 36.5 -118t89.5 -36t88.5 36 t35.5 118v69q0 43 -10.5 74t-29 48t-39.5 24.5t-45 7.5q-53 0 -89.5 -36t-36.5 -118z" />
<glyph unicode="&#xf4;" horiz-adv-x="460" vert-adv-y="0" d="M277 546l-73 67l-72 -67h-51l109 101h29l109 -101h-51zM405 273v-69q0 -45 -10 -80t-26.5 -57.5t-39.5 -37t-47 -20t-51 -5.5q-35 0 -64.5 10t-55.5 31.5t-41 62t-15 96.5v69q0 56 15 96.5t41 62t55.5 31.5t64 10t64 -10t55 -31.5t40.5 -62t15 -96.5zM105 273v-69 q0 -82 36.5 -118t89.5 -36t88.5 36t35.5 118v69q0 43 -10.5 74t-29 48t-39.5 24.5t-45 7.5q-53 0 -89.5 -36t-36.5 -118z" />
<glyph unicode="&#xf5;" horiz-adv-x="460" vert-adv-y="0" d="M207 585q-15 24 -40 24q-23 0 -36.5 -15t-16.5 -38h-30q3 36 25 59.5t56 23.5q42 0 67 -37q16 -22 43 -22q12 0 23 6t18 18t9 28h30q-3 -38 -27 -60t-55 -22q-42 0 -66 35zM405 273v-69q0 -45 -10 -80t-26.5 -57.5t-39.5 -37t-47 -20t-51 -5.5q-35 0 -64.5 10t-55.5 31.5 t-41 62t-15 96.5v69q0 56 15 96.5t41 62t55.5 31.5t64 10t64 -10t55 -31.5t40.5 -62t15 -96.5zM105 273v-69q0 -82 36.5 -118t89.5 -36t88.5 36t35.5 118v69q0 43 -10.5 74t-29 48t-39.5 24.5t-45 7.5q-53 0 -89.5 -36t-36.5 -118z" />
<glyph unicode="&#xf6;" horiz-adv-x="460" vert-adv-y="0" d="M273 587q0 17 10 27t27 10t27 -10t10 -27t-10 -27t-27 -10t-27 10t-10 27zM93 587q0 17 10 27t27 10t27 -10t10 -27t-10 -27t-27 -10t-27 10t-10 27zM405 273v-69q0 -45 -10 -80t-26.5 -57.5t-39.5 -37t-47 -20t-51 -5.5q-35 0 -64.5 10t-55.5 31.5t-41 62t-15 96.5v69 q0 56 15 96.5t41 62t55.5 31.5t64 10t64 -10t55 -31.5t40.5 -62t15 -96.5zM105 273v-69q0 -82 36.5 -118t89.5 -36t88.5 36t35.5 118v69q0 43 -10.5 74t-29 48t-39.5 24.5t-45 7.5q-53 0 -89.5 -36t-36.5 -118z" />
<glyph unicode="&#xf7;" horiz-adv-x="480" d="M80 233v36h320v-36h-320zM212 394q0 16 8 25.5t21 9.5t21 -9.5t8 -25.5t-8 -26t-21 -10t-21 10t-8 26zM212 103q0 16 8 26t21 10t21 -10t8 -26t-8 -25.5t-21 -9.5t-21 9.5t-8 25.5z" />
<glyph unicode="&#xf8;" horiz-adv-x="465" vert-adv-y="0" d="M297 409q-37 24 -69 24q-52 0 -91.5 -42.5t-39.5 -116.5v-70q0 -47 24 -92l8 -15l176 306zM326 446l34 61h40l-51 -84l5 -6q48 -59 48 -143v-71q0 -101 -52 -154.5t-122 -53.5q-43 0 -89 31l-8 5l-36 -61h-40l51 84l-5 6q-49 58 -49 143v70q0 42 10 77t27.5 59t40 41 t47.5 24.5t51 7.5q45 0 90 -31zM152 74l8 -6q36 -24 68 -24q52 0 90.5 42.5t38.5 116.5v70q0 44 -21 90l-7 16z" />
<glyph unicode="&#xf9;" vert-adv-y="0" d="M201 545l-72 101h57l63 -101h-48zM235 50q48 0 84 36.5t36 117.5v263h50v-263q0 -56 -15 -96.5t-40.5 -62t-54 -31.5t-60.5 -10t-60.5 10t-54 31.5t-40.5 62t-15 96.5v263h50v-263q0 -81 36 -117.5t84 -36.5z" />
<glyph unicode="&#xfa;" vert-adv-y="0" d="M247 646h57l-72 -101h-48zM235 50q48 0 84 36.5t36 117.5v263h50v-263q0 -56 -15 -96.5t-40.5 -62t-54 -31.5t-60.5 -10t-60.5 10t-54 31.5t-40.5 62t-15 96.5v263h50v-263q0 -81 36 -117.5t84 -36.5z" />
<glyph unicode="&#xfb;" vert-adv-y="0" d="M282 545l-73 67l-72 -67h-51l109 101h29l109 -101h-51zM235 50q48 0 84 36.5t36 117.5v263h50v-263q0 -56 -15 -96.5t-40.5 -62t-54 -31.5t-60.5 -10t-60.5 10t-54 31.5t-40.5 62t-15 96.5v263h50v-263q0 -81 36 -117.5t84 -36.5z" />
<glyph unicode="&#xfc;" vert-adv-y="0" d="M278 586q0 17 10 27t27 10t27 -10t10 -27t-10 -27t-27 -10t-27 10t-10 27zM98 586q0 17 10 27t27 10t27 -10t10 -27t-10 -27t-27 -10t-27 10t-10 27zM235 50q48 0 84 36.5t36 117.5v263h50v-263q0 -56 -15 -96.5t-40.5 -62t-54 -31.5t-60.5 -10t-60.5 10t-54 31.5 t-40.5 62t-15 96.5v263h50v-263q0 -81 36 -117.5t84 -36.5z" />
<glyph unicode="&#xfd;" horiz-adv-x="490" vert-adv-y="0" d="M252 646h57l-72 -101h-48zM35 477h52l153 -427l153 427h52l-247 -662h-48l66 181z" />
<glyph unicode="&#xfe;" horiz-adv-x="478" vert-adv-y="0" d="M141 415q45 64 116 64q68 0 117 -53t49 -153v-70q0 -99 -49 -152t-117 -53q-72 0 -116 63l-18 25v-271h-48v852h48v-277zM373 273q0 72 -38.5 113t-86.5 41q-22 0 -44 -10t-40 -28.5t-29.5 -49t-11.5 -67.5v-68q0 -72 38.5 -113t86.5 -41t86.5 41t38.5 113v69z" />
<glyph unicode="&#xff;" horiz-adv-x="490" vert-adv-y="0" d="M283 586q0 17 10 27t27 10t27 -10t10 -27t-10 -27t-27 -10t-27 10t-10 27zM103 586q0 17 10 27t27 10t27 -10t10 -27t-10 -27t-27 -10t-27 10t-10 27zM35 477h52l153 -427l153 427h52l-247 -662h-48l66 181z" />
<glyph unicode="&#x100;" horiz-adv-x="569" d="M145 746v36h250v-36h-250zM35 0l222 667h48l221 -667h-54l-54 165h-274l-54 -165h-55zM402 225l-121 377l-123 -377h244z" />
<glyph unicode="&#x101;" horiz-adv-x="461" vert-adv-y="0" d="M92 555v36h250v-36h-250zM87 445q65 28 141 28q74 0 119.5 -44.5t45.5 -138.5v-280h-48v67l-17 -18q-26 -27 -55 -41t-71 -14q-63 0 -105 38.5t-42 100.5q0 141 201 141q46 0 77 -5l12 -2v12q0 69 -31.5 104.5t-85.5 35.5q-66 0 -124 -25zM264 243q-161 0 -161 -100 q0 -42 29.5 -68t77.5 -26q56 0 95.5 39.5t39.5 115.5v34l-9 1q-35 4 -72 4z" />
<glyph unicode="&#x102;" horiz-adv-x="569" d="M271 736q-53 0 -89 29.5t-40 77.5h31q4 -35 30 -55t68 -20q11 0 22 1.5t20.5 5t17.5 8.5t14.5 11t11.5 13.5t8 16.5t4 19h30q-2 -32 -19.5 -56.5t-46 -37.5t-62.5 -13zM35 0l222 667h48l221 -667h-54l-54 165h-274l-54 -165h-55zM402 225l-121 377l-123 -377h244z" />
<glyph unicode="&#x103;" horiz-adv-x="461" vert-adv-y="0" d="M218 545q-53 0 -89 29.5t-40 77.5h31q4 -35 30 -55t68 -20q11 0 22 1.5t20.5 5t17.5 8.5t14.5 11t11.5 13.5t8 16.5t4 19h30q-2 -32 -19.5 -56.5t-46 -37.5t-62.5 -13zM87 445q65 28 141 28q74 0 119.5 -44.5t45.5 -138.5v-280h-48v67l-17 -18q-26 -27 -55 -41t-71 -14 q-63 0 -105 38.5t-42 100.5q0 141 201 141q46 0 77 -5l12 -2v12q0 69 -31.5 104.5t-85.5 35.5q-66 0 -124 -25zM264 243q-161 0 -161 -100q0 -42 29.5 -68t77.5 -26q56 0 95.5 39.5t39.5 115.5v34l-9 1q-35 4 -72 4z" />
<glyph unicode="&#x104;" horiz-adv-x="569" d="M472 0h39q-40 -52 -40 -99q0 -23 13.5 -40t36.5 -17q30 0 57 37l26 -17q-34 -55 -83 -55q-38 0 -59 26t-21 63q0 57 31 102zM35 0l222 667h48l221 -667h-54l-54 165h-274l-54 -165h-55zM402 225l-121 377l-123 -377h244z" />
<glyph unicode="&#x105;" horiz-adv-x="461" vert-adv-y="0" d="M329 0h39q-40 -52 -40 -99q0 -23 13.5 -40t36.5 -17q30 0 57 37l26 -17q-34 -55 -83 -55q-38 0 -59 26t-21 63q0 57 31 102zM87 445q65 28 141 28q74 0 119.5 -44.5t45.5 -138.5v-280h-48v67l-17 -18q-26 -27 -55 -41t-71 -14q-63 0 -105 38.5t-42 100.5q0 141 201 141 q46 0 77 -5l12 -2v12q0 69 -31.5 104.5t-85.5 35.5q-66 0 -124 -25zM264 243q-161 0 -161 -100q0 -42 29.5 -68t77.5 -26q56 0 95.5 39.5t39.5 115.5v34l-9 1q-35 4 -72 4z" />
<glyph unicode="&#x106;" horiz-adv-x="521" vert-adv-y="0" d="M292 837h57l-72 -101h-48zM280 613q-161 0 -161 -160v-239q0 -160 161 -160q88 0 141 45l35 -37q-35 -30 -82 -44t-94 -14q-44 0 -80 10t-67.5 33t-49.5 65.5t-18 101.5v239q0 114 60.5 162t154.5 48q101 0 166 -56l-31 -40q-58 46 -135 46z" />
<glyph unicode="&#x107;" horiz-adv-x="406" vert-adv-y="0" d="M253 646h57l-72 -101h-48zM115 204q0 -82 36.5 -118t89.5 -36q25 0 47.5 8.5t40.5 24.5l22 -42q-14 -12 -30 -20t-36.5 -12.5t-43.5 -4.5q-35 0 -64.5 10t-55.5 31.5t-41 62t-15 96.5v69q0 56 15 96.5t41 62t55.5 31.5t64.5 10q32 0 57 -8.5t44 -21.5l-22 -42 q-37 26 -79 26q-25 0 -46 -7.5t-39.5 -24.5t-29.5 -48.5t-11 -73.5v-69z" />
<glyph unicode="&#x108;" horiz-adv-x="521" vert-adv-y="0" d="M327 736l-73 67l-72 -67h-51l109 101h29l109 -101h-51zM280 613q-161 0 -161 -160v-239q0 -160 161 -160q88 0 141 45l35 -37q-35 -30 -82 -44t-94 -14q-44 0 -80 10t-67.5 33t-49.5 65.5t-18 101.5v239q0 114 60.5 162t154.5 48q101 0 166 -56l-31 -40q-58 46 -135 46z " />
<glyph unicode="&#x109;" horiz-adv-x="406" vert-adv-y="0" d="M288 545l-73 67l-72 -67h-51l109 101h29l109 -101h-51zM115 204q0 -82 36.5 -118t89.5 -36q25 0 47.5 8.5t40.5 24.5l22 -42q-14 -12 -30 -20t-36.5 -12.5t-43.5 -4.5q-35 0 -64.5 10t-55.5 31.5t-41 62t-15 96.5v69q0 56 15 96.5t41 62t55.5 31.5t64.5 10q32 0 57 -8.5 t44 -21.5l-22 -42q-37 26 -79 26q-25 0 -46 -7.5t-39.5 -24.5t-29.5 -48.5t-11 -73.5v-69z" />
<glyph unicode="&#x10a;" horiz-adv-x="521" vert-adv-y="0" d="M232 777q0 17 10 27t27 10t27 -10t10 -27t-10 -27t-27 -10t-27 10t-10 27zM280 613q-161 0 -161 -160v-239q0 -160 161 -160q88 0 141 45l35 -37q-35 -30 -82 -44t-94 -14q-44 0 -80 10t-67.5 33t-49.5 65.5t-18 101.5v239q0 114 60.5 162t154.5 48q101 0 166 -56 l-31 -40q-58 46 -135 46z" />
<glyph unicode="&#x10b;" horiz-adv-x="406" vert-adv-y="0" d="M193 586q0 17 10 27t27 10t27 -10t10 -27t-10 -27t-27 -10t-27 10t-10 27zM115 204q0 -82 36.5 -118t89.5 -36q25 0 47.5 8.5t40.5 24.5l22 -42q-14 -12 -30 -20t-36.5 -12.5t-43.5 -4.5q-35 0 -64.5 10t-55.5 31.5t-41 62t-15 96.5v69q0 56 15 96.5t41 62t55.5 31.5 t64.5 10q32 0 57 -8.5t44 -21.5l-22 -42q-37 26 -79 26q-25 0 -46 -7.5t-39.5 -24.5t-29.5 -48.5t-11 -73.5v-69z" />
<glyph unicode="&#x10c;" horiz-adv-x="521" vert-adv-y="0" d="M327 736l-73 67l-72 -67h-51l109 101h29l109 -101h-51zM280 613q-161 0 -161 -160v-239q0 -160 161 -160q88 0 141 45l35 -37q-35 -30 -82 -44t-94 -14q-44 0 -80 10t-67.5 33t-49.5 65.5t-18 101.5v239q0 114 60.5 162t154.5 48q101 0 166 -56l-31 -40q-58 46 -135 46z " />
<glyph unicode="&#x10d;" horiz-adv-x="406" vert-adv-y="0" d="M288 545l-73 67l-72 -67h-51l109 101h29l109 -101h-51zM115 204q0 -82 36.5 -118t89.5 -36q25 0 47.5 8.5t40.5 24.5l22 -42q-14 -12 -30 -20t-36.5 -12.5t-43.5 -4.5q-35 0 -64.5 10t-55.5 31.5t-41 62t-15 96.5v69q0 56 15 96.5t41 62t55.5 31.5t64.5 10q32 0 57 -8.5 t44 -21.5l-22 -42q-37 26 -79 26q-25 0 -46 -7.5t-39.5 -24.5t-29.5 -48.5t-11 -73.5v-69z" />
<glyph unicode="&#x10e;" horiz-adv-x="550" vert-adv-y="0" d="M317 736l-73 67l-72 -67h-51l109 101h29l109 -101h-51zM290 667q90 0 137.5 -53t47.5 -151v-258q0 -99 -47 -152t-138 -53h-205v667h205zM290 60q131 0 131 149v250q0 148 -131 148h-151v-547h151z" />
<glyph unicode="&#x10f;" horiz-adv-x="460" vert-adv-y="0" d="M516 612q0 20 12 30.5t29 10.5t29 -10.5t12 -30.5q0 -18 -8 -43l-43 -113h-25l28 115l-9 2q-25 9 -25 39zM222 14q-29 0 -56 9.5t-53 31t-42 62.5t-16 97v69q0 56 16 97t42 62.5t53 31t56 9.5q73 0 115 -54l18 -23v261h50v-647h-50v71l-18 -23q-42 -54 -115 -54zM355 204 v69q0 81 -37.5 117.5t-87.5 36.5t-87.5 -36.5t-37.5 -117.5v-69q0 -81 37.5 -117.5t87.5 -36.5t87.5 36.5t37.5 117.5z" />
<glyph unicode="&#x110;" horiz-adv-x="581" vert-adv-y="0" d="M127 363v304h184q41 0 76 -12.5t65 -38t47 -70t17 -103.5v-218q0 -60 -17 -104.5t-47 -70t-65 -38t-76 -12.5h-184v323h-72v40h72zM308 323h-131v-263h134q64 0 107.5 41t43.5 127v212q0 86 -43.5 126.5t-107.5 40.5h-134v-244h131v-40z" />
<glyph unicode="&#x111;" horiz-adv-x="515" vert-adv-y="0" d="M355 593v74h48v-74h62v-41h-62v-532h-48v80l-17 -25q-8 -12 -18 -22t-21 -17.5t-23.5 -12t-26 -7t-27.5 -2.5q-70 0 -118.5 51.5t-48.5 148.5v68q0 98 48.5 149.5t118.5 51.5q75 0 116 -62l17 -25v156h-138v41h138zM355 272q0 38 -10.5 68t-28.5 48.5t-39.5 28.5 t-45.5 10q-51 0 -88.5 -40.5t-37.5 -113.5v-69q0 -73 37.5 -113.5t88.5 -40.5q50 0 87 40.5t37 113.5v68z" />
<glyph unicode="&#x112;" vert-adv-y="0" d="M105 746v36h250v-36h-250zM85 0v667h319v-52h-267v-247h217v-50h-215v-266h266v-52h-320z" />
<glyph unicode="&#x113;" horiz-adv-x="456" vert-adv-y="0" d="M97 555v36h250v-36h-250zM63 154q-5 28 -5 89q0 62 5 89q15 74 60.5 107.5t105.5 33.5q55 0 98 -29t61 -94q10 -35 10 -102q0 -6 -1 -20h-291v-14q0 -83 37.5 -124.5t96.5 -41.5q7 0 15 0.5t16 2t15.5 3t16 4.5t16 6.5t15.5 7.5t16 10l22 -40q-61 -38 -132 -38 q-67 0 -114.5 36.5t-62.5 113.5zM106 282v-10h244v10q0 76 -36 111.5t-85 35.5t-85 -35t-38 -112z" />
<glyph unicode="&#x114;" vert-adv-y="0" d="M231 736q-53 0 -89 29.5t-40 77.5h31q4 -35 30 -55t68 -20q11 0 22 1.5t20.5 5t17.5 8.5t14.5 11t11.5 13.5t8 16.5t4 19h30q-2 -32 -19.5 -56.5t-46 -37.5t-62.5 -13zM85 0v667h319v-52h-267v-247h217v-50h-215v-266h266v-52h-320z" />
<glyph unicode="&#x115;" horiz-adv-x="456" vert-adv-y="0" d="M223 545q-53 0 -89 29.5t-40 77.5h31q4 -35 30 -55t68 -20q11 0 22 1.5t20.5 5t17.5 8.5t14.5 11t11.5 13.5t8 16.5t4 19h30q-2 -32 -19.5 -56.5t-46 -37.5t-62.5 -13zM63 154q-5 28 -5 89q0 62 5 89q15 74 60.5 107.5t105.5 33.5q55 0 98 -29t61 -94q10 -35 10 -102 q0 -6 -1 -20h-291v-14q0 -83 37.5 -124.5t96.5 -41.5q7 0 15 0.5t16 2t15.5 3t16 4.5t16 6.5t15.5 7.5t16 10l22 -40q-61 -38 -132 -38q-67 0 -114.5 36.5t-62.5 113.5zM106 282v-10h244v10q0 76 -36 111.5t-85 35.5t-85 -35t-38 -112z" />
<glyph unicode="&#x116;" vert-adv-y="0" d="M194 777q0 17 10 27t27 10t27 -10t10 -27t-10 -27t-27 -10t-27 10t-10 27zM85 0v667h319v-52h-267v-247h217v-50h-215v-266h266v-52h-320z" />
<glyph unicode="&#x117;" horiz-adv-x="456" vert-adv-y="0" d="M186 586q0 17 10 27t27 10t27 -10t10 -27t-10 -27t-27 -10t-27 10t-10 27zM63 154q-5 28 -5 89q0 62 5 89q15 74 60.5 107.5t105.5 33.5q55 0 98 -29t61 -94q10 -35 10 -102q0 -6 -1 -20h-291v-14q0 -83 37.5 -124.5t96.5 -41.5q7 0 15 0.5t16 2t15.5 3t16 4.5t16 6.5 t15.5 7.5t16 10l22 -40q-61 -38 -132 -38q-67 0 -114.5 36.5t-62.5 113.5zM106 282v-10h244v10q0 76 -36 111.5t-85 35.5t-85 -35t-38 -112z" />
<glyph unicode="&#x118;" vert-adv-y="0" d="M201 0h39q-40 -52 -40 -99q0 -23 13.5 -40t36.5 -17q30 0 57 37l26 -17q-34 -55 -83 -55q-38 0 -59 26t-21 63q0 57 31 102zM85 0v667h319v-52h-267v-247h217v-50h-215v-266h266v-52h-320z" />
<glyph unicode="&#x119;" horiz-adv-x="456" vert-adv-y="0" d="M203 0h39q-40 -52 -40 -99q0 -23 13.5 -40t36.5 -17q30 0 57 37l26 -17q-34 -55 -83 -55q-38 0 -59 26t-21 63q0 57 31 102zM63 154q-5 28 -5 89q0 62 5 89q15 74 60.5 107.5t105.5 33.5q55 0 98 -29t61 -94q10 -35 10 -102q0 -6 -1 -20h-291v-14q0 -83 37.5 -124.5 t96.5 -41.5q7 0 15 0.5t16 2t15.5 3t16 4.5t16 6.5t15.5 7.5t16 10l22 -40q-61 -38 -132 -38q-67 0 -114.5 36.5t-62.5 113.5zM106 282v-10h244v10q0 76 -36 111.5t-85 35.5t-85 -35t-38 -112z" />
<glyph unicode="&#x11a;" vert-adv-y="0" d="M288 736l-73 67l-72 -67h-51l109 101h29l109 -101h-51zM85 0v667h319v-52h-267v-247h217v-50h-215v-266h266v-52h-320z" />
<glyph unicode="&#x11b;" horiz-adv-x="456" vert-adv-y="0" d="M280 545l-73 67l-72 -67h-51l109 101h29l109 -101h-51zM63 154q-5 28 -5 89q0 62 5 89q15 74 60.5 107.5t105.5 33.5q55 0 98 -29t61 -94q10 -35 10 -102q0 -6 -1 -20h-291v-14q0 -83 37.5 -124.5t96.5 -41.5q7 0 15 0.5t16 2t15.5 3t16 4.5t16 6.5t15.5 7.5t16 10 l22 -40q-61 -38 -132 -38q-67 0 -114.5 36.5t-62.5 113.5zM106 282v-10h244v10q0 76 -36 111.5t-85 35.5t-85 -35t-38 -112z" />
<glyph unicode="&#x11c;" horiz-adv-x="540" vert-adv-y="0" d="M317 736l-73 67l-72 -67h-51l109 101h29l109 -101h-51zM396 567q-53 46 -125 46q-30 0 -55 -7t-48 -24t-36 -50t-13 -79v-239q0 -46 13 -79t36 -50t48 -24t55 -7t54.5 7t47.5 24t35.5 50t12.5 79v83h-129v50h183v-133q0 -59 -17 -102t-47.5 -65.5t-64.5 -32.5t-75 -10 t-75.5 10t-65 32.5t-48 65.5t-17.5 102v239q0 59 17.5 102t48 65.5t65 32.5t75.5 10q94 0 155 -56z" />
<glyph unicode="&#x11d;" horiz-adv-x="480" vert-adv-y="0" d="M267 545l-73 67l-72 -67h-51l109 101h29l109 -101h-51zM355 71l-18 -23q-42 -54 -115 -54q-29 0 -56 9.5t-53 31t-42 62.5t-16 97v69q0 56 16 97t42 62.5t53 31t56 9.5q73 0 115 -54l18 -23v71h50v-467q0 -73 -52.5 -126.5t-131.5 -53.5q-74 0 -139 38l23 41 q53 -33 116 -33q56 0 95 39.5t39 94.5v81zM355 204v69q0 81 -37.5 117.5t-87.5 36.5t-87.5 -36.5t-37.5 -117.5v-69q0 -81 37.5 -117.5t87.5 -36.5t87.5 36.5t37.5 117.5z" />
<glyph unicode="&#x11e;" horiz-adv-x="540" vert-adv-y="0" d="M260 736q-53 0 -89 29.5t-40 77.5h31q4 -35 30 -55t68 -20q11 0 22 1.5t20.5 5t17.5 8.5t14.5 11t11.5 13.5t8 16.5t4 19h30q-2 -32 -19.5 -56.5t-46 -37.5t-62.5 -13zM396 567q-53 46 -125 46q-30 0 -55 -7t-48 -24t-36 -50t-13 -79v-239q0 -46 13 -79t36 -50t48 -24 t55 -7t54.5 7t47.5 24t35.5 50t12.5 79v83h-129v50h183v-133q0 -59 -17 -102t-47.5 -65.5t-64.5 -32.5t-75 -10t-75.5 10t-65 32.5t-48 65.5t-17.5 102v239q0 59 17.5 102t48 65.5t65 32.5t75.5 10q94 0 155 -56z" />
<glyph unicode="&#x11f;" horiz-adv-x="480" vert-adv-y="0" d="M210 545q-53 0 -89 29.5t-40 77.5h31q4 -35 30 -55t68 -20q11 0 22 1.5t20.5 5t17.5 8.5t14.5 11t11.5 13.5t8 16.5t4 19h30q-2 -32 -19.5 -56.5t-46 -37.5t-62.5 -13zM355 71l-18 -23q-42 -54 -115 -54q-29 0 -56 9.5t-53 31t-42 62.5t-16 97v69q0 56 16 97t42 62.5 t53 31t56 9.5q73 0 115 -54l18 -23v71h50v-467q0 -73 -52.5 -126.5t-131.5 -53.5q-74 0 -139 38l23 41q53 -33 116 -33q56 0 95 39.5t39 94.5v81zM355 204v69q0 81 -37.5 117.5t-87.5 36.5t-87.5 -36.5t-37.5 -117.5v-69q0 -81 37.5 -117.5t87.5 -36.5t87.5 36.5t37.5 117.5 z" />
<glyph unicode="&#x120;" horiz-adv-x="540" vert-adv-y="0" d="M222 777q0 17 10 27t27 10t27 -10t10 -27t-10 -27t-27 -10t-27 10t-10 27zM396 567q-53 46 -125 46q-30 0 -55 -7t-48 -24t-36 -50t-13 -79v-239q0 -46 13 -79t36 -50t48 -24t55 -7t54.5 7t47.5 24t35.5 50t12.5 79v83h-129v50h183v-133q0 -59 -17 -102t-47.5 -65.5 t-64.5 -32.5t-75 -10t-75.5 10t-65 32.5t-48 65.5t-17.5 102v239q0 59 17.5 102t48 65.5t65 32.5t75.5 10q94 0 155 -56z" />
<glyph unicode="&#x121;" horiz-adv-x="480" vert-adv-y="0" d="M172 586q0 17 10 27t27 10t27 -10t10 -27t-10 -27t-27 -10t-27 10t-10 27zM355 71l-18 -23q-42 -54 -115 -54q-29 0 -56 9.5t-53 31t-42 62.5t-16 97v69q0 56 16 97t42 62.5t53 31t56 9.5q73 0 115 -54l18 -23v71h50v-467q0 -73 -52.5 -126.5t-131.5 -53.5q-74 0 -139 38 l23 41q53 -33 116 -33q56 0 95 39.5t39 94.5v81zM355 204v69q0 81 -37.5 117.5t-87.5 36.5t-87.5 -36.5t-37.5 -117.5v-69q0 -81 37.5 -117.5t87.5 -36.5t87.5 36.5t37.5 117.5z" />
<glyph unicode="&#x122;" horiz-adv-x="540" vert-adv-y="0" d="M219 -119q0 36 41 36t41 -36q0 -21 -8 -35l-42 -76h-25l28 74l-10 3q-13 5 -19 12t-6 22zM396 567q-53 46 -125 46q-30 0 -55 -7t-48 -24t-36 -50t-13 -79v-239q0 -46 13 -79t36 -50t48 -24t55 -7t54.5 7t47.5 24t35.5 50t12.5 79v83h-129v50h183v-133q0 -59 -17 -102 t-47.5 -65.5t-64.5 -32.5t-75 -10t-75.5 10t-65 32.5t-48 65.5t-17.5 102v239q0 59 17.5 102t48 65.5t65 32.5t75.5 10q94 0 155 -56z" />
<glyph unicode="&#x123;" horiz-adv-x="480" vert-adv-y="0" d="M254 587q0 -16 -41 -16t-41 16q0 21 8 35l42 96h25l-28 -94l10 -3q13 -5 19 -12t6 -22zM355 71l-18 -23q-42 -54 -115 -54q-29 0 -56 9.5t-53 31t-42 62.5t-16 97v69q0 56 16 97t42 62.5t53 31t56 9.5q73 0 115 -54l18 -23v71h50v-467q0 -73 -52.5 -126.5t-131.5 -53.5 q-74 0 -139 38l23 41q53 -33 116 -33q56 0 95 39.5t39 94.5v81zM355 204v69q0 81 -37.5 117.5t-87.5 36.5t-87.5 -36.5t-37.5 -117.5v-69q0 -81 37.5 -117.5t87.5 -36.5t87.5 36.5t37.5 117.5z" />
<glyph unicode="&#x124;" horiz-adv-x="570" vert-adv-y="0" d="M332 736l-73 67l-72 -67h-51l109 101h29l109 -101h-51zM85 0v667h54v-299h292v299h54v-667h-54v318h-292v-318h-54z" />
<glyph unicode="&#x125;" horiz-adv-x="478" vert-adv-y="0" d="M138 736l-73 67l-72 -67h-51l109 101h29l109 -101h-51zM125 283v-263h-50v647h50v-258l18 23q10 13 23 23t27 16t29 9t31 3q29 0 55.5 -9.5t51.5 -31t40 -62.5t15 -97v-263h-50v263q0 81 -35 117.5t-85 36.5t-85 -36.5t-35 -117.5z" />
<glyph unicode="&#x126;" horiz-adv-x="670" vert-adv-y="0" d="M134 570v97h51v-94h298v94h51v-97h61v-42h-61v-528h-51v320h-298v-320h-51v528h-59v42h59zM483 522h-298v-156h298v156z" />
<glyph unicode="&#x127;" horiz-adv-x="544" vert-adv-y="0" d="M205 421q40 62 114 62q69 0 114.5 -50.5t45.5 -149.5v-263h-50v262q0 74 -34.5 114.5t-84.5 40.5q-19 0 -36.5 -6t-33 -18.5t-27 -30.5t-18 -43.5t-6.5 -55.5v-263h-50v532h-74v41h74v74h50v-74h122v-41h-122v-156z" />
<glyph unicode="&#x128;" horiz-adv-x="224" vert-adv-y="0" d="M89 775q-15 24 -40 24q-23 0 -36.5 -15t-16.5 -38h-30q3 36 25 59.5t56 23.5q42 0 67 -37q16 -22 43 -22q12 0 23 6t18 18t9 28h30q-3 -38 -27 -60t-55 -22q-42 0 -66 35zM85 667h54v-667h-54v667z" />
<glyph unicode="&#x129;" horiz-adv-x="194" vert-adv-y="0" d="M74 585q-15 24 -40 24q-23 0 -36.5 -15t-16.5 -38h-30q3 36 25 59.5t56 23.5q42 0 67 -37q16 -22 43 -22q12 0 23 6t18 18t9 28h30q-3 -38 -27 -60t-55 -22q-42 0 -66 35zM72 10v457h50v-457h-50z" />
<glyph unicode="&#x12a;" horiz-adv-x="224" vert-adv-y="0" d="M-24 746v36h250v-36h-250zM85 667h54v-667h-54v667z" />
<glyph unicode="&#x12b;" horiz-adv-x="194" vert-adv-y="0" d="M-39 556v36h250v-36h-250zM72 10v457h50v-457h-50z" />
<glyph unicode="&#x12c;" horiz-adv-x="224" vert-adv-y="0" d="M102 736q-53 0 -89 29.5t-40 77.5h31q4 -35 30 -55t68 -20q11 0 22 1.5t20.5 5t17.5 8.5t14.5 11t11.5 13.5t8 16.5t4 19h30q-2 -32 -19.5 -56.5t-46 -37.5t-62.5 -13zM85 667h54v-667h-54v667z" />
<glyph unicode="&#x12d;" horiz-adv-x="194" vert-adv-y="0" d="M87 546q-53 0 -89 29.5t-40 77.5h31q4 -35 30 -55t68 -20q11 0 22 1.5t20.5 5t17.5 8.5t14.5 11t11.5 13.5t8 16.5t4 19h30q-2 -32 -19.5 -56.5t-46 -37.5t-62.5 -13zM72 10v457h50v-457h-50z" />
<glyph unicode="&#x12e;" horiz-adv-x="224" vert-adv-y="0" d="M72 0h39q-40 -52 -40 -99q0 -23 13.5 -40t36.5 -17q30 0 57 37l26 -17q-34 -55 -83 -55q-38 0 -59 26t-21 63q0 57 31 102zM85 667h54v-667h-54v667z" />
<glyph unicode="&#x12f;" horiz-adv-x="212" vert-adv-y="0" d="M66 6h39q-40 -52 -40 -99q0 -23 13.5 -40t36.5 -17q30 0 57 37l26 -17q-34 -55 -83 -55q-38 0 -59 26t-21 63q0 57 31 102zM81 10v457h50v-457h-50zM69 607q0 17 10 27t26 10q17 0 27.5 -10t10.5 -27t-10.5 -27t-27.5 -10q-16 0 -26 10t-10 27z" />
<glyph unicode="&#x130;" horiz-adv-x="224" vert-adv-y="0" d="M64 777q0 17 10 27t27 10t27 -10t10 -27t-10 -27t-27 -10t-27 10t-10 27zM85 667h54v-667h-54v667z" />
<glyph unicode="&#x131;" horiz-adv-x="194" vert-adv-y="0" d="M72 10v457h50v-457h-50z" />
<glyph unicode="&#x132;" horiz-adv-x="612" vert-adv-y="0" d="M483 210v457h54v-457q0 -49 -15 -87.5t-39.5 -61.5t-54 -35t-59.5 -12q-94 0 -158 82l39 32q50 -64 119 -64q45 0 79.5 38.5t34.5 107.5zM85 667h54v-667h-54v667z" />
<glyph unicode="&#x133;" horiz-adv-x="362" vert-adv-y="0" d="M69 597q0 17 10 27t27 10t27 -10t10 -27t-10 -27t-27 -10t-27 10t-10 27zM82 10v457h50v-457h-50zM219 597q0 17 10 27t27 10t27 -10t10 -27t-10 -27t-27 -10t-27 10t-10 27zM282 457v-527q0 -59 -32.5 -89.5t-77.5 -30.5h-20v42h20q25 0 42.5 20t17.5 58v527h50z" />
<glyph unicode="&#x134;" horiz-adv-x="451" vert-adv-y="0" d="M403 736l-73 67l-72 -67h-51l109 101h29l109 -101h-51zM319 224v443h54v-443q0 -35 -5 -64t-13.5 -50.5t-21 -38t-27 -27t-31.5 -17.5t-34.5 -10t-36.5 -3q-37 0 -79 15t-70 56l40 32q42 -53 109 -53q22 0 40.5 6.5t36.5 22.5t28 49t10 82z" />
<glyph unicode="&#x135;" horiz-adv-x="205" vert-adv-y="0" d="M152 543l-73 67l-72 -67h-51l109 101h29l109 -101h-51zM130 457v-527q0 -59 -32.5 -89.5t-77.5 -30.5h-20v42h20q25 0 42.5 20t17.5 58v527h50z" />
<glyph unicode="&#x136;" horiz-adv-x="544" vert-adv-y="0" d="M224 -119q0 36 41 36t41 -36q0 -21 -8 -35l-42 -76h-25l28 74l-10 3q-13 5 -19 12t-6 22zM139 230v-230h-54v667h54v-361l276 361h60l-237 -308l251 -359h-62l-221 313z" />
<glyph unicode="&#x137;" horiz-adv-x="429" vert-adv-y="0" d="M168 -119q0 36 41 36t41 -36q0 -21 -8 -35l-42 -76h-25l28 74l-10 3q-13 5 -19 12t-6 22zM75 20v647h50v-459l182 269h57l-144 -207l160 -250h-57l-132 219l-66 -89v-130h-50z" />
<glyph unicode="&#x138;" horiz-adv-x="427" vert-adv-y="0" d="M75 10v457h48v-269l182 269h57l-146 -207l162 -250h-57l-132 219l-66 -89v-130h-48z" />
<glyph unicode="&#x139;" horiz-adv-x="480" vert-adv-y="0" d="M115 837h57l-72 -101h-48zM85 0v667h54v-615h286v-52h-340z" />
<glyph unicode="&#x13a;" horiz-adv-x="200" vert-adv-y="0" d="M112 837h57l-72 -101h-48zM75 20v647h50v-647h-50z" />
<glyph unicode="&#x13b;" horiz-adv-x="480" vert-adv-y="0" d="M201 -119q0 36 41 36t41 -36q0 -21 -8 -35l-42 -76h-25l28 74l-10 3q-13 5 -19 12t-6 22zM85 0v667h54v-615h286v-52h-340z" />
<glyph unicode="&#x13c;" horiz-adv-x="200" vert-adv-y="0" d="M53 -119q0 36 41 36t41 -36q0 -21 -8 -35l-42 -76h-25l28 74l-10 3q-13 5 -19 12t-6 22zM75 20v647h50v-647h-50z" />
<glyph unicode="&#x13d;" horiz-adv-x="460" vert-adv-y="0" d="M230 612q0 20 12 30.5t29 10.5t29 -10.5t12 -30.5q0 -18 -8 -43l-43 -113h-25l28 115l-9 2q-25 9 -25 39zM85 0v667h54v-615h286v-52h-340z" />
<glyph unicode="&#x13e;" horiz-adv-x="180" vert-adv-y="0" d="M227 612q0 20 12 30.5t29 10.5t29 -10.5t12 -30.5q0 -18 -8 -43l-43 -113h-25l28 115l-9 2q-25 9 -25 39zM75 20v647h50v-647h-50z" />
<glyph unicode="&#x13f;" horiz-adv-x="480" vert-adv-y="0" d="M85 0v667h54v-615h286v-52h-340zM217 334q0 12 4.5 21.5t12.5 14.5t19 5q17 0 27 -11t10 -30t-10 -30t-26.5 -11t-26.5 11t-10 30z" />
<glyph unicode="&#x140;" horiz-adv-x="344" vert-adv-y="0" d="M75 20v647h50v-647h-50zM212 334q0 19 11 30t30 11t30 -11t11 -30t-11 -30t-30 -11t-30 11t-11 30z" />
<glyph unicode="&#x141;" horiz-adv-x="555" vert-adv-y="0" d="M160 323v344h50v-317l122 69v-39l-122 -71v-257h290v-52h-340v285l-115 -60v40z" />
<glyph unicode="&#x142;" horiz-adv-x="390" vert-adv-y="0" d="M165 337v330h50v-305l130 66v-39l-130 -66v-303h-50v278l-120 -61v39z" />
<glyph unicode="&#x143;" horiz-adv-x="570" vert-adv-y="0" d="M297 837h57l-72 -101h-48zM85 0v667h49l297 -547v547h54v-667h-49l-297 547v-547h-54z" />
<glyph unicode="&#x144;" horiz-adv-x="478" vert-adv-y="0" d="M267 647h57l-72 -101h-48zM75 10v457h50v-68l18 23q37 51 112 51q29 0 55.5 -9.5t51 -31t39 -62.5t14.5 -97v-263h-50v263q0 82 -33.5 118t-85.5 36t-86.5 -36t-34.5 -118v-263h-50z" />
<glyph unicode="&#x145;" horiz-adv-x="570" vert-adv-y="0" d="M236 -119q0 36 41 36t41 -36q0 -21 -8 -35l-42 -76h-25l28 74l-10 3q-13 5 -19 12t-6 22zM85 0v667h49l297 -547v547h54v-667h-49l-297 547v-547h-54z" />
<glyph unicode="&#x146;" horiz-adv-x="478" vert-adv-y="0" d="M191 -119q0 36 41 36t41 -36q0 -21 -8 -35l-42 -76h-25l28 74l-10 3q-13 5 -19 12t-6 22zM75 10v457h50v-68l18 23q37 51 112 51q29 0 55.5 -9.5t51 -31t39 -62.5t14.5 -97v-263h-50v263q0 82 -33.5 118t-85.5 36t-86.5 -36t-34.5 -118v-263h-50z" />
<glyph unicode="&#x147;" horiz-adv-x="570" vert-adv-y="0" d="M332 736l-73 67l-72 -67h-51l109 101h29l109 -101h-51zM85 0v667h49l297 -547v547h54v-667h-49l-297 547v-547h-54z" />
<glyph unicode="&#x148;" horiz-adv-x="478" vert-adv-y="0" d="M302 546l-73 67l-72 -67h-51l109 101h29l109 -101h-51zM75 10v457h50v-68l18 23q37 51 112 51q29 0 55.5 -9.5t51 -31t39 -62.5t14.5 -97v-263h-50v263q0 82 -33.5 118t-85.5 36t-86.5 -36t-34.5 -118v-263h-50z" />
<glyph unicode="&#x149;" horiz-adv-x="562" vert-adv-y="0" d="M50 632q0 20 12 30.5t29 10.5t29 -10.5t12 -30.5q0 -18 -8 -43l-43 -113h-25l28 115l-9 2q-25 9 -25 39zM220 411q41 62 116 62q64 0 112.5 -51.5t48.5 -148.5v-263h-50v262q0 74 -35 114.5t-85 40.5q-16 0 -31 -4.5t-28.5 -12.5t-25 -21.5t-20.5 -30t-13.5 -38.5 t-4.5 -47v-263h-47v457h47v-81z" />
<glyph unicode="&#x14a;" horiz-adv-x="566" vert-adv-y="0" d="M85 0v667h47l297 -547v547h52v-737q0 -58 -32 -89t-76 -31h-19v42h19q23 0 39.5 20t16.5 58v79l-292 538v-547h-52z" />
<glyph unicode="&#x14b;" horiz-adv-x="480" vert-adv-y="0" d="M143 401q45 62 115 62q67 0 112 -50.5t45 -149.5v-333q0 -59 -32.5 -89.5t-77.5 -30.5h-18v42h18q25 0 42.5 20t17.5 58v332q0 73 -34 114t-82 41q-47 0 -85.5 -41t-38.5 -113v-263h-50v457h50v-81z" />
<glyph unicode="&#x14c;" horiz-adv-x="560" vert-adv-y="0" d="M144 746v36h250v-36h-250zM495 453v-239q0 -59 -18.5 -101.5t-50.5 -65.5t-68 -33t-78 -10t-78 10t-68 33t-50.5 65.5t-18.5 101.5v239q0 59 18.5 101.5t50.5 65.5t68 33t78 10t78 -10t68 -33t50.5 -65.5t18.5 -101.5zM119 453v-239q0 -46 14 -79t38.5 -50t51 -24 t57.5 -7t57.5 7t51 24t38.5 50t14 79v239q0 46 -14 79t-38.5 50t-51 24t-57.5 7t-57.5 -7t-51 -24t-38.5 -50t-14 -79z" />
<glyph unicode="&#x14d;" horiz-adv-x="460" vert-adv-y="0" d="M94 556v36h250v-36h-250zM405 273v-69q0 -45 -10 -80t-26.5 -57.5t-39.5 -37t-47 -20t-51 -5.5q-35 0 -64.5 10t-55.5 31.5t-41 62t-15 96.5v69q0 56 15 96.5t41 62t55.5 31.5t64 10t64 -10t55 -31.5t40.5 -62t15 -96.5zM105 273v-69q0 -82 36.5 -118t89.5 -36t88.5 36 t35.5 118v69q0 43 -10.5 74t-29 48t-39.5 24.5t-45 7.5q-53 0 -89.5 -36t-36.5 -118z" />
<glyph unicode="&#x14e;" horiz-adv-x="560" vert-adv-y="0" d="M270 736q-53 0 -89 29.5t-40 77.5h31q4 -35 30 -55t68 -20q11 0 22 1.5t20.5 5t17.5 8.5t14.5 11t11.5 13.5t8 16.5t4 19h30q-2 -32 -19.5 -56.5t-46 -37.5t-62.5 -13zM495 453v-239q0 -59 -18.5 -101.5t-50.5 -65.5t-68 -33t-78 -10t-78 10t-68 33t-50.5 65.5 t-18.5 101.5v239q0 59 18.5 101.5t50.5 65.5t68 33t78 10t78 -10t68 -33t50.5 -65.5t18.5 -101.5zM119 453v-239q0 -46 14 -79t38.5 -50t51 -24t57.5 -7t57.5 7t51 24t38.5 50t14 79v239q0 46 -14 79t-38.5 50t-51 24t-57.5 7t-57.5 -7t-51 -24t-38.5 -50t-14 -79z" />
<glyph unicode="&#x14f;" horiz-adv-x="460" vert-adv-y="0" d="M220 546q-53 0 -89 29.5t-40 77.5h31q4 -35 30 -55t68 -20q11 0 22 1.5t20.5 5t17.5 8.5t14.5 11t11.5 13.5t8 16.5t4 19h30q-2 -32 -19.5 -56.5t-46 -37.5t-62.5 -13zM405 273v-69q0 -45 -10 -80t-26.5 -57.5t-39.5 -37t-47 -20t-51 -5.5q-35 0 -64.5 10t-55.5 31.5 t-41 62t-15 96.5v69q0 56 15 96.5t41 62t55.5 31.5t64 10t64 -10t55 -31.5t40.5 -62t15 -96.5zM105 273v-69q0 -82 36.5 -118t89.5 -36t88.5 36t35.5 118v69q0 43 -10.5 74t-29 48t-39.5 24.5t-45 7.5q-53 0 -89.5 -36t-36.5 -118z" />
<glyph unicode="&#x150;" horiz-adv-x="560" vert-adv-y="0" d="M383 837h52l-72 -101h-43zM232 837h52l-72 -101h-43zM495 453v-239q0 -59 -18.5 -101.5t-50.5 -65.5t-68 -33t-78 -10t-78 10t-68 33t-50.5 65.5t-18.5 101.5v239q0 59 18.5 101.5t50.5 65.5t68 33t78 10t78 -10t68 -33t50.5 -65.5t18.5 -101.5zM119 453v-239 q0 -46 14 -79t38.5 -50t51 -24t57.5 -7t57.5 7t51 24t38.5 50t14 79v239q0 46 -14 79t-38.5 50t-51 24t-57.5 7t-57.5 -7t-51 -24t-38.5 -50t-14 -79z" />
<glyph unicode="&#x151;" horiz-adv-x="460" vert-adv-y="0" d="M333 647h52l-72 -101h-43zM182 647h52l-72 -101h-43zM405 273v-69q0 -45 -10 -80t-26.5 -57.5t-39.5 -37t-47 -20t-51 -5.5q-35 0 -64.5 10t-55.5 31.5t-41 62t-15 96.5v69q0 56 15 96.5t41 62t55.5 31.5t64 10t64 -10t55 -31.5t40.5 -62t15 -96.5zM105 273v-69 q0 -82 36.5 -118t89.5 -36t88.5 36t35.5 118v69q0 43 -10.5 74t-29 48t-39.5 24.5t-45 7.5q-53 0 -89.5 -36t-36.5 -118z" />
<glyph unicode="&#x152;" horiz-adv-x="803" vert-adv-y="0" d="M440 469q0 74 -45.5 109t-113.5 35q-72 0 -117 -40t-45 -127v-224q0 -87 45 -127.5t117 -40.5q68 0 113.5 35t45.5 110v270zM440 589v78h297v-52h-245v-247h205v-50h-203v-266h244v-52h-298v78l-17 -23q-44 -61 -142 -61q-46 0 -83.5 12.5t-68 38t-47.5 70t-17 104.5v230 q0 60 17 104t47.5 69.5t68 38t83.5 12.5q98 0 142 -61z" />
<glyph unicode="&#x153;" horiz-adv-x="710" vert-adv-y="0" d="M322 272q0 73 -31.5 115t-74.5 42t-75.5 -42t-32.5 -114v-69q0 -72 32.5 -114t75.5 -42t74.5 42t31.5 114v68zM366 280v-10h218v10q0 35 -8.5 64t-23 48t-34.5 29t-42 10q-43 0 -76.5 -41t-33.5 -110zM650 228h-284v-24q0 -73 35 -115t84 -42q58 0 117 41l24 -35 q-40 -27 -70.5 -38t-70.5 -11q-42 0 -76.5 21.5t-55.5 62.5l-9 19l-9 -19q-19 -42 -50.5 -63t-68.5 -21q-62 0 -109 51.5t-47 148.5v68q0 97 47 149t109 52q37 0 68.5 -21t50.5 -63l9 -19l9 19q21 41 53 62.5t70 21.5q30 0 56.5 -12t49 -35.5t35.5 -64.5t13 -93z" />
<glyph unicode="&#x154;" horiz-adv-x="522" vert-adv-y="0" d="M257 837h57l-72 -101h-48zM85 667h178q84 0 134 -49.5t50 -151.5q0 -137 -96 -183l-9 -4l110 -279h-56l-101 269l-7 -1q-8 -1 -25 -1h-125v-267h-53v667zM139 317h124q61 0 95.5 36t34.5 109t-34.5 109t-95.5 36h-124v-290z" />
<glyph unicode="&#x155;" horiz-adv-x="358" vert-adv-y="0" d="M212 647h57l-72 -101h-48zM75 10v457h50v-68l18 23q41 51 122 51q23 0 47 -4l-7 -44q-23 2 -50 2q-57 0 -93.5 -36t-36.5 -118v-263h-50z" />
<glyph unicode="&#x156;" horiz-adv-x="522" vert-adv-y="0" d="M216 -119q0 36 41 36t41 -36q0 -21 -8 -35l-42 -76h-25l28 74l-10 3q-13 5 -19 12t-6 22zM85 667h178q84 0 134 -49.5t50 -151.5q0 -137 -96 -183l-9 -4l110 -279h-56l-101 269l-7 -1q-8 -1 -25 -1h-125v-267h-53v667zM139 317h124q61 0 95.5 36t34.5 109t-34.5 109 t-95.5 36h-124v-290z" />
<glyph unicode="&#x157;" horiz-adv-x="358" vert-adv-y="0" d="M48 -119q0 36 41 36t41 -36q0 -21 -8 -35l-42 -76h-25l28 74l-10 3q-13 5 -19 12t-6 22zM75 10v457h50v-68l18 23q41 51 122 51q23 0 47 -4l-7 -44q-23 2 -50 2q-57 0 -93.5 -36t-36.5 -118v-263h-50z" />
<glyph unicode="&#x158;" horiz-adv-x="522" vert-adv-y="0" d="M292 736l-73 67l-72 -67h-51l109 101h29l109 -101h-51zM85 667h178q84 0 134 -49.5t50 -151.5q0 -137 -96 -183l-9 -4l110 -279h-56l-101 269l-7 -1q-8 -1 -25 -1h-125v-267h-53v667zM139 317h124q61 0 95.5 36t34.5 109t-34.5 109t-95.5 36h-124v-290z" />
<glyph unicode="&#x159;" horiz-adv-x="358" vert-adv-y="0" d="M247 546l-73 67l-72 -67h-51l109 101h29l109 -101h-51zM75 10v457h50v-68l18 23q41 51 122 51q23 0 47 -4l-7 -44q-23 2 -50 2q-57 0 -93.5 -36t-36.5 -118v-263h-50z" />
<glyph unicode="&#x15a;" horiz-adv-x="501" vert-adv-y="0" d="M246 837h57l-72 -101h-48zM424 186q0 -85 -52.5 -133.5t-139.5 -48.5q-42 0 -93 15t-84 43l35 37q55 -45 142 -45q61 0 99.5 34.5t38.5 97.5q0 33 -12.5 58t-34.5 39.5t-43.5 22.5t-49.5 13q-177 33 -177 169q0 59 26.5 99.5t66.5 58t89 17.5q37 0 83.5 -13.5t81.5 -42.5 l-31 -40q-35 27 -69.5 36.5t-64.5 9.5q-54 0 -91 -31t-37 -94q0 -30 11.5 -52t32.5 -35t41 -20.5t47 -13.5q39 -8 68 -19.5t57.5 -31.5t44 -53t15.5 -77z" />
<glyph unicode="&#x15b;" horiz-adv-x="397" vert-adv-y="0" d="M203 647h57l-72 -101h-48zM191 473q78 0 136 -31l-21 -41q-49 26 -115 26q-43 0 -70 -19.5t-27 -58.5q0 -15 5 -26.5t12.5 -19.5t21.5 -14t27.5 -9.5t34.5 -7.5q149 -27 149 -135q0 -45 -24 -76.5t-57.5 -44t-71.5 -12.5q-37 0 -78 10.5t-70 27.5l21 42q51 -34 127 -34 q47 0 76.5 21.5t29.5 65.5q0 41 -28.5 61t-81.5 30q-21 4 -37 8t-37 13t-34.5 21.5t-22.5 32.5t-9 46q0 43 23 72t54 40.5t67 11.5z" />
<glyph unicode="&#x15c;" horiz-adv-x="501" vert-adv-y="0" d="M281 736l-73 67l-72 -67h-51l109 101h29l109 -101h-51zM424 186q0 -85 -52.5 -133.5t-139.5 -48.5q-42 0 -93 15t-84 43l35 37q55 -45 142 -45q61 0 99.5 34.5t38.5 97.5q0 33 -12.5 58t-34.5 39.5t-43.5 22.5t-49.5 13q-177 33 -177 169q0 59 26.5 99.5t66.5 58t89 17.5 q37 0 83.5 -13.5t81.5 -42.5l-31 -40q-35 27 -69.5 36.5t-64.5 9.5q-54 0 -91 -31t-37 -94q0 -30 11.5 -52t32.5 -35t41 -20.5t47 -13.5q39 -8 68 -19.5t57.5 -31.5t44 -53t15.5 -77z" />
<glyph unicode="&#x15d;" horiz-adv-x="397" vert-adv-y="0" d="M238 546l-73 67l-72 -67h-51l109 101h29l109 -101h-51zM191 473q78 0 136 -31l-21 -41q-49 26 -115 26q-43 0 -70 -19.5t-27 -58.5q0 -15 5 -26.5t12.5 -19.5t21.5 -14t27.5 -9.5t34.5 -7.5q149 -27 149 -135q0 -45 -24 -76.5t-57.5 -44t-71.5 -12.5q-37 0 -78 10.5 t-70 27.5l21 42q51 -34 127 -34q47 0 76.5 21.5t29.5 65.5q0 41 -28.5 61t-81.5 30q-21 4 -37 8t-37 13t-34.5 21.5t-22.5 32.5t-9 46q0 43 23 72t54 40.5t67 11.5z" />
<glyph unicode="&#x15e;" horiz-adv-x="501" vert-adv-y="0" d="M199 0h31l-18 -56l15 -1q45 -4 65 -16.5t20 -40.5q0 -41 -30 -59t-95 -18q-58 0 -93 11l18 33q30 -9 75 -9q19 0 31.5 1t26.5 5t21.5 13t7.5 23q0 21 -7 35t-20.5 19.5t-24 7.5t-25.5 2h-24zM424 186q0 -85 -52.5 -133.5t-139.5 -48.5q-42 0 -93 15t-84 43l35 37 q55 -45 142 -45q61 0 99.5 34.5t38.5 97.5q0 33 -12.5 58t-34.5 39.5t-43.5 22.5t-49.5 13q-177 33 -177 169q0 59 26.5 99.5t66.5 58t89 17.5q37 0 83.5 -13.5t81.5 -42.5l-31 -40q-35 27 -69.5 36.5t-64.5 9.5q-54 0 -91 -31t-37 -94q0 -30 11.5 -52t32.5 -35t41 -20.5 t47 -13.5q39 -8 68 -19.5t57.5 -31.5t44 -53t15.5 -77z" />
<glyph unicode="&#x15f;" horiz-adv-x="397" vert-adv-y="0" d="M156 0h31l-18 -56l15 -1q45 -4 65 -16.5t20 -40.5q0 -41 -30 -59t-95 -18q-58 0 -93 11l18 33q30 -9 75 -9q19 0 31.5 1t26.5 5t21.5 13t7.5 23q0 21 -7 35t-20.5 19.5t-24 7.5t-25.5 2h-24zM191 473q78 0 136 -31l-21 -41q-49 26 -115 26q-43 0 -70 -19.5t-27 -58.5 q0 -15 5 -26.5t12.5 -19.5t21.5 -14t27.5 -9.5t34.5 -7.5q149 -27 149 -135q0 -45 -24 -76.5t-57.5 -44t-71.5 -12.5q-37 0 -78 10.5t-70 27.5l21 42q51 -34 127 -34q47 0 76.5 21.5t29.5 65.5q0 41 -28.5 61t-81.5 30q-21 4 -37 8t-37 13t-34.5 21.5t-22.5 32.5t-9 46 q0 43 23 72t54 40.5t67 11.5z" />
<glyph unicode="&#x160;" horiz-adv-x="501" vert-adv-y="0" d="M281 736l-73 67l-72 -67h-51l109 101h29l109 -101h-51zM424 186q0 -85 -52.5 -133.5t-139.5 -48.5q-42 0 -93 15t-84 43l35 37q55 -45 142 -45q61 0 99.5 34.5t38.5 97.5q0 33 -12.5 58t-34.5 39.5t-43.5 22.5t-49.5 13q-177 33 -177 169q0 59 26.5 99.5t66.5 58t89 17.5 q37 0 83.5 -13.5t81.5 -42.5l-31 -40q-35 27 -69.5 36.5t-64.5 9.5q-54 0 -91 -31t-37 -94q0 -30 11.5 -52t32.5 -35t41 -20.5t47 -13.5q39 -8 68 -19.5t57.5 -31.5t44 -53t15.5 -77z" />
<glyph unicode="&#x161;" horiz-adv-x="397" vert-adv-y="0" d="M238 546l-73 67l-72 -67h-51l109 101h29l109 -101h-51zM191 473q78 0 136 -31l-21 -41q-49 26 -115 26q-43 0 -70 -19.5t-27 -58.5q0 -15 5 -26.5t12.5 -19.5t21.5 -14t27.5 -9.5t34.5 -7.5q149 -27 149 -135q0 -45 -24 -76.5t-57.5 -44t-71.5 -12.5q-37 0 -78 10.5 t-70 27.5l21 42q51 -34 127 -34q47 0 76.5 21.5t29.5 65.5q0 41 -28.5 61t-81.5 30q-21 4 -37 8t-37 13t-34.5 21.5t-22.5 32.5t-9 46q0 43 23 72t54 40.5t67 11.5z" />
<glyph unicode="&#x162;" horiz-adv-x="520" vert-adv-y="0" d="M226 0h31l-18 -56l15 -1q45 -4 65 -16.5t20 -40.5q0 -41 -30 -59t-95 -18q-58 0 -93 11l18 33q30 -9 75 -9q19 0 31.5 1t26.5 5t21.5 13t7.5 23q0 21 -7 35t-20.5 19.5t-24 7.5t-25.5 2h-24zM55 615v52h410v-52h-181l-7 -615h-54l13 615h-181z" />
<glyph unicode="&#x163;" horiz-adv-x="350" vert-adv-y="0" d="M189 0h31l-18 -56l15 -1q45 -4 65 -16.5t20 -40.5q0 -41 -30 -59t-95 -18q-58 0 -93 11l18 33q30 -9 75 -9q19 0 31.5 1t26.5 5t21.5 13t7.5 23q0 21 -7 35t-20.5 19.5t-24 7.5t-25.5 2h-24zM45 435v42h80v104h50v-104h110v-42h-110v-295q0 -35 17.5 -54.5t42.5 -19.5h70 v-46h-70q-45 0 -77.5 30.5t-32.5 89.5v295h-80z" />
<glyph unicode="&#x164;" horiz-adv-x="520" vert-adv-y="0" d="M307 736l-73 67l-72 -67h-51l109 101h29l109 -101h-51zM55 615v52h410v-52h-181l-7 -615h-54l13 615h-181z" />
<glyph unicode="&#x165;" horiz-adv-x="330" vert-adv-y="0" d="M324 612q0 20 12 30.5t29 10.5t29 -10.5t12 -30.5q0 -18 -8 -43l-43 -113h-25l28 115l-9 2q-25 9 -25 39zM45 435v42h80v104h50v-104h110v-42h-110v-295q0 -35 17.5 -54.5t42.5 -19.5h70v-46h-70q-45 0 -77.5 30.5t-32.5 89.5v295h-80z" />
<glyph unicode="&#x166;" horiz-adv-x="520" vert-adv-y="0" d="M55 615v52h410v-52h-181v-272h114v-41h-121v-302h-54v302h-105v41h118v272h-181z" />
<glyph unicode="&#x167;" horiz-adv-x="390" vert-adv-y="0" d="M210 571v-98h92v-43h-92v-122h135v-36h-135v-142q0 -35 18.5 -54.5t43.5 -19.5h50v-46h-50q-45 0 -76.5 30.5t-31.5 89.5v142h-119v36h119v122h-62v43h62v98h46z" />
<glyph unicode="&#x168;" horiz-adv-x="540" vert-adv-y="0" d="M247 775q-15 24 -40 24q-23 0 -36.5 -15t-16.5 -38h-30q3 36 25 59.5t56 23.5q42 0 67 -37q16 -22 43 -22q12 0 23 6t18 18t9 28h30q-3 -38 -27 -60t-55 -22q-42 0 -66 35zM129 667v-443q0 -88 40 -124t101 -36t101 36t40 124v443h54v-443q0 -59 -16.5 -102t-45.5 -65.5 t-61.5 -32.5t-71.5 -10t-71.5 10t-61.5 32.5t-45.5 65.5t-16.5 102v443h54z" />
<glyph unicode="&#x169;" vert-adv-y="0" d="M212 584q-15 24 -40 24q-23 0 -36.5 -15t-16.5 -38h-30q3 36 25 59.5t56 23.5q42 0 67 -37q16 -22 43 -22q12 0 23 6t18 18t9 28h30q-3 -38 -27 -60t-55 -22q-42 0 -66 35zM235 50q48 0 84 36.5t36 117.5v263h50v-263q0 -56 -15 -96.5t-40.5 -62t-54 -31.5t-60.5 -10 t-60.5 10t-54 31.5t-40.5 62t-15 96.5v263h50v-263q0 -81 36 -117.5t84 -36.5z" />
<glyph unicode="&#x16a;" horiz-adv-x="540" vert-adv-y="0" d="M134 746v36h250v-36h-250zM129 667v-443q0 -88 40 -124t101 -36t101 36t40 124v443h54v-443q0 -59 -16.5 -102t-45.5 -65.5t-61.5 -32.5t-71.5 -10t-71.5 10t-61.5 32.5t-45.5 65.5t-16.5 102v443h54z" />
<glyph unicode="&#x16b;" vert-adv-y="0" d="M99 555v36h250v-36h-250zM235 50q48 0 84 36.5t36 117.5v263h50v-263q0 -56 -15 -96.5t-40.5 -62t-54 -31.5t-60.5 -10t-60.5 10t-54 31.5t-40.5 62t-15 96.5v263h50v-263q0 -81 36 -117.5t84 -36.5z" />
<glyph unicode="&#x16c;" horiz-adv-x="540" vert-adv-y="0" d="M260 736q-53 0 -89 29.5t-40 77.5h31q4 -35 30 -55t68 -20q11 0 22 1.5t20.5 5t17.5 8.5t14.5 11t11.5 13.5t8 16.5t4 19h30q-2 -32 -19.5 -56.5t-46 -37.5t-62.5 -13zM129 667v-443q0 -88 40 -124t101 -36t101 36t40 124v443h54v-443q0 -59 -16.5 -102t-45.5 -65.5 t-61.5 -32.5t-71.5 -10t-71.5 10t-61.5 32.5t-45.5 65.5t-16.5 102v443h54z" />
<glyph unicode="&#x16d;" vert-adv-y="0" d="M225 545q-53 0 -89 29.5t-40 77.5h31q4 -35 30 -55t68 -20q11 0 22 1.5t20.5 5t17.5 8.5t14.5 11t11.5 13.5t8 16.5t4 19h30q-2 -32 -19.5 -56.5t-46 -37.5t-62.5 -13zM235 50q48 0 84 36.5t36 117.5v263h50v-263q0 -56 -15 -96.5t-40.5 -62t-54 -31.5t-60.5 -10 t-60.5 10t-54 31.5t-40.5 62t-15 96.5v263h50v-263q0 -81 36 -117.5t84 -36.5z" />
<glyph unicode="&#x16e;" horiz-adv-x="540" vert-adv-y="0" d="M183 786q0 45 21 71t56 26t56 -26t21 -71q0 -35 -21 -56t-56 -21t-56 21t-21 56zM315 786q0 33 -15.5 55t-39.5 22t-39 -22t-15 -55q0 -24 15 -40t39 -16t39.5 16t15.5 40zM129 667v-443q0 -88 40 -124t101 -36t101 36t40 124v443h54v-443q0 -59 -16.5 -102t-45.5 -65.5 t-61.5 -32.5t-71.5 -10t-71.5 10t-61.5 32.5t-45.5 65.5t-16.5 102v443h54z" />
<glyph unicode="&#x16f;" vert-adv-y="0" d="M148 595q0 45 21 71t56 26t56 -26t21 -71q0 -35 -21 -56t-56 -21t-56 21t-21 56zM280 595q0 33 -15.5 55t-39.5 22t-39 -22t-15 -55q0 -24 15 -40t39 -16t39.5 16t15.5 40zM235 50q48 0 84 36.5t36 117.5v263h50v-263q0 -56 -15 -96.5t-40.5 -62t-54 -31.5t-60.5 -10 t-60.5 10t-54 31.5t-40.5 62t-15 96.5v263h50v-263q0 -81 36 -117.5t84 -36.5z" />
<glyph unicode="&#x170;" horiz-adv-x="540" vert-adv-y="0" d="M373 837h52l-72 -101h-43zM222 837h52l-72 -101h-43zM129 667v-443q0 -88 40 -124t101 -36t101 36t40 124v443h54v-443q0 -59 -16.5 -102t-45.5 -65.5t-61.5 -32.5t-71.5 -10t-71.5 10t-61.5 32.5t-45.5 65.5t-16.5 102v443h54z" />
<glyph unicode="&#x171;" vert-adv-y="0" d="M338 646h52l-72 -101h-43zM187 646h52l-72 -101h-43zM235 50q48 0 84 36.5t36 117.5v263h50v-263q0 -56 -15 -96.5t-40.5 -62t-54 -31.5t-60.5 -10t-60.5 10t-54 31.5t-40.5 62t-15 96.5v263h50v-263q0 -81 36 -117.5t84 -36.5z" />
<glyph unicode="&#x172;" horiz-adv-x="540" vert-adv-y="0" d="M228 0h39q-40 -52 -40 -99q0 -23 13.5 -40t36.5 -17q30 0 57 37l26 -17q-34 -55 -83 -55q-38 0 -59 26t-21 63q0 57 31 102zM129 667v-443q0 -88 40 -124t101 -36t101 36t40 124v443h54v-443q0 -59 -16.5 -102t-45.5 -65.5t-61.5 -32.5t-71.5 -10t-71.5 10t-61.5 32.5 t-45.5 65.5t-16.5 102v443h54z" />
<glyph unicode="&#x173;" vert-adv-y="0" d="M195 0h39q-40 -52 -40 -99q0 -23 13.5 -40t36.5 -17q30 0 57 37l26 -17q-34 -55 -83 -55q-38 0 -59 26t-21 63q0 57 31 102zM235 50q48 0 84 36.5t36 117.5v263h50v-263q0 -56 -15 -96.5t-40.5 -62t-54 -31.5t-60.5 -10t-60.5 10t-54 31.5t-40.5 62t-15 96.5v263h50v-263 q0 -81 36 -117.5t84 -36.5z" />
<glyph unicode="&#x174;" horiz-adv-x="762" vert-adv-y="0" d="M425 736l-73 67l-72 -67h-51l109 101h29l109 -101h-51zM213 0l-178 667h54l149 -592l117 427h48l116 -426l148 591h54l-178 -667h-50l-114 415l-115 -415h-51z" />
<glyph unicode="&#x175;" horiz-adv-x="690" d="M388 546l-73 67l-72 -67h-51l109 101h29l109 -101h-51zM186 10l-151 457h50l123 -398l112 398h43l113 -398l121 398h50l-149 -457h-43l-114 417l-112 -417h-43z" />
<glyph unicode="&#x176;" horiz-adv-x="501" vert-adv-y="0" d="M291 736l-73 67l-72 -67h-51l109 101h29l109 -101h-51zM218 278l-183 389h59l150 -321l153 321h56l-184 -389v-278h-51v278z" />
<glyph unicode="&#x177;" horiz-adv-x="490" vert-adv-y="0" d="M287 545l-73 67l-72 -67h-51l109 101h29l109 -101h-51zM35 477h52l153 -427l153 427h52l-247 -662h-48l66 181z" />
<glyph unicode="&#x178;" horiz-adv-x="501" vert-adv-y="0" d="M287 777q0 17 10 27t27 10t27 -10t10 -27t-10 -27t-27 -10t-27 10t-10 27zM107 777q0 17 10 27t27 10t27 -10t10 -27t-10 -27t-27 -10t-27 10t-10 27zM218 278l-183 389h59l150 -321l153 321h56l-184 -389v-278h-51v278z" />
<glyph unicode="&#x179;" horiz-adv-x="500" vert-adv-y="0" d="M262 837h57l-72 -101h-48zM70 615v52h360v-38l-311 -577h321v-52h-380v38l309 577h-299z" />
<glyph unicode="&#x17a;" horiz-adv-x="410" vert-adv-y="0" d="M217 646h57l-72 -101h-48zM55 421v46h300v-37l-242 -374h242v-46h-300v37l242 374h-242z" />
<glyph unicode="&#x17b;" horiz-adv-x="500" vert-adv-y="0" d="M202 777q0 17 10 27t27 10t27 -10t10 -27t-10 -27t-27 -10t-27 10t-10 27zM70 615v52h360v-38l-311 -577h321v-52h-380v38l309 577h-299z" />
<glyph unicode="&#x17c;" horiz-adv-x="410" vert-adv-y="0" d="M158 586q0 17 10 27t27 10t27 -10t10 -27t-10 -27t-27 -10t-27 10t-10 27zM55 421v46h300v-37l-242 -374h242v-46h-300v37l242 374h-242z" />
<glyph unicode="&#x17d;" horiz-adv-x="500" vert-adv-y="0" d="M297 736l-73 67l-72 -67h-51l109 101h29l109 -101h-51zM70 615v52h360v-38l-311 -577h321v-52h-380v38l309 577h-299z" />
<glyph unicode="&#x17e;" horiz-adv-x="410" vert-adv-y="0" d="M252 545l-73 67l-72 -67h-51l109 101h29l109 -101h-51zM55 421v46h300v-37l-242 -374h242v-46h-300v37l242 374h-242z" />
<glyph unicode="&#x18f;" horiz-adv-x="546" vert-adv-y="0" d="M103 586q23 27 48 44.5t50.5 23.5t38.5 7.5t33 1.5q87 0 146 -53t59 -164v-224q0 -112 -59 -165t-146 -53t-146 53t-59 165v105h356v119q0 85 -44 126t-107 41q-21 0 -37 -2t-43 -16.5t-49 -40.5zM424 222v55h-302v-55q0 -86 44 -127t107 -41t107 41t44 127z" />
<glyph unicode="&#x192;" horiz-adv-x="350" vert-adv-y="0" d="M195 433v-497q0 -59 -32.5 -90t-77.5 -31h-50v42h50q25 0 42.5 20.5t17.5 58.5v497h-60v42h60v62q0 59 32.5 89.5t77.5 30.5h50v-42h-50q-25 0 -42.5 -20.5t-17.5 -57.5v-62h90v-42h-90z" />
<glyph unicode="&#x1a9;" horiz-adv-x="460" vert-adv-y="0" d="M260 356v-26l-132 -278h272v-52h-340v28l163 314l-163 297v28h339v-52h-272z" />
<glyph unicode="&#x1c4;" horiz-adv-x="962" vert-adv-y="0" d="M365 858l80 -82l80 82h40l-107 -111h-26l-107 111h40zM522 615v52h370v-38l-322 -577h332v-52h-389v38l318 577h-309zM269 607h-130v-547h130q74 0 119.5 40.5t45.5 127.5v212q0 36 -9 64.5t-23.5 47.5t-35.5 31.5t-45 18t-52 5.5zM85 0v667h184q46 0 84 -12.5t68.5 -38 t47.5 -69.5t17 -104v-208q0 -117 -61 -176t-156 -59h-184z" />
<glyph unicode="&#x1c5;" horiz-adv-x="898" vert-adv-y="0" d="M363 858l80 -82l80 82h40l-107 -111h-27l-106 111h40zM843 429l-238 -382h238v-47h-293v38l235 382h-235v47h293v-38zM267 607h-128v-547h128q73 0 118.5 40.5t45.5 127.5v212q0 87 -45.5 127t-118.5 40zM85 0v647h182q46 0 84 -12t68.5 -37t47 -67.5t16.5 -100.5v-202 q0 -58 -17 -103t-47 -71.5t-68.5 -40t-83.5 -13.5h-182z" />
<glyph unicode="&#x1c6;" horiz-adv-x="825" vert-adv-y="0" d="M367 396v271h46v-647h-46v80l-17 -25q-43 -61 -122 -61q-73 0 -123 51t-50 149v68q0 98 50 149.5t123 51.5q78 0 122 -62zM367 272q0 74 -38.5 114.5t-91.5 40.5t-92.5 -40.5t-39.5 -113.5v-69q0 -37 11.5 -67t30.5 -48.5t42.5 -28.5t47.5 -10q53 0 91.5 40.5t38.5 113.5 v68zM770 430l-237 -374h237v-46h-293v37l235 374h-235v46h293v-37zM361 858l80 -82l80 82h40l-107 -111h-26l-107 111h40z" />
<glyph unicode="&#x1c7;" horiz-adv-x="906" vert-adv-y="0" d="M777 210v457h54v-457q0 -39 -10 -72t-27 -55.5t-39 -38.5t-46 -23t-49 -7h-12t-15 1t-18.5 3.5t-20.5 6t-23 10t-23.5 14.5t-25 20t-24.5 27l40 32q18 -22 37 -36.5t36.5 -20t26.5 -6.5t22 -1q46 0 81.5 38.5t35.5 107.5zM85 0v667h54v-615h297v-52h-351z" />
<glyph unicode="&#x1c8;" horiz-adv-x="625" vert-adv-y="0" d="M482 587q0 17 10 27t27 10t27 -10t10 -27t-10 -27t-27 -10t-27 10t-10 27zM546 457v-527q0 -59 -32.5 -89.5t-77.5 -30.5h-18v42h18q25 0 42.5 20t17.5 58v527h50zM85 0v647h54v-597h287v-50h-341z" />
<glyph unicode="&#x1c9;" horiz-adv-x="345" vert-adv-y="0" d="M202 597q0 17 10 27t27 10t27 -10t10 -27t-10 -27t-27 -10t-27 10t-10 27zM265 457v-527q0 -59 -32.5 -89.5t-77.5 -30.5h-20v42h20q25 0 42.5 20t17.5 58v527h50zM75 20v647h50v-647h-50z" />
<glyph unicode="&#x1ca;" horiz-adv-x="967" vert-adv-y="0" d="M838 210l-20 457h54l20 -457q0 -95 -52.5 -145.5t-122.5 -50.5q-99 0 -167 82l41 32q54 -64 126 -64q48 0 84.5 38.5t36.5 107.5zM85 0v667h47l297 -547v547h52v-667h-47l-297 547v-547h-52z" />
<glyph unicode="&#x1cb;" horiz-adv-x="702" vert-adv-y="0" d="M559 587q0 17 10 27t27 10t27 -10t10 -27t-10 -27t-27 -10t-27 10t-10 27zM622 457v-527q0 -59 -32.5 -89.5t-77.5 -30.5h-20v42h20q25 0 42.5 20t17.5 58v527h50zM85 0v647h47l297 -547v547h52v-647h-47l-297 547v-547h-52z" />
<glyph unicode="&#x1cc;" horiz-adv-x="637" vert-adv-y="0" d="M143 411q45 62 122 62q32 0 59 -12t48 -35.5t33 -62.5t12 -90v-263h-46v262q0 50 -16 85.5t-41.5 52.5t-58.5 17q-51 0 -90.5 -40.5t-39.5 -113.5v-263h-50v457h50v-81zM556 457v-527q0 -40 -16.5 -68t-40.5 -40t-53 -12h-18v42h18q25 0 42.5 20t17.5 58v527h50zM494 597 q0 17 10 27t27 10t27 -10t10 -27t-10 -27t-27 -10t-27 10t-10 27z" />
<glyph unicode="&#x1ea;" horiz-adv-x="560" vert-adv-y="0" d="M240 0h39q-40 -52 -40 -99q0 -23 13.5 -40t36.5 -17q30 0 57 37l26 -17q-34 -55 -83 -55q-38 0 -59 26t-21 63q0 57 31 102zM495 453v-239q0 -59 -18.5 -101.5t-50.5 -65.5t-68 -33t-78 -10t-78 10t-68 33t-50.5 65.5t-18.5 101.5v239q0 59 18.5 101.5t50.5 65.5t68 33 t78 10t78 -10t68 -33t50.5 -65.5t18.5 -101.5zM119 453v-239q0 -46 14 -79t38.5 -50t51 -24t57.5 -7t57.5 7t51 24t38.5 50t14 79v239q0 46 -14 79t-38.5 50t-51 24t-57.5 7t-57.5 -7t-51 -24t-38.5 -50t-14 -79z" />
<glyph unicode="&#x1eb;" horiz-adv-x="460" vert-adv-y="0" d="M190 0h39q-40 -52 -40 -99q0 -23 13.5 -40t36.5 -17q30 0 57 37l26 -17q-34 -55 -83 -55q-38 0 -59 26t-21 63q0 57 31 102zM405 273v-69q0 -45 -10 -80t-26.5 -57.5t-39.5 -37t-47 -20t-51 -5.5q-35 0 -64.5 10t-55.5 31.5t-41 62t-15 96.5v69q0 56 15 96.5t41 62 t55.5 31.5t64 10t64 -10t55 -31.5t40.5 -62t15 -96.5zM105 273v-69q0 -82 36.5 -118t89.5 -36t88.5 36t35.5 118v69q0 43 -10.5 74t-29 48t-39.5 24.5t-45 7.5q-53 0 -89.5 -36t-36.5 -118z" />
<glyph unicode="&#x1f1;" horiz-adv-x="962" vert-adv-y="0" d="M522 615v52h370v-38l-322 -577h332v-52h-389v38l318 577h-309zM269 607h-130v-547h130q74 0 119.5 40.5t45.5 127.5v212q0 36 -9 64.5t-23.5 47.5t-35.5 31.5t-45 18t-52 5.5zM85 0v667h184q46 0 84 -12.5t68.5 -38t47.5 -69.5t17 -104v-208q0 -117 -61 -176t-156 -59 h-184z" />
<glyph unicode="&#x1f2;" horiz-adv-x="898" vert-adv-y="0" d="M843 429l-238 -382h238v-47h-293v38l235 382h-235v47h293v-38zM267 607h-128v-547h128q73 0 118.5 40.5t45.5 127.5v212q0 87 -45.5 127t-118.5 40zM85 0v647h182q46 0 84 -12t68.5 -37t47 -67.5t16.5 -100.5v-202q0 -58 -17 -103t-47 -71.5t-68.5 -40t-83.5 -13.5h-182z " />
<glyph unicode="&#x1f3;" horiz-adv-x="825" vert-adv-y="0" d="M367 396v271h46v-647h-46v80l-17 -25q-43 -61 -122 -61q-73 0 -123 51t-50 149v68q0 98 50 149.5t123 51.5q78 0 122 -62zM367 272q0 74 -38.5 114.5t-91.5 40.5t-92.5 -40.5t-39.5 -113.5v-69q0 -37 11.5 -67t30.5 -48.5t42.5 -28.5t47.5 -10q53 0 91.5 40.5t38.5 113.5 v68zM770 430l-237 -374h237v-46h-293v37l235 374h-235v46h293v-37z" />
<glyph unicode="&#x1f4;" horiz-adv-x="540" vert-adv-y="0" d="M282 837h57l-72 -101h-48zM396 567q-53 46 -125 46q-30 0 -55 -7t-48 -24t-36 -50t-13 -79v-239q0 -46 13 -79t36 -50t48 -24t55 -7t54.5 7t47.5 24t35.5 50t12.5 79v83h-129v50h183v-133q0 -59 -17 -102t-47.5 -65.5t-64.5 -32.5t-75 -10t-75.5 10t-65 32.5t-48 65.5 t-17.5 102v239q0 59 17.5 102t48 65.5t65 32.5t75.5 10q94 0 155 -56z" />
<glyph unicode="&#x1f5;" horiz-adv-x="480" vert-adv-y="0" d="M232 646h57l-72 -101h-48zM355 71l-18 -23q-42 -54 -115 -54q-29 0 -56 9.5t-53 31t-42 62.5t-16 97v69q0 56 16 97t42 62.5t53 31t56 9.5q73 0 115 -54l18 -23v71h50v-467q0 -73 -52.5 -126.5t-131.5 -53.5q-74 0 -139 38l23 41q53 -33 116 -33q56 0 95 39.5t39 94.5v81 zM355 204v69q0 81 -37.5 117.5t-87.5 36.5t-87.5 -36.5t-37.5 -117.5v-69q0 -81 37.5 -117.5t87.5 -36.5t87.5 36.5t37.5 117.5z" />
<glyph unicode="&#x200;" horiz-adv-x="569" d="M161 736l-72 101h52l63 -101h-43zM312 736l-72 101h52l63 -101h-43zM35 0l222 667h48l221 -667h-54l-54 165h-274l-54 -165h-55zM402 225l-121 377l-123 -377h244z" />
<glyph unicode="&#x201;" horiz-adv-x="461" vert-adv-y="0" d="M108 545l-72 101h52l63 -101h-43zM259 545l-72 101h52l63 -101h-43zM87 445q65 28 141 28q74 0 119.5 -44.5t45.5 -138.5v-280h-48v67l-17 -18q-26 -27 -55 -41t-71 -14q-63 0 -105 38.5t-42 100.5q0 141 201 141q46 0 77 -5l12 -2v12q0 69 -31.5 104.5t-85.5 35.5 q-66 0 -124 -25zM264 243q-161 0 -161 -100q0 -42 29.5 -68t77.5 -26q56 0 95.5 39.5t39.5 115.5v34l-9 1q-35 4 -72 4z" />
<glyph unicode="&#x202;" horiz-adv-x="569" d="M173 736h-31q4 48 40 77.5t88.5 29.5t88.5 -29.5t40 -77.5h-30q-4 35 -30.5 55t-67.5 20q-28 0 -49 -9t-33.5 -26t-15.5 -40zM35 0l222 667h48l221 -667h-54l-54 165h-274l-54 -165h-55zM402 225l-121 377l-123 -377h244z" />
<glyph unicode="&#x203;" horiz-adv-x="461" vert-adv-y="0" d="M120 545h-31q4 48 40 77.5t88.5 29.5t88.5 -29.5t40 -77.5h-30q-4 35 -30.5 55t-67.5 20q-28 0 -49 -9t-33.5 -26t-15.5 -40zM87 445q65 28 141 28q74 0 119.5 -44.5t45.5 -138.5v-280h-48v67l-17 -18q-26 -27 -55 -41t-71 -14q-63 0 -105 38.5t-42 100.5q0 141 201 141 q46 0 77 -5l12 -2v12q0 69 -31.5 104.5t-85.5 35.5q-66 0 -124 -25zM264 243q-161 0 -161 -100q0 -42 29.5 -68t77.5 -26q56 0 95.5 39.5t39.5 115.5v34l-9 1q-35 4 -72 4z" />
<glyph unicode="&#x204;" vert-adv-y="0" d="M121 736l-72 101h52l63 -101h-43zM272 736l-72 101h52l63 -101h-43zM85 0v667h319v-52h-267v-247h217v-50h-215v-266h266v-52h-320z" />
<glyph unicode="&#x205;" horiz-adv-x="456" vert-adv-y="0" d="M113 545l-72 101h52l63 -101h-43zM264 545l-72 101h52l63 -101h-43zM63 154q-5 28 -5 89q0 62 5 89q15 74 60.5 107.5t105.5 33.5q55 0 98 -29t61 -94q10 -35 10 -102q0 -6 -1 -20h-291v-14q0 -83 37.5 -124.5t96.5 -41.5q7 0 15 0.5t16 2t15.5 3t16 4.5t16 6.5t15.5 7.5 t16 10l22 -40q-61 -38 -132 -38q-67 0 -114.5 36.5t-62.5 113.5zM106 282v-10h244v10q0 76 -36 111.5t-85 35.5t-85 -35t-38 -112z" />
<glyph unicode="&#x206;" vert-adv-y="0" d="M133 736h-31q4 48 40 77.5t88.5 29.5t88.5 -29.5t40 -77.5h-30q-4 35 -30.5 55t-67.5 20q-28 0 -49 -9t-33.5 -26t-15.5 -40zM85 0v667h319v-52h-267v-247h217v-50h-215v-266h266v-52h-320z" />
<glyph unicode="&#x207;" horiz-adv-x="456" vert-adv-y="0" d="M125 545h-31q4 48 40 77.5t88.5 29.5t88.5 -29.5t40 -77.5h-30q-4 35 -30.5 55t-67.5 20q-28 0 -49 -9t-33.5 -26t-15.5 -40zM63 154q-5 28 -5 89q0 62 5 89q15 74 60.5 107.5t105.5 33.5q55 0 98 -29t61 -94q10 -35 10 -102q0 -6 -1 -20h-291v-14q0 -83 37.5 -124.5 t96.5 -41.5q7 0 15 0.5t16 2t15.5 3t16 4.5t16 6.5t15.5 7.5t16 10l22 -40q-61 -38 -132 -38q-67 0 -114.5 36.5t-62.5 113.5zM106 282v-10h244v10q0 76 -36 111.5t-85 35.5t-85 -35t-38 -112z" />
<glyph unicode="&#x208;" horiz-adv-x="224" vert-adv-y="0" d="M-8 736l-72 101h52l63 -101h-43zM143 736l-72 101h52l63 -101h-43zM85 667h54v-667h-54v667z" />
<glyph unicode="&#x209;" horiz-adv-x="194" vert-adv-y="0" d="M-23 546l-72 101h52l63 -101h-43zM128 546l-72 101h52l63 -101h-43zM72 10v457h50v-457h-50z" />
<glyph unicode="&#x20a;" horiz-adv-x="224" vert-adv-y="0" d="M4 736h-31q4 48 40 77.5t88.5 29.5t88.5 -29.5t40 -77.5h-30q-4 35 -30.5 55t-67.5 20q-28 0 -49 -9t-33.5 -26t-15.5 -40zM85 667h54v-667h-54v667z" />
<glyph unicode="&#x20b;" horiz-adv-x="194" vert-adv-y="0" d="M-11 546h-31q4 48 40 77.5t88.5 29.5t88.5 -29.5t40 -77.5h-30q-4 35 -30.5 55t-67.5 20q-28 0 -49 -9t-33.5 -26t-15.5 -40zM72 10v457h50v-457h-50z" />
<glyph unicode="&#x20c;" horiz-adv-x="560" vert-adv-y="0" d="M160 736l-72 101h52l63 -101h-43zM311 736l-72 101h52l63 -101h-43zM495 453v-239q0 -59 -18.5 -101.5t-50.5 -65.5t-68 -33t-78 -10t-78 10t-68 33t-50.5 65.5t-18.5 101.5v239q0 59 18.5 101.5t50.5 65.5t68 33t78 10t78 -10t68 -33t50.5 -65.5t18.5 -101.5zM119 453 v-239q0 -46 14 -79t38.5 -50t51 -24t57.5 -7t57.5 7t51 24t38.5 50t14 79v239q0 46 -14 79t-38.5 50t-51 24t-57.5 7t-57.5 -7t-51 -24t-38.5 -50t-14 -79z" />
<glyph unicode="&#x20d;" horiz-adv-x="460" vert-adv-y="0" d="M110 546l-72 101h52l63 -101h-43zM261 546l-72 101h52l63 -101h-43zM405 273v-69q0 -45 -10 -80t-26.5 -57.5t-39.5 -37t-47 -20t-51 -5.5q-35 0 -64.5 10t-55.5 31.5t-41 62t-15 96.5v69q0 56 15 96.5t41 62t55.5 31.5t64 10t64 -10t55 -31.5t40.5 -62t15 -96.5z M105 273v-69q0 -82 36.5 -118t89.5 -36t88.5 36t35.5 118v69q0 43 -10.5 74t-29 48t-39.5 24.5t-45 7.5q-53 0 -89.5 -36t-36.5 -118z" />
<glyph unicode="&#x20e;" horiz-adv-x="560" vert-adv-y="0" d="M172 736h-31q4 48 40 77.5t88.5 29.5t88.5 -29.5t40 -77.5h-30q-4 35 -30.5 55t-67.5 20q-28 0 -49 -9t-33.5 -26t-15.5 -40zM495 453v-239q0 -59 -18.5 -101.5t-50.5 -65.5t-68 -33t-78 -10t-78 10t-68 33t-50.5 65.5t-18.5 101.5v239q0 59 18.5 101.5t50.5 65.5t68 33 t78 10t78 -10t68 -33t50.5 -65.5t18.5 -101.5zM119 453v-239q0 -46 14 -79t38.5 -50t51 -24t57.5 -7t57.5 7t51 24t38.5 50t14 79v239q0 46 -14 79t-38.5 50t-51 24t-57.5 7t-57.5 -7t-51 -24t-38.5 -50t-14 -79z" />
<glyph unicode="&#x20f;" horiz-adv-x="460" vert-adv-y="0" d="M122 546h-31q4 48 40 77.5t88.5 29.5t88.5 -29.5t40 -77.5h-30q-4 35 -30.5 55t-67.5 20q-28 0 -49 -9t-33.5 -26t-15.5 -40zM405 273v-69q0 -45 -10 -80t-26.5 -57.5t-39.5 -37t-47 -20t-51 -5.5q-35 0 -64.5 10t-55.5 31.5t-41 62t-15 96.5v69q0 56 15 96.5t41 62 t55.5 31.5t64 10t64 -10t55 -31.5t40.5 -62t15 -96.5zM105 273v-69q0 -82 36.5 -118t89.5 -36t88.5 36t35.5 118v69q0 43 -10.5 74t-29 48t-39.5 24.5t-45 7.5q-53 0 -89.5 -36t-36.5 -118z" />
<glyph unicode="&#x210;" horiz-adv-x="522" vert-adv-y="0" d="M125 736l-72 101h52l63 -101h-43zM276 736l-72 101h52l63 -101h-43zM85 667h178q84 0 134 -49.5t50 -151.5q0 -137 -96 -183l-9 -4l110 -279h-56l-101 269l-7 -1q-8 -1 -25 -1h-125v-267h-53v667zM139 317h124q61 0 95.5 36t34.5 109t-34.5 109t-95.5 36h-124v-290z" />
<glyph unicode="&#x211;" horiz-adv-x="358" vert-adv-y="0" d="M80 546l-72 101h52l63 -101h-43zM231 546l-72 101h52l63 -101h-43zM75 10v457h50v-68l18 23q41 51 122 51q23 0 47 -4l-7 -44q-23 2 -50 2q-57 0 -93.5 -36t-36.5 -118v-263h-50z" />
<glyph unicode="&#x212;" horiz-adv-x="522" vert-adv-y="0" d="M137 736h-31q4 48 40 77.5t88.5 29.5t88.5 -29.5t40 -77.5h-30q-4 35 -30.5 55t-67.5 20q-28 0 -49 -9t-33.5 -26t-15.5 -40zM85 667h178q84 0 134 -49.5t50 -151.5q0 -137 -96 -183l-9 -4l110 -279h-56l-101 269l-7 -1q-8 -1 -25 -1h-125v-267h-53v667zM139 317h124 q61 0 95.5 36t34.5 109t-34.5 109t-95.5 36h-124v-290z" />
<glyph unicode="&#x213;" horiz-adv-x="358" vert-adv-y="0" d="M92 546h-31q4 48 40 77.5t88.5 29.5t88.5 -29.5t40 -77.5h-30q-4 35 -30.5 55t-67.5 20q-28 0 -49 -9t-33.5 -26t-15.5 -40zM75 10v457h50v-68l18 23q41 51 122 51q23 0 47 -4l-7 -44q-23 2 -50 2q-57 0 -93.5 -36t-36.5 -118v-263h-50z" />
<glyph unicode="&#x214;" horiz-adv-x="540" vert-adv-y="0" d="M155 736l-72 101h52l63 -101h-43zM306 736l-72 101h52l63 -101h-43zM129 667v-443q0 -88 40 -124t101 -36t101 36t40 124v443h54v-443q0 -59 -16.5 -102t-45.5 -65.5t-61.5 -32.5t-71.5 -10t-71.5 10t-61.5 32.5t-45.5 65.5t-16.5 102v443h54z" />
<glyph unicode="&#x215;" vert-adv-y="0" d="M115 545l-72 101h52l63 -101h-43zM266 545l-72 101h52l63 -101h-43zM235 50q48 0 84 36.5t36 117.5v263h50v-263q0 -56 -15 -96.5t-40.5 -62t-54 -31.5t-60.5 -10t-60.5 10t-54 31.5t-40.5 62t-15 96.5v263h50v-263q0 -81 36 -117.5t84 -36.5z" />
<glyph unicode="&#x216;" horiz-adv-x="540" vert-adv-y="0" d="M162 736h-31q4 48 40 77.5t88.5 29.5t88.5 -29.5t40 -77.5h-30q-4 35 -30.5 55t-67.5 20q-28 0 -49 -9t-33.5 -26t-15.5 -40zM129 667v-443q0 -88 40 -124t101 -36t101 36t40 124v443h54v-443q0 -59 -16.5 -102t-45.5 -65.5t-61.5 -32.5t-71.5 -10t-71.5 10t-61.5 32.5 t-45.5 65.5t-16.5 102v443h54z" />
<glyph unicode="&#x217;" vert-adv-y="0" d="M127 545h-31q4 48 40 77.5t88.5 29.5t88.5 -29.5t40 -77.5h-30q-4 35 -30.5 55t-67.5 20q-28 0 -49 -9t-33.5 -26t-15.5 -40zM235 50q48 0 84 36.5t36 117.5v263h50v-263q0 -56 -15 -96.5t-40.5 -62t-54 -31.5t-60.5 -10t-60.5 10t-54 31.5t-40.5 62t-15 96.5v263h50 v-263q0 -81 36 -117.5t84 -36.5z" />
<glyph unicode="&#x218;" horiz-adv-x="501" vert-adv-y="0" d="M183 -119q0 36 41 36t41 -36q0 -21 -8 -35l-42 -76h-25l28 74l-10 3q-13 5 -19 12t-6 22zM424 186q0 -85 -52.5 -133.5t-139.5 -48.5q-42 0 -93 15t-84 43l35 37q55 -45 142 -45q61 0 99.5 34.5t38.5 97.5q0 33 -12.5 58t-34.5 39.5t-43.5 22.5t-49.5 13 q-177 33 -177 169q0 59 26.5 99.5t66.5 58t89 17.5q37 0 83.5 -13.5t81.5 -42.5l-31 -40q-35 27 -69.5 36.5t-64.5 9.5q-54 0 -91 -31t-37 -94q0 -30 11.5 -52t32.5 -35t41 -20.5t47 -13.5q39 -8 68 -19.5t57.5 -31.5t44 -53t15.5 -77z" />
<glyph unicode="&#x219;" horiz-adv-x="397" vert-adv-y="0" d="M140 -119q0 36 41 36t41 -36q0 -21 -8 -35l-42 -76h-25l28 74l-10 3q-13 5 -19 12t-6 22zM191 473q78 0 136 -31l-21 -41q-49 26 -115 26q-43 0 -70 -19.5t-27 -58.5q0 -15 5 -26.5t12.5 -19.5t21.5 -14t27.5 -9.5t34.5 -7.5q149 -27 149 -135q0 -45 -24 -76.5t-57.5 -44 t-71.5 -12.5q-37 0 -78 10.5t-70 27.5l21 42q51 -34 127 -34q47 0 76.5 21.5t29.5 65.5q0 41 -28.5 61t-81.5 30q-21 4 -37 8t-37 13t-34.5 21.5t-22.5 32.5t-9 46q0 43 23 72t54 40.5t67 11.5z" />
<glyph unicode="&#x21a;" horiz-adv-x="520" vert-adv-y="0" d="M210 -119q0 36 41 36t41 -36q0 -21 -8 -35l-42 -76h-25l28 74l-10 3q-13 5 -19 12t-6 22zM55 615v52h410v-52h-181l-7 -615h-54l13 615h-181z" />
<glyph unicode="&#x21b;" horiz-adv-x="350" vert-adv-y="0" d="M173 -119q0 36 41 36t41 -36q0 -21 -8 -35l-42 -76h-25l28 74l-10 3q-13 5 -19 12t-6 22zM45 435v42h80v104h50v-104h110v-42h-110v-295q0 -35 17.5 -54.5t42.5 -19.5h70v-46h-70q-45 0 -77.5 30.5t-32.5 89.5v295h-80z" />
<glyph unicode="&#x237;" horiz-adv-x="205" vert-adv-y="0" d="M130 457v-527q0 -59 -32.5 -89.5t-77.5 -30.5h-20v42h20q25 0 42.5 20t17.5 58v527h50z" />
<glyph unicode="&#x259;" horiz-adv-x="466" vert-adv-y="0" d="M83 428q65 45 142 45q74 0 128.5 -51.5t54.5 -148.5v-68q0 -97 -53 -149t-122 -52q-70 0 -122.5 52t-52.5 153v40h302v24q0 37 -11.5 67.5t-30.5 49t-43 28.5t-50 10q-63 0 -113 -36zM360 195v10h-254v-10q0 -67 39 -107t88 -40q48 0 87.5 39t39.5 108z" />
<glyph unicode="&#x2bc;" horiz-adv-x="182" d="M50 612q0 20 12 30.5t29 10.5t29 -10.5t12 -30.5q0 -18 -8 -43l-43 -113h-25l28 115l-9 2q-25 9 -25 39z" />
<glyph unicode="&#x2c6;" horiz-adv-x="378" d="M246 546l-73 67l-72 -67h-51l109 101h29l109 -101h-51z" />
<glyph unicode="&#x2c7;" horiz-adv-x="378" d="M246 546l-73 67l-72 -67h-51l109 101h29l109 -101h-51z" />
<glyph unicode="&#x2d8;" horiz-adv-x="358" vert-adv-y="0" d="M179 546q-53 0 -89 29.5t-40 77.5h31q4 -35 30 -55t68 -20q11 0 22 1.5t20.5 5t17.5 8.5t14.5 11t11.5 13.5t8 16.5t4 19h30q-2 -32 -19.5 -56.5t-46 -37.5t-62.5 -13z" />
<glyph unicode="&#x2d9;" horiz-adv-x="174" vert-adv-y="0" d="M50 587q0 17 10 27t27 10t27 -10t10 -27t-10 -27t-27 -10t-27 10t-10 27z" />
<glyph unicode="&#x2da;" horiz-adv-x="260" vert-adv-y="0" d="M53 596q0 45 21 71t56 26t56 -26t21 -71q0 -35 -21 -56t-56 -21t-56 21t-21 56zM185 596q0 33 -15.5 55t-39.5 22t-39 -22t-15 -55q0 -24 15 -40t39 -16t39.5 16t15.5 40z" />
<glyph unicode="&#x2db;" horiz-adv-x="266" d="M81 0h39q-40 -52 -40 -99q0 -23 13.5 -40t36.5 -17q30 0 57 37l26 -17q-34 -55 -83 -55q-38 0 -59 26t-21 63q0 57 31 102z" />
<glyph unicode="&#x2dc;" horiz-adv-x="372" d="M173 585q-15 24 -40 24q-23 0 -36.5 -15t-16.5 -38h-30q3 36 25 59.5t56 23.5q42 0 67 -37q16 -22 43 -22q12 0 23 6t18 18t9 28h30q-3 -38 -27 -60t-55 -22q-42 0 -66 35z" />
<glyph unicode="&#x2dd;" horiz-adv-x="383" d="M264 647h52l-72 -101h-43zM113 647h52l-72 -101h-43z" />
<glyph unicode="&#x300;" horiz-adv-x="237" d="M122 546l-72 101h57l63 -101h-48z" />
<glyph unicode="&#x301;" horiz-adv-x="237" d="M113 647h57l-72 -101h-48z" />
<glyph unicode="&#x302;" horiz-adv-x="378" d="M246 546l-73 67l-72 -67h-51l109 101h29l109 -101h-51z" />
<glyph unicode="&#x304;" horiz-adv-x="350" d="M50 556v36h250v-36h-250z" />
<glyph unicode="&#x307;" horiz-adv-x="174" vert-adv-y="0" d="M50 587q0 17 10 27t27 10t27 -10t10 -27t-10 -27t-27 -10t-27 10t-10 27z" />
<glyph unicode="&#x30f;" horiz-adv-x="383" d="M122 546l-72 101h52l63 -101h-43zM273 546l-72 101h52l63 -101h-43z" />
<glyph unicode="&#x311;" horiz-adv-x="358" vert-adv-y="0" d="M81 546h-31q4 48 40 77.5t88.5 29.5t88.5 -29.5t40 -77.5h-30q-4 35 -30.5 55t-67.5 20q-28 0 -49 -9t-33.5 -26t-15.5 -40z" />
<glyph unicode="&#x312;" horiz-adv-x="182" vert-adv-y="0" d="M132 588q0 -16 -41 -16t-41 16q0 21 8 35l42 96h25l-28 -94l10 -3q13 -5 19 -12t6 -22z" />
<glyph unicode="&#x315;" horiz-adv-x="182" d="M50 612q0 20 12 30.5t29 10.5t29 -10.5t12 -30.5q0 -18 -8 -43l-43 -113h-25l28 115l-9 2q-25 9 -25 39z" />
<glyph unicode="&#x323;" horiz-adv-x="182" vert-adv-y="0" d="M50 -146q0 19 11 30t30 11t30 -11t11 -30t-11 -30t-30 -11t-30 11t-11 30z" />
<glyph unicode="&#x326;" horiz-adv-x="182" d="M50 -119q0 36 41 36t41 -36q0 -21 -8 -35l-42 -76h-25l28 74l-10 3q-13 5 -19 12t-6 22z" />
<glyph unicode="&#x3a9;" horiz-adv-x="560" vert-adv-y="0" d="M230 45v-45h-165v44h92l-18 17q-74 72 -74 231v144q0 112 60.5 164.5t154.5 52.5t154.5 -52.5t60.5 -164.5v-144q0 -159 -74 -231l-18 -17h92v-44h-165v45q46 8 78.5 74t32.5 173v144q0 86 -45.5 126.5t-115.5 40.5t-115.5 -40.5t-45.5 -126.5v-144q0 -107 32.5 -173 t78.5 -74z" />
<glyph unicode="&#x3b1;" horiz-adv-x="509" vert-adv-y="0" d="M355 386v81h48v-337q0 -35 18 -54.5t43 -19.5v-46q-32 0 -56.5 17t-34.5 52l-7 21l-11 -19q-45 -77 -133 -77q-70 0 -118.5 51.5t-48.5 148.5v68q0 98 48.5 149.5t118.5 51.5q75 0 116 -62zM355 272q0 38 -10.5 68t-28.5 48.5t-39.5 28.5t-45.5 10q-51 0 -88.5 -40.5 t-37.5 -113.5v-69q0 -73 37.5 -113.5t88.5 -40.5q50 0 87 40.5t37 113.5v68z" />
<glyph unicode="&#x3b2;" horiz-adv-x="505" vert-adv-y="0" d="M336 347l20 -7q40 -15 64.5 -56.5t24.5 -93.5q0 -53 -14.5 -93t-49.5 -65.5t-86 -25.5h-170v-191h-50v642q0 106 51 158t134 52q72 0 119 -50t47 -119q0 -45 -20 -82t-52 -58zM125 457v-401h170q53 0 76.5 38t23.5 95q0 53 -38.5 92.5t-96.5 39.5h-54v44h54q54 0 85 39 t31 94q0 48 -34.5 85.5t-81.5 37.5q-60 0 -97.5 -42t-37.5 -122z" />
<glyph unicode="&#x3b3;" horiz-adv-x="536" vert-adv-y="0" d="M45 415v42h20q21 0 40 -7t35 -22t25 -38l124 -346l155 413h52l-182 -465v-177h-49v177l-147 385q-7 18 -21.5 28t-31.5 10h-20z" />
<glyph unicode="&#x3b4;" horiz-adv-x="501" vert-adv-y="0" d="M87 167v350h288v-350h-288z" />
<glyph unicode="&#x3bc;" horiz-adv-x="520" vert-adv-y="0" d="M143 51l-18 25v-261h-50v642h50v-263q0 -73 37 -113.5t86 -40.5t83 40.5t34 113.5v263h50v-343q0 -35 17.5 -54.5t42.5 -19.5v-46q-12 0 -23.5 2.5t-22 8t-19.5 13.5t-16 19t-12 24l-6 21l-12 -19q-38 -69 -116 -69q-63 0 -105 57z" />
<glyph unicode="&#x3c0;" horiz-adv-x="500" vert-adv-y="0" d="M390 421v-297q0 -35 17.5 -54.5t42.5 -19.5v-46q-45 0 -77.5 30.5t-32.5 89.5v297h-180v-411h-50v411h-60v46h390v-46h-50z" />
<glyph unicode="&#x1e0c;" horiz-adv-x="550" vert-adv-y="0" d="M215 -146q0 19 11 30t30 11t30 -11t11 -30t-11 -30t-30 -11t-30 11t-11 30zM290 667q90 0 137.5 -53t47.5 -151v-258q0 -99 -47 -152t-138 -53h-205v667h205zM290 60q131 0 131 149v250q0 148 -131 148h-151v-547h151z" />
<glyph unicode="&#x1e0d;" horiz-adv-x="480" vert-adv-y="0" d="M168 -146q0 19 11 30t30 11t30 -11t11 -30t-11 -30t-30 -11t-30 11t-11 30zM222 14q-29 0 -56 9.5t-53 31t-42 62.5t-16 97v69q0 56 16 97t42 62.5t53 31t56 9.5q73 0 115 -54l18 -23v261h50v-647h-50v71l-18 -23q-42 -54 -115 -54zM355 204v69q0 81 -37.5 117.5 t-87.5 36.5t-87.5 -36.5t-37.5 -117.5v-69q0 -81 37.5 -117.5t87.5 -36.5t87.5 36.5t37.5 117.5z" />
<glyph unicode="&#x1e24;" horiz-adv-x="570" vert-adv-y="0" d="M233 -146q0 19 11 30t30 11t30 -11t11 -30t-11 -30t-30 -11t-30 11t-11 30zM85 0v667h54v-299h292v299h54v-667h-54v318h-292v-318h-54z" />
<glyph unicode="&#x1e25;" horiz-adv-x="478" vert-adv-y="0" d="M193 -146q0 19 11 30t30 11t30 -11t11 -30t-11 -30t-30 -11t-30 11t-11 30zM125 283v-263h-50v647h50v-258l18 23q10 13 23 23t27 16t29 9t31 3q29 0 55.5 -9.5t51.5 -31t40 -62.5t15 -97v-263h-50v263q0 81 -35 117.5t-85 36.5t-85 -36.5t-35 -117.5z" />
<glyph unicode="&#x1e44;" horiz-adv-x="570" vert-adv-y="0" d="M238 777q0 17 10 27t27 10t27 -10t10 -27t-10 -27t-27 -10t-27 10t-10 27zM85 0v667h49l297 -547v547h54v-667h-49l-297 547v-547h-54z" />
<glyph unicode="&#x1e45;" horiz-adv-x="478" vert-adv-y="0" d="M208 587q0 17 10 27t27 10t27 -10t10 -27t-10 -27t-27 -10t-27 10t-10 27zM75 10v457h50v-68l18 23q37 51 112 51q29 0 55.5 -9.5t51 -31t39 -62.5t14.5 -97v-263h-50v263q0 82 -33.5 118t-85.5 36t-86.5 -36t-34.5 -118v-263h-50z" />
<glyph unicode="&#x1e5a;" horiz-adv-x="522" vert-adv-y="0" d="M215 -146q0 19 11 30t30 11t30 -11t11 -30t-11 -30t-30 -11t-30 11t-11 30zM85 667h178q84 0 134 -49.5t50 -151.5q0 -137 -96 -183l-9 -4l110 -279h-56l-101 269l-7 -1q-8 -1 -25 -1h-125v-267h-53v667zM139 317h124q61 0 95.5 36t34.5 109t-34.5 109t-95.5 36h-124 v-290z" />
<glyph unicode="&#x1e5b;" horiz-adv-x="358" vert-adv-y="0" d="M47 -146q0 19 11 30t30 11t30 -11t11 -30t-11 -30t-30 -11t-30 11t-11 30zM75 10v457h50v-68l18 23q41 51 122 51q23 0 47 -4l-7 -44q-23 2 -50 2q-57 0 -93.5 -36t-36.5 -118v-263h-50z" />
<glyph unicode="&#x1e62;" horiz-adv-x="501" vert-adv-y="0" d="M182 -146q0 19 11 30t30 11t30 -11t11 -30t-11 -30t-30 -11t-30 11t-11 30zM424 186q0 -85 -52.5 -133.5t-139.5 -48.5q-42 0 -93 15t-84 43l35 37q55 -45 142 -45q61 0 99.5 34.5t38.5 97.5q0 33 -12.5 58t-34.5 39.5t-43.5 22.5t-49.5 13q-177 33 -177 169 q0 59 26.5 99.5t66.5 58t89 17.5q37 0 83.5 -13.5t81.5 -42.5l-31 -40q-35 27 -69.5 36.5t-64.5 9.5q-54 0 -91 -31t-37 -94q0 -30 11.5 -52t32.5 -35t41 -20.5t47 -13.5q39 -8 68 -19.5t57.5 -31.5t44 -53t15.5 -77z" />
<glyph unicode="&#x1e63;" horiz-adv-x="397" vert-adv-y="0" d="M139 -146q0 19 11 30t30 11t30 -11t11 -30t-11 -30t-30 -11t-30 11t-11 30zM191 473q78 0 136 -31l-21 -41q-49 26 -115 26q-43 0 -70 -19.5t-27 -58.5q0 -15 5 -26.5t12.5 -19.5t21.5 -14t27.5 -9.5t34.5 -7.5q149 -27 149 -135q0 -45 -24 -76.5t-57.5 -44t-71.5 -12.5 q-37 0 -78 10.5t-70 27.5l21 42q51 -34 127 -34q47 0 76.5 21.5t29.5 65.5q0 41 -28.5 61t-81.5 30q-21 4 -37 8t-37 13t-34.5 21.5t-22.5 32.5t-9 46q0 43 23 72t54 40.5t67 11.5z" />
<glyph unicode="&#x1e6c;" horiz-adv-x="520" vert-adv-y="0" d="M209 -146q0 19 11 30t30 11t30 -11t11 -30t-11 -30t-30 -11t-30 11t-11 30zM55 615v52h410v-52h-181l-7 -615h-54l13 615h-181z" />
<glyph unicode="&#x1e6d;" horiz-adv-x="350" vert-adv-y="0" d="M172 -146q0 19 11 30t30 11t30 -11t11 -30t-11 -30t-30 -11t-30 11t-11 30zM45 435v42h80v104h50v-104h110v-42h-110v-295q0 -35 17.5 -54.5t42.5 -19.5h70v-46h-70q-45 0 -77.5 30.5t-32.5 89.5v295h-80z" />
<glyph unicode="&#x1e80;" horiz-adv-x="762" vert-adv-y="0" d="M344 736l-72 101h57l63 -101h-48zM213 0l-178 667h54l149 -592l117 427h48l116 -426l148 591h54l-178 -667h-50l-114 415l-115 -415h-51z" />
<glyph unicode="&#x1e81;" horiz-adv-x="690" d="M307 546l-72 101h57l63 -101h-48zM186 10l-151 457h50l123 -398l112 398h43l113 -398l121 398h50l-149 -457h-43l-114 417l-112 -417h-43z" />
<glyph unicode="&#x1e82;" horiz-adv-x="762" vert-adv-y="0" d="M390 837h57l-72 -101h-48zM213 0l-178 667h54l149 -592l117 427h48l116 -426l148 591h54l-178 -667h-50l-114 415l-115 -415h-51z" />
<glyph unicode="&#x1e83;" horiz-adv-x="690" d="M353 647h57l-72 -101h-48zM186 10l-151 457h50l123 -398l112 398h43l113 -398l121 398h50l-149 -457h-43l-114 417l-112 -417h-43z" />
<glyph unicode="&#x1e84;" horiz-adv-x="762" vert-adv-y="0" d="M421 777q0 17 10 27t27 10t27 -10t10 -27t-10 -27t-27 -10t-27 10t-10 27zM241 777q0 17 10 27t27 10t27 -10t10 -27t-10 -27t-27 -10t-27 10t-10 27zM213 0l-178 667h54l149 -592l117 427h48l116 -426l148 591h54l-178 -667h-50l-114 415l-115 -415h-51z" />
<glyph unicode="&#x1e85;" horiz-adv-x="690" d="M384 587q0 17 10 27t27 10t27 -10t10 -27t-10 -27t-27 -10t-27 10t-10 27zM204 587q0 17 10 27t27 10t27 -10t10 -27t-10 -27t-27 -10t-27 10t-10 27zM186 10l-151 457h50l123 -398l112 398h43l113 -398l121 398h50l-149 -457h-43l-114 417l-112 -417h-43z" />
<glyph unicode="&#x1e92;" horiz-adv-x="500" vert-adv-y="0" d="M198 -146q0 19 11 30t30 11t30 -11t11 -30t-11 -30t-30 -11t-30 11t-11 30zM70 615v52h360v-38l-311 -577h321v-52h-380v38l309 577h-299z" />
<glyph unicode="&#x1e93;" horiz-adv-x="410" vert-adv-y="0" d="M155 -146q0 19 11 30t30 11t30 -11t11 -30t-11 -30t-30 -11t-30 11t-11 30zM55 421v46h300v-37l-242 -374h242v-46h-300v37l242 374h-242z" />
<glyph unicode="&#x1eb8;" vert-adv-y="0" d="M189 -146q0 19 11 30t30 11t30 -11t11 -30t-11 -30t-30 -11t-30 11t-11 30zM85 0v667h319v-52h-267v-247h217v-50h-215v-266h266v-52h-320z" />
<glyph unicode="&#x1eb9;" horiz-adv-x="456" vert-adv-y="0" d="M191 -146q0 19 11 30t30 11t30 -11t11 -30t-11 -30t-30 -11t-30 11t-11 30zM63 154q-5 28 -5 89q0 62 5 89q15 74 60.5 107.5t105.5 33.5q55 0 98 -29t61 -94q10 -35 10 -102q0 -6 -1 -20h-291v-14q0 -83 37.5 -124.5t96.5 -41.5q7 0 15 0.5t16 2t15.5 3t16 4.5t16 6.5 t15.5 7.5t16 10l22 -40q-61 -38 -132 -38q-67 0 -114.5 36.5t-62.5 113.5zM106 282v-10h244v10q0 76 -36 111.5t-85 35.5t-85 -35t-38 -112z" />
<glyph unicode="&#x1ebc;" vert-adv-y="0" d="M218 775q-15 24 -40 24q-23 0 -36.5 -15t-16.5 -38h-30q3 36 25 59.5t56 23.5q42 0 67 -37q16 -22 43 -22q12 0 23 6t18 18t9 28h30q-3 -38 -27 -60t-55 -22q-42 0 -66 35zM85 0v667h319v-52h-267v-247h217v-50h-215v-266h266v-52h-320z" />
<glyph unicode="&#x1ebd;" horiz-adv-x="456" vert-adv-y="0" d="M210 584q-15 24 -40 24q-23 0 -36.5 -15t-16.5 -38h-30q3 36 25 59.5t56 23.5q42 0 67 -37q16 -22 43 -22q12 0 23 6t18 18t9 28h30q-3 -38 -27 -60t-55 -22q-42 0 -66 35zM63 154q-5 28 -5 89q0 62 5 89q15 74 60.5 107.5t105.5 33.5q55 0 98 -29t61 -94q10 -35 10 -102 q0 -6 -1 -20h-291v-14q0 -83 37.5 -124.5t96.5 -41.5q7 0 15 0.5t16 2t15.5 3t16 4.5t16 6.5t15.5 7.5t16 10l22 -40q-61 -38 -132 -38q-67 0 -114.5 36.5t-62.5 113.5zM106 282v-10h244v10q0 76 -36 111.5t-85 35.5t-85 -35t-38 -112z" />
<glyph unicode="&#x1eca;" horiz-adv-x="224" vert-adv-y="0" d="M60 -146q0 19 11 30t30 11t30 -11t11 -30t-11 -30t-30 -11t-30 11t-11 30zM85 667h54v-667h-54v667z" />
<glyph unicode="&#x1ecb;" horiz-adv-x="212" vert-adv-y="0" d="M55 -121q0 19 11 30t30 11t30 -11t11 -30t-11 -30t-30 -11t-30 11t-11 30zM81 10v457h50v-457h-50zM69 607q0 17 10 27t26 10q17 0 27.5 -10t10.5 -27t-10.5 -27t-27.5 -10q-16 0 -26 10t-10 27z" />
<glyph unicode="&#x1ecc;" horiz-adv-x="560" vert-adv-y="0" d="M228 -146q0 19 11 30t30 11t30 -11t11 -30t-11 -30t-30 -11t-30 11t-11 30zM495 453v-239q0 -59 -18.5 -101.5t-50.5 -65.5t-68 -33t-78 -10t-78 10t-68 33t-50.5 65.5t-18.5 101.5v239q0 59 18.5 101.5t50.5 65.5t68 33t78 10t78 -10t68 -33t50.5 -65.5t18.5 -101.5z M119 453v-239q0 -46 14 -79t38.5 -50t51 -24t57.5 -7t57.5 7t51 24t38.5 50t14 79v239q0 46 -14 79t-38.5 50t-51 24t-57.5 7t-57.5 -7t-51 -24t-38.5 -50t-14 -79z" />
<glyph unicode="&#x1ecd;" horiz-adv-x="460" vert-adv-y="0" d="M178 -146q0 19 11 30t30 11t30 -11t11 -30t-11 -30t-30 -11t-30 11t-11 30zM405 273v-69q0 -45 -10 -80t-26.5 -57.5t-39.5 -37t-47 -20t-51 -5.5q-35 0 -64.5 10t-55.5 31.5t-41 62t-15 96.5v69q0 56 15 96.5t41 62t55.5 31.5t64 10t64 -10t55 -31.5t40.5 -62t15 -96.5z M105 273v-69q0 -82 36.5 -118t89.5 -36t88.5 36t35.5 118v69q0 43 -10.5 74t-29 48t-39.5 24.5t-45 7.5q-53 0 -89.5 -36t-36.5 -118z" />
<glyph unicode="&#x1ee4;" horiz-adv-x="540" vert-adv-y="0" d="M216 -146q0 19 11 30t30 11t30 -11t11 -30t-11 -30t-30 -11t-30 11t-11 30zM129 667v-443q0 -88 40 -124t101 -36t101 36t40 124v443h54v-443q0 -59 -16.5 -102t-45.5 -65.5t-61.5 -32.5t-71.5 -10t-71.5 10t-61.5 32.5t-45.5 65.5t-16.5 102v443h54z" />
<glyph unicode="&#x1ee5;" vert-adv-y="0" d="M183 -146q0 19 11 30t30 11t30 -11t11 -30t-11 -30t-30 -11t-30 11t-11 30zM235 50q48 0 84 36.5t36 117.5v263h50v-263q0 -56 -15 -96.5t-40.5 -62t-54 -31.5t-60.5 -10t-60.5 10t-54 31.5t-40.5 62t-15 96.5v263h50v-263q0 -81 36 -117.5t84 -36.5z" />
<glyph unicode="&#x1ef2;" horiz-adv-x="501" vert-adv-y="0" d="M210 736l-72 101h57l63 -101h-48zM218 278l-183 389h59l150 -321l153 321h56l-184 -389v-278h-51v278z" />
<glyph unicode="&#x1ef3;" horiz-adv-x="490" vert-adv-y="0" d="M206 545l-72 101h57l63 -101h-48zM35 477h52l153 -427l153 427h52l-247 -662h-48l66 181z" />
<glyph unicode="&#x1ef8;" horiz-adv-x="501" vert-adv-y="0" d="M221 775q-15 24 -40 24q-23 0 -36.5 -15t-16.5 -38h-30q3 36 25 59.5t56 23.5q42 0 67 -37q16 -22 43 -22q12 0 23 6t18 18t9 28h30q-3 -38 -27 -60t-55 -22q-42 0 -66 35zM218 278l-183 389h59l150 -321l153 321h56l-184 -389v-278h-51v278z" />
<glyph unicode="&#x1ef9;" horiz-adv-x="490" vert-adv-y="0" d="M217 584q-15 24 -40 24q-23 0 -36.5 -15t-16.5 -38h-30q3 36 25 59.5t56 23.5q42 0 67 -37q16 -22 43 -22q12 0 23 6t18 18t9 28h30q-3 -38 -27 -60t-55 -22q-42 0 -66 35zM35 477h52l153 -427l153 427h52l-247 -662h-48l66 181z" />
<glyph unicode="&#x2013;" horiz-adv-x="410" d="M80 238v46h250v-46h-250z" />
<glyph unicode="&#x2014;" horiz-adv-x="500" d="M80 238v46h340v-46h-340z" />
<glyph unicode="&#x2018;" horiz-adv-x="182" d="M132 491q0 -20 -12 -30.5t-29 -10.5t-29 10.5t-12 30.5q0 18 8 42l43 114h25l-28 -115l9 -2q25 -9 25 -39z" />
<glyph unicode="&#x2019;" horiz-adv-x="182" d="M50 612q0 20 12 30.5t29 10.5t29 -10.5t12 -30.5q0 -18 -8 -43l-43 -113h-25l28 115l-9 2q-25 9 -25 39z" />
<glyph unicode="&#x201a;" horiz-adv-x="182" d="M50 55q0 20 12 30.5t29 10.5t29 -10.5t12 -30.5q0 -17 -8 -42l-43 -134h-25l28 135l-9 2q-25 9 -25 39z" />
<glyph unicode="&#x201c;" horiz-adv-x="342" d="M132 491q0 -20 -12 -30.5t-29 -10.5t-29 10.5t-12 30.5q0 18 8 42l43 114h25l-28 -115l9 -2q25 -9 25 -39zM292 491q0 -20 -12 -30.5t-29 -10.5t-29 10.5t-12 30.5q0 18 8 42l43 114h25l-28 -115l9 -2q25 -9 25 -39z" />
<glyph unicode="&#x201d;" horiz-adv-x="342" d="M210 612q0 20 12 30.5t29 10.5t29 -10.5t12 -30.5q0 -18 -8 -43l-43 -113h-25l28 115l-9 2q-25 9 -25 39zM50 612q0 20 12 30.5t29 10.5t29 -10.5t12 -30.5q0 -18 -8 -43l-43 -113h-25l28 115l-9 2q-25 9 -25 39z" />
<glyph unicode="&#x201e;" horiz-adv-x="342" d="M210 57q0 20 12 30.5t29 10.5t29 -10.5t12 -30.5q0 -19 -8 -44l-43 -132h-25l28 136l-9 2q-25 9 -25 38zM50 57q0 20 12 30.5t29 10.5t29 -10.5t12 -30.5q0 -19 -8 -44l-43 -132h-25l28 136l-9 2q-25 9 -25 38z" />
<glyph unicode="&#x2020;" horiz-adv-x="334" vert-adv-y="0" d="M142 467v190h50v-190h87v-40h-87v-612h-50v612h-87v40h87z" />
<glyph unicode="&#x2021;" horiz-adv-x="334" vert-adv-y="0" d="M142 467v190h50v-190h87v-40h-87v-386h87v-41h-87v-185h-50v185h-87v41h87v386h-87v40h87z" />
<glyph unicode="&#x2022;" horiz-adv-x="305" vert-adv-y="0" d="M80 250q0 33 20 53t53 20q32 0 52 -20t20 -53t-20 -53t-52 -20q-33 0 -53 20t-20 53z" />
<glyph unicode="&#x2026;" horiz-adv-x="502" vert-adv-y="0" d="M50 55q0 19 11 30t30 11t30 -11t11 -30t-11 -30t-30 -11t-30 11t-11 30zM370 55q0 19 11 30t30 11t30 -11t11 -30t-11 -30t-30 -11t-30 11t-11 30zM215 55q0 19 9.5 30t26.5 11q11 0 19 -5t12.5 -14.5t4.5 -21.5t-4.5 -21.5t-12.5 -14.5t-19 -5t-19 5t-12.5 14.5 t-4.5 21.5z" />
<glyph unicode="&#x2030;" horiz-adv-x="982" vert-adv-y="0" d="M238 545q0 37 -20 57.5t-47 20.5t-48 -20.5t-21 -57.5v-47q0 -37 21 -57.5t48 -20.5q17 0 32 8.5t25 26.5t10 43v47zM60 543q0 59 32.5 89.5t78.5 30.5q44 0 76 -30.5t32 -89.5v-43q0 -40 -16 -68t-40 -40t-52 -12q-46 0 -78.5 30.5t-32.5 89.5v43zM880 169 q0 37 -21 57.5t-48 20.5t-47 -20.5t-20 -57.5v-47q0 -37 20 -57.5t47 -20.5t48 20.5t21 57.5v47zM703 167q0 59 32 89.5t76 30.5q46 0 78.5 -30.5t32.5 -89.5v-43q0 -59 -32.5 -89.5t-78.5 -30.5q-44 0 -76 30.5t-32 89.5v43zM577 169q0 37 -20 57.5t-47 20.5 q-16 0 -31 -8.5t-25 -26.5t-10 -43v-47q0 -37 20 -57.5t46.5 -20.5t46.5 20.5t20 57.5v47zM403 167q0 40 16 68t39.5 40t51.5 12q45 0 76.5 -30.5t31.5 -89.5v-43q0 -59 -31.5 -89.5t-75.5 -30.5q-12 0 -23 2t-22 7t-20.5 12t-17 17t-13.5 22t-9 27.5t-3 32.5v43zM143 0 l339 647h50l-338 -647h-51z" />
<glyph unicode="&#x2032;" horiz-adv-x="284" d="M50 456l112 191h56l-122 -191h-46z" />
<glyph unicode="&#x2033;" horiz-adv-x="430" d="M200 456l112 191h52l-122 -191h-42zM50 456l112 191h52l-122 -191h-42z" />
<glyph unicode="&#x2034;" horiz-adv-x="560" d="M334 456l108 191h52l-122 -191h-38zM197 456l103 191h47l-111 -191h-39zM50 456l112 191h48l-118 -191h-42z" />
<glyph unicode="&#x2039;" horiz-adv-x="359" d="M218 427h49l-150 -177l150 -187h-49l-138 168v38z" />
<glyph unicode="&#x203a;" horiz-adv-x="359" d="M130 427l137 -158v-38l-137 -168h-50l150 187l-150 177h50z" />
<glyph unicode="&#x2044;" horiz-adv-x="384" vert-adv-y="0" d="M0 0l329 647h41l-329 -647h-41z" />
<glyph unicode="&#x20ac;" horiz-adv-x="561" vert-adv-y="0" d="M121 446q0 57 16.5 100.5t45.5 68t63.5 36.5t75.5 12q19 0 33.5 -1.5t40.5 -8t51.5 -23.5t48.5 -44l-42 -32q-17 21 -36 34t-38.5 18t-30.5 6t-27 1q-64 0 -105.5 -40.5t-41.5 -126.5v-32h237l-13 -36h-224v-89h198l-12 -36h-186v-31q0 -30 5.5 -55t15.5 -43.5t23.5 -32 t30 -21.5t34.5 -12t38 -4q16 0 28.5 1.5t32.5 7t40 19.5t38 36l42 -32q-25 -29 -51.5 -47.5t-53.5 -25t-41 -8t-35 -1.5q-41 0 -75.5 12t-63.5 36.5t-45.5 68t-16.5 101.5v31h-61l13 36h48v89h-61l13 36h48v32z" />
<glyph unicode="&#x20b9;" horiz-adv-x="525" vert-adv-y="0" d="M181 268h-22l192 -268h-61l-189 268h-18v47h99q48 0 82 35.5t37 98.5l1 11h-232l21 47h207l-4 13q-13 44 -43 67t-69 23h-112l21 47h358l-21 -47h-140l14 -17q32 -33 43 -78l2 -8h102l-21 -47h-76v-10q-5 -89 -53.5 -135.5t-117.5 -46.5z" />
<glyph unicode="&#x20ba;" horiz-adv-x="474" vert-adv-y="0" d="M355 288h54v-70q0 -112 -57.5 -165t-147.5 -53h-64v273l-90 -45v39l90 45v101l-90 -45v39l90 45v195h54v-168l122 68v-39l-122 -68v-101l122 68v-39l-122 -68v-250h10q68 0 109.5 40t41.5 128v70z" />
<glyph unicode="&#x2122;" horiz-adv-x="628" vert-adv-y="0" d="M60 622v25h199v-25h-83v-288h-27v288h-89zM315 334v313h24l98 -206l105 206h26v-313h-26v272l-95 -190h-19l-89 189v-271h-24z" />
<glyph unicode="&#x2126;" horiz-adv-x="560" vert-adv-y="0" d="M224 45v-45h-159v44h90l-16 17q-74 72 -74 231v144q0 58 17 101t47.5 67.5t68 36.5t83 12t83 -12t67.5 -36.5t47 -67.5t17 -101v-144q0 -158 -73 -231l-16 -17h89v-44h-158v45q43 8 73.5 74t30.5 173v144q0 87 -44.5 127t-116 40t-116.5 -40t-45 -127v-144 q0 -107 31 -173t74 -74z" />
<glyph unicode="&#x2206;" horiz-adv-x="609" d="M565 0h-530l242 647h47zM107 58h387l-194 544z" />
<glyph unicode="&#x2211;" horiz-adv-x="460" vert-adv-y="0" d="M260 345v-24l-132 -271h272v-50h-340v27l163 305l-163 288v27h339v-50h-272z" />
<glyph unicode="&#x2212;" horiz-adv-x="480" d="M80 243v36h320v-36h-320z" />
<glyph unicode="&#x221a;" horiz-adv-x="467" d="M189 0l-154 258h41l134 -234l174 623h36l-182 -647h-49z" />
<glyph unicode="&#x221e;" horiz-adv-x="710" vert-adv-y="0" d="M336 259q-26 56 -52 86.5t-64 30.5q-40 0 -70 -36.5t-30 -84.5t30 -84.5t70 -36.5q38 0 64 30.5t52 86.5l2 4zM80 255q0 33 11 62.5t30 50.5t45 33.5t54 12.5q43 0 70.5 -26t57.5 -81l8 -15l9 15q30 54 61 80.5t74 26.5q38 0 68 -21t46 -57t16 -81q0 -69 -36 -114 t-94 -45q-43 0 -74 26.5t-61 80.5l-9 15l-8 -15q-30 -55 -57.5 -81t-70.5 -26q-58 0 -99 46t-41 113zM590 255q0 24 -6.5 45.5t-17.5 38.5t-28.5 27t-37.5 10q-13 0 -26 -4.5t-24 -12.5t-21 -18.5t-19.5 -24.5t-17.5 -27t-17 -29l-3 -5l3 -5q14 -25 26 -43.5t27.5 -36.5 t33.5 -27t38 -9q40 0 65 36t25 85z" />
<glyph unicode="&#x222b;" horiz-adv-x="330" vert-adv-y="0" d="M185 517v-581q0 -61 -28.5 -91t-71.5 -30h-50v37h50q25 0 42.5 23t17.5 61v581q0 60 28.5 90t71.5 30h50v-37h-50q-25 0 -42.5 -23t-17.5 -60z" />
<glyph unicode="&#x2248;" horiz-adv-x="480" vert-adv-y="0" d="M167 194q-38 0 -79 -36l-20 25q49 45 99 45q39 0 76 -33q34 -32 66 -32q35 0 76 39l20 -26q-50 -47 -98 -47q-39 0 -77 36q-33 29 -63 29zM167 334q-38 0 -79 -36l-20 25q49 45 99 45q39 0 76 -33q34 -32 66 -32q35 0 76 39l20 -26q-50 -47 -98 -47q-39 0 -77 36 q-33 29 -63 29z" />
<glyph unicode="&#x2260;" horiz-adv-x="480" d="M271 336l63 98h38l-66 -98h94v-32h-115l-58 -106h173v-32h-191l-63 -98h-38l66 98h-94v32h115l58 106h-173v32h191z" />
<glyph unicode="&#x2264;" horiz-adv-x="480" d="M80 105v36h320v-36h-320zM400 408l-303 -85l303 -85v-35l-320 95v50l320 95v-35z" />
<glyph unicode="&#x2265;" horiz-adv-x="480" d="M80 141h320v-36h-320v36zM80 238l303 85l-303 85v35l320 -95v-50l-320 -95v35z" />
<glyph unicode="&#x25fc;" horiz-adv-x="465" vert-adv-y="930" d="M0 465h465v-465h-465v465z" />
<glyph unicode="&#xe000;" horiz-adv-x="467" vert-adv-y="0" d="M227 56h121v182l-9 1q-35 4 -72 4q-80 0 -120 -23t-40 -77q0 -41 33.5 -64t86.5 -23zM231 467q75 0 121.5 -43.5t46.5 -137.5v-286h-172q-48 0 -86 17.5t-60.5 51t-22.5 75.5q0 43 23 74t70 48.5t114 17.5q40 0 71 -5l12 -2v12q0 67 -31.5 100.5t-85.5 33.5h-143v44h143z " />
<glyph unicode="&#xe001;" horiz-adv-x="460" vert-adv-y="0" d="M125 56h107q51 0 88 40.5t37 113.5v57q0 30 -7 55.5t-19 43.5t-28 30.5t-34 18.5t-37 6h-107v-365zM405 205q0 -51 -15 -91t-40 -64.5t-55 -37t-63 -12.5h-157v657h50v-190h107q70 0 121.5 -53t51.5 -151v-58z" />
<glyph unicode="&#xe002;" horiz-adv-x="405" vert-adv-y="0" d="M55 262q0 99 54.5 152t130.5 53h95v-46h-95q-55 0 -95 -41.5t-40 -116.5v-58q0 -75 39.5 -116.5t95.5 -41.5h105v-47h-105q-36 0 -68 12.5t-58.5 36.5t-42.5 64t-16 91v58z" />
<glyph unicode="&#xe003;" horiz-adv-x="460" vert-adv-y="0" d="M105 210q0 -73 37 -113.5t87 -40.5h106v365h-106q-50 0 -87 -40.5t-37 -113.5v-57zM385 0h-156q-70 0 -122 53t-52 152v58q0 98 52 151t122 53h106v190h50v-657z" />
<glyph unicode="&#xe004;" horiz-adv-x="466" vert-adv-y="0" d="M378 0h-145q-32 0 -62.5 11.5t-56 34.5t-41 62.5t-15.5 89.5v70q0 50 15.5 91t41.5 65t56 36.5t62 12.5q70 0 122.5 -52t52.5 -153v-40h-302v-25q0 -76 38.5 -116t88.5 -40q41 0 145 1v-48zM106 282v-10h254v10q0 67 -39 107t-88 40q-48 0 -87.5 -39t-39.5 -108z" />
<glyph unicode="&#xe005;" horiz-adv-x="330" vert-adv-y="0" d="M75 0v518q0 59 32.5 89.5t77.5 30.5h90v-42h-90q-25 0 -42.5 -20.5t-17.5 -57.5v-51h130v-41h-130v-426h-50z" />
<glyph unicode="&#xe006;" horiz-adv-x="466" vert-adv-y="0" d="M55 262q0 51 16 91t42.5 64.5t58.5 37t67 12.5h152l-6 -467h-165q-28 0 -56.5 12.5t-53 36.5t-40 64.5t-15.5 90.5v58zM345 421h-106q-54 0 -94 -40.5t-40 -113.5v-57q0 -71 37 -112.5t78 -41.5h115zM335 -3l50 -14q-2 -46 -25.5 -84.5t-63.5 -61t-87 -22.5h-122v46h122 q29 0 55.5 13.5t47 45.5t23.5 77z" />
<glyph unicode="&#xe007;" vert-adv-y="0" d="M125 467h115q69 0 117 -52t48 -152v-263h-50v262q0 76 -32.5 117.5t-82.5 41.5h-115v-421h-50v657h50v-190z" />
<glyph unicode="&#xe008;" horiz-adv-x="427" vert-adv-y="0" d="M213 261l165 -261h-57l-136 230h-62v-230h-48v657h48v-387h48l136 197h54z" />
<glyph unicode="&#xe010;" horiz-adv-x="688" vert-adv-y="0" d="M75 467h396q63 0 107.5 -49.5t44.5 -124.5v-293h-50v293q0 51 -27.5 89.5t-72.5 38.5h-100v-421h-48v421h-200v-421h-50v467z" />
<glyph unicode="&#xe011;" vert-adv-y="0" d="M75 467h165q69 0 117 -52t48 -152v-263h-50v262q0 76 -32.5 117.5t-82.5 41.5h-115v-421h-50v467z" />
<glyph unicode="&#xe012;" horiz-adv-x="460" vert-adv-y="0" d="M355 267q0 72 -38 113t-85 41h-107v-365h107q47 0 85 41t38 113v57zM75 467h157q31 0 61 -12.5t55.5 -36.5t41 -65t15.5 -91v-58q0 -40 -10.5 -74.5t-27.5 -58t-39.5 -40t-46.5 -24t-49 -7.5h-107v-190h-50v657z" />
<glyph unicode="&#xe013;" horiz-adv-x="460" vert-adv-y="0" d="M335 421h-107q-47 0 -85 -41t-38 -113v-57q0 -37 11.5 -67.5t29.5 -48.5t39.5 -28t42.5 -10h107v365zM55 262q0 41 10.5 75.5t27.5 58t39.5 40t46.5 24t49 7.5h157v-657h-50v190h-107q-31 0 -61 12.5t-55.5 36.5t-41 64.5t-15.5 90.5v58z" />
<glyph unicode="&#xe014;" horiz-adv-x="359" vert-adv-y="0" d="M65 0v262q0 99 54.5 152t130.5 53h54v-46h-54q-55 0 -95 -42t-40 -117l-2 -262h-48z" />
<glyph unicode="&#xe015;" horiz-adv-x="416" vert-adv-y="0" d="M50 346q0 58 46.5 89.5t106.5 31.5h133v-46q-99 1 -133 1q-45 0 -74 -20t-29 -56q0 -34 24 -51t83 -28q159 -30 159 -135q0 -59 -44.5 -93.5t-119.5 -34.5h-142v45h142q114 0 114 83q0 24 -13.5 42t-39 29.5t-64.5 18.5q-72 13 -110.5 40t-38.5 84z" />
<glyph unicode="&#xe016;" horiz-adv-x="330" vert-adv-y="0" d="M185 0q-45 0 -77.5 31.5t-32.5 91.5v474h50v-130h130v-41h-130v-303q0 -38 17.5 -59t42.5 -21h90v-43h-90z" />
<glyph unicode="&#xe017;" horiz-adv-x="560" vert-adv-y="0" d="M129 0h-54v436q0 112 57 164.5t148 52.5t148 -52.5t57 -164.5v-436h-54v175h-302v-175zM129 225h302v221q0 87 -41.5 127t-109.5 40t-109.5 -40t-41.5 -127v-221z" />
<glyph unicode="&#xe018;" horiz-adv-x="481" vert-adv-y="0" d="M411 0h-146q-39 0 -73 12t-63.5 36.5t-46.5 68t-17 101.5v212q0 57 17 100.5t46.5 68t63.5 36.5t73 12h136v-50h-136q-28 0 -53 -9t-46.5 -28t-34 -52.5t-12.5 -77.5v-212q0 -86 43 -127t103 -41h146v-50z" />
<glyph unicode="&#xe019;" horiz-adv-x="489" vert-adv-y="0" d="M65 440q0 111 59 164t146 53h131v-50h-131q-63 0 -107 -41t-44 -126v-218q0 -86 44 -127t107 -41t107 41t44 127v75h-130v50h184v-125q0 -112 -59 -165t-146 -53t-146 53t-59 165v218z" />
<glyph unicode="&#xe01a;" horiz-adv-x="451" vert-adv-y="0" d="M366 200q0 -95 -52.5 -145.5t-122.5 -50.5h-121v50h121q48 0 84.5 38.5t36.5 107.5v457h54v-457z" />
<glyph unicode="&#xe01b;" horiz-adv-x="489" vert-adv-y="0" d="M397 597h-160q-53 0 -90.5 -32.5t-37.5 -87.5q0 -30 11.5 -52t32.5 -35t41 -20t47 -13q42 -8 72.5 -20t57.5 -32t41 -51.5t14 -74.5q0 -71 -53.5 -125t-126.5 -54h-181v50h181q51 0 88.5 38t37.5 91q0 22 -6 40t-16.5 31t-23.5 23t-30 17t-31.5 11t-32.5 8 q-39 7 -68.5 18t-55.5 30t-39.5 49.5t-13.5 70.5q0 76 54.5 123t127.5 47h160v-50z" />
<glyph unicode="&#xe01c;" horiz-adv-x="728" vert-adv-y="0" d="M258 145q-50 0 -82.5 36.5t-32.5 94.5t32.5 94.5t82.5 36.5t82.5 -36.5t32.5 -94.5t-32.5 -94.5t-82.5 -36.5z" />
<glyph unicode="&#xe01d;" horiz-adv-x="960" vert-adv-y="0" d="M317 517h348v-545h-348v545z" />
<glyph unicode="&#xe01e;" horiz-adv-x="960" vert-adv-y="0" d="M317 517h348v-545h-348v545z" />
<glyph unicode="&#xe01f;" horiz-adv-x="960" vert-adv-y="0" d="M317 517h348v-545h-348v545z" />
<glyph unicode="&#xe020;" horiz-adv-x="960" vert-adv-y="0" d="M317 517h348v-545h-348v545z" />
<glyph unicode="&#xfb01;" horiz-adv-x="462" vert-adv-y="0" d="M45 436v41h60v70q0 58 31.5 89t70.5 31h42v-42h-42q-21 0 -36.5 -20.5t-15.5 -57.5v-70h226v-457h-50v416h-176v-416h-50v416h-60zM319 597q0 17 10 27t26 10q17 0 27.5 -10t10.5 -27t-10.5 -27t-27.5 -10q-16 0 -26 10t-10 27z" />
<glyph unicode="&#xfb02;" horiz-adv-x="456" vert-adv-y="0" d="M45 436v41h60v70q0 58 32 89t73 31h171v-647h-50v605h-121q-22 0 -38.5 -20.5t-16.5 -57.5v-70h91v-41h-91v-416h-50v416h-60z" />
</font>
</defs>
</svg>
