<?xml version="1.0" standalone="no"?>
<!DOCTYPE svg PUBLIC "-//W3C//DTD SVG 1.1//EN" "http://www.w3.org/Graphics/SVG/1.1/DTD/svg11.dtd" >
<svg xmlns="http://www.w3.org/2000/svg" xmlns:xlink="http://www.w3.org/1999/xlink" version="1.1">
<metadata></metadata>
<defs>
<font id="gidoleregular" horiz-adv-x="510" vert-adv-y="1000" >
<font-face units-per-em="1000" ascent="760" descent="-240" />
<missing-glyph horiz-adv-x="300" />
<glyph unicode="&#xd;" horiz-adv-x="333" />
<glyph unicode=" "  horiz-adv-x="300" />
<glyph unicode="&#x09;" horiz-adv-x="300" />
<glyph unicode="&#xa0;" horiz-adv-x="300" />
<glyph unicode="!" horiz-adv-x="260" vert-adv-y="0" d="M130 96q22 0 36.5 -14t14.5 -37t-14.5 -37t-36.5 -14t-36.5 14t-14.5 37t14.5 37t36.5 14zM102 180l-10 243v244h74v-244l-10 -243h-54z" />
<glyph unicode="&#x22;" horiz-adv-x="312" d="M190 667h72l-5 -211h-61zM50 667h72l-5 -211h-61z" />
<glyph unicode="#" horiz-adv-x="610" vert-adv-y="0" d="M236 667h64l-40 -190h150l40 190h64l-40 -190h81v-57h-93l-36 -173h94v-57h-106l-40 -190h-64l40 190h-150l-40 -190h-64l40 190h-81v57h93l36 173h-94v57h106zM398 420h-150l-36 -173h150z" />
<glyph unicode="$" horiz-adv-x="485" vert-adv-y="0" d="M210 708h54v-65q37 0 79 -19.5t75 -62.5l-53 -39q-41 54 -101 54v-206q77 -19 121.5 -62.5t44.5 -108.5t-46.5 -115.5t-119.5 -59.5v-65h-54v65q-101 9 -158 86l50 39q40 -53 108 -59v224q-158 38 -158 163q0 68 45.5 112t112.5 53v66zM210 576q-40 -7 -64 -32.5 t-24 -66.5q0 -33 24 -57t64 -37v193zM264 91q45 8 71 38t26 70q0 34 -27 61t-70 41v-210z" />
<glyph unicode="%" horiz-adv-x="712" vert-adv-y="0" d="M181 613q-23 0 -41 -17.5t-18 -50.5v-47q0 -33 18 -50.5t41 -17.5t41 17.5t18 50.5v47q0 33 -18 50.5t-41 17.5zM181 673q49 0 85 -33.5t36 -96.5v-43q0 -63 -36 -96.5t-85 -33.5t-85 33.5t-36 96.5v43q0 63 36 96.5t85 33.5zM496 667h74l-360 -667h-74zM531 237 q-23 0 -41 -17.5t-18 -50.5v-47q0 -33 18 -50.5t41 -17.5t41 17.5t18 50.5v47q0 33 -18 50.5t-41 17.5zM531 297q49 0 85 -33.5t36 -96.5v-43q0 -63 -36 -96.5t-85 -33.5t-85 33.5t-36 96.5v43q0 63 36 96.5t85 33.5z" />
<glyph unicode="&#x26;" horiz-adv-x="602" d="M389 130v180h-134q-54 0 -89.5 -37.5t-35.5 -86.5q0 -50 35.5 -88t89.5 -38q80 0 134 70zM255 376h134v95h66v-95h92v-66h-92v-172q0 -68 82 -68h10v-70h-10q-25 0 -41.5 2t-42 15t-40.5 38q-48 -61 -158 -61q-86 0 -140.5 56.5t-54.5 135.5q0 50 24 94t62 64 q-34 20 -55.5 60t-21.5 86q0 75 52 129t134 54q23 0 39 -2t42.5 -9.5t52.5 -27t50 -50.5l-54 -41q-49 64 -130 64q-49 0 -82.5 -35.5t-33.5 -81.5q0 -45 33 -79.5t83 -34.5z" />
<glyph unicode="'" horiz-adv-x="172" d="M50 667h72l-5 -211h-61z" />
<glyph unicode="(" horiz-adv-x="305" d="M275 -191q-79 0 -137 54.5t-58 155.5v567q0 102 57.5 156.5t137.5 54.5v-58q-56 0 -94.5 -40t-38.5 -113v-567q0 -71 41.5 -111.5t91.5 -40.5v-58z" />
<glyph unicode=")" horiz-adv-x="305" d="M30 -191v58q53 0 93 40.5t40 111.5v567q0 71 -40 112t-93 41v58q80 0 137.5 -54.5t57.5 -156.5v-567q0 -101 -58 -155.5t-137 -54.5z" />
<glyph unicode="*" horiz-adv-x="352" vert-adv-y="0" d="M150 667h52l-3 -91l87 31l16 -50l-88 -25l56 -72l-42 -31l-52 75l-52 -75l-41 30l55 73l-88 26l16 50l87 -32z" />
<glyph unicode="+" horiz-adv-x="520" d="M80 279h150v152h60v-152h150v-56h-150v-152h-60v152h-150v56z" />
<glyph unicode="," horiz-adv-x="202" d="M101 96q21 0 36 -13t15 -38q0 -19 -9 -45l-45 -121h-45l29 118q-32 11 -32 48q0 25 15 38t36 13z" />
<glyph unicode="-" horiz-adv-x="370" d="M80 284h210v-66h-210v66z" />
<glyph unicode="." horiz-adv-x="202" vert-adv-y="0" d="M101 96q23 0 37 -14t14 -37t-14 -37t-37 -14t-37 14t-14 37t14 37t37 14z" />
<glyph unicode="/" horiz-adv-x="322" vert-adv-y="0" d="M250 797h62l-240 -927h-62z" />
<glyph unicode="0" horiz-adv-x="520" d="M455 194q0 -102 -56.5 -151t-138.5 -49t-138.5 49t-56.5 151v279q0 102 56.5 151t138.5 49t138.5 -49t56.5 -151v-279zM139 194q0 -67 34.5 -98.5t86.5 -31.5t86.5 31.5t34.5 98.5v279q0 67 -34.5 98.5t-86.5 31.5t-86.5 -31.5t-34.5 -98.5v-279z" />
<glyph unicode="1" horiz-adv-x="321" d="M172 667h64v-667h-74v582l-74 -39l-33 65z" />
<glyph unicode="2" horiz-adv-x="515" d="M240 603q-79 0 -136 -50l-44 55q69 65 180 65q87 0 136.5 -51.5t49.5 -131.5q0 -39 -12.5 -75t-51.5 -86l-198 -259h291v-70h-395v50l248 324q44 59 44 116q0 50 -29 81.5t-83 31.5z" />
<glyph unicode="3" horiz-adv-x="511" vert-adv-y="0" d="M241 -6q-120 0 -190 67l48 52q50 -49 142 -49q59 0 90 33.5t31 88.5q0 51 -28.5 86.5t-92.5 35.5h-68v70h68q53 0 82.5 30.5t29.5 81.5q0 50 -29 81.5t-83 31.5q-79 0 -136 -50l-44 55q69 65 180 65q87 0 136.5 -51.5t49.5 -131.5q0 -49 -21.5 -86.5t-55.5 -59.5 q39 -23 62.5 -64t23.5 -94q0 -83 -52 -137.5t-143 -54.5z" />
<glyph unicode="4" horiz-adv-x="530" d="M261 667h74l-193 -434h206v170h70v-170h57v-68h-57v-165h-70v165h-288v50z" />
<glyph unicode="5" horiz-adv-x="512" d="M252 -6q-120 0 -190 67l48 52q50 -49 142 -49q121 0 121 141q0 64 -33 95.5t-88 31.5q-52 0 -97 -27l-68 29v333h319v-70h-247v-218q42 23 93 23q86 0 140.5 -49.5t54.5 -147.5q0 -109 -54 -160t-141 -51z" />
<glyph unicode="6" d="M376 205q0 141 -121 141t-121 -141t121 -141t121 141zM194 406q24 10 61 10q87 0 141 -51t54 -160t-54 -160t-141 -51t-141 51t-54 160q0 49 12 91.5t49 116.5l127 254h77z" />
<glyph unicode="7" horiz-adv-x="505" d="M55 667h390v-50l-262 -617h-79l253 597h-302v70z" />
<glyph unicode="8" d="M255 310q-64 0 -93.5 -36t-29.5 -88q0 -55 32 -89.5t91 -34.5t91 34.5t32 89.5q0 52 -29.5 88t-93.5 36zM255 605q-54 0 -84 -32t-30 -83t30 -82.5t84 -31.5t84 31.5t30 82.5t-30 83t-84 32zM255 673q87 0 136.5 -51.5t49.5 -131.5q0 -49 -21.5 -86.5t-55.5 -59.5 q39 -23 62.5 -64t23.5 -94q0 -83 -52 -137.5t-143 -54.5t-143 54.5t-52 137.5q0 53 23.5 94t62.5 64q-34 22 -55.5 59.5t-21.5 86.5q0 80 49.5 131.5t136.5 51.5z" />
<glyph unicode="9" d="M134 462q0 -141 121 -141t121 141t-121 141t-121 -141zM316 261q-24 -10 -61 -10q-87 0 -141 51t-54 160t54 160t141 51t141 -51t54 -160q0 -49 -12 -91.5t-49 -116.5l-127 -254h-77z" />
<glyph unicode=":" horiz-adv-x="202" vert-adv-y="0" d="M101 96q23 0 37 -14t14 -37t-14 -37t-37 -14t-37 14t-14 37t14 37t37 14zM101 385q23 0 37 -14.5t14 -36.5t-14 -36.5t-37 -14.5t-37 14.5t-14 36.5t14 36.5t37 14.5z" />
<glyph unicode=";" horiz-adv-x="202" vert-adv-y="0" d="M101 96q21 0 36 -13t15 -38q0 -19 -9 -45l-45 -121h-45l29 118q-32 11 -32 48q0 25 15 38t36 13zM100 385q22 0 36.5 -14.5t14.5 -36.5t-14.5 -36.5t-36.5 -14.5t-36 14t-14 37t14 37t36 14z" />
<glyph unicode="&#x3c;" horiz-adv-x="520" d="M80 284l360 170v-66l-308 -137l308 -137v-66l-360 170v66z" />
<glyph unicode="=" horiz-adv-x="520" d="M80 346h360v-56h-360v56zM80 212h360v-56h-360v56z" />
<glyph unicode="&#x3e;" horiz-adv-x="520" d="M80 454l360 -170v-66l-360 -170v66l308 137l-308 137v66z" />
<glyph unicode="?" horiz-adv-x="468" vert-adv-y="0" d="M191 180v57q0 92 90 151q58 38 58 102q0 52 -34.5 82.5t-85.5 30.5q-68 0 -116 -56l-58 44q31 38 78 60t96 22q80 0 137 -50t57 -133q0 -101 -84 -154q-40 -25 -57.5 -48.5t-18.5 -61.5l-2 -46h-60zM223 96q23 0 37 -14t14 -37t-14 -37t-37 -14t-37 14t-14 37t14 37 t37 14z" />
<glyph unicode="@" horiz-adv-x="864" vert-adv-y="0" d="M340 674h76q182 0 277.5 -86t95.5 -282v-268q0 -117 -64.5 -172.5t-168.5 -55.5h-246q-104 0 -169.5 55.5t-65.5 172.5v216q0 117 66.5 172.5t170.5 55.5h114q78 0 126.5 -47t48.5 -145v-290h-68v52q-56 -58 -133 -58q-67 0 -112 41.5t-45 107.5q0 77 56.5 114t154.5 37 q46 0 79 -5q0 66 -28.5 97.5t-78.5 31.5h-114q-73 0 -118 -40t-45 -124v-216q0 -84 44 -122t117 -38h246q74 0 119.5 38.5t45.5 121.5v268q0 162 -76.5 232t-228.5 70h-76v66zM311 143q0 -37 26.5 -60.5t70.5 -23.5q51 0 88 35t37 100v35q-35 4 -71 4q-151 0 -151 -90z" />
<glyph unicode="A" horiz-adv-x="609" d="M273 667h64l237 -667h-75l-57 165h-274l-57 -165h-76zM305 571l-115 -336h229z" />
<glyph unicode="B" horiz-adv-x="550" vert-adv-y="0" d="M290 309h-131v-240h131q65 0 98 32.5t33 87.5q0 50 -33 85t-98 35zM290 667q88 0 137 -50t49 -130q0 -95 -77 -143q41 -24 68.5 -64t27.5 -91q0 -84 -53.5 -136.5t-151.5 -52.5h-205v667h205zM290 598h-131v-221h131q53 0 82.5 29.5t29.5 80.5q0 50 -29 80.5t-83 30.5z " />
<glyph unicode="C" horiz-adv-x="541" vert-adv-y="0" d="M139 463v-259q0 -75 43 -107.5t108 -32.5q92 0 142 49l48 -52q-70 -67 -190 -67q-95 0 -160 50.5t-65 159.5v259q0 109 65 159.5t160 50.5q111 0 180 -65l-44 -55q-57 50 -136 50q-65 0 -108 -32.5t-43 -107.5z" />
<glyph unicode="D" horiz-adv-x="590" vert-adv-y="0" d="M515 468v-269q0 -92 -54.5 -145.5t-160.5 -53.5h-215v667h215q106 0 160.5 -53.5t54.5 -145.5zM441 199v269q0 129 -141 129h-141v-527h141q141 0 141 129z" />
<glyph unicode="E" vert-adv-y="0" d="M85 667h359v-70h-287v-219h237v-70h-235v-238h286v-70h-360v667z" />
<glyph unicode="F" horiz-adv-x="504" vert-adv-y="0" d="M85 667h359v-70h-285v-219h235v-70h-235v-308h-74v667z" />
<glyph unicode="G" horiz-adv-x="580" vert-adv-y="0" d="M290 603q-65 0 -108 -32.5t-43 -107.5v-259q0 -75 43 -107.5t108 -32.5q64 0 107.5 31.5t43.5 98.5v93h-138v70h212v-163q0 -102 -65.5 -151t-159.5 -49q-95 0 -160 50.5t-65 159.5v259q0 109 65 159.5t160 50.5q111 0 180 -65l-44 -55q-57 50 -136 50z" />
<glyph unicode="H" horiz-adv-x="610" vert-adv-y="0" d="M85 667h74v-289h292v289h74v-667h-74v308h-292v-308h-74v667z" />
<glyph unicode="I" horiz-adv-x="244" vert-adv-y="0" d="M159 667v-667h-74v667h74z" />
<glyph unicode="J" horiz-adv-x="491" vert-adv-y="0" d="M342 667h74v-463q0 -107 -55 -158.5t-140 -51.5q-116 0 -166 83l55 44q39 -57 111 -57q51 0 86 32t35 108v463z" />
<glyph unicode="K" horiz-adv-x="584" vert-adv-y="0" d="M159 0h-74v667h74v-343l281 343h86l-258 -309l271 -358h-87l-232 307l-61 -71v-236z" />
<glyph unicode="L" horiz-adv-x="520" vert-adv-y="0" d="M85 667h74v-597h306v-70h-380v667z" />
<glyph unicode="M" horiz-adv-x="741" vert-adv-y="0" d="M85 667h65l220 -424l220 424h66v-667h-74v513l-180 -348h-64l-179 346v-511h-74v667z" />
<glyph unicode="N" horiz-adv-x="610" vert-adv-y="0" d="M85 667h65l301 -520v520h74v-667h-65l-301 520v-520h-74v667z" />
<glyph unicode="O" horiz-adv-x="600" vert-adv-y="0" d="M535 204q0 -109 -68 -159.5t-167 -50.5t-167 50.5t-68 159.5v259q0 109 68 159.5t167 50.5t167 -50.5t68 -159.5v-259zM139 204q0 -75 45.5 -107.5t115.5 -32.5t115.5 32.5t45.5 107.5v259q0 75 -45.5 107.5t-115.5 32.5t-115.5 -32.5t-45.5 -107.5v-259z" />
<glyph unicode="P" horiz-adv-x="532" vert-adv-y="0" d="M272 327q131 0 131 135t-131 135h-113v-270h113zM272 667q94 0 149.5 -51t55.5 -154t-55.5 -154t-149.5 -51h-114v-257h-73v667h187z" />
<glyph unicode="Q" horiz-adv-x="600" vert-adv-y="0" d="M139 204q0 -75 45.5 -107.5t115.5 -32.5t115.5 32.5t45.5 107.5v259q0 75 -45.5 107.5t-115.5 32.5t-115.5 -32.5t-45.5 -107.5v-259zM445 29l99 -65l-37 -59l-144 95q-30 -6 -63 -6q-99 0 -167 50.5t-68 159.5v259q0 109 68 159.5t167 50.5t167 -50.5t68 -159.5v-259 q0 -121 -90 -175z" />
<glyph unicode="R" horiz-adv-x="562" vert-adv-y="0" d="M282 667q94 0 149.5 -51t55.5 -154q0 -141 -106 -187l116 -275h-78l-109 258q-9 -1 -28 -1h-124v-257h-73v667h197zM282 327q131 0 131 135t-131 135h-123v-270h123z" />
<glyph unicode="S" horiz-adv-x="541" vert-adv-y="0" d="M253 -6q-53 0 -109 16.5t-91 50.5l48 52q26 -25 68.5 -37t83.5 -12q65 0 102 31t37 91q0 59 -38.5 85.5t-104.5 37.5q-194 33 -194 179q0 92 57.5 138.5t143.5 46.5q121 0 190 -65l-44 -55q-57 50 -146 50q-57 0 -92 -28t-35 -87q0 -51 35.5 -75t98.5 -36q43 -8 75.5 -20 t63.5 -33t47.5 -56t16.5 -82q0 -90 -57.5 -141t-155.5 -51z" />
<glyph unicode="T" horiz-adv-x="560" vert-adv-y="0" d="M55 667h450v-70h-188v-597h-74v597h-188v70z" />
<glyph unicode="U" horiz-adv-x="580" vert-adv-y="0" d="M149 205q0 -75 40 -108t101 -33t101 33t40 108v462h74v-462q0 -57 -18 -99.5t-49.5 -66t-68.5 -34.5t-79 -11t-79 11t-68.5 34.5t-49.5 66t-18 99.5v462h74v-462z" />
<glyph unicode="V" horiz-adv-x="609" d="M35 667h77l193 -561l193 561h76l-237 -667h-64z" />
<glyph unicode="W" horiz-adv-x="802" vert-adv-y="0" d="M35 667h75l142 -564l118 399h64l117 -398l141 563h75l-183 -667h-65l-117 390l-117 -390h-66z" />
<glyph unicode="X" horiz-adv-x="567" vert-adv-y="0" d="M46 667h83l155 -276l158 276h80l-191 -333l191 -334h-81l-157 277l-158 -277h-81l193 334z" />
<glyph unicode="Y" horiz-adv-x="541" vert-adv-y="0" d="M35 667h81l154 -309l157 309h79l-199 -390v-277h-74v277z" />
<glyph unicode="Z" horiz-adv-x="540" vert-adv-y="0" d="M70 667h400v-50l-323 -547h333v-70h-420v50l322 547h-312v70z" />
<glyph unicode="[" horiz-adv-x="269" vert-adv-y="0" d="M85 797h154v-57h-94v-873h94v-57h-154v987z" />
<glyph unicode="\" horiz-adv-x="322" vert-adv-y="0" d="M10 797h62l240 -927h-62z" />
<glyph unicode="]" horiz-adv-x="269" vert-adv-y="0" d="M184 797v-987h-154v57h94v873h-94v57h154z" />
<glyph unicode="^" horiz-adv-x="398" d="M199 619l-79 -73h-70l131 121h36l131 -121h-70z" />
<glyph unicode="_" horiz-adv-x="440" vert-adv-y="0" d="M35 0h370v-66h-370v66z" />
<glyph unicode="`" horiz-adv-x="252" d="M50 667h77l75 -121h-66z" />
<glyph unicode="a" horiz-adv-x="481" vert-adv-y="0" d="M238 483q78 0 126.5 -47.5t48.5 -145.5v-290h-68v52q-56 -58 -133 -58q-67 0 -112 41.5t-45 107.5q0 77 56.5 114t154.5 37q46 0 79 -5q0 66 -28.5 98t-78.5 32q-67 0 -117 -30l-31 57q64 37 148 37zM123 143q0 -37 26.5 -60.5t70.5 -23.5q52 0 88.5 36.5t36.5 108.5v25 q-35 4 -71 4q-151 0 -151 -90z" />
<glyph unicode="b" horiz-adv-x="520" vert-adv-y="0" d="M465 204q0 -58 -17 -101t-45 -65.5t-59 -33t-64 -10.5q-90 0 -135 58v-52h-70v667h70v-242q45 58 135 58q33 0 64 -10.5t59 -33t45 -65.5t17 -101v-69zM145 273v-69q0 -78 35.5 -111t89.5 -33t89.5 33t35.5 111v69q0 78 -35.5 111t-89.5 33t-89.5 -33t-35.5 -111z" />
<glyph unicode="c" horiz-adv-x="445" vert-adv-y="0" d="M260 60q56 0 99 38l34 -59q-53 -45 -133 -45q-83 0 -139 49.5t-56 160.5v69q0 111 56 160.5t139 49.5q72 0 123 -37l-34 -59q-42 30 -89 30q-54 0 -89.5 -33t-35.5 -111v-69q0 -78 35.5 -111t89.5 -33z" />
<glyph unicode="d" horiz-adv-x="520" vert-adv-y="0" d="M55 204v69q0 58 17 101t45 65.5t59 33t64 10.5q90 0 135 -58v242h70v-667h-70v52q-45 -58 -135 -58q-33 0 -64 10.5t-59 33t-45 65.5t-17 101zM375 273q0 78 -35.5 111t-89.5 33t-89.5 -33t-35.5 -111v-69q0 -78 35.5 -111t89.5 -33t89.5 33t35.5 111v69z" />
<glyph unicode="e" horiz-adv-x="496" vert-adv-y="0" d="M260 -6q-89 0 -145.5 54t-56.5 166v59q0 111 55 160.5t135 49.5q37 0 69 -10.5t60 -33.5t44.5 -66t16.5 -101v-54h-312v-4q0 -80 37 -118t97 -38q71 0 123 38l32 -57q-68 -45 -155 -45zM126 282h244q0 72 -36 104.5t-86 32.5q-49 0 -84.5 -32t-37.5 -105z" />
<glyph unicode="f" horiz-adv-x="370" vert-adv-y="0" d="M45 477h80v60q0 63 35.5 96.5t84.5 33.5h80v-62h-80q-21 0 -35.5 -17t-14.5 -51v-60h110v-61h-110v-416h-70v416h-80v61z" />
<glyph unicode="g" horiz-adv-x="520" vert-adv-y="0" d="M375 52q-45 -58 -135 -58q-33 0 -64 10.5t-59 33t-45 65.5t-17 101v69q0 58 17 101t45 65.5t59 33t64 10.5q90 0 135 -58v52h70v-477q0 -78 -57.5 -134t-148.5 -56q-93 0 -160 45l32 59q52 -38 128 -38q61 0 98.5 36t37.5 88v52zM375 273q0 78 -35.5 111t-89.5 33 t-89.5 -33t-35.5 -111v-69q0 -78 35.5 -111t89.5 -33t89.5 33t35.5 111v69z" />
<glyph unicode="h" horiz-adv-x="518" vert-adv-y="0" d="M145 0h-70v667h70v-239q44 55 130 55q73 0 126.5 -49.5t53.5 -160.5v-273h-70v273q0 144 -120 144t-120 -144v-273z" />
<glyph unicode="i" horiz-adv-x="232" vert-adv-y="0" d="M81 477h70v-477h-70v477zM115 644q21 0 34.5 -13t13.5 -34t-13.5 -34t-34.5 -13q-20 0 -33 13t-13 34t13 34t33 13z" />
<glyph unicode="j" horiz-adv-x="231" vert-adv-y="0" d="M150 -55q0 -63 -35.5 -96.5t-84.5 -33.5h-30v62h30q21 0 35.5 17t14.5 51v532h70v-532zM115 644q21 0 34 -13t13 -34t-13 -34t-34 -13q-20 0 -33.5 13t-13.5 34t13.5 34t33.5 13z" />
<glyph unicode="k" horiz-adv-x="469" vert-adv-y="0" d="M75 667h70v-439l187 249h82l-167 -217l182 -260h-81l-147 212l-56 -75v-137h-70v667z" />
<glyph unicode="l" horiz-adv-x="220" vert-adv-y="0" d="M75 667h70v-667h-70v667z" />
<glyph unicode="m" horiz-adv-x="770" vert-adv-y="0" d="M145 477v-49q46 55 115 55q86 0 130 -75q45 75 150 75q28 0 54.5 -9t52.5 -29.5t42 -61t16 -95.5v-288h-70v289q0 128 -105 128t-105 -129v-288h-70v289q0 128 -105 128t-105 -129v-288h-70v477h70z" />
<glyph unicode="n" horiz-adv-x="518" vert-adv-y="0" d="M75 477h70v-49q44 55 130 55q73 0 126.5 -49.5t53.5 -160.5v-273h-70v273q0 144 -120 144t-120 -144v-273h-70v477z" />
<glyph unicode="o" horiz-adv-x="500" vert-adv-y="0" d="M445 204q0 -111 -56 -160.5t-139 -49.5t-139 49.5t-56 160.5v69q0 111 56 160.5t139 49.5t139 -49.5t56 -160.5v-69zM125 204q0 -78 35.5 -111t89.5 -33t89.5 33t35.5 111v69q0 78 -35.5 111t-89.5 33t-89.5 -33t-35.5 -111v-69z" />
<glyph unicode="p" horiz-adv-x="520" vert-adv-y="0" d="M145 52v-242h-70v667h70v-52q45 58 135 58q33 0 64 -10.5t59 -33t45 -65.5t17 -101v-69q0 -58 -17 -101t-45 -65.5t-59 -33t-64 -10.5q-90 0 -135 58zM145 273v-69q0 -78 35.5 -111t89.5 -33t89.5 33t35.5 111v69q0 78 -35.5 111t-89.5 33t-89.5 -33t-35.5 -111z" />
<glyph unicode="q" horiz-adv-x="520" vert-adv-y="0" d="M375 52q-45 -58 -135 -58q-33 0 -64 10.5t-59 33t-45 65.5t-17 101v69q0 58 17 101t45 65.5t59 33t64 10.5q90 0 135 -58v52h70v-667h-70v242zM375 273q0 78 -35.5 111t-89.5 33t-89.5 -33t-35.5 -111v-69q0 -78 35.5 -111t89.5 -33t89.5 33t35.5 111v69z" />
<glyph unicode="r" horiz-adv-x="378" vert-adv-y="0" d="M75 477h70v-49q44 55 130 55q30 0 58 -6l-10 -63q-25 3 -58 3q-120 0 -120 -144v-273h-70v477z" />
<glyph unicode="s" horiz-adv-x="436" vert-adv-y="0" d="M371 446l-32 -59q-50 30 -126 30q-93 0 -93 -68q0 -30 22.5 -43.5t76.5 -23.5q167 -28 167 -145q0 -72 -52.5 -107.5t-120.5 -35.5q-103 0 -170 45l32 59q52 -38 138 -38q47 0 75 19t28 58q0 36 -27 53.5t-82 27.5q-23 4 -40 8t-40.5 14t-39 23t-26.5 35.5t-11 50.5 q0 68 50 101t113 33q94 0 158 -37z" />
<glyph unicode="t" horiz-adv-x="370" vert-adv-y="0" d="M45 477h80v104h70v-104h110v-62h-110v-285q0 -32 14.5 -48t35.5 -16h80v-66h-80q-49 0 -84.5 33.5t-35.5 96.5v285h-80v62z" />
<glyph unicode="u" vert-adv-y="0" d="M375 204v273h70v-273q0 -111 -54.5 -160.5t-135.5 -49.5t-135.5 49.5t-54.5 160.5v273h70v-273q0 -78 34.5 -111t85.5 -33t85.5 33t34.5 111z" />
<glyph unicode="v" horiz-adv-x="507" d="M35 477h74l145 -387l144 387h74l-188 -477h-61z" />
<glyph unicode="w" horiz-adv-x="730" d="M35 477h71l118 -374l111 374h60l112 -374l117 374h71l-158 -477h-60l-112 391l-111 -391h-60z" />
<glyph unicode="x" horiz-adv-x="454" vert-adv-y="0" d="M40 477h79l108 -191l110 191h77l-145 -239l145 -238h-79l-108 191l-110 -191h-77l145 238z" />
<glyph unicode="y" horiz-adv-x="530" vert-adv-y="0" d="M35 477h74l156 -396l156 396h74l-268 -662h-73l74 185z" />
<glyph unicode="z" horiz-adv-x="430" vert-adv-y="0" d="M55 477h320v-50l-234 -361h234v-66h-320v50l234 361h-234v66z" />
<glyph unicode="{" horiz-adv-x="324" vert-adv-y="0" d="M284 797v-56h-14q-37 0 -52.5 -22.5t-15.5 -71.5v-214q0 -83 -59 -122q59 -43 59 -128v-224q0 -49 15.5 -71.5t52.5 -22.5h14v-56h-14q-130 0 -130 150v234q0 47 -20.5 71t-55.5 24h-4v50h4q76 0 76 85v224q0 150 130 150h14z" />
<glyph unicode="|" horiz-adv-x="232" vert-adv-y="0" d="M85 797h62v-982h-62v982z" />
<glyph unicode="}" horiz-adv-x="324" vert-adv-y="0" d="M40 797h14q130 0 130 -150v-224q0 -85 76 -85h4v-50h-4q-35 0 -55.5 -24t-20.5 -71v-234q0 -150 -130 -150h-14v56h14q37 0 52.5 22.5t15.5 71.5v224q0 85 59 128q-59 39 -59 122v214q0 49 -15.5 71.5t-52.5 22.5h-14v56z" />
<glyph unicode="~" horiz-adv-x="520" vert-adv-y="0" d="M100 209l-34 52q57 54 114 54q51 0 96 -35q40 -31 68 -31q32 0 76 44l34 -52q-58 -57 -114 -57q-45 0 -96 38q-35 27 -66 27q-38 0 -78 -40z" />
<glyph unicode="&#xa1;" horiz-adv-x="260" vert-adv-y="0" d="M130 488q22 0 36.5 -14t14.5 -37t-14.5 -37t-36.5 -14t-36.5 14t-14.5 37t14.5 37t36.5 14zM102 302h54l10 -243v-244h-74v244z" />
<glyph unicode="&#xa2;" horiz-adv-x="440" vert-adv-y="0" d="M220 563h50v-81q78 -6 123 -45l-38 -54q-33 27 -85 32v-354q52 5 89 38l41 -52q-48 -47 -130 -52v-81h-50v81q-72 9 -121 62.5t-49 146.5v68q0 93 49 147t121 63v81zM220 415q-46 -8 -74 -44t-28 -98v-69q0 -63 27.5 -98.5t74.5 -43.5v353z" />
<glyph unicode="&#xa3;" horiz-adv-x="521" vert-adv-y="0" d="M122 447q0 114 54 170t131 56q86 0 154 -89l-57 -44q-22 29 -42.5 44t-30.5 17t-24 2q-46 0 -78.5 -38t-32.5 -118v-94h186v-61h-186v-222h256v-70h-392v70h62v222h-60v61h60v94z" />
<glyph unicode="&#xa5;" horiz-adv-x="551" vert-adv-y="0" d="M40 667h79l156 -316l159 316h77l-124 -243h78v-56h-113l-35 -69h138v-56h-143v-243h-74v243h-143v56h138l-35 69h-113v56h78z" />
<glyph unicode="&#xa6;" horiz-adv-x="232" vert-adv-y="0" d="M85 264h62v-264h-62v264zM85 667h62v-263h-62v263z" />
<glyph unicode="&#xa7;" horiz-adv-x="469" vert-adv-y="0" d="M231 673q89 0 158 -47l-38 -55q-50 37 -120 37q-42 0 -67.5 -18t-25.5 -49q0 -30 21 -45t78 -25q167 -32 167 -143q0 -67 -46 -103q46 -35 46 -95q0 -64 -48 -100t-126 -36q-95 0 -165 53l42 53q52 -41 123 -41q104 0 104 71q0 31 -26 49t-83 29q-73 13 -115 43t-42 92 q0 68 48 101q-48 35 -48 97q0 63 50.5 97.5t112.5 34.5zM161 422q-23 -21 -23 -69q0 -37 20.5 -53t78.5 -27q47 -9 78 -23q19 24 19 68q0 38 -25.5 57.5t-83.5 30.5q-38 7 -64 16z" />
<glyph unicode="&#xa8;" horiz-adv-x="374" vert-adv-y="0" d="M277 644q21 0 34 -13t13 -34t-13 -34t-34 -13t-34 13t-13 34t13 34t34 13zM97 644q21 0 34 -13t13 -34t-13 -34t-34 -13t-34 13t-13 34t13 34t34 13z" />
<glyph unicode="&#xa9;" horiz-adv-x="640" vert-adv-y="0" d="M320 613q-87 0 -139 -41.5t-52 -125.5v-224q0 -85 52 -126.5t139 -41.5t139 41.5t52 126.5v224q0 84 -52 125.5t-139 41.5zM320 673q118 0 186.5 -54.5t68.5 -172.5v-224q0 -118 -68.5 -173t-186.5 -55t-186.5 55t-68.5 173v224q0 118 68.5 172.5t186.5 54.5zM319 543 q78 0 120 -55l-47 -35q-20 29 -73 29q-75 0 -75 -79v-139q0 -79 75 -79q49 0 81 32l43 -35q-44 -58 -124 -58q-60 0 -99 34t-39 106v139q0 72 39 106t99 34z" />
<glyph unicode="&#xab;" horiz-adv-x="545" d="M223 437h72l-159 -187l159 -187h-72l-143 164v46zM393 437h72l-159 -187l159 -187h-72l-143 164v46z" />
<glyph unicode="&#xac;" d="M80 279h350v-205h-60v149h-290v56z" />
<glyph unicode="&#xae;" horiz-adv-x="640" vert-adv-y="0" d="M265 481v-146h64q27 0 47 19t20 56q0 35 -20 53t-47 18h-64zM204 539h125q52 0 87.5 -33t35.5 -96q0 -44 -18 -75.5t-48 -45.5l73 -161h-63l-68 149h-63v-149h-61v411zM320 673q118 0 186.5 -54.5t68.5 -172.5v-224q0 -118 -68.5 -173t-186.5 -55t-186.5 55t-68.5 173 v224q0 118 68.5 172.5t186.5 54.5zM320 613q-87 0 -139 -41.5t-52 -125.5v-224q0 -85 52 -126.5t139 -41.5t139 41.5t52 126.5v224q0 84 -52 125.5t-139 41.5z" />
<glyph unicode="&#xaf;" horiz-adv-x="370" d="M50 612h270v-56h-270v56z" />
<glyph unicode="&#xb0;" horiz-adv-x="324" vert-adv-y="0" d="M162 673q50 0 81 -31t31 -81t-31 -81t-81 -31t-81 31t-31 81t31 81t81 31zM162 619q-26 0 -42 -16t-16 -42t16 -42t42 -16t42 16t16 42t-16 42t-42 16z" />
<glyph unicode="&#xb1;" horiz-adv-x="520" d="M230 441h60v-92h150v-56h-150v-92h-60v92h-150v56h150v92zM80 151h360v-56h-360v56z" />
<glyph unicode="&#xb4;" horiz-adv-x="336" d="M204 667h82l-165 -211h-71z" />
<glyph unicode="&#xb5;" horiz-adv-x="560" vert-adv-y="0" d="M75 477h70v-273q0 -70 35 -107t85 -37t85 37t35 107v273h70v-353q0 -32 14.5 -48t35.5 -16h10v-66h-10q-35 0 -62.5 19t-39.5 55q-44 -74 -138 -74q-75 0 -120 61v-240h-70v662z" />
<glyph unicode="&#xb6;" horiz-adv-x="542" vert-adv-y="0" d="M457 667v-667h-73v598h-106v-598h-73v263q-66 14 -108 65t-42 134q0 100 57.5 152.5t142.5 52.5h202z" />
<glyph unicode="&#xb7;" horiz-adv-x="262" vert-adv-y="0" d="M131 301q23 0 37 -14.5t14 -36.5t-14 -36.5t-37 -14.5t-37 14.5t-14 36.5t14 36.5t37 14.5z" />
<glyph unicode="&#xb8;" horiz-adv-x="342" d="M217 0l-19 -37q47 -4 70.5 -19t23.5 -48q0 -87 -135 -87q-67 0 -107 15l27 51q33 -11 80 -11q39 0 58 6.5t19 25.5q0 34 -67 34h-40l36 70h54z" />
<glyph unicode="&#xbb;" horiz-adv-x="545" d="M322 437l143 -164v-46l-143 -164h-72l159 187l-159 187h72zM152 437l143 -164v-46l-143 -164h-72l159 187l-159 187h72z" />
<glyph unicode="&#xbc;" horiz-adv-x="824" vert-adv-y="0" d="M626 402h59l-112 -251h101v98h55v-98h34v-55h-34v-96h-55v96h-167v38zM199 667h47v-402h-58v333l-39 -20l-26 51zM560 667h64l-360 -667h-64z" />
<glyph unicode="&#xbd;" horiz-adv-x="824" vert-adv-y="0" d="M524 345q46 61 117 61q51 0 83 -33.5t32 -80.5q0 -43 -39 -92l-113 -144h160v-56h-244v40l154 195q24 32 24 57q0 24 -16 41t-41 17q-42 0 -72 -39zM199 667h47v-402h-58v333l-39 -20l-26 51zM560 667h64l-360 -667h-64z" />
<glyph unicode="&#xbe;" horiz-adv-x="824" vert-adv-y="0" d="M61 609q46 61 117 61q51 0 83.5 -33.5t32.5 -80.5q0 -52 -39 -84q44 -34 44 -92q0 -49 -33.5 -84t-87.5 -35q-72 0 -121 63l45 35q32 -42 76 -42q28 0 45.5 18.5t17.5 44.5q0 24 -16.5 43.5t-46.5 19.5h-47v56h47q25 0 41.5 16.5t16.5 40.5q0 23 -16.5 40.5t-41.5 17.5 q-42 0 -72 -39zM626 402h59l-112 -251h101v98h55v-98h34v-55h-34v-96h-55v96h-167v38zM560 667h64l-360 -667h-64z" />
<glyph unicode="&#xbf;" horiz-adv-x="378" vert-adv-y="0" d="M275 302q2 -37 2 -57q0 -92 -90 -151q-58 -38 -58 -102q0 -52 34.5 -82.5t85.5 -30.5q68 0 116 56l58 -44q-31 -38 -78 -60t-96 -22q-80 0 -137 50t-57 133q0 101 84 154q40 25 57.5 48.5t18.5 61.5l2 46h58zM245 386q-23 0 -37 14t-14 37t14 37t37 14t37 -14t14 -37 t-14 -37t-37 -14z" />
<glyph unicode="&#xc0;" horiz-adv-x="609" vert-adv-y="0" d="M199 857h82l75 -121h-71zM273 667h64l237 -667h-75l-57 165h-274l-57 -165h-76zM305 571l-115 -336h229z" />
<glyph unicode="&#xc1;" horiz-adv-x="609" vert-adv-y="0" d="M411 857l-86 -121h-71l75 121h82zM273 667h64l237 -667h-75l-57 165h-274l-57 -165h-76zM305 571l-115 -336h229z" />
<glyph unicode="&#xc2;" horiz-adv-x="609" vert-adv-y="0" d="M305 799l-69 -63h-80l131 121h36l131 -121h-80zM273 667h64l237 -667h-75l-57 165h-274l-57 -165h-76zM305 571l-115 -336h229z" />
<glyph unicode="&#xc3;" horiz-adv-x="609" vert-adv-y="0" d="M252 799q-20 0 -31.5 -14.5t-11.5 -38.5h-50q0 43 25 73t66 30q47 0 76 -41q12 -18 34 -18q17 0 29 13.5t12 38.5h50q0 -46 -28 -74t-65 -28q-47 0 -74 40q-12 19 -32 19zM273 667h64l237 -667h-75l-57 165h-274l-57 -165h-76zM305 571l-115 -336h229z" />
<glyph unicode="&#xc4;" horiz-adv-x="609" vert-adv-y="0" d="M395 834q21 0 34 -13t13 -34t-13 -34t-34 -13t-34 13t-13 34t13 34t34 13zM215 834q21 0 34 -13t13 -34t-13 -34t-34 -13t-34 13t-13 34t13 34t34 13zM273 667h64l237 -667h-75l-57 165h-274l-57 -165h-76zM305 571l-115 -336h229z" />
<glyph unicode="&#xc5;" horiz-adv-x="609" vert-adv-y="0" d="M305 883q39 0 63 -23.5t24 -63.5q0 -39 -24 -63t-63 -24q-38 0 -62.5 24t-24.5 63t24 63t63 24zM305 843q-20 0 -32 -13t-12 -34q0 -20 12 -33t32 -13t32.5 13t12.5 33t-12.5 33.5t-32.5 13.5zM273 667h64l237 -667h-75l-57 165h-274l-57 -165h-76zM305 571l-115 -336 h229z" />
<glyph unicode="&#xc6;" horiz-adv-x="792" d="M114 0h-79l354 667h328v-70h-224v-220h201v-69h-201v-239h234v-69h-305v165h-221zM422 588l-185 -353h185v353z" />
<glyph unicode="&#xc7;" horiz-adv-x="541" vert-adv-y="0" d="M317 0l-19 -37q47 -4 70.5 -19t23.5 -48q0 -87 -135 -87q-67 0 -107 15l27 51q33 -11 80 -11q39 0 58 6.5t19 25.5q0 34 -67 34h-40l36 70h54zM139 463v-259q0 -75 43 -107.5t108 -32.5q92 0 142 49l48 -52q-70 -67 -190 -67q-95 0 -160 50.5t-65 159.5v259 q0 109 65 159.5t160 50.5q111 0 180 -65l-44 -55q-57 50 -136 50q-65 0 -108 -32.5t-43 -107.5z" />
<glyph unicode="&#xc8;" vert-adv-y="0" d="M155 857h82l75 -121h-71zM85 667h359v-70h-287v-219h237v-70h-235v-238h286v-70h-360v667z" />
<glyph unicode="&#xc9;" vert-adv-y="0" d="M367 857l-86 -121h-71l75 121h82zM85 667h359v-70h-287v-219h237v-70h-235v-238h286v-70h-360v667z" />
<glyph unicode="&#xca;" vert-adv-y="0" d="M261 799l-69 -63h-80l131 121h36l131 -121h-80zM85 667h359v-70h-287v-219h237v-70h-235v-238h286v-70h-360v667z" />
<glyph unicode="&#xcb;" vert-adv-y="0" d="M351 834q21 0 34 -13t13 -34t-13 -34t-34 -13t-34 13t-13 34t13 34t34 13zM171 834q21 0 34 -13t13 -34t-13 -34t-34 -13t-34 13t-13 34t13 34t34 13zM85 667h359v-70h-287v-219h237v-70h-235v-238h286v-70h-360v667z" />
<glyph unicode="&#xcc;" horiz-adv-x="244" vert-adv-y="0" d="M16 857h82l75 -121h-71zM159 667v-667h-74v667h74z" />
<glyph unicode="&#xcd;" horiz-adv-x="244" vert-adv-y="0" d="M228 857l-86 -121h-71l75 121h82zM159 667v-667h-74v667h74z" />
<glyph unicode="&#xce;" horiz-adv-x="244" vert-adv-y="0" d="M122 799l-69 -63h-80l131 121h36l131 -121h-80zM159 667v-667h-74v667h74z" />
<glyph unicode="&#xcf;" horiz-adv-x="244" vert-adv-y="0" d="M212 834q21 0 34 -13t13 -34t-13 -34t-34 -13t-34 13t-13 34t13 34t34 13zM32 834q21 0 34 -13t13 -34t-13 -34t-34 -13t-34 13t-13 34t13 34t34 13zM159 667v-667h-74v667h74z" />
<glyph unicode="&#xd0;" horiz-adv-x="621" vert-adv-y="0" d="M127 667h194q104 0 169.5 -55t65.5 -172v-212q0 -117 -65.5 -172.5t-169.5 -55.5h-194v313h-72v60h72v294zM197 313v-243h124q161 0 161 158v212q0 157 -161 157h-124v-224h131v-60h-131z" />
<glyph unicode="&#xd1;" horiz-adv-x="610" vert-adv-y="0" d="M252 799q-20 0 -31.5 -14.5t-11.5 -38.5h-50q0 43 25 73t66 30q47 0 76 -41q12 -18 34 -18q17 0 29 13.5t12 38.5h50q0 -46 -28 -74t-65 -28q-47 0 -74 40q-12 19 -32 19zM85 667h65l301 -520v520h74v-667h-65l-301 520v-520h-74v667z" />
<glyph unicode="&#xd2;" horiz-adv-x="600" vert-adv-y="0" d="M194 857h82l75 -121h-71zM535 204q0 -109 -68 -159.5t-167 -50.5t-167 50.5t-68 159.5v259q0 109 68 159.5t167 50.5t167 -50.5t68 -159.5v-259zM139 204q0 -75 45.5 -107.5t115.5 -32.5t115.5 32.5t45.5 107.5v259q0 75 -45.5 107.5t-115.5 32.5t-115.5 -32.5 t-45.5 -107.5v-259z" />
<glyph unicode="&#xd3;" horiz-adv-x="600" vert-adv-y="0" d="M406 857l-86 -121h-71l75 121h82zM535 204q0 -109 -68 -159.5t-167 -50.5t-167 50.5t-68 159.5v259q0 109 68 159.5t167 50.5t167 -50.5t68 -159.5v-259zM139 204q0 -75 45.5 -107.5t115.5 -32.5t115.5 32.5t45.5 107.5v259q0 75 -45.5 107.5t-115.5 32.5t-115.5 -32.5 t-45.5 -107.5v-259z" />
<glyph unicode="&#xd4;" horiz-adv-x="600" vert-adv-y="0" d="M300 799l-69 -63h-80l131 121h36l131 -121h-80zM535 204q0 -109 -68 -159.5t-167 -50.5t-167 50.5t-68 159.5v259q0 109 68 159.5t167 50.5t167 -50.5t68 -159.5v-259zM139 204q0 -75 45.5 -107.5t115.5 -32.5t115.5 32.5t45.5 107.5v259q0 75 -45.5 107.5t-115.5 32.5 t-115.5 -32.5t-45.5 -107.5v-259z" />
<glyph unicode="&#xd5;" horiz-adv-x="600" vert-adv-y="0" d="M247 799q-20 0 -31.5 -14.5t-11.5 -38.5h-50q0 43 25 73t66 30q47 0 76 -41q12 -18 34 -18q17 0 29 13.5t12 38.5h50q0 -46 -28 -74t-65 -28q-47 0 -74 40q-12 19 -32 19zM535 204q0 -109 -68 -159.5t-167 -50.5t-167 50.5t-68 159.5v259q0 109 68 159.5t167 50.5 t167 -50.5t68 -159.5v-259zM139 204q0 -75 45.5 -107.5t115.5 -32.5t115.5 32.5t45.5 107.5v259q0 75 -45.5 107.5t-115.5 32.5t-115.5 -32.5t-45.5 -107.5v-259z" />
<glyph unicode="&#xd6;" horiz-adv-x="600" vert-adv-y="0" d="M390 834q21 0 34 -13t13 -34t-13 -34t-34 -13t-34 13t-13 34t13 34t34 13zM210 834q21 0 34 -13t13 -34t-13 -34t-34 -13t-34 13t-13 34t13 34t34 13zM535 204q0 -109 -68 -159.5t-167 -50.5t-167 50.5t-68 159.5v259q0 109 68 159.5t167 50.5t167 -50.5t68 -159.5v-259z M139 204q0 -75 45.5 -107.5t115.5 -32.5t115.5 32.5t45.5 107.5v259q0 75 -45.5 107.5t-115.5 32.5t-115.5 -32.5t-45.5 -107.5v-259z" />
<glyph unicode="&#xd7;" horiz-adv-x="520" d="M107 135l115 115l-116 116l39 39l116 -119l115 118l37 -37l-115 -115l116 -116l-39 -39l-116 119l-115 -118z" />
<glyph unicode="&#xd8;" horiz-adv-x="601" vert-adv-y="0" d="M300 608q-74 0 -119.5 -38.5t-45.5 -122.5v-227q0 -44 18 -84l256 440q-46 32 -109 32zM160 36l-37 -63h-63l57 100q-52 62 -52 149v224q0 117 65.5 172t169.5 55q78 0 142 -41l36 61h64l-58 -99q51 -63 51 -148v-224q0 -117 -65.5 -172.5t-169.5 -55.5q-74 0 -140 42z M447 531l-255 -441q43 -31 108 -31q74 0 119.5 38.5t45.5 122.5v227q0 44 -18 84z" />
<glyph unicode="&#xd9;" horiz-adv-x="580" vert-adv-y="0" d="M184 857h82l75 -121h-71zM149 205q0 -75 40 -108t101 -33t101 33t40 108v462h74v-462q0 -57 -18 -99.5t-49.5 -66t-68.5 -34.5t-79 -11t-79 11t-68.5 34.5t-49.5 66t-18 99.5v462h74v-462z" />
<glyph unicode="&#xda;" horiz-adv-x="580" vert-adv-y="0" d="M396 857l-86 -121h-71l75 121h82zM149 205q0 -75 40 -108t101 -33t101 33t40 108v462h74v-462q0 -57 -18 -99.5t-49.5 -66t-68.5 -34.5t-79 -11t-79 11t-68.5 34.5t-49.5 66t-18 99.5v462h74v-462z" />
<glyph unicode="&#xdb;" horiz-adv-x="580" vert-adv-y="0" d="M290 799l-69 -63h-80l131 121h36l131 -121h-80zM149 205q0 -75 40 -108t101 -33t101 33t40 108v462h74v-462q0 -57 -18 -99.5t-49.5 -66t-68.5 -34.5t-79 -11t-79 11t-68.5 34.5t-49.5 66t-18 99.5v462h74v-462z" />
<glyph unicode="&#xdc;" horiz-adv-x="580" vert-adv-y="0" d="M380 834q21 0 34 -13t13 -34t-13 -34t-34 -13t-34 13t-13 34t13 34t34 13zM200 834q21 0 34 -13t13 -34t-13 -34t-34 -13t-34 13t-13 34t13 34t34 13zM149 205q0 -75 40 -108t101 -33t101 33t40 108v462h74v-462q0 -57 -18 -99.5t-49.5 -66t-68.5 -34.5t-79 -11t-79 11 t-68.5 34.5t-49.5 66t-18 99.5v462h74v-462z" />
<glyph unicode="&#xdd;" horiz-adv-x="541" vert-adv-y="0" d="M377 857l-86 -121h-71l75 121h82zM35 667h81l154 -309l157 309h79l-199 -390v-277h-74v277z" />
<glyph unicode="&#xde;" horiz-adv-x="542" vert-adv-y="0" d="M85 667h73v-129h129q85 0 142.5 -52.5t57.5 -151.5q0 -100 -57.5 -152.5t-142.5 -52.5h-129v-129h-73v667zM158 469v-271h129q55 0 91 35t36 101q0 65 -36 100t-91 35h-129z" />
<glyph unicode="&#xdf;" horiz-adv-x="545" vert-adv-y="0" d="M389 344q44 -15 70 -58.5t26 -96.5q0 -83 -40.5 -136t-124.5 -53q-49 0 -85.5 34t-36.5 96h67q0 -31 17 -47.5t38 -16.5q95 0 95 123q0 50 -37 86t-98 36h-72v64h72q56 0 86 32.5t30 80.5q0 45 -33 79t-83 34q-63 0 -99 -37t-36 -112v-452h-70v452q0 108 55.5 161.5 t149.5 53.5q82 0 134 -52.5t52 -126.5q0 -46 -21.5 -84.5t-55.5 -59.5z" />
<glyph unicode="&#xe0;" horiz-adv-x="481" vert-adv-y="0" d="M132 666h82l75 -121h-71zM238 483q78 0 126.5 -47.5t48.5 -145.5v-290h-68v52q-56 -58 -133 -58q-67 0 -112 41.5t-45 107.5q0 77 56.5 114t154.5 37q46 0 79 -5q0 66 -28.5 98t-78.5 32q-67 0 -117 -30l-31 57q64 37 148 37zM123 143q0 -37 26.5 -60.5t70.5 -23.5 q52 0 88.5 36.5t36.5 108.5v25q-35 4 -71 4q-151 0 -151 -90z" />
<glyph unicode="&#xe1;" horiz-adv-x="481" vert-adv-y="0" d="M344 666l-86 -121h-71l75 121h82zM238 483q78 0 126.5 -47.5t48.5 -145.5v-290h-68v52q-56 -58 -133 -58q-67 0 -112 41.5t-45 107.5q0 77 56.5 114t154.5 37q46 0 79 -5q0 66 -28.5 98t-78.5 32q-67 0 -117 -30l-31 57q64 37 148 37zM123 143q0 -37 26.5 -60.5 t70.5 -23.5q52 0 88.5 36.5t36.5 108.5v25q-35 4 -71 4q-151 0 -151 -90z" />
<glyph unicode="&#xe2;" horiz-adv-x="481" vert-adv-y="0" d="M238 608l-69 -63h-80l131 121h36l131 -121h-80zM238 483q78 0 126.5 -47.5t48.5 -145.5v-290h-68v52q-56 -58 -133 -58q-67 0 -112 41.5t-45 107.5q0 77 56.5 114t154.5 37q46 0 79 -5q0 66 -28.5 98t-78.5 32q-67 0 -117 -30l-31 57q64 37 148 37zM123 143 q0 -37 26.5 -60.5t70.5 -23.5q52 0 88.5 36.5t36.5 108.5v25q-35 4 -71 4q-151 0 -151 -90z" />
<glyph unicode="&#xe3;" horiz-adv-x="481" vert-adv-y="0" d="M185 608q-20 0 -31.5 -14.5t-11.5 -38.5h-50q0 43 25 73t66 30q47 0 76 -41q12 -18 34 -18q17 0 29 13.5t12 38.5h50q0 -46 -28 -74t-65 -28q-47 0 -74 40q-12 19 -32 19zM238 483q78 0 126.5 -47.5t48.5 -145.5v-290h-68v52q-56 -58 -133 -58q-67 0 -112 41.5t-45 107.5 q0 77 56.5 114t154.5 37q46 0 79 -5q0 66 -28.5 98t-78.5 32q-67 0 -117 -30l-31 57q64 37 148 37zM123 143q0 -37 26.5 -60.5t70.5 -23.5q52 0 88.5 36.5t36.5 108.5v25q-35 4 -71 4q-151 0 -151 -90z" />
<glyph unicode="&#xe4;" horiz-adv-x="481" vert-adv-y="0" d="M328 643q21 0 34 -13t13 -34t-13 -34t-34 -13t-34 13t-13 34t13 34t34 13zM148 643q21 0 34 -13t13 -34t-13 -34t-34 -13t-34 13t-13 34t13 34t34 13zM238 483q78 0 126.5 -47.5t48.5 -145.5v-290h-68v52q-56 -58 -133 -58q-67 0 -112 41.5t-45 107.5q0 77 56.5 114 t154.5 37q46 0 79 -5q0 66 -28.5 98t-78.5 32q-67 0 -117 -30l-31 57q64 37 148 37zM123 143q0 -37 26.5 -60.5t70.5 -23.5q52 0 88.5 36.5t36.5 108.5v25q-35 4 -71 4q-151 0 -151 -90z" />
<glyph unicode="&#xe5;" horiz-adv-x="481" vert-adv-y="0" d="M238 692q39 0 63 -23.5t24 -63.5q0 -39 -24 -63t-63 -24q-38 0 -62.5 24t-24.5 63t24 63t63 24zM238 652q-20 0 -32 -13t-12 -34q0 -20 12 -33t32 -13t32.5 13t12.5 33t-12.5 33.5t-32.5 13.5zM238 483q78 0 126.5 -47.5t48.5 -145.5v-290h-68v52q-56 -58 -133 -58 q-67 0 -112 41.5t-45 107.5q0 77 56.5 114t154.5 37q46 0 79 -5q0 66 -28.5 98t-78.5 32q-67 0 -117 -30l-31 57q64 37 148 37zM123 143q0 -37 26.5 -60.5t70.5 -23.5q52 0 88.5 36.5t36.5 108.5v25q-35 4 -71 4q-151 0 -151 -90z" />
<glyph unicode="&#xe6;" horiz-adv-x="733" vert-adv-y="0" d="M391 280h218q0 64 -33 102.5t-76 38.5t-76 -37.5t-33 -103.5zM121 143q0 -35 24 -60.5t65 -25.5q48 0 82.5 39t34.5 108v27q-35 4 -68 4q-138 0 -138 -92zM228 483q94 0 133 -83q43 83 139 83q72 0 123.5 -55t51.5 -160v-48h-284v-16q0 -70 34 -108.5t85 -38.5 q55 0 104 41l40 -51q-70 -53 -144 -53q-108 0 -152 93q-24 -46 -65.5 -69.5t-90.5 -23.5q-63 0 -105 43t-42 106q0 74 51 111.5t145 37.5q43 0 76 -5q0 64 -27.5 99t-71.5 35q-62 0 -119 -35l-35 52q73 45 154 45z" />
<glyph unicode="&#xe7;" horiz-adv-x="445" vert-adv-y="0" d="M287 0l-19 -37q47 -4 70.5 -19t23.5 -48q0 -87 -135 -87q-67 0 -107 15l27 51q33 -11 80 -11q39 0 58 6.5t19 25.5q0 34 -67 34h-40l36 70h54zM260 60q56 0 99 38l34 -59q-53 -45 -133 -45q-83 0 -139 49.5t-56 160.5v69q0 111 56 160.5t139 49.5q72 0 123 -37l-34 -59 q-42 30 -89 30q-54 0 -89.5 -33t-35.5 -111v-69q0 -78 35.5 -111t89.5 -33z" />
<glyph unicode="&#xe8;" horiz-adv-x="496" vert-adv-y="0" d="M147 666h82l75 -121h-71zM260 -6q-89 0 -145.5 54t-56.5 166v59q0 111 55 160.5t135 49.5q37 0 69 -10.5t60 -33.5t44.5 -66t16.5 -101v-54h-312v-4q0 -80 37 -118t97 -38q71 0 123 38l32 -57q-68 -45 -155 -45zM126 282h244q0 72 -36 104.5t-86 32.5q-49 0 -84.5 -32 t-37.5 -105z" />
<glyph unicode="&#xe9;" horiz-adv-x="496" vert-adv-y="0" d="M359 666l-86 -121h-71l75 121h82zM260 -6q-89 0 -145.5 54t-56.5 166v59q0 111 55 160.5t135 49.5q37 0 69 -10.5t60 -33.5t44.5 -66t16.5 -101v-54h-312v-4q0 -80 37 -118t97 -38q71 0 123 38l32 -57q-68 -45 -155 -45zM126 282h244q0 72 -36 104.5t-86 32.5 q-49 0 -84.5 -32t-37.5 -105z" />
<glyph unicode="&#xea;" horiz-adv-x="496" vert-adv-y="0" d="M253 608l-69 -63h-80l131 121h36l131 -121h-80zM260 -6q-89 0 -145.5 54t-56.5 166v59q0 111 55 160.5t135 49.5q37 0 69 -10.5t60 -33.5t44.5 -66t16.5 -101v-54h-312v-4q0 -80 37 -118t97 -38q71 0 123 38l32 -57q-68 -45 -155 -45zM126 282h244q0 72 -36 104.5 t-86 32.5q-49 0 -84.5 -32t-37.5 -105z" />
<glyph unicode="&#xeb;" horiz-adv-x="496" vert-adv-y="0" d="M343 643q21 0 34 -13t13 -34t-13 -34t-34 -13t-34 13t-13 34t13 34t34 13zM163 643q21 0 34 -13t13 -34t-13 -34t-34 -13t-34 13t-13 34t13 34t34 13zM260 -6q-89 0 -145.5 54t-56.5 166v59q0 111 55 160.5t135 49.5q37 0 69 -10.5t60 -33.5t44.5 -66t16.5 -101v-54h-312 v-4q0 -80 37 -118t97 -38q71 0 123 38l32 -57q-68 -45 -155 -45zM126 282h244q0 72 -36 104.5t-86 32.5q-49 0 -84.5 -32t-37.5 -105z" />
<glyph unicode="&#xec;" horiz-adv-x="214" vert-adv-y="0" d="M1 667h82l75 -121h-71zM72 477h70v-477h-70v477z" />
<glyph unicode="&#xed;" horiz-adv-x="214" vert-adv-y="0" d="M213 667l-86 -121h-71l75 121h82zM72 477h70v-477h-70v477z" />
<glyph unicode="&#xee;" horiz-adv-x="214" vert-adv-y="0" d="M107 609l-69 -63h-80l131 121h36l131 -121h-80zM72 477h70v-477h-70v477z" />
<glyph unicode="&#xef;" horiz-adv-x="214" vert-adv-y="0" d="M197 644q21 0 34 -13t13 -34t-13 -34t-34 -13t-34 13t-13 34t13 34t34 13zM17 644q21 0 34 -13t13 -34t-13 -34t-34 -13t-34 13t-13 34t13 34t34 13zM72 477h70v-477h-70v477z" />
<glyph unicode="&#xf0;" horiz-adv-x="513" vert-adv-y="0" d="M443 204q0 -101 -57 -155.5t-136 -54.5q-80 0 -137.5 54.5t-57.5 155.5v18q0 102 53.5 156.5t131.5 54.5q82 0 132 -66q-10 101 -52 172l-65 -46l-31 44l65 46q-29 34 -60 60l40 34q41 -35 66 -62l60 42l31 -44l-59 -41q46 -69 61 -153t15 -215zM250 367q-51 0 -88 -37.5 t-37 -106.5v-19q0 -69 37 -106.5t88 -37.5t88 37.5t37 106.5v18q0 70 -37 107.5t-88 37.5z" />
<glyph unicode="&#xf1;" horiz-adv-x="518" vert-adv-y="0" d="M222 609q-20 0 -31.5 -14.5t-11.5 -38.5h-50q0 43 25 73t66 30q47 0 76 -41q12 -18 34 -18q17 0 29 13.5t12 38.5h50q0 -46 -28 -74t-65 -28q-47 0 -74 40q-12 19 -32 19zM75 477h70v-49q44 55 130 55q73 0 126.5 -49.5t53.5 -160.5v-273h-70v273q0 144 -120 144 t-120 -144v-273h-70v477z" />
<glyph unicode="&#xf2;" horiz-adv-x="500" vert-adv-y="0" d="M144 667h82l75 -121h-71zM445 204q0 -111 -56 -160.5t-139 -49.5t-139 49.5t-56 160.5v69q0 111 56 160.5t139 49.5t139 -49.5t56 -160.5v-69zM125 204q0 -78 35.5 -111t89.5 -33t89.5 33t35.5 111v69q0 78 -35.5 111t-89.5 33t-89.5 -33t-35.5 -111v-69z" />
<glyph unicode="&#xf3;" horiz-adv-x="500" vert-adv-y="0" d="M356 667l-86 -121h-71l75 121h82zM445 204q0 -111 -56 -160.5t-139 -49.5t-139 49.5t-56 160.5v69q0 111 56 160.5t139 49.5t139 -49.5t56 -160.5v-69zM125 204q0 -78 35.5 -111t89.5 -33t89.5 33t35.5 111v69q0 78 -35.5 111t-89.5 33t-89.5 -33t-35.5 -111v-69z" />
<glyph unicode="&#xf4;" horiz-adv-x="500" vert-adv-y="0" d="M250 609l-69 -63h-80l131 121h36l131 -121h-80zM445 204q0 -111 -56 -160.5t-139 -49.5t-139 49.5t-56 160.5v69q0 111 56 160.5t139 49.5t139 -49.5t56 -160.5v-69zM125 204q0 -78 35.5 -111t89.5 -33t89.5 33t35.5 111v69q0 78 -35.5 111t-89.5 33t-89.5 -33 t-35.5 -111v-69z" />
<glyph unicode="&#xf5;" horiz-adv-x="500" vert-adv-y="0" d="M197 609q-20 0 -31.5 -14.5t-11.5 -38.5h-50q0 43 25 73t66 30q47 0 76 -41q12 -18 34 -18q17 0 29 13.5t12 38.5h50q0 -46 -28 -74t-65 -28q-47 0 -74 40q-12 19 -32 19zM445 204q0 -111 -56 -160.5t-139 -49.5t-139 49.5t-56 160.5v69q0 111 56 160.5t139 49.5 t139 -49.5t56 -160.5v-69zM125 204q0 -78 35.5 -111t89.5 -33t89.5 33t35.5 111v69q0 78 -35.5 111t-89.5 33t-89.5 -33t-35.5 -111v-69z" />
<glyph unicode="&#xf6;" horiz-adv-x="500" vert-adv-y="0" d="M340 644q21 0 34 -13t13 -34t-13 -34t-34 -13t-34 13t-13 34t13 34t34 13zM160 644q21 0 34 -13t13 -34t-13 -34t-34 -13t-34 13t-13 34t13 34t34 13zM445 204q0 -111 -56 -160.5t-139 -49.5t-139 49.5t-56 160.5v69q0 111 56 160.5t139 49.5t139 -49.5t56 -160.5v-69z M125 204q0 -78 35.5 -111t89.5 -33t89.5 33t35.5 111v69q0 78 -35.5 111t-89.5 33t-89.5 -33t-35.5 -111v-69z" />
<glyph unicode="&#xf7;" horiz-adv-x="520" d="M80 279h360v-56h-360v56zM261 439q20 0 33 -12.5t13 -32.5t-13 -33t-33 -13t-33 13t-13 33t13 32.5t33 12.5zM261 149q20 0 33 -13t13 -33t-13 -32.5t-33 -12.5t-33 12.5t-13 32.5t13 33t33 13z" />
<glyph unicode="&#xf8;" horiz-adv-x="505" vert-adv-y="0" d="M252 423q-52 0 -91 -39.5t-39 -109.5v-70q0 -45 23 -87l177 283q-38 23 -70 23zM389 507h64l-57 -90q51 -59 51 -144v-69q0 -101 -57.5 -155.5t-137.5 -54.5q-50 0 -102 31l-34 -55h-64l57 90q-52 59 -52 144v68q0 102 57.5 156.5t137.5 54.5q52 0 103 -31zM183 77 q37 -23 69 -23q52 0 91 39.5t39 109.5v70q0 42 -22 86z" />
<glyph unicode="&#xf9;" vert-adv-y="0" d="M149 666h82l75 -121h-71zM375 204v273h70v-273q0 -111 -54.5 -160.5t-135.5 -49.5t-135.5 49.5t-54.5 160.5v273h70v-273q0 -78 34.5 -111t85.5 -33t85.5 33t34.5 111z" />
<glyph unicode="&#xfa;" vert-adv-y="0" d="M361 666l-86 -121h-71l75 121h82zM375 204v273h70v-273q0 -111 -54.5 -160.5t-135.5 -49.5t-135.5 49.5t-54.5 160.5v273h70v-273q0 -78 34.5 -111t85.5 -33t85.5 33t34.5 111z" />
<glyph unicode="&#xfb;" vert-adv-y="0" d="M255 608l-69 -63h-80l131 121h36l131 -121h-80zM375 204v273h70v-273q0 -111 -54.5 -160.5t-135.5 -49.5t-135.5 49.5t-54.5 160.5v273h70v-273q0 -78 34.5 -111t85.5 -33t85.5 33t34.5 111z" />
<glyph unicode="&#xfc;" vert-adv-y="0" d="M345 643q21 0 34 -13t13 -34t-13 -34t-34 -13t-34 13t-13 34t13 34t34 13zM165 643q21 0 34 -13t13 -34t-13 -34t-34 -13t-34 13t-13 34t13 34t34 13zM375 204v273h70v-273q0 -111 -54.5 -160.5t-135.5 -49.5t-135.5 49.5t-54.5 160.5v273h70v-273q0 -78 34.5 -111 t85.5 -33t85.5 33t34.5 111z" />
<glyph unicode="&#xfd;" horiz-adv-x="530" vert-adv-y="0" d="M371 666l-86 -121h-71l75 121h82zM35 477h74l156 -396l156 396h74l-268 -662h-73l74 185z" />
<glyph unicode="&#xfe;" horiz-adv-x="518" vert-adv-y="0" d="M278 483q78 0 131.5 -54.5t53.5 -156.5v-68q0 -102 -53.5 -156t-131.5 -54q-88 0 -135 65v-244h-68v852h68v-250q48 66 135 66zM268 417q-51 0 -88 -37.5t-37 -107.5v-68q0 -69 37 -106.5t88 -37.5t88 37.5t37 106.5v69q0 69 -37 106.5t-88 37.5z" />
<glyph unicode="&#xff;" horiz-adv-x="530" vert-adv-y="0" d="M355 643q21 0 34 -13t13 -34t-13 -34t-34 -13t-34 13t-13 34t13 34t34 13zM175 643q21 0 34 -13t13 -34t-13 -34t-34 -13t-34 13t-13 34t13 34t34 13zM35 477h74l156 -396l156 396h74l-268 -662h-73l74 185z" />
<glyph unicode="&#x100;" horiz-adv-x="609" vert-adv-y="0" d="M169 802h270v-56h-270v56zM273 667h64l237 -667h-75l-57 165h-274l-57 -165h-76zM305 571l-115 -336h229z" />
<glyph unicode="&#x101;" horiz-adv-x="481" vert-adv-y="0" d="M102 611h270v-56h-270v56zM238 483q78 0 126.5 -47.5t48.5 -145.5v-290h-68v52q-56 -58 -133 -58q-67 0 -112 41.5t-45 107.5q0 77 56.5 114t154.5 37q46 0 79 -5q0 66 -28.5 98t-78.5 32q-67 0 -117 -30l-31 57q64 37 148 37zM123 143q0 -37 26.5 -60.5t70.5 -23.5 q52 0 88.5 36.5t36.5 108.5v25q-35 4 -71 4q-151 0 -151 -90z" />
<glyph unicode="&#x102;" horiz-adv-x="609" vert-adv-y="0" d="M166 863h51q0 -35 23.5 -55t64.5 -20t65 20t24 55h50q0 -57 -40 -92t-99 -35t-99 35t-40 92zM273 667h64l237 -667h-75l-57 165h-274l-57 -165h-76zM305 571l-115 -336h229z" />
<glyph unicode="&#x103;" horiz-adv-x="481" vert-adv-y="0" d="M99 672h51q0 -35 23.5 -55t64.5 -20t65 20t24 55h50q0 -57 -40 -92t-99 -35t-99 35t-40 92zM238 483q78 0 126.5 -47.5t48.5 -145.5v-290h-68v52q-56 -58 -133 -58q-67 0 -112 41.5t-45 107.5q0 77 56.5 114t154.5 37q46 0 79 -5q0 66 -28.5 98t-78.5 32q-67 0 -117 -30 l-31 57q64 37 148 37zM123 143q0 -37 26.5 -60.5t70.5 -23.5q52 0 88.5 36.5t36.5 108.5v25q-35 4 -71 4q-151 0 -151 -90z" />
<glyph unicode="&#x104;" horiz-adv-x="609" vert-adv-y="0" d="M570 0q-55 -49 -55 -89q0 -20 11 -33.5t29 -13.5q17 0 28.5 10t26.5 31l41 -28q-11 -18 -18.5 -29t-29.5 -25t-48 -14q-43 0 -66.5 29t-23.5 70q0 52 37 92h68zM273 667h64l237 -667h-75l-57 165h-274l-57 -165h-76zM305 571l-115 -336h229z" />
<glyph unicode="&#x105;" horiz-adv-x="481" vert-adv-y="0" d="M413 0q-55 -49 -55 -89q0 -20 11 -33.5t29 -13.5q17 0 28.5 10t26.5 31l41 -28q-11 -18 -18.5 -29t-29.5 -25t-48 -14q-43 0 -66.5 29t-23.5 70q0 52 37 92h68zM238 483q78 0 126.5 -47.5t48.5 -145.5v-290h-68v52q-56 -58 -133 -58q-67 0 -112 41.5t-45 107.5 q0 77 56.5 114t154.5 37q46 0 79 -5q0 66 -28.5 98t-78.5 32q-67 0 -117 -30l-31 57q64 37 148 37zM123 143q0 -37 26.5 -60.5t70.5 -23.5q52 0 88.5 36.5t36.5 108.5v25q-35 4 -71 4q-151 0 -151 -90z" />
<glyph unicode="&#x106;" horiz-adv-x="541" vert-adv-y="0" d="M396 857l-86 -121h-71l75 121h82zM139 463v-259q0 -75 43 -107.5t108 -32.5q92 0 142 49l48 -52q-70 -67 -190 -67q-95 0 -160 50.5t-65 159.5v259q0 109 65 159.5t160 50.5q111 0 180 -65l-44 -55q-57 50 -136 50q-65 0 -108 -32.5t-43 -107.5z" />
<glyph unicode="&#x107;" horiz-adv-x="445" vert-adv-y="0" d="M366 666l-86 -121h-71l75 121h82zM260 60q56 0 99 38l34 -59q-53 -45 -133 -45q-83 0 -139 49.5t-56 160.5v69q0 111 56 160.5t139 49.5q72 0 123 -37l-34 -59q-42 30 -89 30q-54 0 -89.5 -33t-35.5 -111v-69q0 -78 35.5 -111t89.5 -33z" />
<glyph unicode="&#x108;" horiz-adv-x="541" vert-adv-y="0" d="M290 799l-69 -63h-80l131 121h36l131 -121h-80zM139 463v-259q0 -75 43 -107.5t108 -32.5q92 0 142 49l48 -52q-70 -67 -190 -67q-95 0 -160 50.5t-65 159.5v259q0 109 65 159.5t160 50.5q111 0 180 -65l-44 -55q-57 50 -136 50q-65 0 -108 -32.5t-43 -107.5z" />
<glyph unicode="&#x109;" horiz-adv-x="445" vert-adv-y="0" d="M260 608l-69 -63h-80l131 121h36l131 -121h-80zM260 60q56 0 99 38l34 -59q-53 -45 -133 -45q-83 0 -139 49.5t-56 160.5v69q0 111 56 160.5t139 49.5q72 0 123 -37l-34 -59q-42 30 -89 30q-54 0 -89.5 -33t-35.5 -111v-69q0 -78 35.5 -111t89.5 -33z" />
<glyph unicode="&#x10a;" horiz-adv-x="541" vert-adv-y="0" d="M289 834q21 0 34 -13t13 -34t-13 -34t-34 -13q-20 0 -33.5 13t-13.5 34t13.5 34t33.5 13zM139 463v-259q0 -75 43 -107.5t108 -32.5q92 0 142 49l48 -52q-70 -67 -190 -67q-95 0 -160 50.5t-65 159.5v259q0 109 65 159.5t160 50.5q111 0 180 -65l-44 -55q-57 50 -136 50 q-65 0 -108 -32.5t-43 -107.5z" />
<glyph unicode="&#x10b;" horiz-adv-x="445" vert-adv-y="0" d="M259 643q21 0 34 -13t13 -34t-13 -34t-34 -13q-20 0 -33.5 13t-13.5 34t13.5 34t33.5 13zM260 60q56 0 99 38l34 -59q-53 -45 -133 -45q-83 0 -139 49.5t-56 160.5v69q0 111 56 160.5t139 49.5q72 0 123 -37l-34 -59q-42 30 -89 30q-54 0 -89.5 -33t-35.5 -111v-69 q0 -78 35.5 -111t89.5 -33z" />
<glyph unicode="&#x10c;" horiz-adv-x="541" vert-adv-y="0" d="M290 799l-69 -63h-80l131 121h36l131 -121h-80zM139 463v-259q0 -75 43 -107.5t108 -32.5q92 0 142 49l48 -52q-70 -67 -190 -67q-95 0 -160 50.5t-65 159.5v259q0 109 65 159.5t160 50.5q111 0 180 -65l-44 -55q-57 50 -136 50q-65 0 -108 -32.5t-43 -107.5z" />
<glyph unicode="&#x10d;" horiz-adv-x="445" vert-adv-y="0" d="M260 608l-69 -63h-80l131 121h36l131 -121h-80zM260 60q56 0 99 38l34 -59q-53 -45 -133 -45q-83 0 -139 49.5t-56 160.5v69q0 111 56 160.5t139 49.5q72 0 123 -37l-34 -59q-42 30 -89 30q-54 0 -89.5 -33t-35.5 -111v-69q0 -78 35.5 -111t89.5 -33z" />
<glyph unicode="&#x10e;" horiz-adv-x="590" vert-adv-y="0" d="M290 799l-69 -63h-80l131 121h36l131 -121h-80zM515 468v-269q0 -92 -54.5 -145.5t-160.5 -53.5h-215v667h215q106 0 160.5 -53.5t54.5 -145.5zM441 199v269q0 129 -141 129h-141v-527h141q141 0 141 129z" />
<glyph unicode="&#x10f;" horiz-adv-x="520" vert-adv-y="0" d="M587 673q21 0 36 -13t15 -38q0 -20 -9 -46l-45 -120h-45l29 118q-32 11 -32 48q0 25 15 38t36 13zM55 204v69q0 58 17 101t45 65.5t59 33t64 10.5q90 0 135 -58v242h70v-667h-70v52q-45 -58 -135 -58q-33 0 -64 10.5t-59 33t-45 65.5t-17 101zM375 273q0 78 -35.5 111 t-89.5 33t-89.5 -33t-35.5 -111v-69q0 -78 35.5 -111t89.5 -33t89.5 33t35.5 111v69z" />
<glyph unicode="&#x110;" horiz-adv-x="621" vert-adv-y="0" d="M127 667h194q104 0 169.5 -55t65.5 -172v-212q0 -117 -65.5 -172.5t-169.5 -55.5h-194v313h-72v60h72v294zM197 313v-243h124q161 0 161 158v212q0 157 -161 157h-124v-224h131v-60h-131z" />
<glyph unicode="&#x111;" horiz-adv-x="555" vert-adv-y="0" d="M375 667h68v-74h62v-61h-62v-532h-68v59q-47 -65 -135 -65q-78 0 -131.5 54t-53.5 156v68q0 102 53.5 156.5t131.5 54.5q87 0 135 -66v115h-150v61h150v74zM250 417q-51 0 -88 -37.5t-37 -106.5v-69q0 -69 37 -106.5t88 -37.5t88 37.5t37 106.5v68q0 70 -37 107.5 t-88 37.5z" />
<glyph unicode="&#x112;" vert-adv-y="0" d="M125 802h270v-56h-270v56zM85 667h359v-70h-287v-219h237v-70h-235v-238h286v-70h-360v667z" />
<glyph unicode="&#x113;" horiz-adv-x="496" vert-adv-y="0" d="M117 611h270v-56h-270v56zM260 -6q-89 0 -145.5 54t-56.5 166v59q0 111 55 160.5t135 49.5q37 0 69 -10.5t60 -33.5t44.5 -66t16.5 -101v-54h-312v-4q0 -80 37 -118t97 -38q71 0 123 38l32 -57q-68 -45 -155 -45zM126 282h244q0 72 -36 104.5t-86 32.5q-49 0 -84.5 -32 t-37.5 -105z" />
<glyph unicode="&#x114;" vert-adv-y="0" d="M122 863h51q0 -35 23.5 -55t64.5 -20t65 20t24 55h50q0 -57 -40 -92t-99 -35t-99 35t-40 92zM85 667h359v-70h-287v-219h237v-70h-235v-238h286v-70h-360v667z" />
<glyph unicode="&#x115;" horiz-adv-x="496" vert-adv-y="0" d="M114 672h51q0 -35 23.5 -55t64.5 -20t65 20t24 55h50q0 -57 -40 -92t-99 -35t-99 35t-40 92zM260 -6q-89 0 -145.5 54t-56.5 166v59q0 111 55 160.5t135 49.5q37 0 69 -10.5t60 -33.5t44.5 -66t16.5 -101v-54h-312v-4q0 -80 37 -118t97 -38q71 0 123 38l32 -57 q-68 -45 -155 -45zM126 282h244q0 72 -36 104.5t-86 32.5q-49 0 -84.5 -32t-37.5 -105z" />
<glyph unicode="&#x116;" vert-adv-y="0" d="M261 834q21 0 34 -13t13 -34t-13 -34t-34 -13q-20 0 -33.5 13t-13.5 34t13.5 34t33.5 13zM85 667h359v-70h-287v-219h237v-70h-235v-238h286v-70h-360v667z" />
<glyph unicode="&#x117;" horiz-adv-x="496" vert-adv-y="0" d="M253 643q21 0 34 -13t13 -34t-13 -34t-34 -13q-20 0 -33.5 13t-13.5 34t13.5 34t33.5 13zM260 -6q-89 0 -145.5 54t-56.5 166v59q0 111 55 160.5t135 49.5q37 0 69 -10.5t60 -33.5t44.5 -66t16.5 -101v-54h-312v-4q0 -80 37 -118t97 -38q71 0 123 38l32 -57 q-68 -45 -155 -45zM126 282h244q0 72 -36 104.5t-86 32.5q-49 0 -84.5 -32t-37.5 -105z" />
<glyph unicode="&#x118;" vert-adv-y="0" d="M295 0q-55 -49 -55 -89q0 -20 11 -33.5t29 -13.5q17 0 28.5 10t26.5 31l41 -28q-11 -18 -18.5 -29t-29.5 -25t-48 -14q-43 0 -66.5 29t-23.5 70q0 52 37 92h68zM85 667h359v-70h-287v-219h237v-70h-235v-238h286v-70h-360v667z" />
<glyph unicode="&#x119;" horiz-adv-x="496" vert-adv-y="0" d="M297 0q-55 -49 -55 -89q0 -20 11 -33.5t29 -13.5q17 0 28.5 10t26.5 31l41 -28q-11 -18 -18.5 -29t-29.5 -25t-48 -14q-43 0 -66.5 29t-23.5 70q0 52 37 92h68zM260 -6q-89 0 -145.5 54t-56.5 166v59q0 111 55 160.5t135 49.5q37 0 69 -10.5t60 -33.5t44.5 -66t16.5 -101 v-54h-312v-4q0 -80 37 -118t97 -38q71 0 123 38l32 -57q-68 -45 -155 -45zM126 282h244q0 72 -36 104.5t-86 32.5q-49 0 -84.5 -32t-37.5 -105z" />
<glyph unicode="&#x11a;" vert-adv-y="0" d="M261 799l-69 -63h-80l131 121h36l131 -121h-80zM85 667h359v-70h-287v-219h237v-70h-235v-238h286v-70h-360v667z" />
<glyph unicode="&#x11b;" horiz-adv-x="496" vert-adv-y="0" d="M253 608l-69 -63h-80l131 121h36l131 -121h-80zM260 -6q-89 0 -145.5 54t-56.5 166v59q0 111 55 160.5t135 49.5q37 0 69 -10.5t60 -33.5t44.5 -66t16.5 -101v-54h-312v-4q0 -80 37 -118t97 -38q71 0 123 38l32 -57q-68 -45 -155 -45zM126 282h244q0 72 -36 104.5 t-86 32.5q-49 0 -84.5 -32t-37.5 -105z" />
<glyph unicode="&#x11c;" horiz-adv-x="580" vert-adv-y="0" d="M290 799l-69 -63h-80l131 121h36l131 -121h-80zM290 603q-65 0 -108 -32.5t-43 -107.5v-259q0 -75 43 -107.5t108 -32.5q64 0 107.5 31.5t43.5 98.5v93h-138v70h212v-163q0 -102 -65.5 -151t-159.5 -49q-95 0 -160 50.5t-65 159.5v259q0 109 65 159.5t160 50.5 q111 0 180 -65l-44 -55q-57 50 -136 50z" />
<glyph unicode="&#x11d;" horiz-adv-x="520" vert-adv-y="0" d="M240 608l-69 -63h-80l131 121h36l131 -121h-80zM375 52q-45 -58 -135 -58q-33 0 -64 10.5t-59 33t-45 65.5t-17 101v69q0 58 17 101t45 65.5t59 33t64 10.5q90 0 135 -58v52h70v-477q0 -78 -57.5 -134t-148.5 -56q-93 0 -160 45l32 59q52 -38 128 -38q61 0 98.5 36 t37.5 88v52zM375 273q0 78 -35.5 111t-89.5 33t-89.5 -33t-35.5 -111v-69q0 -78 35.5 -111t89.5 -33t89.5 33t35.5 111v69z" />
<glyph unicode="&#x11e;" horiz-adv-x="580" vert-adv-y="0" d="M151 863h51q0 -35 23.5 -55t64.5 -20t65 20t24 55h50q0 -57 -40 -92t-99 -35t-99 35t-40 92zM290 603q-65 0 -108 -32.5t-43 -107.5v-259q0 -75 43 -107.5t108 -32.5q64 0 107.5 31.5t43.5 98.5v93h-138v70h212v-163q0 -102 -65.5 -151t-159.5 -49q-95 0 -160 50.5 t-65 159.5v259q0 109 65 159.5t160 50.5q111 0 180 -65l-44 -55q-57 50 -136 50z" />
<glyph unicode="&#x11f;" horiz-adv-x="520" vert-adv-y="0" d="M101 672h51q0 -35 23.5 -55t64.5 -20t65 20t24 55h50q0 -57 -40 -92t-99 -35t-99 35t-40 92zM375 52q-45 -58 -135 -58q-33 0 -64 10.5t-59 33t-45 65.5t-17 101v69q0 58 17 101t45 65.5t59 33t64 10.5q90 0 135 -58v52h70v-477q0 -78 -57.5 -134t-148.5 -56 q-93 0 -160 45l32 59q52 -38 128 -38q61 0 98.5 36t37.5 88v52zM375 273q0 78 -35.5 111t-89.5 33t-89.5 -33t-35.5 -111v-69q0 -78 35.5 -111t89.5 -33t89.5 33t35.5 111v69z" />
<glyph unicode="&#x120;" horiz-adv-x="580" vert-adv-y="0" d="M289 834q21 0 34 -13t13 -34t-13 -34t-34 -13q-20 0 -33.5 13t-13.5 34t13.5 34t33.5 13zM290 603q-65 0 -108 -32.5t-43 -107.5v-259q0 -75 43 -107.5t108 -32.5q64 0 107.5 31.5t43.5 98.5v93h-138v70h212v-163q0 -102 -65.5 -151t-159.5 -49q-95 0 -160 50.5 t-65 159.5v259q0 109 65 159.5t160 50.5q111 0 180 -65l-44 -55q-57 50 -136 50z" />
<glyph unicode="&#x121;" horiz-adv-x="520" vert-adv-y="0" d="M239 643q21 0 34 -13t13 -34t-13 -34t-34 -13q-20 0 -33.5 13t-13.5 34t13.5 34t33.5 13zM375 52q-45 -58 -135 -58q-33 0 -64 10.5t-59 33t-45 65.5t-17 101v69q0 58 17 101t45 65.5t59 33t64 10.5q90 0 135 -58v52h70v-477q0 -78 -57.5 -134t-148.5 -56q-93 0 -160 45 l32 59q52 -38 128 -38q61 0 98.5 36t37.5 88v52zM375 273q0 78 -35.5 111t-89.5 33t-89.5 -33t-35.5 -111v-69q0 -78 35.5 -111t89.5 -33t89.5 33t35.5 111v69z" />
<glyph unicode="&#x122;" horiz-adv-x="580" vert-adv-y="0" d="M290 -63q51 0 51 -46q0 -24 -9 -40l-45 -81h-45l29 78q-32 11 -32 43q0 46 51 46zM290 603q-65 0 -108 -32.5t-43 -107.5v-259q0 -75 43 -107.5t108 -32.5q64 0 107.5 31.5t43.5 98.5v93h-138v70h212v-163q0 -102 -65.5 -151t-159.5 -49q-95 0 -160 50.5t-65 159.5v259 q0 109 65 159.5t160 50.5q111 0 180 -65l-44 -55q-57 50 -136 50z" />
<glyph unicode="&#x123;" horiz-adv-x="520" vert-adv-y="0" d="M243 551q-51 0 -51 46q0 24 9 40l45 81h45l-29 -78q32 -11 32 -43q0 -46 -51 -46zM375 52q-45 -58 -135 -58q-33 0 -64 10.5t-59 33t-45 65.5t-17 101v69q0 58 17 101t45 65.5t59 33t64 10.5q90 0 135 -58v52h70v-477q0 -78 -57.5 -134t-148.5 -56q-93 0 -160 45l32 59 q52 -38 128 -38q61 0 98.5 36t37.5 88v52zM375 273q0 78 -35.5 111t-89.5 33t-89.5 -33t-35.5 -111v-69q0 -78 35.5 -111t89.5 -33t89.5 33t35.5 111v69z" />
<glyph unicode="&#x124;" horiz-adv-x="610" vert-adv-y="0" d="M305 799l-69 -63h-80l131 121h36l131 -121h-80zM85 667h74v-289h292v289h74v-667h-74v308h-292v-308h-74v667z" />
<glyph unicode="&#x125;" horiz-adv-x="518" vert-adv-y="0" d="M111 799l-69 -63h-80l131 121h36l131 -121h-80zM145 0h-70v667h70v-239q44 55 130 55q73 0 126.5 -49.5t53.5 -160.5v-273h-70v273q0 144 -120 144t-120 -144v-273z" />
<glyph unicode="&#x126;" horiz-adv-x="710" vert-adv-y="0" d="M134 667h71v-94h298v94h71v-94h61v-61h-61v-512h-71v310h-298v-310h-71v512h-59v61h59v94zM205 512v-136h298v136h-298z" />
<glyph unicode="&#x127;" horiz-adv-x="584" vert-adv-y="0" d="M344 483q77 0 126 -53.5t49 -156.5v-273h-70v272q0 71 -32.5 108t-82.5 37q-51 0 -88 -37.5t-37 -106.5v-273h-70v532h-74v61h74v74h70v-74h136v-61h-136v-115q48 66 135 66z" />
<glyph unicode="&#x128;" horiz-adv-x="244" vert-adv-y="0" d="M69 799q-20 0 -31.5 -14.5t-11.5 -38.5h-50q0 43 25 73t66 30q47 0 76 -41q12 -18 34 -18q17 0 29 13.5t12 38.5h50q0 -46 -28 -74t-65 -28q-47 0 -74 40q-12 19 -32 19zM159 667v-667h-74v667h74z" />
<glyph unicode="&#x129;" horiz-adv-x="214" vert-adv-y="0" d="M54 609q-20 0 -31.5 -14.5t-11.5 -38.5h-50q0 43 25 73t66 30q47 0 76 -41q12 -18 34 -18q17 0 29 13.5t12 38.5h50q0 -46 -28 -74t-65 -28q-47 0 -74 40q-12 19 -32 19zM72 477h70v-477h-70v477z" />
<glyph unicode="&#x12a;" horiz-adv-x="244" vert-adv-y="0" d="M-14 802h270v-56h-270v56zM159 667v-667h-74v667h74z" />
<glyph unicode="&#x12b;" horiz-adv-x="214" vert-adv-y="0" d="M-29 612h270v-56h-270v56zM72 477h70v-477h-70v477z" />
<glyph unicode="&#x12c;" horiz-adv-x="244" vert-adv-y="0" d="M-17 863h51q0 -35 23.5 -55t64.5 -20t65 20t24 55h50q0 -57 -40 -92t-99 -35t-99 35t-40 92zM159 667v-667h-74v667h74z" />
<glyph unicode="&#x12d;" horiz-adv-x="214" vert-adv-y="0" d="M-32 673h51q0 -35 23.5 -55t64.5 -20t65 20t24 55h50q0 -57 -40 -92t-99 -35t-99 35t-40 92zM72 477h70v-477h-70v477z" />
<glyph unicode="&#x12e;" horiz-adv-x="244" vert-adv-y="0" d="M156 0q-55 -49 -55 -89q0 -20 11 -33.5t29 -13.5q17 0 28.5 10t26.5 31l41 -28q-11 -18 -18.5 -29t-29.5 -25t-48 -14q-43 0 -66.5 29t-23.5 70q0 52 37 92h68zM159 667v-667h-74v667h74z" />
<glyph unicode="&#x12f;" horiz-adv-x="232" vert-adv-y="0" d="M150 6q-55 -49 -55 -89q0 -20 11 -33.5t29 -13.5q17 0 28.5 10t26.5 31l41 -28q-11 -18 -18.5 -29t-29.5 -25t-48 -14q-43 0 -66.5 29t-23.5 70q0 52 37 92h68zM81 477h70v-477h-70v477zM115 644q21 0 34.5 -13t13.5 -34t-13.5 -34t-34.5 -13q-20 0 -33 13t-13 34t13 34 t33 13z" />
<glyph unicode="&#x130;" horiz-adv-x="244" vert-adv-y="0" d="M121 834q21 0 34 -13t13 -34t-13 -34t-34 -13q-20 0 -33.5 13t-13.5 34t13.5 34t33.5 13zM159 667v-667h-74v667h74z" />
<glyph unicode="&#x131;" horiz-adv-x="214" vert-adv-y="0" d="M72 477h70v-477h-70v477z" />
<glyph unicode="&#x132;" horiz-adv-x="652" vert-adv-y="0" d="M503 667h74v-467q0 -99 -55.5 -152.5t-129.5 -53.5q-109 0 -181 94l57 44q52 -68 124 -68q44 0 77.5 35.5t33.5 100.5v467zM159 667v-667h-74v667h74z" />
<glyph unicode="&#x133;" horiz-adv-x="382" vert-adv-y="0" d="M116 634q21 0 34 -13t13 -34t-13 -34t-34 -13q-20 0 -33.5 13t-13.5 34t13.5 34t33.5 13zM82 477h70v-477h-70v477zM266 634q21 0 34 -13t13 -34t-13 -34t-34 -13q-20 0 -33.5 13t-13.5 34t13.5 34t33.5 13zM302 -60q0 -63 -35.5 -96.5t-84.5 -33.5h-30v62h30 q21 0 35.5 17t14.5 51v537h70v-537z" />
<glyph unicode="&#x134;" horiz-adv-x="491" vert-adv-y="0" d="M379 799l-69 -63h-80l131 121h36l131 -121h-80zM342 667h74v-463q0 -107 -55 -158.5t-140 -51.5q-116 0 -166 83l55 44q39 -57 111 -57q51 0 86 32t35 108v463z" />
<glyph unicode="&#x135;" horiz-adv-x="225" vert-adv-y="0" d="M115 606l-69 -63h-80l131 121h36l131 -121h-80zM150 -60q0 -63 -35.5 -96.5t-84.5 -33.5h-30v62h30q21 0 35.5 17t14.5 51v537h70v-537z" />
<glyph unicode="&#x136;" horiz-adv-x="584" vert-adv-y="0" d="M295 -63q51 0 51 -46q0 -24 -9 -40l-45 -81h-45l29 78q-32 11 -32 43q0 46 51 46zM159 0h-74v667h74v-343l281 343h86l-258 -309l271 -358h-87l-232 307l-61 -71v-236z" />
<glyph unicode="&#x137;" horiz-adv-x="469" vert-adv-y="0" d="M239 -63q51 0 51 -46q0 -24 -9 -40l-45 -81h-45l29 78q-32 11 -32 43q0 46 51 46zM75 667h70v-439l187 249h82l-167 -217l182 -260h-81l-147 212l-56 -75v-137h-70v667z" />
<glyph unicode="&#x138;" horiz-adv-x="467" vert-adv-y="0" d="M75 477h68v-249l187 249h82l-167 -217l182 -260h-81l-147 212l-56 -75v-137h-68v477z" />
<glyph unicode="&#x139;" horiz-adv-x="520" vert-adv-y="0" d="M229 857l-86 -121h-71l75 121h82zM85 667h74v-597h306v-70h-380v667z" />
<glyph unicode="&#x13a;" horiz-adv-x="220" vert-adv-y="0" d="M216 857l-86 -121h-71l75 121h82zM75 667h70v-667h-70v667z" />
<glyph unicode="&#x13b;" horiz-adv-x="520" vert-adv-y="0" d="M272 -63q51 0 51 -46q0 -24 -9 -40l-45 -81h-45l29 78q-32 11 -32 43q0 46 51 46zM85 667h74v-597h306v-70h-380v667z" />
<glyph unicode="&#x13c;" horiz-adv-x="220" vert-adv-y="0" d="M114 -63q51 0 51 -46q0 -24 -9 -40l-45 -81h-45l29 78q-32 11 -32 43q0 46 51 46zM75 667h70v-667h-70v667z" />
<glyph unicode="&#x13d;" horiz-adv-x="520" vert-adv-y="0" d="M301 673q21 0 36 -13t15 -38q0 -20 -9 -46l-45 -120h-45l29 118q-32 11 -32 48q0 25 15 38t36 13zM85 667h74v-597h306v-70h-380v667z" />
<glyph unicode="&#x13e;" horiz-adv-x="220" vert-adv-y="0" d="M288 673q21 0 36 -13t15 -38q0 -20 -9 -46l-45 -120h-45l29 118q-32 11 -32 48q0 25 15 38t36 13zM75 667h70v-667h-70v667z" />
<glyph unicode="&#x13f;" horiz-adv-x="520" vert-adv-y="0" d="M85 667h74v-597h306v-70h-380v667zM277 385q23 0 37 -14.5t14 -36.5t-14 -36.5t-37 -14.5t-37 14.5t-14 36.5t14 36.5t37 14.5z" />
<glyph unicode="&#x140;" horiz-adv-x="364" vert-adv-y="0" d="M75 667h70v-667h-70v667zM263 385q23 0 37 -14.5t14 -36.5t-14 -36.5t-37 -14.5t-37 14.5t-14 36.5t14 36.5t37 14.5z" />
<glyph unicode="&#x141;" horiz-adv-x="595" vert-adv-y="0" d="M160 667h70v-301l135 67v-61l-135 -68v-234h310v-70h-380v270l-115 -58v61l115 57v337z" />
<glyph unicode="&#x142;" horiz-adv-x="410" vert-adv-y="0" d="M165 667h70v-299l130 66v-61l-130 -66v-307h-70v272l-120 -61v61l120 61v334z" />
<glyph unicode="&#x143;" horiz-adv-x="610" vert-adv-y="0" d="M411 857l-86 -121h-71l75 121h82zM85 667h65l301 -520v520h74v-667h-65l-301 520v-520h-74v667z" />
<glyph unicode="&#x144;" horiz-adv-x="518" vert-adv-y="0" d="M381 667l-86 -121h-71l75 121h82zM75 477h70v-49q44 55 130 55q73 0 126.5 -49.5t53.5 -160.5v-273h-70v273q0 144 -120 144t-120 -144v-273h-70v477z" />
<glyph unicode="&#x145;" horiz-adv-x="610" vert-adv-y="0" d="M307 -63q51 0 51 -46q0 -24 -9 -40l-45 -81h-45l29 78q-32 11 -32 43q0 46 51 46zM85 667h65l301 -520v520h74v-667h-65l-301 520v-520h-74v667z" />
<glyph unicode="&#x146;" horiz-adv-x="518" vert-adv-y="0" d="M262 -63q51 0 51 -46q0 -24 -9 -40l-45 -81h-45l29 78q-32 11 -32 43q0 46 51 46zM75 477h70v-49q44 55 130 55q73 0 126.5 -49.5t53.5 -160.5v-273h-70v273q0 144 -120 144t-120 -144v-273h-70v477z" />
<glyph unicode="&#x147;" horiz-adv-x="610" vert-adv-y="0" d="M305 799l-69 -63h-80l131 121h36l131 -121h-80zM85 667h65l301 -520v520h74v-667h-65l-301 520v-520h-74v667z" />
<glyph unicode="&#x148;" horiz-adv-x="518" vert-adv-y="0" d="M275 609l-69 -63h-80l131 121h36l131 -121h-80zM75 477h70v-49q44 55 130 55q73 0 126.5 -49.5t53.5 -160.5v-273h-70v273q0 144 -120 144t-120 -144v-273h-70v477z" />
<glyph unicode="&#x149;" horiz-adv-x="602" vert-adv-y="0" d="M101 673q21 0 36 -13t15 -38q0 -20 -9 -46l-45 -120h-45l29 118q-32 11 -32 48q0 25 15 38t36 13zM362 483q71 0 123 -54.5t52 -155.5v-273h-70v272q0 71 -32.5 108t-82.5 37q-51 0 -88 -37.5t-37 -106.5v-273h-70v477h70v-60q48 66 135 66z" />
<glyph unicode="&#x14a;" horiz-adv-x="606" vert-adv-y="0" d="M85 667h63l301 -520v520h72v-727q0 -63 -36 -96.5t-86 -33.5h-30v62h30q21 0 35.5 17t14.5 51v76l-292 504v-520h-72v667z" />
<glyph unicode="&#x14b;" horiz-adv-x="520" vert-adv-y="0" d="M280 483q77 0 126 -53.5t49 -156.5v-333q0 -63 -35.5 -96.5t-84.5 -33.5h-30v62h30q21 0 35.5 17t14.5 51v332q0 71 -32.5 108t-82.5 37q-51 0 -88 -37.5t-37 -106.5v-273h-70v477h70v-60q48 66 135 66z" />
<glyph unicode="&#x14c;" horiz-adv-x="600" vert-adv-y="0" d="M164 802h270v-56h-270v56zM535 204q0 -109 -68 -159.5t-167 -50.5t-167 50.5t-68 159.5v259q0 109 68 159.5t167 50.5t167 -50.5t68 -159.5v-259zM139 204q0 -75 45.5 -107.5t115.5 -32.5t115.5 32.5t45.5 107.5v259q0 75 -45.5 107.5t-115.5 32.5t-115.5 -32.5 t-45.5 -107.5v-259z" />
<glyph unicode="&#x14d;" horiz-adv-x="500" vert-adv-y="0" d="M114 612h270v-56h-270v56zM445 204q0 -111 -56 -160.5t-139 -49.5t-139 49.5t-56 160.5v69q0 111 56 160.5t139 49.5t139 -49.5t56 -160.5v-69zM125 204q0 -78 35.5 -111t89.5 -33t89.5 33t35.5 111v69q0 78 -35.5 111t-89.5 33t-89.5 -33t-35.5 -111v-69z" />
<glyph unicode="&#x14e;" horiz-adv-x="600" vert-adv-y="0" d="M161 863h51q0 -35 23.5 -55t64.5 -20t65 20t24 55h50q0 -57 -40 -92t-99 -35t-99 35t-40 92zM535 204q0 -109 -68 -159.5t-167 -50.5t-167 50.5t-68 159.5v259q0 109 68 159.5t167 50.5t167 -50.5t68 -159.5v-259zM139 204q0 -75 45.5 -107.5t115.5 -32.5t115.5 32.5 t45.5 107.5v259q0 75 -45.5 107.5t-115.5 32.5t-115.5 -32.5t-45.5 -107.5v-259z" />
<glyph unicode="&#x14f;" horiz-adv-x="500" vert-adv-y="0" d="M111 673h51q0 -35 23.5 -55t64.5 -20t65 20t24 55h50q0 -57 -40 -92t-99 -35t-99 35t-40 92zM445 204q0 -111 -56 -160.5t-139 -49.5t-139 49.5t-56 160.5v69q0 111 56 160.5t139 49.5t139 -49.5t56 -160.5v-69zM125 204q0 -78 35.5 -111t89.5 -33t89.5 33t35.5 111v69 q0 78 -35.5 111t-89.5 33t-89.5 -33t-35.5 -111v-69z" />
<glyph unicode="&#x150;" horiz-adv-x="600" vert-adv-y="0" d="M492 857l-86 -121h-66l75 121h77zM341 857l-86 -121h-66l75 121h77zM535 204q0 -109 -68 -159.5t-167 -50.5t-167 50.5t-68 159.5v259q0 109 68 159.5t167 50.5t167 -50.5t68 -159.5v-259zM139 204q0 -75 45.5 -107.5t115.5 -32.5t115.5 32.5t45.5 107.5v259 q0 75 -45.5 107.5t-115.5 32.5t-115.5 -32.5t-45.5 -107.5v-259z" />
<glyph unicode="&#x151;" horiz-adv-x="500" vert-adv-y="0" d="M442 667l-86 -121h-66l75 121h77zM291 667l-86 -121h-66l75 121h77zM445 204q0 -111 -56 -160.5t-139 -49.5t-139 49.5t-56 160.5v69q0 111 56 160.5t139 49.5t139 -49.5t56 -160.5v-69zM125 204q0 -78 35.5 -111t89.5 -33t89.5 33t35.5 111v69q0 78 -35.5 111t-89.5 33 t-89.5 -33t-35.5 -111v-69z" />
<glyph unicode="&#x152;" horiz-adv-x="843" vert-adv-y="0" d="M300 603q-161 0 -161 -157v-224q0 -158 161 -158q70 0 115 32.5t45 102.5v270q0 69 -45 101.5t-115 32.5zM460 667h317v-70h-245v-219h205v-70h-203v-238h244v-70h-318v57q-50 -63 -160 -63q-104 0 -169.5 55.5t-65.5 172.5v224q0 117 65.5 172t169.5 55q110 0 160 -63 v57z" />
<glyph unicode="&#x153;" horiz-adv-x="750" vert-adv-y="0" d="M235 419q-43 0 -75 -38.5t-32 -107.5v-69q0 -69 32 -107.5t75 -38.5t75 38.5t32 107.5v68q0 70 -32 108.5t-75 38.5zM406 280h218q0 67 -31 104t-78 37q-43 0 -76 -37.5t-33 -103.5zM406 218v-14q0 -70 32 -108.5t77 -38.5q58 0 120 45l35 -52q-44 -31 -78 -43.5 t-77 -12.5q-44 0 -81.5 23t-59.5 67q-43 -90 -139 -90q-71 0 -123 54.5t-52 155.5v68q0 101 52 156t123 55q96 0 139 -90q22 44 59.5 67t81.5 23q74 0 124.5 -54.5t50.5 -160.5v-50h-284z" />
<glyph unicode="&#x154;" horiz-adv-x="562" vert-adv-y="0" d="M371 857l-86 -121h-71l75 121h82zM282 667q94 0 149.5 -51t55.5 -154q0 -141 -106 -187l116 -275h-78l-109 258q-9 -1 -28 -1h-124v-257h-73v667h197zM282 327q131 0 131 135t-131 135h-123v-270h123z" />
<glyph unicode="&#x155;" horiz-adv-x="378" vert-adv-y="0" d="M316 667l-86 -121h-71l75 121h82zM75 477h70v-49q44 55 130 55q30 0 58 -6l-10 -63q-25 3 -58 3q-120 0 -120 -144v-273h-70v477z" />
<glyph unicode="&#x156;" horiz-adv-x="562" vert-adv-y="0" d="M287 -63q51 0 51 -46q0 -24 -9 -40l-45 -81h-45l29 78q-32 11 -32 43q0 46 51 46zM282 667q94 0 149.5 -51t55.5 -154q0 -141 -106 -187l116 -275h-78l-109 258q-9 -1 -28 -1h-124v-257h-73v667h197zM282 327q131 0 131 135t-131 135h-123v-270h123z" />
<glyph unicode="&#x157;" horiz-adv-x="378" vert-adv-y="0" d="M109 -63q51 0 51 -46q0 -24 -9 -40l-45 -81h-45l29 78q-32 11 -32 43q0 46 51 46zM75 477h70v-49q44 55 130 55q30 0 58 -6l-10 -63q-25 3 -58 3q-120 0 -120 -144v-273h-70v477z" />
<glyph unicode="&#x158;" horiz-adv-x="562" vert-adv-y="0" d="M265 799l-69 -63h-80l131 121h36l131 -121h-80zM282 667q94 0 149.5 -51t55.5 -154q0 -141 -106 -187l116 -275h-78l-109 258q-9 -1 -28 -1h-124v-257h-73v667h197zM282 327q131 0 131 135t-131 135h-123v-270h123z" />
<glyph unicode="&#x159;" horiz-adv-x="378" vert-adv-y="0" d="M210 609l-69 -63h-80l131 121h36l131 -121h-80zM75 477h70v-49q44 55 130 55q30 0 58 -6l-10 -63q-25 3 -58 3q-120 0 -120 -144v-273h-70v477z" />
<glyph unicode="&#x15a;" horiz-adv-x="541" vert-adv-y="0" d="M362 857l-86 -121h-71l75 121h82zM253 -6q-53 0 -109 16.5t-91 50.5l48 52q26 -25 68.5 -37t83.5 -12q65 0 102 31t37 91q0 59 -38.5 85.5t-104.5 37.5q-194 33 -194 179q0 92 57.5 138.5t143.5 46.5q121 0 190 -65l-44 -55q-57 50 -146 50q-57 0 -92 -28t-35 -87 q0 -51 35.5 -75t98.5 -36q43 -8 75.5 -20t63.5 -33t47.5 -56t16.5 -82q0 -90 -57.5 -141t-155.5 -51z" />
<glyph unicode="&#x15b;" horiz-adv-x="436" vert-adv-y="0" d="M319 667l-86 -121h-71l75 121h82zM371 446l-32 -59q-50 30 -126 30q-93 0 -93 -68q0 -30 22.5 -43.5t76.5 -23.5q167 -28 167 -145q0 -72 -52.5 -107.5t-120.5 -35.5q-103 0 -170 45l32 59q52 -38 138 -38q47 0 75 19t28 58q0 36 -27 53.5t-82 27.5q-23 4 -40 8t-40.5 14 t-39 23t-26.5 35.5t-11 50.5q0 68 50 101t113 33q94 0 158 -37z" />
<glyph unicode="&#x15c;" horiz-adv-x="541" vert-adv-y="0" d="M256 799l-69 -63h-80l131 121h36l131 -121h-80zM253 -6q-53 0 -109 16.5t-91 50.5l48 52q26 -25 68.5 -37t83.5 -12q65 0 102 31t37 91q0 59 -38.5 85.5t-104.5 37.5q-194 33 -194 179q0 92 57.5 138.5t143.5 46.5q121 0 190 -65l-44 -55q-57 50 -146 50q-57 0 -92 -28 t-35 -87q0 -51 35.5 -75t98.5 -36q43 -8 75.5 -20t63.5 -33t47.5 -56t16.5 -82q0 -90 -57.5 -141t-155.5 -51z" />
<glyph unicode="&#x15d;" horiz-adv-x="436" vert-adv-y="0" d="M213 609l-69 -63h-80l131 121h36l131 -121h-80zM371 446l-32 -59q-50 30 -126 30q-93 0 -93 -68q0 -30 22.5 -43.5t76.5 -23.5q167 -28 167 -145q0 -72 -52.5 -107.5t-120.5 -35.5q-103 0 -170 45l32 59q52 -38 138 -38q47 0 75 19t28 58q0 36 -27 53.5t-82 27.5 q-23 4 -40 8t-40.5 14t-39 23t-26.5 35.5t-11 50.5q0 68 50 101t113 33q94 0 158 -37z" />
<glyph unicode="&#x15e;" horiz-adv-x="541" vert-adv-y="0" d="M283 0l-19 -37q47 -4 70.5 -19t23.5 -48q0 -87 -135 -87q-67 0 -107 15l27 51q33 -11 80 -11q39 0 58 6.5t19 25.5q0 34 -67 34h-40l36 70h54zM253 -6q-53 0 -109 16.5t-91 50.5l48 52q26 -25 68.5 -37t83.5 -12q65 0 102 31t37 91q0 59 -38.5 85.5t-104.5 37.5 q-194 33 -194 179q0 92 57.5 138.5t143.5 46.5q121 0 190 -65l-44 -55q-57 50 -146 50q-57 0 -92 -28t-35 -87q0 -51 35.5 -75t98.5 -36q43 -8 75.5 -20t63.5 -33t47.5 -56t16.5 -82q0 -90 -57.5 -141t-155.5 -51z" />
<glyph unicode="&#x15f;" horiz-adv-x="436" vert-adv-y="0" d="M240 0l-19 -37q47 -4 70.5 -19t23.5 -48q0 -87 -135 -87q-67 0 -107 15l27 51q33 -11 80 -11q39 0 58 6.5t19 25.5q0 34 -67 34h-40l36 70h54zM371 446l-32 -59q-50 30 -126 30q-93 0 -93 -68q0 -30 22.5 -43.5t76.5 -23.5q167 -28 167 -145q0 -72 -52.5 -107.5 t-120.5 -35.5q-103 0 -170 45l32 59q52 -38 138 -38q47 0 75 19t28 58q0 36 -27 53.5t-82 27.5q-23 4 -40 8t-40.5 14t-39 23t-26.5 35.5t-11 50.5q0 68 50 101t113 33q94 0 158 -37z" />
<glyph unicode="&#x160;" horiz-adv-x="541" vert-adv-y="0" d="M256 799l-69 -63h-80l131 121h36l131 -121h-80zM253 -6q-53 0 -109 16.5t-91 50.5l48 52q26 -25 68.5 -37t83.5 -12q65 0 102 31t37 91q0 59 -38.5 85.5t-104.5 37.5q-194 33 -194 179q0 92 57.5 138.5t143.5 46.5q121 0 190 -65l-44 -55q-57 50 -146 50q-57 0 -92 -28 t-35 -87q0 -51 35.5 -75t98.5 -36q43 -8 75.5 -20t63.5 -33t47.5 -56t16.5 -82q0 -90 -57.5 -141t-155.5 -51z" />
<glyph unicode="&#x161;" horiz-adv-x="436" vert-adv-y="0" d="M213 609l-69 -63h-80l131 121h36l131 -121h-80zM371 446l-32 -59q-50 30 -126 30q-93 0 -93 -68q0 -30 22.5 -43.5t76.5 -23.5q167 -28 167 -145q0 -72 -52.5 -107.5t-120.5 -35.5q-103 0 -170 45l32 59q52 -38 138 -38q47 0 75 19t28 58q0 36 -27 53.5t-82 27.5 q-23 4 -40 8t-40.5 14t-39 23t-26.5 35.5t-11 50.5q0 68 50 101t113 33q94 0 158 -37z" />
<glyph unicode="&#x162;" horiz-adv-x="560" vert-adv-y="0" d="M308 0l-19 -37q47 -4 70.5 -19t23.5 -48q0 -87 -135 -87q-67 0 -107 15l27 51q33 -11 80 -11q39 0 58 6.5t19 25.5q0 34 -67 34h-40l36 70h54zM55 667h450v-70h-188v-597h-74v597h-188v70z" />
<glyph unicode="&#x163;" horiz-adv-x="370" vert-adv-y="0" d="M261 0l-19 -37q47 -4 70.5 -19t23.5 -48q0 -87 -135 -87q-67 0 -107 15l27 51q33 -11 80 -11q39 0 58 6.5t19 25.5q0 34 -67 34h-40l36 70h54zM45 477h80v104h70v-104h110v-62h-110v-285q0 -32 14.5 -48t35.5 -16h80v-66h-80q-49 0 -84.5 33.5t-35.5 96.5v285h-80v62z " />
<glyph unicode="&#x164;" horiz-adv-x="560" vert-adv-y="0" d="M280 799l-69 -63h-80l131 121h36l131 -121h-80zM55 667h450v-70h-188v-597h-74v597h-188v70z" />
<glyph unicode="&#x165;" horiz-adv-x="370" vert-adv-y="0" d="M385 673q21 0 36 -13t15 -38q0 -20 -9 -46l-45 -120h-45l29 118q-32 11 -32 48q0 25 15 38t36 13zM45 477h80v104h70v-104h110v-62h-110v-285q0 -32 14.5 -48t35.5 -16h80v-66h-80q-49 0 -84.5 33.5t-35.5 96.5v285h-80v62z" />
<glyph unicode="&#x166;" horiz-adv-x="560" vert-adv-y="0" d="M55 667h450v-70h-188v-244h121v-61h-121v-292h-74v292h-125v61h125v244h-188v70z" />
<glyph unicode="&#x167;" horiz-adv-x="410" vert-adv-y="0" d="M230 477h92v-62h-92v-97h135v-56h-135v-132q0 -31 15.5 -47.5t36.5 -16.5h60v-66h-60q-48 0 -83 33.5t-35 96.5v132h-119v56h119v97h-62v62h62v94h66v-94z" />
<glyph unicode="&#x168;" horiz-adv-x="580" vert-adv-y="0" d="M237 799q-20 0 -31.5 -14.5t-11.5 -38.5h-50q0 43 25 73t66 30q47 0 76 -41q12 -18 34 -18q17 0 29 13.5t12 38.5h50q0 -46 -28 -74t-65 -28q-47 0 -74 40q-12 19 -32 19zM149 205q0 -75 40 -108t101 -33t101 33t40 108v462h74v-462q0 -57 -18 -99.5t-49.5 -66 t-68.5 -34.5t-79 -11t-79 11t-68.5 34.5t-49.5 66t-18 99.5v462h74v-462z" />
<glyph unicode="&#x169;" vert-adv-y="0" d="M202 608q-20 0 -31.5 -14.5t-11.5 -38.5h-50q0 43 25 73t66 30q47 0 76 -41q12 -18 34 -18q17 0 29 13.5t12 38.5h50q0 -46 -28 -74t-65 -28q-47 0 -74 40q-12 19 -32 19zM375 204v273h70v-273q0 -111 -54.5 -160.5t-135.5 -49.5t-135.5 49.5t-54.5 160.5v273h70v-273 q0 -78 34.5 -111t85.5 -33t85.5 33t34.5 111z" />
<glyph unicode="&#x16a;" horiz-adv-x="580" vert-adv-y="0" d="M154 802h270v-56h-270v56zM149 205q0 -75 40 -108t101 -33t101 33t40 108v462h74v-462q0 -57 -18 -99.5t-49.5 -66t-68.5 -34.5t-79 -11t-79 11t-68.5 34.5t-49.5 66t-18 99.5v462h74v-462z" />
<glyph unicode="&#x16b;" vert-adv-y="0" d="M119 611h270v-56h-270v56zM375 204v273h70v-273q0 -111 -54.5 -160.5t-135.5 -49.5t-135.5 49.5t-54.5 160.5v273h70v-273q0 -78 34.5 -111t85.5 -33t85.5 33t34.5 111z" />
<glyph unicode="&#x16c;" horiz-adv-x="580" vert-adv-y="0" d="M151 863h51q0 -35 23.5 -55t64.5 -20t65 20t24 55h50q0 -57 -40 -92t-99 -35t-99 35t-40 92zM149 205q0 -75 40 -108t101 -33t101 33t40 108v462h74v-462q0 -57 -18 -99.5t-49.5 -66t-68.5 -34.5t-79 -11t-79 11t-68.5 34.5t-49.5 66t-18 99.5v462h74v-462z" />
<glyph unicode="&#x16d;" vert-adv-y="0" d="M116 672h51q0 -35 23.5 -55t64.5 -20t65 20t24 55h50q0 -57 -40 -92t-99 -35t-99 35t-40 92zM375 204v273h70v-273q0 -111 -54.5 -160.5t-135.5 -49.5t-135.5 49.5t-54.5 160.5v273h70v-273q0 -78 34.5 -111t85.5 -33t85.5 33t34.5 111z" />
<glyph unicode="&#x16e;" horiz-adv-x="580" vert-adv-y="0" d="M290 883q39 0 63 -23.5t24 -63.5q0 -39 -24 -63t-63 -24q-38 0 -62.5 24t-24.5 63t24 63t63 24zM290 843q-20 0 -32 -13t-12 -34q0 -20 12 -33t32 -13t32.5 13t12.5 33t-12.5 33.5t-32.5 13.5zM149 205q0 -75 40 -108t101 -33t101 33t40 108v462h74v-462q0 -57 -18 -99.5 t-49.5 -66t-68.5 -34.5t-79 -11t-79 11t-68.5 34.5t-49.5 66t-18 99.5v462h74v-462z" />
<glyph unicode="&#x16f;" vert-adv-y="0" d="M255 692q39 0 63 -23.5t24 -63.5q0 -39 -24 -63t-63 -24q-38 0 -62.5 24t-24.5 63t24 63t63 24zM255 652q-20 0 -32 -13t-12 -34q0 -20 12 -33t32 -13t32.5 13t12.5 33t-12.5 33.5t-32.5 13.5zM375 204v273h70v-273q0 -111 -54.5 -160.5t-135.5 -49.5t-135.5 49.5 t-54.5 160.5v273h70v-273q0 -78 34.5 -111t85.5 -33t85.5 33t34.5 111z" />
<glyph unicode="&#x170;" horiz-adv-x="580" vert-adv-y="0" d="M482 857l-86 -121h-66l75 121h77zM331 857l-86 -121h-66l75 121h77zM149 205q0 -75 40 -108t101 -33t101 33t40 108v462h74v-462q0 -57 -18 -99.5t-49.5 -66t-68.5 -34.5t-79 -11t-79 11t-68.5 34.5t-49.5 66t-18 99.5v462h74v-462z" />
<glyph unicode="&#x171;" vert-adv-y="0" d="M447 666l-86 -121h-66l75 121h77zM296 666l-86 -121h-66l75 121h77zM375 204v273h70v-273q0 -111 -54.5 -160.5t-135.5 -49.5t-135.5 49.5t-54.5 160.5v273h70v-273q0 -78 34.5 -111t85.5 -33t85.5 33t34.5 111z" />
<glyph unicode="&#x172;" horiz-adv-x="580" vert-adv-y="0" d="M322 0q-55 -49 -55 -89q0 -20 11 -33.5t29 -13.5q17 0 28.5 10t26.5 31l41 -28q-11 -18 -18.5 -29t-29.5 -25t-48 -14q-43 0 -66.5 29t-23.5 70q0 52 37 92h68zM149 205q0 -75 40 -108t101 -33t101 33t40 108v462h74v-462q0 -57 -18 -99.5t-49.5 -66t-68.5 -34.5t-79 -11 t-79 11t-68.5 34.5t-49.5 66t-18 99.5v462h74v-462z" />
<glyph unicode="&#x173;" vert-adv-y="0" d="M289 0q-55 -49 -55 -89q0 -20 11 -33.5t29 -13.5q17 0 28.5 10t26.5 31l41 -28q-11 -18 -18.5 -29t-29.5 -25t-48 -14q-43 0 -66.5 29t-23.5 70q0 52 37 92h68zM375 204v273h70v-273q0 -111 -54.5 -160.5t-135.5 -49.5t-135.5 49.5t-54.5 160.5v273h70v-273 q0 -78 34.5 -111t85.5 -33t85.5 33t34.5 111z" />
<glyph unicode="&#x174;" horiz-adv-x="802" vert-adv-y="0" d="M401 799l-69 -63h-80l131 121h36l131 -121h-80zM35 667h75l142 -564l118 399h64l117 -398l141 563h75l-183 -667h-65l-117 390l-117 -390h-66z" />
<glyph unicode="&#x175;" horiz-adv-x="730" vert-adv-y="0" d="M365 609l-69 -63h-80l131 121h36l131 -121h-80zM35 477h71l118 -374l111 374h60l112 -374l117 374h71l-158 -477h-60l-112 391l-111 -391h-60z" />
<glyph unicode="&#x176;" horiz-adv-x="541" vert-adv-y="0" d="M271 799l-69 -63h-80l131 121h36l131 -121h-80zM35 667h81l154 -309l157 309h79l-199 -390v-277h-74v277z" />
<glyph unicode="&#x177;" horiz-adv-x="530" vert-adv-y="0" d="M265 608l-69 -63h-80l131 121h36l131 -121h-80zM35 477h74l156 -396l156 396h74l-268 -662h-73l74 185z" />
<glyph unicode="&#x178;" horiz-adv-x="541" vert-adv-y="0" d="M361 834q21 0 34 -13t13 -34t-13 -34t-34 -13t-34 13t-13 34t13 34t34 13zM181 834q21 0 34 -13t13 -34t-13 -34t-34 -13t-34 13t-13 34t13 34t34 13zM35 667h81l154 -309l157 309h79l-199 -390v-277h-74v277z" />
<glyph unicode="&#x179;" horiz-adv-x="540" vert-adv-y="0" d="M376 857l-86 -121h-71l75 121h82zM70 667h400v-50l-323 -547h333v-70h-420v50l322 547h-312v70z" />
<glyph unicode="&#x17a;" horiz-adv-x="430" vert-adv-y="0" d="M321 666l-86 -121h-71l75 121h82zM55 477h320v-50l-234 -361h234v-66h-320v50l234 361h-234v66z" />
<glyph unicode="&#x17b;" horiz-adv-x="540" vert-adv-y="0" d="M269 834q21 0 34 -13t13 -34t-13 -34t-34 -13q-20 0 -33.5 13t-13.5 34t13.5 34t33.5 13zM70 667h400v-50l-323 -547h333v-70h-420v50l322 547h-312v70z" />
<glyph unicode="&#x17c;" horiz-adv-x="430" vert-adv-y="0" d="M215 643q21 0 34 -13t13 -34t-13 -34t-34 -13q-20 0 -33.5 13t-13.5 34t13.5 34t33.5 13zM55 477h320v-50l-234 -361h234v-66h-320v50l234 361h-234v66z" />
<glyph unicode="&#x17d;" horiz-adv-x="540" vert-adv-y="0" d="M270 799l-69 -63h-80l131 121h36l131 -121h-80zM70 667h400v-50l-323 -547h333v-70h-420v50l322 547h-312v70z" />
<glyph unicode="&#x17e;" horiz-adv-x="430" vert-adv-y="0" d="M215 608l-69 -63h-80l131 121h36l131 -121h-80zM55 477h320v-50l-234 -361h234v-66h-320v50l234 361h-234v66z" />
<glyph unicode="&#x18f;" horiz-adv-x="586" vert-adv-y="0" d="M293 673q97 0 161 -55.5t64 -171.5v-224q0 -116 -64 -172t-161 -56t-161 56t-64 172v115h376v109q0 82 -42.5 119.5t-108.5 37.5q-25 0 -41.5 -2t-45 -17t-50.5 -44l-57 44q68 89 194 89zM444 267h-302v-45q0 -83 42 -120.5t109 -37.5t109 37.5t42 120.5v45z" />
<glyph unicode="&#x192;" horiz-adv-x="370" vert-adv-y="0" d="M215 -54q0 -63 -35.5 -97t-84.5 -34h-60v62h60q21 0 35.5 17.5t14.5 51.5v470h-60v61h60v50q0 63 35.5 96.5t84.5 33.5h60v-62h-60q-21 0 -35.5 -17t-14.5 -51v-50h90v-61h-90v-470z" />
<glyph unicode="&#x1a9;" horiz-adv-x="500" vert-adv-y="0" d="M296 328l-141 -258h285v-70h-380v40l170 302l-170 285v40h379v-70h-284l141 -239v-30z" />
<glyph unicode="&#x1c4;" horiz-adv-x="1002" vert-adv-y="0" d="M462 780l79 78h70l-131 -131h-36l-131 131h70zM532 667h400v-50l-323 -547h333v-70h-420v50l322 547h-312v70zM159 597v-527h120q161 0 161 158v212q0 157 -161 157h-120zM85 667h194q104 0 169.5 -55t65.5 -172v-202q0 -118 -66.5 -178t-168.5 -60h-194v667z" />
<glyph unicode="&#x1c5;" horiz-adv-x="938" vert-adv-y="0" d="M462 780l79 78h70l-131 -131h-36l-131 131h70zM649 66h234v-66h-320v50l234 361h-234v66h320v-50zM159 597v-527h120q161 0 161 158v212q0 157 -161 157h-120zM85 667h194q104 0 169.5 -55t65.5 -172v-202q0 -118 -66.5 -178t-168.5 -60h-194v667z" />
<glyph unicode="&#x1c6;" horiz-adv-x="865" vert-adv-y="0" d="M375 667h68v-667h-68v59q-47 -65 -135 -65q-78 0 -131.5 54t-53.5 156v68q0 102 53.5 156.5t131.5 54.5q87 0 135 -66v250zM250 417q-51 0 -88 -37.5t-37 -106.5v-69q0 -69 37 -106.5t88 -37.5t88 37.5t37 106.5v68q0 70 -37 107.5t-88 37.5zM576 66h234v-66h-320v50 l234 361h-234v66h320v-50zM462 780l79 78h70l-131 -131h-36l-131 131h70z" />
<glyph unicode="&#x1c7;" horiz-adv-x="946" vert-adv-y="0" d="M797 667h74v-467q0 -99 -55.5 -152.5t-129.5 -53.5q-109 0 -181 94l57 44q52 -68 124 -68q44 0 77.5 35.5t33.5 100.5v467zM85 667h74v-597h306v-70h-380v667z" />
<glyph unicode="&#x1c8;" horiz-adv-x="665" vert-adv-y="0" d="M549 634q21 0 34 -13t13 -34t-13 -34t-34 -13q-20 0 -33.5 13t-13.5 34t13.5 34t33.5 13zM586 -60q0 -63 -35.5 -96.5t-84.5 -33.5h-30v62h30q21 0 35.5 17t14.5 51v537h70v-537zM85 667h74v-597h306v-70h-380v667z" />
<glyph unicode="&#x1c9;" horiz-adv-x="365" vert-adv-y="0" d="M249 634q21 0 34 -13t13 -34t-13 -34t-34 -13q-20 0 -33.5 13t-13.5 34t13.5 34t33.5 13zM285 -60q0 -63 -35.5 -96.5t-84.5 -33.5h-30v62h30q21 0 35.5 17t14.5 51v537h70v-537zM75 667h70v-667h-70v667z" />
<glyph unicode="&#x1ca;" horiz-adv-x="1007" vert-adv-y="0" d="M858 667h74v-467q0 -99 -55.5 -152.5t-129.5 -53.5q-109 0 -181 94l57 44q52 -68 124 -68q44 0 77.5 35.5t33.5 100.5v467zM85 667h63l301 -520v520h72v-667h-63l-301 520v-520h-72v667z" />
<glyph unicode="&#x1cb;" horiz-adv-x="742" vert-adv-y="0" d="M626 634q21 0 34 -13t13 -34t-13 -34t-34 -13q-20 0 -33.5 13t-13.5 34t13.5 34t33.5 13zM662 -60q0 -63 -35.5 -96.5t-84.5 -33.5h-30v62h30q21 0 35.5 17t14.5 51v537h70v-537zM85 667h63l301 -520v520h72v-667h-63l-301 520v-520h-72v667z" />
<glyph unicode="&#x1cc;" horiz-adv-x="677" vert-adv-y="0" d="M280 483q77 0 126 -53.5t49 -156.5v-273h-70v272q0 71 -32.5 108t-82.5 37q-51 0 -88 -37.5t-37 -106.5v-273h-70v477h70v-60q48 66 135 66zM596 -60q0 -63 -35.5 -96.5t-84.5 -33.5h-30v62h30q21 0 35.5 17t14.5 51v537h70v-537zM561 634q21 0 34 -13t13 -34t-13 -34 t-34 -13q-20 0 -33.5 13t-13.5 34t13.5 34t33.5 13z" />
<glyph unicode="&#x1ea;" horiz-adv-x="600" vert-adv-y="0" d="M334 0q-55 -49 -55 -89q0 -20 11 -33.5t29 -13.5q17 0 28.5 10t26.5 31l41 -28q-11 -18 -18.5 -29t-29.5 -25t-48 -14q-43 0 -66.5 29t-23.5 70q0 52 37 92h68zM535 204q0 -109 -68 -159.5t-167 -50.5t-167 50.5t-68 159.5v259q0 109 68 159.5t167 50.5t167 -50.5 t68 -159.5v-259zM139 204q0 -75 45.5 -107.5t115.5 -32.5t115.5 32.5t45.5 107.5v259q0 75 -45.5 107.5t-115.5 32.5t-115.5 -32.5t-45.5 -107.5v-259z" />
<glyph unicode="&#x1eb;" horiz-adv-x="500" vert-adv-y="0" d="M284 0q-55 -49 -55 -89q0 -20 11 -33.5t29 -13.5q17 0 28.5 10t26.5 31l41 -28q-11 -18 -18.5 -29t-29.5 -25t-48 -14q-43 0 -66.5 29t-23.5 70q0 52 37 92h68zM445 204q0 -111 -56 -160.5t-139 -49.5t-139 49.5t-56 160.5v69q0 111 56 160.5t139 49.5t139 -49.5 t56 -160.5v-69zM125 204q0 -78 35.5 -111t89.5 -33t89.5 33t35.5 111v69q0 78 -35.5 111t-89.5 33t-89.5 -33t-35.5 -111v-69z" />
<glyph unicode="&#x1f1;" horiz-adv-x="1002" vert-adv-y="0" d="M532 667h400v-50l-323 -547h333v-70h-420v50l322 547h-312v70zM159 597v-527h120q161 0 161 158v212q0 157 -161 157h-120zM85 667h194q104 0 169.5 -55t65.5 -172v-202q0 -118 -66.5 -178t-168.5 -60h-194v667z" />
<glyph unicode="&#x1f2;" horiz-adv-x="938" vert-adv-y="0" d="M649 66h234v-66h-320v50l234 361h-234v66h320v-50zM159 597v-527h120q161 0 161 158v212q0 157 -161 157h-120zM85 667h194q104 0 169.5 -55t65.5 -172v-202q0 -118 -66.5 -178t-168.5 -60h-194v667z" />
<glyph unicode="&#x1f3;" horiz-adv-x="865" vert-adv-y="0" d="M375 667h68v-667h-68v59q-47 -65 -135 -65q-78 0 -131.5 54t-53.5 156v68q0 102 53.5 156.5t131.5 54.5q87 0 135 -66v250zM250 417q-51 0 -88 -37.5t-37 -106.5v-69q0 -69 37 -106.5t88 -37.5t88 37.5t37 106.5v68q0 70 -37 107.5t-88 37.5zM576 66h234v-66h-320v50 l234 361h-234v66h320v-50z" />
<glyph unicode="&#x1f4;" horiz-adv-x="580" vert-adv-y="0" d="M396 857l-86 -121h-71l75 121h82zM290 603q-65 0 -108 -32.5t-43 -107.5v-259q0 -75 43 -107.5t108 -32.5q64 0 107.5 31.5t43.5 98.5v93h-138v70h212v-163q0 -102 -65.5 -151t-159.5 -49q-95 0 -160 50.5t-65 159.5v259q0 109 65 159.5t160 50.5q111 0 180 -65l-44 -55 q-57 50 -136 50z" />
<glyph unicode="&#x1f5;" horiz-adv-x="520" vert-adv-y="0" d="M346 666l-86 -121h-71l75 121h82zM375 52q-45 -58 -135 -58q-33 0 -64 10.5t-59 33t-45 65.5t-17 101v69q0 58 17 101t45 65.5t59 33t64 10.5q90 0 135 -58v52h70v-477q0 -78 -57.5 -134t-148.5 -56q-93 0 -160 45l32 59q52 -38 128 -38q61 0 98.5 36t37.5 88v52z M375 273q0 78 -35.5 111t-89.5 33t-89.5 -33t-35.5 -111v-69q0 -78 35.5 -111t89.5 -33t89.5 33t35.5 111v69z" />
<glyph unicode="&#x200;" horiz-adv-x="609" vert-adv-y="0" d="M113 857h77l75 -121h-66zM264 857h77l75 -121h-66zM273 667h64l237 -667h-75l-57 165h-274l-57 -165h-76zM305 571l-115 -336h229z" />
<glyph unicode="&#x201;" horiz-adv-x="481" vert-adv-y="0" d="M46 666h77l75 -121h-66zM197 666h77l75 -121h-66zM238 483q78 0 126.5 -47.5t48.5 -145.5v-290h-68v52q-56 -58 -133 -58q-67 0 -112 41.5t-45 107.5q0 77 56.5 114t154.5 37q46 0 79 -5q0 66 -28.5 98t-78.5 32q-67 0 -117 -30l-31 57q64 37 148 37zM123 143 q0 -37 26.5 -60.5t70.5 -23.5q52 0 88.5 36.5t36.5 108.5v25q-35 4 -71 4q-151 0 -151 -90z" />
<glyph unicode="&#x202;" horiz-adv-x="609" vert-adv-y="0" d="M166 736q0 57 40 92t99 35t99 -35t40 -92h-50q0 35 -24 55t-65 20t-64.5 -20t-23.5 -55h-51zM273 667h64l237 -667h-75l-57 165h-274l-57 -165h-76zM305 571l-115 -336h229z" />
<glyph unicode="&#x203;" horiz-adv-x="481" vert-adv-y="0" d="M99 545q0 57 40 92t99 35t99 -35t40 -92h-50q0 35 -24 55t-65 20t-64.5 -20t-23.5 -55h-51zM238 483q78 0 126.5 -47.5t48.5 -145.5v-290h-68v52q-56 -58 -133 -58q-67 0 -112 41.5t-45 107.5q0 77 56.5 114t154.5 37q46 0 79 -5q0 66 -28.5 98t-78.5 32q-67 0 -117 -30 l-31 57q64 37 148 37zM123 143q0 -37 26.5 -60.5t70.5 -23.5q52 0 88.5 36.5t36.5 108.5v25q-35 4 -71 4q-151 0 -151 -90z" />
<glyph unicode="&#x204;" vert-adv-y="0" d="M69 857h77l75 -121h-66zM220 857h77l75 -121h-66zM85 667h359v-70h-287v-219h237v-70h-235v-238h286v-70h-360v667z" />
<glyph unicode="&#x205;" horiz-adv-x="496" vert-adv-y="0" d="M61 666h77l75 -121h-66zM212 666h77l75 -121h-66zM260 -6q-89 0 -145.5 54t-56.5 166v59q0 111 55 160.5t135 49.5q37 0 69 -10.5t60 -33.5t44.5 -66t16.5 -101v-54h-312v-4q0 -80 37 -118t97 -38q71 0 123 38l32 -57q-68 -45 -155 -45zM126 282h244q0 72 -36 104.5 t-86 32.5q-49 0 -84.5 -32t-37.5 -105z" />
<glyph unicode="&#x206;" vert-adv-y="0" d="M122 736q0 57 40 92t99 35t99 -35t40 -92h-50q0 35 -24 55t-65 20t-64.5 -20t-23.5 -55h-51zM85 667h359v-70h-287v-219h237v-70h-235v-238h286v-70h-360v667z" />
<glyph unicode="&#x207;" horiz-adv-x="496" vert-adv-y="0" d="M114 545q0 57 40 92t99 35t99 -35t40 -92h-50q0 35 -24 55t-65 20t-64.5 -20t-23.5 -55h-51zM260 -6q-89 0 -145.5 54t-56.5 166v59q0 111 55 160.5t135 49.5q37 0 69 -10.5t60 -33.5t44.5 -66t16.5 -101v-54h-312v-4q0 -80 37 -118t97 -38q71 0 123 38l32 -57 q-68 -45 -155 -45zM126 282h244q0 72 -36 104.5t-86 32.5q-49 0 -84.5 -32t-37.5 -105z" />
<glyph unicode="&#x208;" horiz-adv-x="244" vert-adv-y="0" d="M-70 857h77l75 -121h-66zM81 857h77l75 -121h-66zM159 667v-667h-74v667h74z" />
<glyph unicode="&#x209;" horiz-adv-x="214" vert-adv-y="0" d="M-85 667h77l75 -121h-66zM66 667h77l75 -121h-66zM72 477h70v-477h-70v477z" />
<glyph unicode="&#x20a;" horiz-adv-x="244" vert-adv-y="0" d="M-17 736q0 57 40 92t99 35t99 -35t40 -92h-50q0 35 -24 55t-65 20t-64.5 -20t-23.5 -55h-51zM159 667v-667h-74v667h74z" />
<glyph unicode="&#x20b;" horiz-adv-x="214" vert-adv-y="0" d="M-32 546q0 57 40 92t99 35t99 -35t40 -92h-50q0 35 -24 55t-65 20t-64.5 -20t-23.5 -55h-51zM72 477h70v-477h-70v477z" />
<glyph unicode="&#x20c;" horiz-adv-x="600" vert-adv-y="0" d="M108 857h77l75 -121h-66zM259 857h77l75 -121h-66zM535 204q0 -109 -68 -159.5t-167 -50.5t-167 50.5t-68 159.5v259q0 109 68 159.5t167 50.5t167 -50.5t68 -159.5v-259zM139 204q0 -75 45.5 -107.5t115.5 -32.5t115.5 32.5t45.5 107.5v259q0 75 -45.5 107.5 t-115.5 32.5t-115.5 -32.5t-45.5 -107.5v-259z" />
<glyph unicode="&#x20d;" horiz-adv-x="500" vert-adv-y="0" d="M58 667h77l75 -121h-66zM209 667h77l75 -121h-66zM445 204q0 -111 -56 -160.5t-139 -49.5t-139 49.5t-56 160.5v69q0 111 56 160.5t139 49.5t139 -49.5t56 -160.5v-69zM125 204q0 -78 35.5 -111t89.5 -33t89.5 33t35.5 111v69q0 78 -35.5 111t-89.5 33t-89.5 -33 t-35.5 -111v-69z" />
<glyph unicode="&#x20e;" horiz-adv-x="600" vert-adv-y="0" d="M161 736q0 57 40 92t99 35t99 -35t40 -92h-50q0 35 -24 55t-65 20t-64.5 -20t-23.5 -55h-51zM535 204q0 -109 -68 -159.5t-167 -50.5t-167 50.5t-68 159.5v259q0 109 68 159.5t167 50.5t167 -50.5t68 -159.5v-259zM139 204q0 -75 45.5 -107.5t115.5 -32.5t115.5 32.5 t45.5 107.5v259q0 75 -45.5 107.5t-115.5 32.5t-115.5 -32.5t-45.5 -107.5v-259z" />
<glyph unicode="&#x20f;" horiz-adv-x="500" vert-adv-y="0" d="M111 546q0 57 40 92t99 35t99 -35t40 -92h-50q0 35 -24 55t-65 20t-64.5 -20t-23.5 -55h-51zM445 204q0 -111 -56 -160.5t-139 -49.5t-139 49.5t-56 160.5v69q0 111 56 160.5t139 49.5t139 -49.5t56 -160.5v-69zM125 204q0 -78 35.5 -111t89.5 -33t89.5 33t35.5 111v69 q0 78 -35.5 111t-89.5 33t-89.5 -33t-35.5 -111v-69z" />
<glyph unicode="&#x210;" horiz-adv-x="562" vert-adv-y="0" d="M73 857h77l75 -121h-66zM224 857h77l75 -121h-66zM282 667q94 0 149.5 -51t55.5 -154q0 -141 -106 -187l116 -275h-78l-109 258q-9 -1 -28 -1h-124v-257h-73v667h197zM282 327q131 0 131 135t-131 135h-123v-270h123z" />
<glyph unicode="&#x211;" horiz-adv-x="378" vert-adv-y="0" d="M18 667h77l75 -121h-66zM169 667h77l75 -121h-66zM75 477h70v-49q44 55 130 55q30 0 58 -6l-10 -63q-25 3 -58 3q-120 0 -120 -144v-273h-70v477z" />
<glyph unicode="&#x212;" horiz-adv-x="562" vert-adv-y="0" d="M126 736q0 57 40 92t99 35t99 -35t40 -92h-50q0 35 -24 55t-65 20t-64.5 -20t-23.5 -55h-51zM282 667q94 0 149.5 -51t55.5 -154q0 -141 -106 -187l116 -275h-78l-109 258q-9 -1 -28 -1h-124v-257h-73v667h197zM282 327q131 0 131 135t-131 135h-123v-270h123z" />
<glyph unicode="&#x213;" horiz-adv-x="378" vert-adv-y="0" d="M71 546q0 57 40 92t99 35t99 -35t40 -92h-50q0 35 -24 55t-65 20t-64.5 -20t-23.5 -55h-51zM75 477h70v-49q44 55 130 55q30 0 58 -6l-10 -63q-25 3 -58 3q-120 0 -120 -144v-273h-70v477z" />
<glyph unicode="&#x214;" horiz-adv-x="580" vert-adv-y="0" d="M103 857h77l75 -121h-66zM254 857h77l75 -121h-66zM149 205q0 -75 40 -108t101 -33t101 33t40 108v462h74v-462q0 -57 -18 -99.5t-49.5 -66t-68.5 -34.5t-79 -11t-79 11t-68.5 34.5t-49.5 66t-18 99.5v462h74v-462z" />
<glyph unicode="&#x215;" vert-adv-y="0" d="M63 666h77l75 -121h-66zM214 666h77l75 -121h-66zM375 204v273h70v-273q0 -111 -54.5 -160.5t-135.5 -49.5t-135.5 49.5t-54.5 160.5v273h70v-273q0 -78 34.5 -111t85.5 -33t85.5 33t34.5 111z" />
<glyph unicode="&#x216;" horiz-adv-x="580" vert-adv-y="0" d="M151 736q0 57 40 92t99 35t99 -35t40 -92h-50q0 35 -24 55t-65 20t-64.5 -20t-23.5 -55h-51zM149 205q0 -75 40 -108t101 -33t101 33t40 108v462h74v-462q0 -57 -18 -99.5t-49.5 -66t-68.5 -34.5t-79 -11t-79 11t-68.5 34.5t-49.5 66t-18 99.5v462h74v-462z" />
<glyph unicode="&#x217;" vert-adv-y="0" d="M116 545q0 57 40 92t99 35t99 -35t40 -92h-50q0 35 -24 55t-65 20t-64.5 -20t-23.5 -55h-51zM375 204v273h70v-273q0 -111 -54.5 -160.5t-135.5 -49.5t-135.5 49.5t-54.5 160.5v273h70v-273q0 -78 34.5 -111t85.5 -33t85.5 33t34.5 111z" />
<glyph unicode="&#x218;" horiz-adv-x="541" vert-adv-y="0" d="M256 -63q51 0 51 -46q0 -24 -9 -40l-45 -81h-45l29 78q-32 11 -32 43q0 46 51 46zM253 -6q-53 0 -109 16.5t-91 50.5l48 52q26 -25 68.5 -37t83.5 -12q65 0 102 31t37 91q0 59 -38.5 85.5t-104.5 37.5q-194 33 -194 179q0 92 57.5 138.5t143.5 46.5q121 0 190 -65 l-44 -55q-57 50 -146 50q-57 0 -92 -28t-35 -87q0 -51 35.5 -75t98.5 -36q43 -8 75.5 -20t63.5 -33t47.5 -56t16.5 -82q0 -90 -57.5 -141t-155.5 -51z" />
<glyph unicode="&#x219;" horiz-adv-x="436" vert-adv-y="0" d="M213 -63q51 0 51 -46q0 -24 -9 -40l-45 -81h-45l29 78q-32 11 -32 43q0 46 51 46zM371 446l-32 -59q-50 30 -126 30q-93 0 -93 -68q0 -30 22.5 -43.5t76.5 -23.5q167 -28 167 -145q0 -72 -52.5 -107.5t-120.5 -35.5q-103 0 -170 45l32 59q52 -38 138 -38q47 0 75 19 t28 58q0 36 -27 53.5t-82 27.5q-23 4 -40 8t-40.5 14t-39 23t-26.5 35.5t-11 50.5q0 68 50 101t113 33q94 0 158 -37z" />
<glyph unicode="&#x21a;" horiz-adv-x="560" vert-adv-y="0" d="M281 -63q51 0 51 -46q0 -24 -9 -40l-45 -81h-45l29 78q-32 11 -32 43q0 46 51 46zM55 667h450v-70h-188v-597h-74v597h-188v70z" />
<glyph unicode="&#x21b;" horiz-adv-x="370" vert-adv-y="0" d="M234 -63q51 0 51 -46q0 -24 -9 -40l-45 -81h-45l29 78q-32 11 -32 43q0 46 51 46zM45 477h80v104h70v-104h110v-62h-110v-285q0 -32 14.5 -48t35.5 -16h80v-66h-80q-49 0 -84.5 33.5t-35.5 96.5v285h-80v62z" />
<glyph unicode="&#x237;" horiz-adv-x="225" vert-adv-y="0" d="M150 -60q0 -63 -35.5 -96.5t-84.5 -33.5h-30v62h30q21 0 35.5 17t14.5 51v537h70v-537z" />
<glyph unicode="&#x259;" horiz-adv-x="506" vert-adv-y="0" d="M243 483q86 0 145.5 -54t59.5 -156v-68q0 -102 -57.5 -156.5t-137.5 -54.5t-137.5 55t-57.5 160v50h322v14q0 70 -38.5 107.5t-98.5 37.5q-75 0 -123 -40l-41 52q70 53 164 53zM380 195h-254q0 -63 38 -100t89 -37t89 35.5t38 101.5z" />
<glyph unicode="&#x2bc;" horiz-adv-x="202" d="M101 673q21 0 36 -13t15 -38q0 -20 -9 -46l-45 -120h-45l29 118q-32 11 -32 48q0 25 15 38t36 13z" />
<glyph unicode="&#x2c6;" horiz-adv-x="398" d="M199 609l-69 -63h-80l131 121h36l131 -121h-80z" />
<glyph unicode="&#x2c7;" horiz-adv-x="398" d="M199 609l-69 -63h-80l131 121h36l131 -121h-80z" />
<glyph unicode="&#x2d8;" horiz-adv-x="378" vert-adv-y="0" d="M50 673h51q0 -35 23.5 -55t64.5 -20t65 20t24 55h50q0 -57 -40 -92t-99 -35t-99 35t-40 92z" />
<glyph unicode="&#x2d9;" horiz-adv-x="194" vert-adv-y="0" d="M97 644q21 0 34 -13t13 -34t-13 -34t-34 -13q-20 0 -33.5 13t-13.5 34t13.5 34t33.5 13z" />
<glyph unicode="&#x2da;" horiz-adv-x="280" vert-adv-y="0" d="M140 693q39 0 63 -23.5t24 -63.5q0 -39 -24 -63t-63 -24q-38 0 -62.5 24t-24.5 63t24 63t63 24zM140 653q-20 0 -32 -13t-12 -34q0 -20 12 -33t32 -13t32.5 13t12.5 33t-12.5 33.5t-32.5 13.5z" />
<glyph unicode="&#x2db;" horiz-adv-x="286" d="M155 0q-55 -49 -55 -89q0 -20 11 -33.5t29 -13.5q17 0 28.5 10t26.5 31l41 -28q-11 -18 -18.5 -29t-29.5 -25t-48 -14q-43 0 -66.5 29t-23.5 70q0 52 37 92h68z" />
<glyph unicode="&#x2dc;" horiz-adv-x="392" d="M143 609q-20 0 -31.5 -14.5t-11.5 -38.5h-50q0 43 25 73t66 30q47 0 76 -41q12 -18 34 -18q17 0 29 13.5t12 38.5h50q0 -46 -28 -74t-65 -28q-47 0 -74 40q-12 19 -32 19z" />
<glyph unicode="&#x2dd;" horiz-adv-x="403" d="M353 667l-86 -121h-66l75 121h77zM202 667l-86 -121h-66l75 121h77z" />
<glyph unicode="&#x300;" horiz-adv-x="257" d="M50 667h82l75 -121h-71z" />
<glyph unicode="&#x301;" horiz-adv-x="257" d="M207 667l-86 -121h-71l75 121h82z" />
<glyph unicode="&#x302;" horiz-adv-x="398" d="M199 609l-69 -63h-80l131 121h36l131 -121h-80z" />
<glyph unicode="&#x304;" horiz-adv-x="370" d="M50 612h270v-56h-270v56z" />
<glyph unicode="&#x307;" horiz-adv-x="194" vert-adv-y="0" d="M97 644q21 0 34 -13t13 -34t-13 -34t-34 -13q-20 0 -33.5 13t-13.5 34t13.5 34t33.5 13z" />
<glyph unicode="&#x30f;" horiz-adv-x="403" d="M50 667h77l75 -121h-66zM201 667h77l75 -121h-66z" />
<glyph unicode="&#x311;" horiz-adv-x="378" vert-adv-y="0" d="M50 546q0 57 40 92t99 35t99 -35t40 -92h-50q0 35 -24 55t-65 20t-64.5 -20t-23.5 -55h-51z" />
<glyph unicode="&#x312;" horiz-adv-x="202" vert-adv-y="0" d="M101 552q-51 0 -51 46q0 24 9 40l45 81h45l-29 -78q32 -11 32 -43q0 -46 -51 -46z" />
<glyph unicode="&#x315;" horiz-adv-x="202" d="M101 673q21 0 36 -13t15 -38q0 -20 -9 -46l-45 -120h-45l29 118q-32 11 -32 48q0 25 15 38t36 13z" />
<glyph unicode="&#x323;" horiz-adv-x="202" vert-adv-y="0" d="M101 -85q23 0 37 -14.5t14 -36.5t-14 -36.5t-37 -14.5t-37 14.5t-14 36.5t14 36.5t37 14.5z" />
<glyph unicode="&#x326;" horiz-adv-x="202" d="M101 -63q51 0 51 -46q0 -24 -9 -40l-45 -81h-45l29 78q-32 11 -32 43q0 46 51 46z" />
<glyph unicode="&#x3a9;" horiz-adv-x="600" vert-adv-y="0" d="M250 0h-185v64h77q-77 75 -77 238v144q0 117 65.5 172t169.5 55t169.5 -55t65.5 -172v-144q0 -163 -77 -238h77v-64h-185v64q42 0 76.5 64t34.5 174v144q0 157 -161 157t-161 -157v-144q0 -110 34.5 -174t76.5 -64v-64z" />
<glyph unicode="&#x3b1;" horiz-adv-x="549" vert-adv-y="0" d="M375 477h68v-347q0 -31 15 -47.5t36 -16.5h10v-66h-10q-35 0 -62 19t-39 57q-51 -82 -153 -82q-78 0 -131.5 54t-53.5 156v68q0 102 53.5 156.5t131.5 54.5q87 0 135 -66v60zM250 417q-51 0 -88 -37.5t-37 -106.5v-69q0 -69 37 -106.5t88 -37.5t88 37.5t37 106.5v68 q0 70 -37 107.5t-88 37.5z" />
<glyph unicode="&#x3b2;" horiz-adv-x="545" vert-adv-y="0" d="M389 344q44 -15 70 -58.5t26 -96.5q0 -83 -40.5 -136t-124.5 -53h-175v-185h-70v637q0 108 55.5 161.5t149.5 53.5q82 0 134 -52.5t52 -126.5q0 -46 -21.5 -84.5t-55.5 -59.5zM145 66h175q95 0 95 123q0 50 -37 86t-98 36h-72v64h72q56 0 86 32.5t30 80.5q0 45 -33 79 t-83 34q-63 0 -99 -37t-36 -112v-386z" />
<glyph unicode="&#x3b3;" horiz-adv-x="576" vert-adv-y="0" d="M45 477h30q36 0 65.5 -18.5t43.5 -54.5l127 -323l156 396h74l-193 -477v-185h-74v185l-155 383q-13 32 -44 32h-30v62z" />
<glyph unicode="&#x3b4;" horiz-adv-x="521" vert-adv-y="0" d="M87 517h308v-370h-308v370z" />
<glyph unicode="&#x3bc;" horiz-adv-x="560" vert-adv-y="0" d="M145 55v-240h-70v662h70v-273q0 -70 35 -107t85 -37t85 37t35 107v273h70v-353q0 -32 14.5 -48t35.5 -16h10v-66h-10q-35 0 -62.5 19t-39.5 55q-44 -74 -138 -74q-75 0 -120 61z" />
<glyph unicode="&#x3c0;" horiz-adv-x="540" vert-adv-y="0" d="M430 124q0 -32 14.5 -48t35.5 -16h10v-66h-10q-49 0 -84.5 33.5t-35.5 96.5v287h-180v-411h-70v411h-60v66h430v-66h-50v-287z" />
<glyph unicode="&#x1e0c;" horiz-adv-x="590" vert-adv-y="0" d="M286 -85q23 0 37 -14.5t14 -36.5t-14 -36.5t-37 -14.5t-37 14.5t-14 36.5t14 36.5t37 14.5zM515 468v-269q0 -92 -54.5 -145.5t-160.5 -53.5h-215v667h215q106 0 160.5 -53.5t54.5 -145.5zM441 199v269q0 129 -141 129h-141v-527h141q141 0 141 129z" />
<glyph unicode="&#x1e0d;" horiz-adv-x="520" vert-adv-y="0" d="M239 -85q23 0 37 -14.5t14 -36.5t-14 -36.5t-37 -14.5t-37 14.5t-14 36.5t14 36.5t37 14.5zM55 204v69q0 58 17 101t45 65.5t59 33t64 10.5q90 0 135 -58v242h70v-667h-70v52q-45 -58 -135 -58q-33 0 -64 10.5t-59 33t-45 65.5t-17 101zM375 273q0 78 -35.5 111t-89.5 33 t-89.5 -33t-35.5 -111v-69q0 -78 35.5 -111t89.5 -33t89.5 33t35.5 111v69z" />
<glyph unicode="&#x1e24;" horiz-adv-x="610" vert-adv-y="0" d="M304 -85q23 0 37 -14.5t14 -36.5t-14 -36.5t-37 -14.5t-37 14.5t-14 36.5t14 36.5t37 14.5zM85 667h74v-289h292v289h74v-667h-74v308h-292v-308h-74v667z" />
<glyph unicode="&#x1e25;" horiz-adv-x="518" vert-adv-y="0" d="M264 -85q23 0 37 -14.5t14 -36.5t-14 -36.5t-37 -14.5t-37 14.5t-14 36.5t14 36.5t37 14.5zM145 0h-70v667h70v-239q44 55 130 55q73 0 126.5 -49.5t53.5 -160.5v-273h-70v273q0 144 -120 144t-120 -144v-273z" />
<glyph unicode="&#x1e44;" horiz-adv-x="610" vert-adv-y="0" d="M305 834q21 0 34 -13t13 -34t-13 -34t-34 -13q-20 0 -33.5 13t-13.5 34t13.5 34t33.5 13zM85 667h65l301 -520v520h74v-667h-65l-301 520v-520h-74v667z" />
<glyph unicode="&#x1e45;" horiz-adv-x="518" vert-adv-y="0" d="M275 644q21 0 34 -13t13 -34t-13 -34t-34 -13q-20 0 -33.5 13t-13.5 34t13.5 34t33.5 13zM75 477h70v-49q44 55 130 55q73 0 126.5 -49.5t53.5 -160.5v-273h-70v273q0 144 -120 144t-120 -144v-273h-70v477z" />
<glyph unicode="&#x1e5a;" horiz-adv-x="562" vert-adv-y="0" d="M286 -85q23 0 37 -14.5t14 -36.5t-14 -36.5t-37 -14.5t-37 14.5t-14 36.5t14 36.5t37 14.5zM282 667q94 0 149.5 -51t55.5 -154q0 -141 -106 -187l116 -275h-78l-109 258q-9 -1 -28 -1h-124v-257h-73v667h197zM282 327q131 0 131 135t-131 135h-123v-270h123z" />
<glyph unicode="&#x1e5b;" horiz-adv-x="378" vert-adv-y="0" d="M108 -85q23 0 37 -14.5t14 -36.5t-14 -36.5t-37 -14.5t-37 14.5t-14 36.5t14 36.5t37 14.5zM75 477h70v-49q44 55 130 55q30 0 58 -6l-10 -63q-25 3 -58 3q-120 0 -120 -144v-273h-70v477z" />
<glyph unicode="&#x1e62;" horiz-adv-x="541" vert-adv-y="0" d="M255 -85q23 0 37 -14.5t14 -36.5t-14 -36.5t-37 -14.5t-37 14.5t-14 36.5t14 36.5t37 14.5zM253 -6q-53 0 -109 16.5t-91 50.5l48 52q26 -25 68.5 -37t83.5 -12q65 0 102 31t37 91q0 59 -38.5 85.5t-104.5 37.5q-194 33 -194 179q0 92 57.5 138.5t143.5 46.5 q121 0 190 -65l-44 -55q-57 50 -146 50q-57 0 -92 -28t-35 -87q0 -51 35.5 -75t98.5 -36q43 -8 75.5 -20t63.5 -33t47.5 -56t16.5 -82q0 -90 -57.5 -141t-155.5 -51z" />
<glyph unicode="&#x1e63;" horiz-adv-x="436" vert-adv-y="0" d="M212 -85q23 0 37 -14.5t14 -36.5t-14 -36.5t-37 -14.5t-37 14.5t-14 36.5t14 36.5t37 14.5zM371 446l-32 -59q-50 30 -126 30q-93 0 -93 -68q0 -30 22.5 -43.5t76.5 -23.5q167 -28 167 -145q0 -72 -52.5 -107.5t-120.5 -35.5q-103 0 -170 45l32 59q52 -38 138 -38 q47 0 75 19t28 58q0 36 -27 53.5t-82 27.5q-23 4 -40 8t-40.5 14t-39 23t-26.5 35.5t-11 50.5q0 68 50 101t113 33q94 0 158 -37z" />
<glyph unicode="&#x1e6c;" horiz-adv-x="560" vert-adv-y="0" d="M280 -85q23 0 37 -14.5t14 -36.5t-14 -36.5t-37 -14.5t-37 14.5t-14 36.5t14 36.5t37 14.5zM55 667h450v-70h-188v-597h-74v597h-188v70z" />
<glyph unicode="&#x1e6d;" horiz-adv-x="370" vert-adv-y="0" d="M233 -85q23 0 37 -14.5t14 -36.5t-14 -36.5t-37 -14.5t-37 14.5t-14 36.5t14 36.5t37 14.5zM45 477h80v104h70v-104h110v-62h-110v-285q0 -32 14.5 -48t35.5 -16h80v-66h-80q-49 0 -84.5 33.5t-35.5 96.5v285h-80v62z" />
<glyph unicode="&#x1e80;" horiz-adv-x="802" vert-adv-y="0" d="M295 857h82l75 -121h-71zM35 667h75l142 -564l118 399h64l117 -398l141 563h75l-183 -667h-65l-117 390l-117 -390h-66z" />
<glyph unicode="&#x1e81;" horiz-adv-x="730" vert-adv-y="0" d="M259 667h82l75 -121h-71zM35 477h71l118 -374l111 374h60l112 -374l117 374h71l-158 -477h-60l-112 391l-111 -391h-60z" />
<glyph unicode="&#x1e82;" horiz-adv-x="802" vert-adv-y="0" d="M507 857l-86 -121h-71l75 121h82zM35 667h75l142 -564l118 399h64l117 -398l141 563h75l-183 -667h-65l-117 390l-117 -390h-66z" />
<glyph unicode="&#x1e83;" horiz-adv-x="730" vert-adv-y="0" d="M471 667l-86 -121h-71l75 121h82zM35 477h71l118 -374l111 374h60l112 -374l117 374h71l-158 -477h-60l-112 391l-111 -391h-60z" />
<glyph unicode="&#x1e84;" horiz-adv-x="802" vert-adv-y="0" d="M491 834q21 0 34 -13t13 -34t-13 -34t-34 -13t-34 13t-13 34t13 34t34 13zM311 834q21 0 34 -13t13 -34t-13 -34t-34 -13t-34 13t-13 34t13 34t34 13zM35 667h75l142 -564l118 399h64l117 -398l141 563h75l-183 -667h-65l-117 390l-117 -390h-66z" />
<glyph unicode="&#x1e85;" horiz-adv-x="730" vert-adv-y="0" d="M455 644q21 0 34 -13t13 -34t-13 -34t-34 -13t-34 13t-13 34t13 34t34 13zM275 644q21 0 34 -13t13 -34t-13 -34t-34 -13t-34 13t-13 34t13 34t34 13zM35 477h71l118 -374l111 374h60l112 -374l117 374h71l-158 -477h-60l-112 391l-111 -391h-60z" />
<glyph unicode="&#x1e92;" horiz-adv-x="540" vert-adv-y="0" d="M269 -85q23 0 37 -14.5t14 -36.5t-14 -36.5t-37 -14.5t-37 14.5t-14 36.5t14 36.5t37 14.5zM70 667h400v-50l-323 -547h333v-70h-420v50l322 547h-312v70z" />
<glyph unicode="&#x1e93;" horiz-adv-x="430" vert-adv-y="0" d="M216 -85q23 0 37 -14.5t14 -36.5t-14 -36.5t-37 -14.5t-37 14.5t-14 36.5t14 36.5t37 14.5zM55 477h320v-50l-234 -361h234v-66h-320v50l234 361h-234v66z" />
<glyph unicode="&#x1eb8;" vert-adv-y="0" d="M260 -85q23 0 37 -14.5t14 -36.5t-14 -36.5t-37 -14.5t-37 14.5t-14 36.5t14 36.5t37 14.5zM85 667h359v-70h-287v-219h237v-70h-235v-238h286v-70h-360v667z" />
<glyph unicode="&#x1eb9;" horiz-adv-x="496" vert-adv-y="0" d="M262 -85q23 0 37 -14.5t14 -36.5t-14 -36.5t-37 -14.5t-37 14.5t-14 36.5t14 36.5t37 14.5zM260 -6q-89 0 -145.5 54t-56.5 166v59q0 111 55 160.5t135 49.5q37 0 69 -10.5t60 -33.5t44.5 -66t16.5 -101v-54h-312v-4q0 -80 37 -118t97 -38q71 0 123 38l32 -57 q-68 -45 -155 -45zM126 282h244q0 72 -36 104.5t-86 32.5q-49 0 -84.5 -32t-37.5 -105z" />
<glyph unicode="&#x1ebc;" vert-adv-y="0" d="M208 799q-20 0 -31.5 -14.5t-11.5 -38.5h-50q0 43 25 73t66 30q47 0 76 -41q12 -18 34 -18q17 0 29 13.5t12 38.5h50q0 -46 -28 -74t-65 -28q-47 0 -74 40q-12 19 -32 19zM85 667h359v-70h-287v-219h237v-70h-235v-238h286v-70h-360v667z" />
<glyph unicode="&#x1ebd;" horiz-adv-x="496" vert-adv-y="0" d="M200 608q-20 0 -31.5 -14.5t-11.5 -38.5h-50q0 43 25 73t66 30q47 0 76 -41q12 -18 34 -18q17 0 29 13.5t12 38.5h50q0 -46 -28 -74t-65 -28q-47 0 -74 40q-12 19 -32 19zM260 -6q-89 0 -145.5 54t-56.5 166v59q0 111 55 160.5t135 49.5q37 0 69 -10.5t60 -33.5t44.5 -66 t16.5 -101v-54h-312v-4q0 -80 37 -118t97 -38q71 0 123 38l32 -57q-68 -45 -155 -45zM126 282h244q0 72 -36 104.5t-86 32.5q-49 0 -84.5 -32t-37.5 -105z" />
<glyph unicode="&#x1eca;" horiz-adv-x="244" vert-adv-y="0" d="M121 -85q23 0 37 -14.5t14 -36.5t-14 -36.5t-37 -14.5t-37 14.5t-14 36.5t14 36.5t37 14.5zM159 667v-667h-74v667h74z" />
<glyph unicode="&#x1ecb;" horiz-adv-x="232" vert-adv-y="0" d="M116 -60q23 0 37 -14.5t14 -36.5t-14 -36.5t-37 -14.5t-37 14.5t-14 36.5t14 36.5t37 14.5zM81 477h70v-477h-70v477zM115 644q21 0 34.5 -13t13.5 -34t-13.5 -34t-34.5 -13q-20 0 -33 13t-13 34t13 34t33 13z" />
<glyph unicode="&#x1ecc;" horiz-adv-x="600" vert-adv-y="0" d="M299 -85q23 0 37 -14.5t14 -36.5t-14 -36.5t-37 -14.5t-37 14.5t-14 36.5t14 36.5t37 14.5zM535 204q0 -109 -68 -159.5t-167 -50.5t-167 50.5t-68 159.5v259q0 109 68 159.5t167 50.5t167 -50.5t68 -159.5v-259zM139 204q0 -75 45.5 -107.5t115.5 -32.5t115.5 32.5 t45.5 107.5v259q0 75 -45.5 107.5t-115.5 32.5t-115.5 -32.5t-45.5 -107.5v-259z" />
<glyph unicode="&#x1ecd;" horiz-adv-x="500" vert-adv-y="0" d="M249 -85q23 0 37 -14.5t14 -36.5t-14 -36.5t-37 -14.5t-37 14.5t-14 36.5t14 36.5t37 14.5zM445 204q0 -111 -56 -160.5t-139 -49.5t-139 49.5t-56 160.5v69q0 111 56 160.5t139 49.5t139 -49.5t56 -160.5v-69zM125 204q0 -78 35.5 -111t89.5 -33t89.5 33t35.5 111v69 q0 78 -35.5 111t-89.5 33t-89.5 -33t-35.5 -111v-69z" />
<glyph unicode="&#x1ee4;" horiz-adv-x="580" vert-adv-y="0" d="M287 -85q23 0 37 -14.5t14 -36.5t-14 -36.5t-37 -14.5t-37 14.5t-14 36.5t14 36.5t37 14.5zM149 205q0 -75 40 -108t101 -33t101 33t40 108v462h74v-462q0 -57 -18 -99.5t-49.5 -66t-68.5 -34.5t-79 -11t-79 11t-68.5 34.5t-49.5 66t-18 99.5v462h74v-462z" />
<glyph unicode="&#x1ee5;" vert-adv-y="0" d="M254 -85q23 0 37 -14.5t14 -36.5t-14 -36.5t-37 -14.5t-37 14.5t-14 36.5t14 36.5t37 14.5zM375 204v273h70v-273q0 -111 -54.5 -160.5t-135.5 -49.5t-135.5 49.5t-54.5 160.5v273h70v-273q0 -78 34.5 -111t85.5 -33t85.5 33t34.5 111z" />
<glyph unicode="&#x1ef2;" horiz-adv-x="541" vert-adv-y="0" d="M164 857h82l75 -121h-71zM35 667h81l154 -309l157 309h79l-199 -390v-277h-74v277z" />
<glyph unicode="&#x1ef3;" horiz-adv-x="530" vert-adv-y="0" d="M159 666h82l75 -121h-71zM35 477h74l156 -396l156 396h74l-268 -662h-73l74 185z" />
<glyph unicode="&#x1ef8;" horiz-adv-x="541" vert-adv-y="0" d="M217 799q-20 0 -31.5 -14.5t-11.5 -38.5h-50q0 43 25 73t66 30q47 0 76 -41q12 -18 34 -18q17 0 29 13.5t12 38.5h50q0 -46 -28 -74t-65 -28q-47 0 -74 40q-12 19 -32 19zM35 667h81l154 -309l157 309h79l-199 -390v-277h-74v277z" />
<glyph unicode="&#x1ef9;" horiz-adv-x="530" vert-adv-y="0" d="M212 608q-20 0 -31.5 -14.5t-11.5 -38.5h-50q0 43 25 73t66 30q47 0 76 -41q12 -18 34 -18q17 0 29 13.5t12 38.5h50q0 -46 -28 -74t-65 -28q-47 0 -74 40q-12 19 -32 19zM35 477h74l156 -396l156 396h74l-268 -662h-73l74 185z" />
<glyph unicode="&#x2013;" horiz-adv-x="430" d="M80 284h270v-66h-270v66z" />
<glyph unicode="&#x2014;" horiz-adv-x="540" d="M80 284h380v-66h-380v66z" />
<glyph unicode="&#x2018;" horiz-adv-x="202" d="M101 450q-21 0 -36 13t-15 38q0 20 9 45l45 121h45l-29 -118q32 -11 32 -48q0 -25 -15 -38t-36 -13z" />
<glyph unicode="&#x2019;" horiz-adv-x="202" d="M101 673q21 0 36 -13t15 -38q0 -20 -9 -46l-45 -120h-45l29 118q-32 11 -32 48q0 25 15 38t36 13z" />
<glyph unicode="&#x201a;" horiz-adv-x="202" d="M101 96q21 0 36 -13t15 -38q0 -19 -9 -45l-45 -121h-45l29 118q-32 11 -32 48q0 25 15 38t36 13z" />
<glyph unicode="&#x201c;" horiz-adv-x="362" d="M101 450q-21 0 -36 13t-15 38q0 20 9 45l45 121h45l-29 -118q32 -11 32 -48q0 -25 -15 -38t-36 -13zM261 450q-21 0 -36 13t-15 38q0 20 9 45l45 121h45l-29 -118q32 -11 32 -48q0 -25 -15 -38t-36 -13z" />
<glyph unicode="&#x201d;" horiz-adv-x="362" d="M261 673q21 0 36 -13t15 -38q0 -20 -9 -46l-45 -120h-45l29 118q-32 11 -32 48q0 25 15 38t36 13zM101 673q21 0 36 -13t15 -38q0 -20 -9 -46l-45 -120h-45l29 118q-32 11 -32 48q0 25 15 38t36 13z" />
<glyph unicode="&#x201e;" horiz-adv-x="362" d="M261 98q21 0 36 -13t15 -38q0 -21 -9 -47l-45 -119h-45l29 119q-32 11 -32 47q0 25 15 38t36 13zM101 98q21 0 36 -13t15 -38q0 -21 -9 -47l-45 -119h-45l29 119q-32 11 -32 47q0 25 15 38t36 13z" />
<glyph unicode="&#x2020;" horiz-adv-x="354" vert-adv-y="0" d="M142 667h70v-190h87v-60h-87v-602h-70v602h-87v60h87v190z" />
<glyph unicode="&#x2021;" horiz-adv-x="354" vert-adv-y="0" d="M142 667h70v-190h87v-60h-87v-357h87v-60h-87v-185h-70v185h-87v60h87v357h-87v60h87v190z" />
<glyph unicode="&#x2022;" horiz-adv-x="325" vert-adv-y="0" d="M163 333q36 0 59 -23t23 -60t-23 -60t-59 -23q-37 0 -60 23t-23 60t23 60t60 23z" />
<glyph unicode="&#x2026;" horiz-adv-x="542" vert-adv-y="0" d="M101 96q23 0 37 -14t14 -37t-14 -37t-37 -14t-37 14t-14 37t14 37t37 14zM441 96q23 0 37 -14t14 -37t-14 -37t-37 -14t-37 14t-14 37t14 37t37 14zM271 96q23 0 37 -14t14 -37t-14 -37t-37 -14t-37 14t-14 37t14 37t37 14z" />
<glyph unicode="&#x2030;" horiz-adv-x="1022" vert-adv-y="0" d="M181 613q-23 0 -41 -17.5t-18 -50.5v-47q0 -33 18 -50.5t41 -17.5t41 17.5t18 50.5v47q0 33 -18 50.5t-41 17.5zM181 673q49 0 85 -33.5t36 -96.5v-43q0 -63 -36 -96.5t-85 -33.5t-85 33.5t-36 96.5v43q0 63 36 96.5t85 33.5zM841 237q-23 0 -41 -17.5t-18 -50.5v-47 q0 -33 18 -50.5t41 -17.5t41 17.5t18 50.5v47q0 33 -18 50.5t-41 17.5zM841 297q49 0 85 -33.5t36 -96.5v-43q0 -63 -36 -96.5t-85 -33.5t-85 33.5t-36 96.5v43q0 63 36 96.5t85 33.5zM531 237q-23 0 -41 -17.5t-18 -50.5v-47q0 -33 18 -50.5t41 -17.5t41 17.5t18 50.5v47 q0 33 -18 50.5t-41 17.5zM531 297q49 0 85 -33.5t36 -96.5v-43q0 -63 -36 -96.5t-85 -33.5t-85 33.5t-36 96.5v43q0 63 36 96.5t85 33.5zM496 667h74l-360 -667h-74z" />
<glyph unicode="&#x2032;" horiz-adv-x="304" d="M174 667h80l-135 -211h-69z" />
<glyph unicode="&#x2033;" horiz-adv-x="450" d="M324 667h76l-135 -211h-65zM174 667h76l-135 -211h-65z" />
<glyph unicode="&#x2034;" horiz-adv-x="600" d="M474 667h76l-135 -211h-65zM324 667h76l-135 -211h-65zM174 667h76l-135 -211h-65z" />
<glyph unicode="&#x2039;" horiz-adv-x="385" d="M223 437h82l-159 -187l159 -187h-82l-143 164v46z" />
<glyph unicode="&#x203a;" horiz-adv-x="385" d="M162 437l143 -164v-46l-143 -164h-82l159 187l-159 187h82z" />
<glyph unicode="&#x2044;" horiz-adv-x="424" vert-adv-y="0" d="M360 667h64l-360 -667h-64z" />
<glyph unicode="&#x20ac;" horiz-adv-x="601" vert-adv-y="0" d="M350 673q126 0 194 -89l-57 -44q-22 29 -50.5 44t-45 17t-41.5 2q-66 0 -108.5 -37.5t-42.5 -119.5v-22h261l-20 -56h-241v-69h221l-20 -56h-201v-21q0 -83 42 -120.5t109 -37.5q26 0 43 2t47 18.5t54 47.5l57 -44q-25 -33 -54.5 -54t-59.5 -28.5t-47 -9.5t-40 -2 q-97 0 -161 56t-64 172v21h-65l20 56h45v69h-65l20 56h45v22q0 116 64 171.5t161 55.5z" />
<glyph unicode="&#x20b9;" horiz-adv-x="565" vert-adv-y="0" d="M196 258l212 -258h-87l-209 258h-24v67h109q52 0 88.5 32.5t40.5 92.5h-256l30 67h218q-14 40 -46.5 61.5t-74.5 21.5h-127l30 67h400l-30 -67h-126q34 -34 46 -83h110l-30 -67h-73q-4 -93 -61 -142.5t-140 -49.5z" />
<glyph unicode="&#x20ba;" horiz-adv-x="514" vert-adv-y="0" d="M449 308v-80q0 -117 -65.5 -172.5t-169.5 -55.5h-74v267l-90 -45v61l90 45v79l-90 -45v61l90 45v199h74v-162l136 68v-61l-136 -68v-79l136 68v-61l-136 -68v-234q161 0 161 158v80h74z" />
<glyph unicode="&#x2122;" horiz-adv-x="668" vert-adv-y="0" d="M60 667h225v-45h-89v-288h-47v288h-89v45zM325 667h42l99 -194l100 194h42v-333h-46v240l-79 -158h-33l-79 157v-239h-46v333z" />
<glyph unicode="&#x2126;" horiz-adv-x="600" vert-adv-y="0" d="M250 0h-185v64h77q-77 75 -77 238v144q0 117 65.5 172t169.5 55t169.5 -55t65.5 -172v-144q0 -163 -77 -238h77v-64h-185v64q42 0 76.5 64t34.5 174v144q0 157 -161 157t-161 -157v-144q0 -110 34.5 -174t76.5 -64v-64z" />
<glyph unicode="&#x2206;" horiz-adv-x="649" d="M35 0l258 667h64l257 -667h-579zM514 68l-189 505l-189 -505h378z" />
<glyph unicode="&#x2211;" horiz-adv-x="500" vert-adv-y="0" d="M296 328l-141 -258h285v-70h-380v40l170 302l-170 285v40h379v-70h-284l141 -239v-30z" />
<glyph unicode="&#x2212;" horiz-adv-x="520" d="M80 279h360v-56h-360v56z" />
<glyph unicode="&#x221a;" horiz-adv-x="507" d="M35 278h65l145 -220l170 609h57l-188 -667h-61z" />
<glyph unicode="&#x221e;" horiz-adv-x="750" vert-adv-y="0" d="M234 366q-38 0 -66 -33t-28 -78t28 -78t66 -33q34 0 59.5 28.5t52.5 82.5q-27 54 -52.5 82.5t-59.5 28.5zM234 424q48 0 79 -28t63 -84q33 55 67.5 83.5t82.5 28.5q65 0 104.5 -48.5t39.5 -120.5t-39.5 -120.5t-104.5 -48.5q-48 0 -82.5 28.5t-67.5 83.5q-32 -56 -63 -84 t-79 -28q-66 0 -110 49t-44 120t44 120t110 49zM526 366q-59 0 -122 -111q63 -111 122 -111q37 0 60.5 32.5t23.5 78.5t-23.5 78.5t-60.5 32.5z" />
<glyph unicode="&#x222b;" horiz-adv-x="350" vert-adv-y="0" d="M205 -54q0 -64 -31.5 -97.5t-78.5 -33.5h-60v57h60q20 0 35 19.5t15 54.5v581q0 63 31.5 96.5t78.5 33.5h60v-57h-60q-20 0 -35 -19.5t-15 -53.5v-581z" />
<glyph unicode="&#x2248;" horiz-adv-x="520" vert-adv-y="0" d="M100 143l-32 41q55 54 112 54q46 0 94 -35q38 -30 68 -30q34 0 78 44l32 -42q-56 -56 -112 -56q-45 0 -94 38q-37 27 -66 27q-38 0 -80 -41zM100 283l-32 41q55 54 112 54q46 0 94 -35q38 -30 68 -30q34 0 78 44l32 -42q-56 -56 -112 -56q-45 0 -94 38q-37 27 -66 27 q-38 0 -80 -41z" />
<glyph unicode="&#x2260;" horiz-adv-x="520" d="M359 444h62l-66 -98h85v-52h-120l-58 -86h178v-52h-213l-66 -98h-62l66 98h-85v52h120l58 86h-178v52h213z" />
<glyph unicode="&#x2264;" horiz-adv-x="520" d="M80 151h360v-56h-360v56zM146 323l294 -77v-56l-360 100v66l360 100v-56z" />
<glyph unicode="&#x2265;" horiz-adv-x="520" d="M440 151v-56h-360v56h360zM374 323l-294 77v56l360 -100v-66l-360 -100v56z" />
<glyph unicode="&#x25fc;" horiz-adv-x="475" vert-adv-y="950" d="M0 475h475v-475h-475v475z" />
<glyph unicode="&#xe000;" horiz-adv-x="487" vert-adv-y="0" d="M348 170v59q-35 4 -71 4q-78 0 -114 -20.5t-36 -69.5q0 -36 30 -56.5t80 -20.5h111v104zM419 176v-176h-182q-76 0 -127.5 41t-51.5 108q0 68 57 106.5t160 38.5q41 0 73 -5q0 63 -28.5 93.5t-78.5 30.5h-153v64h153q78 0 128 -46t50 -141v-114z" />
<glyph unicode="&#xe001;" horiz-adv-x="500" vert-adv-y="0" d="M250 66q51 0 88 37.5t37 106.5v57q0 69 -37 106.5t-88 37.5h-105v-200v-145h105zM250 0h-175v210v457h70v-190h105q80 0 137.5 -54.5t57.5 -155.5v-56q0 -102 -57.5 -156.5t-137.5 -54.5z" />
<glyph unicode="&#xe002;" horiz-adv-x="425" vert-adv-y="0" d="M250 477h105v-66h-105q-51 0 -88 -37.5t-37 -106.5v-57q0 -69 36.5 -106.5t88.5 -37.5h115v-66h-115q-80 0 -137.5 54.5t-57.5 155.5v56q0 102 57.5 156.5t137.5 54.5z" />
<glyph unicode="&#xe003;" horiz-adv-x="500" vert-adv-y="0" d="M250 66h105v145v200h-105q-51 0 -88 -37.5t-37 -106.5v-57q0 -69 37 -106.5t88 -37.5zM250 0q-80 0 -137.5 54.5t-57.5 156.5v56q0 101 57.5 155.5t137.5 54.5h105v190h70v-457v-210h-175z" />
<glyph unicode="&#xe004;" horiz-adv-x="506" vert-adv-y="0" d="M263 0q-87 0 -146 51.5t-59 152.5v68q0 102 57.5 156.5t137.5 54.5t137.5 -55t57.5 -160v-50h-322v-14q0 -70 38.5 -104.5t98.5 -34.5l155 1v-66h-155zM126 282h254q0 63 -38 100t-89 37t-89 -35.5t-38 -101.5z" />
<glyph unicode="&#xe005;" horiz-adv-x="350" vert-adv-y="0" d="M75 518q0 63 35.5 96.5t84.5 33.5h100v-62h-100q-21 0 -35.5 -17t-14.5 -51v-41h130v-61h-130v-416h-70v518z" />
<glyph unicode="&#xe006;" horiz-adv-x="500" vert-adv-y="0" d="M250 477h175v-210v-57v-210h-175q-80 0 -137.5 54.5t-57.5 155.5v56q0 102 57.5 156.5t137.5 54.5zM250 411q-51 0 -88 -37.5t-37 -106.5v-57q0 -69 37 -106.5t88 -37.5h105v144v56v145h-105zM425 0q0 -78 -57 -131.5t-149 -53.5h-132v66h132q59 0 97.5 34.5t38.5 104.5z " />
<glyph unicode="&#xe007;" vert-adv-y="0" d="M260 477q78 0 131.5 -54t53.5 -156v-267h-70v266q0 71 -32.5 108t-82.5 37h-115v-411h-70v667h70v-190h115z" />
<glyph unicode="&#xe008;" horiz-adv-x="467" vert-adv-y="0" d="M427 0h-81l-152 220h-51v-220h-68v667h68v-387h36l151 197h82l-169 -216z" />
<glyph unicode="&#xe010;" horiz-adv-x="748" vert-adv-y="0" d="M511 477q73 0 122.5 -51.5t49.5 -128.5v-297h-70v296q0 46 -27.5 80.5t-72.5 34.5h-100v-411h-68v411h-200v-411h-70v477h436z" />
<glyph unicode="&#xe011;" vert-adv-y="0" d="M260 477q78 0 131.5 -54t53.5 -156v-267h-70v266q0 71 -32.5 108t-82.5 37h-115v-411h-70v477h70h115z" />
<glyph unicode="&#xe012;" horiz-adv-x="500" vert-adv-y="0" d="M250 411h-105v-145v-200h105q51 0 88 37.5t37 106.5v57q0 69 -37 106.5t-88 37.5zM250 477q80 0 137.5 -54.5t57.5 -156.5v-56q0 -101 -57.5 -155.5t-137.5 -54.5h-105v-190h-70v457v210h175z" />
<glyph unicode="&#xe013;" horiz-adv-x="500" vert-adv-y="0" d="M250 411q-51 0 -88 -37.5t-37 -106.5v-57q0 -69 37 -106.5t88 -37.5h105v200v145h-105zM250 477h175v-210v-457h-70v190h-105q-80 0 -137.5 54.5t-57.5 155.5v56q0 102 57.5 156.5t137.5 54.5z" />
<glyph unicode="&#xe014;" horiz-adv-x="379" vert-adv-y="0" d="M65 266q0 102 57.5 156.5t137.5 54.5h64v-66h-64q-51 0 -88 -38t-37 -107l-2 -266h-68v266z" />
<glyph unicode="&#xe015;" horiz-adv-x="436" vert-adv-y="0" d="M213 477h143v-66q-105 1 -143 1q-42 0 -67.5 -17.5t-25.5 -48.5q0 -29 21 -44t78 -25q167 -32 167 -145q0 -64 -48 -101t-126 -37h-152v65h152q104 0 104 73q0 60 -109 80q-74 13 -115.5 42.5t-41.5 91.5q0 63 50.5 97t112.5 34z" />
<glyph unicode="&#xe016;" horiz-adv-x="350" vert-adv-y="0" d="M75 130v477h70v-130h130v-61h-130v-286q0 -34 14.5 -51t35.5 -17h100v-62h-100q-49 0 -84.5 33.5t-35.5 96.5z" />
<glyph unicode="&#xe017;" horiz-adv-x="600" vert-adv-y="0" d="M75 0v446q0 117 62.5 172t162.5 55t162.5 -55t62.5 -172v-446h-74v165h-302v-165h-74zM451 235v211q0 157 -151 157t-151 -157v-211h302z" />
<glyph unicode="&#xe018;" horiz-adv-x="521" vert-adv-y="0" d="M290 0q-97 0 -161 56t-64 172v212q0 116 64 171.5t161 55.5h151v-70h-151q-66 0 -108.5 -37.5t-42.5 -119.5v-212q0 -83 42 -120.5t109 -37.5h161v-70h-161z" />
<glyph unicode="&#xe019;" horiz-adv-x="529" vert-adv-y="0" d="M290 667h151v-70h-151q-66 0 -108.5 -37.5t-42.5 -119.5v-218q0 -83 42 -120.5t109 -37.5t109 37.5t42 120.5v65h-138v70h212v-135q0 -116 -64 -172t-161 -56t-161 56t-64 172v218q0 116 64 171.5t161 55.5z" />
<glyph unicode="&#xe01a;" horiz-adv-x="471" vert-adv-y="0" d="M201 -6h-131v70h131q44 0 77.5 35.5t33.5 100.5v467h74v-467q0 -99 -55.5 -152.5t-129.5 -53.5z" />
<glyph unicode="&#xe01b;" horiz-adv-x="529" vert-adv-y="0" d="M256 597q-56 0 -91.5 -29.5t-35.5 -80.5t35 -74.5t99 -35.5q96 -18 149.5 -60t53.5 -128q0 -76 -59.5 -132.5t-150.5 -56.5h-191v70h191q61 0 98.5 34.5t37.5 84.5q0 56 -38.5 82t-104.5 38q-90 15 -142 55.5t-52 122.5q0 81 59.5 130.5t141.5 49.5h181v-70h-181z" />
<glyph unicode="&#xe01c;" horiz-adv-x="748" vert-adv-y="0" d="M143 276q0 62 35 101.5t90 39.5t90 -39.5t35 -101.5t-35 -101.5t-90 -39.5t-90 39.5t-35 101.5z" />
<glyph unicode="&#xe01d;" horiz-adv-x="1000" vert-adv-y="0" d="M317 517h388v-545h-388v545z" />
<glyph unicode="&#xe01e;" horiz-adv-x="1000" vert-adv-y="0" d="M317 517h388v-545h-388v545z" />
<glyph unicode="&#xe01f;" horiz-adv-x="1000" vert-adv-y="0" d="M317 517h388v-545h-388v545z" />
<glyph unicode="&#xe020;" horiz-adv-x="1000" vert-adv-y="0" d="M317 517h388v-545h-388v545z" />
<glyph unicode="&#xfb01;" horiz-adv-x="502" vert-adv-y="0" d="M45 477h60v60q0 63 35.5 96.5t84.5 33.5h60v-62h-60q-21 0 -35.5 -17t-14.5 -51v-60h246v-477h-70v416h-176v-416h-70v416h-60v61zM385 634q21 0 34.5 -13t13.5 -34t-13.5 -34t-34.5 -13q-20 0 -33 13t-13 34t13 34t33 13z" />
<glyph unicode="&#xfb02;" horiz-adv-x="496" vert-adv-y="0" d="M45 477h60v60q0 63 35.5 96.5t84.5 33.5h196v-667h-70v605h-126q-21 0 -35.5 -17t-14.5 -51v-60h100v-61h-100v-416h-70v416h-60v61z" />
</font>
</defs>
</svg>
