<?xml version="1.0" standalone="no"?>
<!DOCTYPE svg PUBLIC "-//W3C//DTD SVG 1.1//EN" "http://www.w3.org/Graphics/SVG/1.1/DTD/svg11.dtd" >
<svg xmlns="http://www.w3.org/2000/svg" xmlns:xlink="http://www.w3.org/1999/xlink" version="1.1">
<metadata></metadata>
<defs>
<font id="gidolebold" horiz-adv-x="570" vert-adv-y="1000" >
<font-face units-per-em="1000" ascent="760" descent="-240" />
<missing-glyph horiz-adv-x="330" />
<glyph unicode="&#xd;" horiz-adv-x="333" />
<glyph unicode=" "  horiz-adv-x="330" />
<glyph unicode="&#x09;" horiz-adv-x="330" />
<glyph unicode="&#xa0;" horiz-adv-x="330" />
<glyph unicode="!" horiz-adv-x="290" vert-adv-y="0" d="M79 60q0 28 19 47t47 19t47 -19t19 -47t-19 -47t-47 -19t-47 19t-19 47zM185 150h-82l-11 258v259h104v-259z" />
<glyph unicode="&#x22;" horiz-adv-x="342" d="M197 426l-7 241h103l-6 -241h-90zM57 456l-7 211h103l-6 -211h-90z" />
<glyph unicode="#" horiz-adv-x="670" vert-adv-y="0" d="M202 492l50 175h111l-43 -190h123l40 190h94l-40 -175h78v-87h-96l-30 -143h91v-87h-109l-40 -175h-94l40 190h-140l-50 -190h-94l40 180h-78v82h96l30 143h-91v87h112zM395 262l30 143h-128l-37 -143h135z" />
<glyph unicode="$" horiz-adv-x="575" vert-adv-y="0" d="M240 642v66h95v-63q109 -8 170 -84l9 -12l-77 -54l-9 11q-35 39 -93 45v-171q89 -20 137 -64t48 -112q0 -65 -46.5 -116.5t-119.5 -64.5v-64h-84v64q-98 13 -155 87l-9 11l74 55l9 -11q31 -40 81 -49l-30 188q-188 37 -188 167q0 70 51.5 115t136.5 56zM240 405v152 q-76 -20 -76 -80q0 -45 76 -72zM335 279l19 -169q32 11 49.5 34.5t17.5 54.5q0 24 -22.5 45t-63.5 35z" />
<glyph unicode="%" horiz-adv-x="772" vert-adv-y="0" d="M245 535q0 24 -14.5 36t-33.5 12q-18 0 -31.5 -11.5t-13.5 -36.5v-42q0 -25 13.5 -36.5t31.5 -11.5q7 0 13.5 1.5t13 5t11 9t7.5 14t3 18.5v42zM60 535q0 65 40.5 101.5t96.5 36.5q60 0 103.5 -36.5t43.5 -101.5v-42q0 -33 -12.5 -60t-33.5 -43.5t-47 -25.5t-54 -9 q-56 0 -96.5 36.5t-40.5 101.5v42zM126 0l401 667h113l-406 -667h-108zM620 174q0 25 -13.5 36.5t-31.5 11.5q-9 0 -17 -2.5t-15.5 -8t-11.5 -15t-4 -22.5v-42q0 -24 14 -36t34 -12q18 0 31.5 11.5t13.5 36.5v42zM426 174q1 44 23.5 76.5t55 47t70.5 14.5q56 0 96.5 -36.5 t40.5 -101.5v-42q0 -65 -41 -101.5t-96 -36.5q-60 0 -104.5 36.5t-44.5 101.5v42z" />
<glyph unicode="&#x26;" horiz-adv-x="662" d="M280 90q78 0 132 56v149h-132q-53 0 -86.5 -30.5t-33.5 -71.5t34 -72t86 -31zM169 483q0 -37 31 -64.5t80 -27.5h132v95h103v-95h92v-96h-92v-149q0 -51 67 -51h25v-95h-25q-23 0 -39.5 1.5t-43.5 13t-46 31.5q-61 -52 -173 -52q-100 0 -160 58.5t-60 139.5q0 31 9.5 60 t26 52.5t38.5 39.5q-19 16 -34 37.5t-23 48t-8 53.5q0 78 58 134t153 56q25 0 44.5 -2t50.5 -10t62 -29t59 -54l9 -12l-84 -59l-10 12q-50 58 -131 58q-48 0 -79.5 -28.5t-31.5 -65.5z" />
<glyph unicode="'" horiz-adv-x="202" d="M57 456l-7 211h103l-6 -211h-90z" />
<glyph unicode="(" horiz-adv-x="335" d="M305 -191h-15q-40 0 -76.5 13.5t-67 39.5t-48.5 69t-18 96v551q0 70 31.5 121.5t78 74.5t100.5 23h15v-88h-15q-50 0 -84 -34t-34 -99v-547q0 -62 37 -97t81 -35h15v-88z" />
<glyph unicode=")" horiz-adv-x="335" d="M45 -191h-15v88h15q30 0 56 13.5t44 44.5t18 74v547q0 63 -35.5 98t-82.5 35h-15v88h15q54 0 100.5 -23t78 -74.5t31.5 -121.5v-551q0 -70 -31.5 -121t-78 -74t-100.5 -23z" />
<glyph unicode="*" horiz-adv-x="382" vert-adv-y="0" d="M156 613l-3 54h83l-2 -54l81 28l25 -79l-82 -23l52 -67l-67 -49l-48 70l-48 -70l-66 48l51 68l-82 24l25 79z" />
<glyph unicode="+" horiz-adv-x="580" d="M80 208v86h156v152h108v-152h156v-86h-156v-152h-108v152h-156z" />
<glyph unicode="," horiz-adv-x="232" d="M51 30q0 31 20 48.5t46 17.5q12 0 23.5 -4t21 -12t15.5 -21t6 -29q0 -22 -10 -50l-48 -101h-75l31 95q-30 18 -30 56z" />
<glyph unicode="-" horiz-adv-x="400" d="M80 188v96h240v-96h-240z" />
<glyph unicode="." horiz-adv-x="232" vert-adv-y="0" d="M50 30q0 28 19 47t47 19t47 -19t19 -47t-19 -47t-47 -19t-47 19t-19 47z" />
<glyph unicode="/" horiz-adv-x="382" vert-adv-y="0" d="M288 797h93l-278 -927h-93z" />
<glyph unicode="0" horiz-adv-x="580" d="M515 467v-267q0 -54 -18.5 -94.5t-50.5 -64.5t-71 -35.5t-85 -11.5t-85 11.5t-71 35.5t-50.5 64.5t-18.5 94.5v267q0 54 18.5 94.5t50.5 64.5t71 35.5t85 11.5t85 -11.5t71 -35.5t50.5 -64.5t18.5 -94.5zM169 465v-263q0 -58 33.5 -83t87.5 -25t87.5 25t33.5 83v263 q0 58 -33.5 83t-87.5 25t-87.5 -25t-33.5 -83z" />
<glyph unicode="1" horiz-adv-x="351" d="M55 603l134 64h82v-667h-104v548l-65 -34z" />
<glyph unicode="2" horiz-adv-x="575" d="M387 480q0 42 -28.5 67.5t-84.5 25.5q-87 0 -140 -46l-12 -11l-62 78l10 10q73 69 204 69q104 0 160.5 -53.5t56.5 -136.5q0 -38 -13 -76t-54 -87l-204 -224h300v-96h-455v67l275 311q27 29 37 52t10 50z" />
<glyph unicode="3" horiz-adv-x="571" vert-adv-y="0" d="M502 192q0 -86 -59 -142t-166 -56q-141 0 -215 71l-11 10l68 74l11 -10q24 -23 64 -34t83 -11q61 0 91 26.5t30 73.5q0 99 -121 99h-97v100h97q55 0 83.5 24t28.5 66q0 27 -12 47t-37.5 31.5t-62.5 11.5q-86 0 -141 -46l-12 -11l-62 78l10 10q73 69 205 69 q103 0 159.5 -53.5t56.5 -136.5q0 -86 -66 -139q35 -26 55 -65t20 -87z" />
<glyph unicode="4" horiz-adv-x="590" d="M60 216l219 451h122l-221 -419h193v164h105v-164h57v-98h-57v-150h-100v150h-318v66z" />
<glyph unicode="5" horiz-adv-x="572" d="M513 212q0 -112 -61 -165t-165 -53q-61 0 -118.5 17t-95.5 54l-11 10l68 74l11 -10q24 -23 64 -34t82 -11q59 0 90.5 26.5t31.5 91.5q0 105 -121 105q-56 0 -104 -25l-7 -4l-84 36v343h379v-100h-275v-164q43 14 91 14q101 0 163 -51.5t62 -153.5z" />
<glyph unicode="6" d="M285 94q59 0 90 26.5t31 92t-31 92t-90 26.5t-90 -26.5t-31 -92t31 -92t90 -26.5zM394 667l-147 -238q18 2 38 2q103 0 164 -53.5t61 -165t-61 -165t-164 -53.5t-164 53t-61 163q0 48 12.5 91.5t50.5 114.5l143 251h128z" />
<glyph unicode="7" horiz-adv-x="565" d="M55 571v96h450v-65l-297 -602h-112l282 571h-323z" />
<glyph unicode="8" d="M408 194q0 101 -123 101t-123 -101q0 -47 31 -74.5t92 -27.5t92 27.5t31 74.5zM399 483q0 27 -12 47.5t-38 32.5t-64 12q-56 0 -85 -25t-29 -67q0 -43 29 -67.5t85 -24.5t85 24.5t29 67.5zM69 483q0 83 56.5 136.5t159.5 53.5t159.5 -53.5t56.5 -136.5q0 -86 -66 -139 q35 -26 55 -65t20 -87q0 -86 -59 -142t-166 -56t-166 56t-59 142q0 32 10 61.5t26.5 52t38.5 38.5q-66 53 -66 139z" />
<glyph unicode="9" d="M287 573q-57 0 -88 -26.5t-31 -92t31 -92t88 -26.5t88 26.5t31 91.5q0 23 -4 41.5t-11.5 31.5t-18 22t-24 14t-28.5 7.5t-33 2.5zM181 0l143 238q-18 -2 -37 -2q-103 0 -165 53.5t-62 165t62 165t165 53.5q49 0 88.5 -12.5t70 -37.5t47.5 -67.5t17 -98.5 q0 -48 -12.5 -91.5t-50.5 -114.5l-142 -251h-124z" />
<glyph unicode=":" horiz-adv-x="232" vert-adv-y="0" d="M50 60q0 28 19 47t47 19t47 -19t19 -47t-19 -47t-47 -19t-47 19t-19 47zM50 334q0 28 19 47t47 19t47 -19t19 -47t-19 -47t-47 -19t-47 19t-19 47z" />
<glyph unicode=";" horiz-adv-x="232" vert-adv-y="0" d="M51 60q0 31 20 48.5t46 17.5q12 0 23.5 -4t21 -12t15.5 -21t6 -29q0 -22 -10 -50l-48 -131h-75l31 125q-30 18 -30 56zM51 334q0 28 18.5 47t47 19t47 -19t18.5 -47t-18.5 -47t-47 -19t-47 19t-18.5 47z" />
<glyph unicode="&#x3c;" horiz-adv-x="580" d="M80 294l420 184v-100l-316 -127l316 -114v-99l-420 170v86z" />
<glyph unicode="=" horiz-adv-x="580" d="M80 275v86h420v-86h-420zM80 141v86h420v-86h-420z" />
<glyph unicode="&#x3e;" horiz-adv-x="580" d="M80 478l420 -184v-86l-420 -170v99l316 114l-316 127v100z" />
<glyph unicode="?" horiz-adv-x="528" vert-adv-y="0" d="M309 150h-106v72q0 53 28.5 92.5t86.5 71.5q30 16 43.5 36t13.5 53q0 46 -33.5 72t-87.5 26q-75 0 -118 -51l-9 -11l-82 62l10 12q33 42 85.5 65t113.5 23q96 0 160.5 -53.5t64.5 -144.5q0 -110 -91 -167q-42 -24 -58 -44t-18 -54zM181 60q0 28 22 47t55.5 19t56 -19 t22.5 -47t-22.5 -47t-55.5 -19q-22 0 -40 8.5t-28 23.5t-10 34z" />
<glyph unicode="@" horiz-adv-x="954" vert-adv-y="0" d="M349 578v96h96q197 0 300.5 -87.5t103.5 -282.5l30 -259q0 -121 -74.5 -178t-203.5 -57h-264q-56 0 -102 13.5t-82.5 41t-57 74t-20.5 109.5v211q0 63 20.5 109.5t57 74t82 41t100.5 13.5h121q88 0 144.5 -50t56.5 -151l4 -296h-98v33q-55 -39 -128 -39 q-79 0 -133.5 43.5t-54.5 113.5q0 27 8 50.5t23.5 40.5t36.5 30t48 21t57.5 12t64.5 4q37 0 67 -3q-7 97 -96 97h-121q-47 0 -80.5 -13.5t-54.5 -46.5t-21 -85v-209q0 -141 158 -141h264q38 0 69 7.5t56.5 23t40 43t14.5 65.5l-30 256q0 150 -75 212.5t-231 62.5h-96z M502 218q-30 0 -53.5 -2.5t-46.5 -9t-35.5 -20.5t-12.5 -35q0 -28 23.5 -45t65.5 -17q50 0 85 27.5t35 79.5v20q-30 2 -61 2z" />
<glyph unicode="A" horiz-adv-x="669" d="M35 0l260 667h92l260 -667h-107l-62 165h-273l-62 -165h-108zM442 250l-101 274l-101 -274h202z" />
<glyph unicode="B" horiz-adv-x="610" vert-adv-y="0" d="M451 196q0 42 -35 70t-111 28h-116v-195h116q146 0 146 97zM85 667h220q114 0 172.5 -51.5t58.5 -135.5q0 -85 -66 -136q85 -59 85 -149q0 -87 -63 -141t-187 -54h-220v667zM431 480q0 41 -31.5 64.5t-94.5 23.5h-116v-176h116q62 0 94 23t32 65z" />
<glyph unicode="C" horiz-adv-x="601" vert-adv-y="0" d="M321 573q-32 0 -57 -5.5t-46.5 -18.5t-33.5 -36.5t-12 -57.5v-243q0 -118 149 -118q40 0 79.5 11t64.5 34l12 10l69 -74l-11 -10q-38 -37 -96.5 -54t-117.5 -17q-50 0 -94 11.5t-81.5 35.5t-59 67.5t-21.5 100.5v249q0 46 14.5 83.5t38.5 61.5t57.5 40t69.5 23t76 7 q129 0 204 -69l10 -10l-63 -78l-13 11q-58 46 -138 46z" />
<glyph unicode="D" horiz-adv-x="650" vert-adv-y="0" d="M315 667q67 0 117.5 -15t81.5 -42.5t46 -64.5t15 -83v-257q0 -95 -64 -150t-196 -55h-230v667h230zM315 100q86 0 121 26t35 81v253q0 55 -35 81t-121 26h-126v-467h126z" />
<glyph unicode="E" vert-adv-y="0" d="M85 0v667h419v-100h-317v-174h267v-100h-265v-193h316v-100h-420z" />
<glyph unicode="F" horiz-adv-x="564" vert-adv-y="0" d="M85 0v667h419v-100h-315v-174h265v-100h-265v-293h-104z" />
<glyph unicode="G" horiz-adv-x="640" vert-adv-y="0" d="M460 527q-58 46 -139 46q-149 0 -149 -118v-243q0 -118 149 -118q67 0 108.5 25.5t41.5 80.5v72h-152v100h256v-171q0 -55 -21.5 -96t-58 -64.5t-80 -35t-94.5 -11.5q-50 0 -94 11.5t-81.5 35.5t-59 67.5t-21.5 100.5v249q0 57 21.5 100.5t59 67.5t81.5 35.5t94 11.5 q131 0 204 -69l10 -10l-62 -78z" />
<glyph unicode="H" horiz-adv-x="670" vert-adv-y="0" d="M85 0v667h104v-274h292v274h104v-667h-104v293h-292v-293h-104z" />
<glyph unicode="I" horiz-adv-x="274" vert-adv-y="0" d="M85 667h104v-667h-104v667z" />
<glyph unicode="J" horiz-adv-x="551" vert-adv-y="0" d="M377 213v454h104v-458q0 -109 -63 -162t-166 -53q-135 0 -190 90l-7 11l78 63l9 -13q35 -51 110 -51q125 0 125 119z" />
<glyph unicode="K" horiz-adv-x="644" vert-adv-y="0" d="M189 245v-245h-104v667h104v-316l289 316h125l-288 -310l299 -357h-124l-251 298z" />
<glyph unicode="L" horiz-adv-x="580" vert-adv-y="0" d="M85 0v667h104v-567h336v-100h-440z" />
<glyph unicode="M" horiz-adv-x="801" vert-adv-y="0" d="M85 0v667h89l226 -406l226 406h90v-667h-105v466l-167 -301h-88l-166 299v-464h-105z" />
<glyph unicode="N" horiz-adv-x="670" vert-adv-y="0" d="M85 0v667h89l307 -479v479h104v-667h-89l-305 479v-479h-106z" />
<glyph unicode="O" horiz-adv-x="660" vert-adv-y="0" d="M595 458v-249q0 -57 -22 -100.5t-60.5 -67.5t-84 -35.5t-98.5 -11.5t-98.5 11.5t-84 35.5t-60.5 67.5t-22 100.5v249q0 46 14.5 83.5t39.5 61.5t59.5 40t72 23t79.5 7q53 0 98.5 -11.5t84 -35.5t60.5 -67.5t22 -100.5zM169 455v-243q0 -118 161 -118t161 118v243 q0 118 -161 118t-161 -118z" />
<glyph unicode="P" horiz-adv-x="592" vert-adv-y="0" d="M189 342h98q75 0 110.5 26t35.5 86.5t-35.5 86.5t-110.5 26h-98v-225zM85 667h202q119 0 184.5 -52.5t65.5 -160t-65.5 -160t-184.5 -52.5h-99v-242h-103v667z" />
<glyph unicode="Q" horiz-adv-x="660" vert-adv-y="0" d="M172 455v-243q0 -118 159.5 -118t159.5 118v243q0 118 -159.5 118t-159.5 -118zM595 209q0 -110 -78 -167l93 -59l-53 -84l-160 100q-32 -5 -66 -5q-52 0 -97.5 11.5t-84.5 35.5t-61.5 67.5t-22.5 100.5v249q0 57 22.5 100.5t61.5 67.5t84.5 35.5t98 11.5t97.5 -11.5 t83.5 -35.5t60.5 -67.5t22 -101.5v-248z" />
<glyph unicode="R" horiz-adv-x="622" vert-adv-y="0" d="M85 667h228q108 0 171 -52.5t63 -158.5q0 -134 -103 -185l121 -271h-111l-121 242h-20h-122v-242h-106v667zM193 342h120q65 0 97.5 26t32.5 86q0 25 -5.5 44t-16.5 32t-27 21.5t-36 12t-45 3.5h-120v-225z" />
<glyph unicode="S" horiz-adv-x="601" vert-adv-y="0" d="M532 191q0 -93 -65 -145t-179 -52q-62 0 -124 17t-100 54l-11 10l68 74l11 -10q23 -22 68 -33.5t88 -11.5q140 0 140 102q0 48 -37.5 70.5t-109.5 32.5q-220 30 -220 184q0 64 32 108t82.5 63t116.5 19q56 0 115.5 -15.5t99.5 -53.5l10 -10l-62 -78l-12 11 q-55 46 -151 46q-127 0 -127 -95q0 -42 34.5 -61.5t103.5 -30.5q38 -6 68.5 -14t61.5 -23.5t52 -35.5t34 -51.5t13 -70.5z" />
<glyph unicode="T" horiz-adv-x="620" vert-adv-y="0" d="M55 567v100h510v-100h-197l9 -567h-104l-21 567h-197z" />
<glyph unicode="U" horiz-adv-x="640" vert-adv-y="0" d="M179 667v-453q0 -120 141 -120t141 120v453h104v-457q0 -58 -20.5 -101t-55.5 -67.5t-77.5 -36t-91.5 -11.5t-91.5 11.5t-77.5 36t-55.5 67.5t-20.5 101v457h104z" />
<glyph unicode="V" horiz-adv-x="669" d="M295 0l-260 667h109l197 -530l198 530h108l-260 -667h-92z" />
<glyph unicode="W" horiz-adv-x="862" vert-adv-y="0" d="M227 0l-192 667h106l132 -522l118 357h91l118 -356l130 521h106l-191 -667h-87l-121 353l-121 -353h-89z" />
<glyph unicode="X" horiz-adv-x="627" vert-adv-y="0" d="M255 334l-209 333h118l161 -261l164 261h115l-208 -333l208 -334h-116l-163 262l-164 -262h-116z" />
<glyph unicode="Y" horiz-adv-x="601" vert-adv-y="0" d="M252 276l-217 391h115l159 -291l163 291h113l-218 -391v-276h-115v276z" />
<glyph unicode="Z" horiz-adv-x="600" vert-adv-y="0" d="M70 567v100h460v-66l-341 -501h351v-100h-480v66l338 501h-328z" />
<glyph unicode="[" horiz-adv-x="299" vert-adv-y="0" d="M85 -190v987h184v-87h-94v-813h94v-87h-184z" />
<glyph unicode="\" horiz-adv-x="382" vert-adv-y="0" d="M10 797h93l278 -927h-93z" />
<glyph unicode="]" horiz-adv-x="299" vert-adv-y="0" d="M30 797h184v-987h-184v87h94v813h-94v87z" />
<glyph unicode="^" horiz-adv-x="458" d="M340 516l-88 98l-88 -98h-114l173 151h59l173 -151h-115z" />
<glyph unicode="_" horiz-adv-x="500" vert-adv-y="0" d="M35 -96v96h430v-96h-430z" />
<glyph unicode="`" horiz-adv-x="282" d="M157 516l-107 151h114l94 -151h-101z" />
<glyph unicode="a" horiz-adv-x="541" vert-adv-y="0" d="M97 444q68 39 172 39q93 0 148.5 -48.5t55.5 -147.5v-287h-98v33q-53 -39 -137 -39q-80 0 -131.5 43t-51.5 114q0 158 247 158q44 0 72 -3q-7 83 -105 83q-78 0 -125 -28l-14 -8l-45 84zM312 218q-22 0 -39.5 -1t-36.5 -3.5t-33 -7t-26 -12t-18 -18.5t-6 -25 q0 -18 10 -32t31.5 -22t52.5 -8q55 0 91.5 28.5t36.5 87.5v11q-28 2 -63 2z" />
<glyph unicode="b" horiz-adv-x="580" vert-adv-y="0" d="M525 271v-65q0 -58 -19 -101t-50.5 -66t-67 -34t-75.5 -11q-81 0 -134 37v-31h-104v667h104v-221q53 37 134 37q40 0 75.5 -11t67 -34t50.5 -66t19 -101zM302 387q-20 0 -37 -3t-33.5 -11t-27.5 -20.5t-18 -33.5t-7 -49v-63q0 -117 123 -117t123 117v63q0 34 -10 58 t-28.5 36.5t-39 17.5t-45.5 5z" />
<glyph unicode="c" horiz-adv-x="505" vert-adv-y="0" d="M169 207q0 -117 123 -117q56 0 100 34l15 12l50 -85l-9 -8q-19 -16 -42 -26.5t-52 -16.5t-62 -6q-46 0 -84.5 11t-71.5 34.5t-52 66t-19 100.5v65q0 58 19 100.5t52 66t71.5 34.5t84.5 11q88 0 145 -40l11 -8l-51 -85l-15 10q-43 27 -90 27q-122 -2 -123 -117v-63z" />
<glyph unicode="d" horiz-adv-x="580" vert-adv-y="0" d="M268 -6q-40 0 -76 11t-68 34t-50.5 66t-18.5 101v65q0 58 18.5 101t50.5 66t68 34t76 11q86 0 137 -37v221h100v-667h-100v31q-9 -7 -19.5 -12.5t-21 -9.5t-22 -7t-24 -4.5t-25 -2.5t-25.5 -1zM405 207v63q0 117 -125 117t-125 -117v-63q0 -117 125 -117t125 117z" />
<glyph unicode="e" horiz-adv-x="556" vert-adv-y="0" d="M468 42q-71 -48 -175 -48t-169.5 54.5t-65.5 166.5v56q0 57 19 100t51 66.5t70 34.5t82 11t81 -11t69 -35t50 -67t18 -102v-65h-338q6 -115 133 -115q76 0 126 35l14 10l47 -84zM280 389q-108 0 -119 -92h238q-4 49 -37.5 70.5t-81.5 21.5z" />
<glyph unicode="f" horiz-adv-x="400" vert-adv-y="0" d="M45 386v91h80v45q0 69 40.5 107t94.5 38h95v-92h-95q-35 0 -35 -53v-45h110v-91h-110v-386h-100v386h-80z" />
<glyph unicode="g" horiz-adv-x="580" vert-adv-y="0" d="M405 15v16q-55 -37 -138 -37q-40 0 -75.5 11t-67.5 34t-50.5 66t-18.5 101v65q0 58 18.5 101t50.5 66t67.5 34t75.5 11q83 0 138 -37v31h100v-462q0 -86 -65 -145.5t-174 -59.5t-180 48l-12 7l47 86l14 -10q48 -35 131 -35q63 0 101 31.5t38 77.5zM405 207v63 q0 117 -127 117q-123 0 -123 -117v-63q0 -117 123 -117q127 0 127 117z" />
<glyph unicode="h" horiz-adv-x="578" vert-adv-y="0" d="M175 267v-267h-100v667h100v-218q52 34 131 34q41 0 76 -11t66 -34t49 -66t18 -101v-271h-100v267q0 68 -32.5 94t-87.5 26q-26 0 -46 -5t-37.5 -17.5t-27 -37t-9.5 -60.5z" />
<glyph unicode="i" horiz-adv-x="262" vert-adv-y="0" d="M81 0v477h100v-477h-100zM69 582q0 27 17.5 44.5t43.5 17.5q27 0 45 -17.5t18 -44.5t-18 -44.5t-45 -17.5q-26 0 -43.5 17.5t-17.5 44.5z" />
<glyph unicode="j" horiz-adv-x="261" vert-adv-y="0" d="M180 477v-517q0 -69 -40.5 -107t-94.5 -38h-45v92h45q35 0 35 53v517h100zM68 582q0 27 18 44.5t44 17.5q27 0 44.5 -17.5t17.5 -44.5t-17.5 -44.5t-44.5 -17.5q-26 0 -44 17.5t-18 44.5z" />
<glyph unicode="k" horiz-adv-x="529" vert-adv-y="0" d="M75 0v667h100v-409l192 219h122l-191 -219l205 -258h-118l-163 201l-47 -54v-147h-100z" />
<glyph unicode="l" horiz-adv-x="250" vert-adv-y="0" d="M75 0v667h100v-667h-100z" />
<glyph unicode="m" horiz-adv-x="860" vert-adv-y="0" d="M75 477h104v-29q51 35 115 35q92 0 141 -64q55 64 169 64q34 0 65.5 -9.5t61 -31t47 -62t17.5 -95.5v-285h-100v282q0 33 -9 55t-25.5 32t-32 14t-36.5 4q-20 0 -36 -3.5t-32.5 -14t-25.5 -32.5t-9 -56v-281h-104v282q0 33 -9 55t-25.5 32t-32 14t-36.5 4q-20 0 -36 -3.5 t-32.5 -14t-25.5 -32.5t-9 -56v-281h-104v477z" />
<glyph unicode="n" horiz-adv-x="578" vert-adv-y="0" d="M75 0v477h104v-28q51 34 129 34q40 0 75 -11t65.5 -34t48.5 -66t18 -101v-271h-100v267q0 68 -32 94t-86 26q-25 0 -45 -5t-37 -17.5t-26.5 -37t-9.5 -60.5v-267h-104z" />
<glyph unicode="o" horiz-adv-x="560" vert-adv-y="0" d="M505 271v-65q0 -58 -18.5 -100.5t-50.5 -66t-70.5 -34.5t-84 -11t-84 11t-71.5 34.5t-52 66t-19 100.5v65q0 58 19 100.5t52 66t71.5 34.5t84 11t84 -11t70.5 -34.5t50.5 -66t18.5 -100.5zM159 270v-63q0 -117 123 -117t123 117v63q0 34 -10 58t-28.5 36.5t-39 17.5 t-45.5 5q-122 -2 -123 -117z" />
<glyph unicode="p" horiz-adv-x="580" vert-adv-y="0" d="M313 -6q-83 0 -138 37v-221h-100v667h100v-31q55 37 138 37q40 0 75.5 -11t67.5 -34t50.5 -66t18.5 -101v-65q0 -58 -18.5 -101t-50.5 -66t-67.5 -34t-75.5 -11zM302 387q-127 0 -127 -117v-63q0 -117 127 -117q123 0 123 117v63q0 117 -123 117z" />
<glyph unicode="q" horiz-adv-x="580" vert-adv-y="0" d="M405 -190v221q-55 -37 -138 -37q-40 0 -75.5 11t-67.5 34t-50.5 66t-18.5 101v65q0 58 18.5 101t50.5 66t67.5 34t75.5 11q83 0 138 -37v31h100v-667h-100zM405 207v63q0 117 -127 117q-123 0 -123 -117v-63q0 -117 123 -117q127 0 127 117z" />
<glyph unicode="r" horiz-adv-x="408" vert-adv-y="0" d="M75 0v477h100v-28q45 34 115 34q31 0 61 -6l14 -3l-14 -92l-15 2q-24 3 -56 3q-48 0 -76.5 -26t-28.5 -94v-267h-100z" />
<glyph unicode="s" horiz-adv-x="496" vert-adv-y="0" d="M428 444l12 -7l-48 -86l-15 8q-50 28 -128 28q-85 0 -85 -49q0 -21 19 -30.5t75 -18.5q192 -28 192 -148q0 -39 -18.5 -68.5t-49 -46t-64.5 -24.5t-69 -8q-49 0 -102.5 12t-91.5 36l-12 7l51 86l15 -10q25 -17 65.5 -26t74.5 -9q96 0 96 58q0 26 -24.5 39t-80.5 22 q-21 3 -36.5 6t-39 9.5t-41 16.5t-34 24t-25 34.5t-8.5 45.5q0 36 18.5 64.5t48.5 43.5t62 22.5t64 7.5q107 0 179 -39z" />
<glyph unicode="t" horiz-adv-x="400" vert-adv-y="0" d="M45 385v92h80v104h100v-104h110v-92h-110v-245q0 -23 10.5 -33.5t24.5 -10.5h95v-96h-95q-54 0 -94.5 35.5t-40.5 99.5v250h-80z" />
<glyph unicode="u" vert-adv-y="0" d="M285 90q120 0 120 120v267h100v-271q0 -58 -18 -100.5t-49.5 -66t-69.5 -34.5t-83 -11t-83 11t-69.5 34.5t-49.5 66t-18 100.5v271h100v-267q0 -120 120 -120z" />
<glyph unicode="v" horiz-adv-x="567" d="M245 0l-210 477h106l150 -359l149 359h106l-210 -477h-91z" />
<glyph unicode="w" horiz-adv-x="820" d="M204 0l-169 477h103l106 -338l131 338h82l101 -338l136 338h103l-198 -477h-82l-101 351l-130 -351h-82z" />
<glyph unicode="x" horiz-adv-x="514" vert-adv-y="0" d="M200 238l-160 239h114l115 -176l116 176h112l-160 -239l160 -238h-114l-114 176l-117 -176h-112z" />
<glyph unicode="y" horiz-adv-x="590" vert-adv-y="0" d="M35 477h106l161 -350l161 350h107l-299 -662h-116l89 191z" />
<glyph unicode="z" horiz-adv-x="490" vert-adv-y="0" d="M55 381v96h380v-64l-249 -317h249v-96h-380v64l249 317h-249z" />
<glyph unicode="{" horiz-adv-x="354" vert-adv-y="0" d="M285 797h29v-86h-29q-20 0 -31.5 -6.5t-16.5 -23t-5 -46.5v-206q0 -74 -50 -117q50 -46 50 -123v-215q0 -45 11.5 -62t41.5 -17h29v-86h-29q-68 0 -106.5 40.5t-38.5 124.5v223q0 76 -61 76h-19v80h19q31 0 46 14.5t15 53.5v216q0 81 38.5 120.5t106.5 39.5z" />
<glyph unicode="|" horiz-adv-x="262" vert-adv-y="0" d="M85 797h92v-982h-92v982z" />
<glyph unicode="}" horiz-adv-x="354" vert-adv-y="0" d="M40 711v86h29q68 0 106.5 -39.5t38.5 -120.5v-216q0 -21 4 -34.5t12.5 -20.5t19 -10t25.5 -3h19v-80h-19q-61 0 -61 -76v-223q0 -84 -38.5 -124.5t-106.5 -40.5h-29v86h29q30 0 41.5 16.5t11.5 62.5v215q0 77 50 123q-50 43 -50 117v206q0 44 -11.5 60t-41.5 16h-29z" />
<glyph unicode="~" horiz-adv-x="580" vert-adv-y="0" d="M130 183l-13 -13l-51 78l9 9q16 15 31.5 26t31.5 18t31.5 10.5t32.5 3.5q65 0 122 -38q42 -28 68 -28q27 0 67 40l13 13l51 -78l-9 -9q-32 -30 -63 -45.5t-64 -15.5q-58 0 -122 41q-18 12 -34.5 18t-31.5 6q-33 0 -69 -36z" />
<glyph unicode="&#xa1;" horiz-adv-x="290" vert-adv-y="0" d="M79 437q0 28 19 47t47 19t47 -19t19 -47t-19 -47t-47 -19t-47 19t-19 47zM92 74l11 258h82l11 -258v-259h-104v259z" />
<glyph unicode="&#xa2;" horiz-adv-x="500" vert-adv-y="0" d="M250 510v83h80v-82q74 -10 118 -48l10 -9l-55 -78l-13 10q-25 21 -60 27v-320q36 6 64 32l12 11l59 -75l-10 -10q-48 -46 -125 -55v-82h-80v83q-91 13 -145.5 69.5t-54.5 152.5v68q0 96 55 153t145 70zM250 81v315q-93 -25 -93 -123v-69q0 -100 93 -123z" />
<glyph unicode="&#xa3;" horiz-adv-x="581" vert-adv-y="0" d="M122 368v75q0 59 18.5 104.5t50 72t70 40t83.5 13.5q101 0 174 -95l9 -12l-81 -62l-9 12q-14 17 -27 29t-20.5 17.5t-18.5 8t-14 2.5h-13q-46 0 -78.5 -30.5t-32.5 -100.5v-74h209v-91h-209v-182h279v-95h-452v95h62v182h-60v91h60z" />
<glyph unicode="&#xa5;" horiz-adv-x="611" vert-adv-y="0" d="M163 439l-123 228h113l161 -297l165 297h111l-125 -232h69v-82h-124l-22 -39h136l30 -86h-173v-228h-104v228h-173v86h137l-22 39h-125v86h69z" />
<glyph unicode="&#xa6;" horiz-adv-x="262" vert-adv-y="0" d="M85 0v294h92v-294h-92zM85 374v293h92v-293h-92z" />
<glyph unicode="&#xa7;" horiz-adv-x="529" vert-adv-y="0" d="M74 533q0 47 31.5 80t74 46.5t90.5 13.5q106 0 179 -50l12 -8l-55 -80l-13 9q-46 34 -123 34q-44 0 -67 -13.5t-23 -35.5t18.5 -33t81.5 -20q39 -6 70 -16t60 -27t44.5 -44t15.5 -63q0 -60 -38 -98q38 -35 38 -90q0 -69 -55 -106.5t-146 -37.5q-68 0 -117 18t-75 38 l-12 9l61 77l12 -9q23 -16 59 -27t72 -11q59 0 80 13.5t21 39.5q0 22 -24 36.5t-86 23.5q-40 6 -70 15t-58 25t-43 42t-15 61q0 60 40 96q-40 36 -40 92zM260 391q-6 1 -11.5 2l-11 2l-11 2t-10.5 2.5t-10.5 2.5t-10.5 3q-15 -20 -15 -52q0 -31 18 -43t82 -22q46 -8 80 -19 q10 20 10 49q0 31 -23.5 47t-86.5 26z" />
<glyph unicode="&#xa8;" horiz-adv-x="404" vert-adv-y="0" d="M230 612q0 27 17.5 44.5t44.5 17.5t44.5 -17.5t17.5 -44.5t-17.5 -44.5t-44.5 -17.5t-44.5 17.5t-17.5 44.5zM50 612q0 27 17.5 44.5t44.5 17.5t44.5 -17.5t17.5 -44.5t-17.5 -44.5t-44.5 -17.5t-44.5 17.5t-17.5 44.5z" />
<glyph unicode="&#xa9;" horiz-adv-x="700" vert-adv-y="0" d="M541 440q0 73 -50.5 108t-140.5 35q-44 0 -78.5 -8.5t-60 -25.5t-39 -44.5t-13.5 -64.5v-212q0 -74 50 -109t141 -35t141 35t50 109v212zM65 441q0 120 76 176t209 56t209 -56t76 -176v-214q0 -121 -76 -177t-209 -56t-209 56t-76 177v214zM181 403q0 78 48.5 116.5 t119.5 38.5q94 0 145 -61l10 -12l-79 -53l-9 12q-11 15 -27 19t-40 4q-32 0 -49 -13.5t-17 -50.5v-139q0 -37 17 -50.5t49 -13.5q47 0 77 28l11 9l71 -53l-10 -11q-53 -64 -149 -64q-71 0 -119.5 38.5t-48.5 116.5v139z" />
<glyph unicode="&#xab;" horiz-adv-x="605" d="M236 452h129l-194 -202l194 -187h-129l-156 158v58zM431 452h111l-179 -202l179 -187h-111l-173 158v58z" />
<glyph unicode="&#xac;" d="M80 193v86h410v-235h-90v149h-320z" />
<glyph unicode="&#xae;" horiz-adv-x="700" vert-adv-y="0" d="M541 446q0 137 -191 137q-44 0 -78.5 -8.5t-60 -25.5t-39 -44.5t-13.5 -64.5v-212q0 -74 50 -109t141 -35q101 0 150 43h-77l-75 144h-42v-144h-100v427h154q63 0 107.5 -37.5t44.5 -106.5q0 -43 -18.5 -76t-49.5 -51l74 -150q23 36 23 89v224zM65 441q0 120 76 176 t209 56t209 -56t76 -176v-214q0 -121 -76 -177t-209 -56t-209 56t-76 177v214zM360 466h-54v-116h54q23 0 40 14.5t17 45.5q0 29 -16.5 42.5t-40.5 13.5z" />
<glyph unicode="&#xaf;" horiz-adv-x="400" d="M50 556v86h300v-86h-300z" />
<glyph unicode="&#xb0;" horiz-adv-x="354" vert-adv-y="0" d="M50 576q0 43 35.5 70t91.5 27t91.5 -27t35.5 -70q0 -56 -35.5 -91.5t-91.5 -35.5t-91.5 35.5t-35.5 91.5zM220 576q0 13 -43 13t-43 -13q0 -20 11.5 -31.5t31.5 -11.5q43 0 43 43z" />
<glyph unicode="&#xb1;" horiz-adv-x="580" d="M236 364v92h108v-92h156v-86h-156v-92h-108v92h-156v86h156zM80 80v86h420v-86h-420z" />
<glyph unicode="&#xb4;" horiz-adv-x="366" d="M50 426l176 241h120l-188 -241h-108z" />
<glyph unicode="&#xb5;" horiz-adv-x="620" vert-adv-y="0" d="M75 -185v662h104v-267q0 -60 34 -90t83.5 -30t84 30t34.5 90v267h100v-342q0 -24 10.5 -34.5t24.5 -10.5h25v-96h-25q-70 0 -105 59q-50 -59 -148 -59q-68 0 -118 38v-217h-104z" />
<glyph unicode="&#xb6;" horiz-adv-x="602" vert-adv-y="0" d="M270 667h247v-667h-103v568h-106v-568h-103v255q-67 17 -108.5 69t-41.5 132q0 69 31 117.5t78.5 71t105.5 22.5z" />
<glyph unicode="&#xb7;" horiz-adv-x="292" vert-adv-y="0" d="M80 235q0 28 19 47t47 19t47 -19t19 -47t-19 -47t-47 -19t-47 19t-19 47z" />
<glyph unicode="&#xb8;" horiz-adv-x="372" d="M175 0h88l-20 -10q85 -13 85 -79q0 -102 -150 -102q-69 0 -112 16l-16 6l41 77l12 -4q31 -10 75 -10q62 0 62 17q0 -11 -52 -11h-64z" />
<glyph unicode="&#xbb;" horiz-adv-x="605" d="M386 452l156 -173v-58l-156 -158h-128l194 187l-194 202h128zM191 452l174 -173v-58l-174 -158h-111l180 187l-180 202h111z" />
<glyph unicode="&#xbc;" horiz-adv-x="884" vert-adv-y="0" d="M529 137l134 280h95l-117 -251h68v98h85v-98h34v-85h-34v-81h-85v81h-180v56zM123 621l93 46h65v-432h-88v323l-30 -15zM195 0l398 667h106l-406 -667h-98z" />
<glyph unicode="&#xbd;" horiz-adv-x="884" vert-adv-y="0" d="M553 342l9 12q30 39 65 53t64 14q57 0 93.5 -37t36.5 -88q0 -46 -42 -97l-94 -116h144v-83h-274v58l157 190q21 26 21 46q0 17 -11.5 29t-30.5 12q-35 0 -60 -33l-9 -12zM123 621l93 46h65v-432h-88v323l-30 -15zM195 0l406 667h98l-406 -667h-98z" />
<glyph unicode="&#xbe;" horiz-adv-x="884" vert-adv-y="0" d="M61 591l9 12q29 39 64.5 53t64.5 14q38 0 69 -17.5t48 -46t17 -61.5q0 -45 -35 -80q6 -6 11.5 -12.5t10 -13.5t8 -14.5t6 -15.5t3.5 -16.5t1 -17.5q0 -52 -39.5 -90.5t-99.5 -38.5q-80 0 -133 69l-9 12l69 53l9 -12q27 -36 64 -36q15 0 26 6.5t16.5 17.5t5.5 24 q0 18 -12.5 33t-35.5 15h-62v86h62q19 0 31 10t12 25q0 9 -5 17t-15 13t-23 5q-35 0 -60 -33l-9 -12zM530 137l134 280h95l-117 -251h68v98h85v-98h34v-85h-34v-81h-85v81h-180v56zM196 0l398 667h105l-405 -667h-98z" />
<glyph unicode="&#xbf;" horiz-adv-x="438" vert-adv-y="0" d="M328 332l1 -14q2 -39 2 -58q0 -35 -13 -64.5t-38 -53.5t-63 -46q-30 -16 -44 -36t-14 -53q0 -46 34 -72t87 -26q76 0 119 51l9 11l81 -62l-9 -12q-34 -42 -86 -65t-114 -23q-96 0 -160.5 53.5t-64.5 144.5q0 110 91 167q42 24 58.5 44t17.5 54l3 60h103zM354 437 q0 -28 -22.5 -47t-56 -19t-56 19t-22.5 47t22.5 47t56 19t56 -19t22.5 -47z" />
<glyph unicode="&#xc0;" horiz-adv-x="669" vert-adv-y="0" d="M342 706l-107 151h119l94 -151h-106zM35 0l260 667h92l260 -667h-107l-62 165h-273l-62 -165h-108zM442 250l-101 274l-101 -274h202z" />
<glyph unicode="&#xc1;" horiz-adv-x="669" vert-adv-y="0" d="M384 857h119l-107 -151h-106zM35 0l260 667h92l260 -667h-107l-62 165h-273l-62 -165h-108zM442 250l-101 274l-101 -274h202z" />
<glyph unicode="&#xc2;" horiz-adv-x="669" vert-adv-y="0" d="M472 706l-78 88l-77 -88h-125l173 151h59l173 -151h-125zM35 0l260 667h92l260 -667h-107l-62 165h-273l-62 -165h-108zM442 250l-101 274l-101 -274h202z" />
<glyph unicode="&#xc3;" horiz-adv-x="669" vert-adv-y="0" d="M325 787q-10 -18 -22 -18q-28 0 -28 -8v-15h-80v15q0 36 29 62t77 26q70 0 115 -17q11 -12 25 -12q26 0 26 37v-15h80v15q0 -52 -32.5 -84.5t-75.5 -32.5q-70 0 -114 47zM35 0l260 667h92l260 -667h-107l-62 165h-273l-62 -165h-108zM442 250l-101 274l-101 -274h202z " />
<glyph unicode="&#xc4;" horiz-adv-x="669" vert-adv-y="0" d="M384 802q0 27 17.5 44.5t44.5 17.5t44.5 -17.5t17.5 -44.5t-17.5 -44.5t-44.5 -17.5t-44.5 17.5t-17.5 44.5zM204 802q0 27 17.5 44.5t44.5 17.5t44.5 -17.5t17.5 -44.5t-17.5 -44.5t-44.5 -17.5t-44.5 17.5t-17.5 44.5zM35 0l260 667h92l260 -667h-107l-62 165h-273 l-62 -165h-108zM442 250l-101 274l-101 -274h202z" />
<glyph unicode="&#xc5;" horiz-adv-x="669" vert-adv-y="0" d="M254 811q0 32 29 52t73 20q45 0 73.5 -20t28.5 -52q0 -45 -28.5 -73.5t-73.5 -28.5q-44 0 -73 28.5t-29 73.5zM386 811q0 2 -30 2q-29 0 -29 -2q0 -31 29 -31q30 0 30 31zM35 0l260 667h92l260 -667h-107l-62 165h-273l-62 -165h-108zM442 250l-101 274l-101 -274h202z " />
<glyph unicode="&#xc6;" horiz-adv-x="852" d="M240 150l-92 -150h-113l385 667h367v-100h-231v-175h208v-99h-208v-194h241v-99h-348v150h-209zM449 250v277l-154 -277h154z" />
<glyph unicode="&#xc7;" horiz-adv-x="601" vert-adv-y="0" d="M305 0h88l-20 -10q85 -13 85 -79q0 -102 -150 -102q-69 0 -112 16l-16 6l41 77l12 -4q31 -10 75 -10q62 0 62 17q0 -11 -52 -11h-64zM321 573q-32 0 -57 -5.5t-46.5 -18.5t-33.5 -36.5t-12 -57.5v-243q0 -118 149 -118q40 0 79.5 11t64.5 34l12 10l69 -74l-11 -10 q-38 -37 -96.5 -54t-117.5 -17q-50 0 -94 11.5t-81.5 35.5t-59 67.5t-21.5 100.5v249q0 46 14.5 83.5t38.5 61.5t57.5 40t69.5 23t76 7q129 0 204 -69l10 -10l-63 -78l-13 11q-58 46 -138 46z" />
<glyph unicode="&#xc8;" vert-adv-y="0" d="M292 706l-107 151h119l94 -151h-106zM85 0v667h419v-100h-317v-174h267v-100h-265v-193h316v-100h-420z" />
<glyph unicode="&#xc9;" vert-adv-y="0" d="M334 857h119l-107 -151h-106zM85 0v667h419v-100h-317v-174h267v-100h-265v-193h316v-100h-420z" />
<glyph unicode="&#xca;" vert-adv-y="0" d="M422 706l-78 88l-77 -88h-125l173 151h59l173 -151h-125zM85 0v667h419v-100h-317v-174h267v-100h-265v-193h316v-100h-420z" />
<glyph unicode="&#xcb;" vert-adv-y="0" d="M334 802q0 27 17.5 44.5t44.5 17.5t44.5 -17.5t17.5 -44.5t-17.5 -44.5t-44.5 -17.5t-44.5 17.5t-17.5 44.5zM154 802q0 27 17.5 44.5t44.5 17.5t44.5 -17.5t17.5 -44.5t-17.5 -44.5t-44.5 -17.5t-44.5 17.5t-17.5 44.5zM85 0v667h419v-100h-317v-174h267v-100h-265v-193 h316v-100h-420z" />
<glyph unicode="&#xcc;" horiz-adv-x="274" vert-adv-y="0" d="M138 706l-107 151h119l94 -151h-106zM85 667h104v-667h-104v667z" />
<glyph unicode="&#xcd;" horiz-adv-x="274" vert-adv-y="0" d="M180 857h119l-107 -151h-106zM85 667h104v-667h-104v667z" />
<glyph unicode="&#xce;" horiz-adv-x="274" vert-adv-y="0" d="M268 706l-78 88l-77 -88h-125l173 151h59l173 -151h-125zM85 667h104v-667h-104v667z" />
<glyph unicode="&#xcf;" horiz-adv-x="274" vert-adv-y="0" d="M180 802q0 27 17.5 44.5t44.5 17.5t44.5 -17.5t17.5 -44.5t-17.5 -44.5t-44.5 -17.5t-44.5 17.5t-17.5 44.5zM0 802q0 27 17.5 44.5t44.5 17.5t44.5 -17.5t17.5 -44.5t-17.5 -44.5t-44.5 -17.5t-44.5 17.5t-17.5 44.5zM85 667h104v-667h-104v667z" />
<glyph unicode="&#xd0;" horiz-adv-x="681" vert-adv-y="0" d="M127 388v279h223q57 0 104 -13t84 -40t57.5 -72.5t20.5 -106.5v-202q0 -50 -13.5 -89t-37.5 -66t-58 -44.5t-73 -25.5t-84 -8h-223v298h-72v90h72zM375 298h-145v-198h120q162 0 162 134v200q0 133 -162 133h-120v-179h145v-90z" />
<glyph unicode="&#xd1;" horiz-adv-x="670" vert-adv-y="0" d="M319 787q-10 -18 -22 -18q-28 0 -28 -8v-15h-80v15q0 36 29 62t77 26q70 0 115 -17q11 -12 25 -12q26 0 26 37v-15h80v15q0 -52 -32.5 -84.5t-75.5 -32.5q-70 0 -114 47zM85 0v667h89l307 -479v479h104v-667h-89l-305 479v-479h-106z" />
<glyph unicode="&#xd2;" horiz-adv-x="660" vert-adv-y="0" d="M331 706l-107 151h119l94 -151h-106zM595 458v-249q0 -57 -22 -100.5t-60.5 -67.5t-84 -35.5t-98.5 -11.5t-98.5 11.5t-84 35.5t-60.5 67.5t-22 100.5v249q0 46 14.5 83.5t39.5 61.5t59.5 40t72 23t79.5 7q53 0 98.5 -11.5t84 -35.5t60.5 -67.5t22 -100.5zM169 455v-243 q0 -118 161 -118t161 118v243q0 118 -161 118t-161 -118z" />
<glyph unicode="&#xd3;" horiz-adv-x="660" vert-adv-y="0" d="M373 857h119l-107 -151h-106zM595 458v-249q0 -57 -22 -100.5t-60.5 -67.5t-84 -35.5t-98.5 -11.5t-98.5 11.5t-84 35.5t-60.5 67.5t-22 100.5v249q0 46 14.5 83.5t39.5 61.5t59.5 40t72 23t79.5 7q53 0 98.5 -11.5t84 -35.5t60.5 -67.5t22 -100.5zM169 455v-243 q0 -118 161 -118t161 118v243q0 118 -161 118t-161 -118z" />
<glyph unicode="&#xd4;" horiz-adv-x="660" vert-adv-y="0" d="M461 706l-78 88l-77 -88h-125l173 151h59l173 -151h-125zM595 458v-249q0 -57 -22 -100.5t-60.5 -67.5t-84 -35.5t-98.5 -11.5t-98.5 11.5t-84 35.5t-60.5 67.5t-22 100.5v249q0 46 14.5 83.5t39.5 61.5t59.5 40t72 23t79.5 7q53 0 98.5 -11.5t84 -35.5t60.5 -67.5 t22 -100.5zM169 455v-243q0 -118 161 -118t161 118v243q0 118 -161 118t-161 -118z" />
<glyph unicode="&#xd5;" horiz-adv-x="660" vert-adv-y="0" d="M314 787q-10 -18 -22 -18q-28 0 -28 -8v-15h-80v15q0 36 29 62t77 26q70 0 115 -17q11 -12 25 -12q26 0 26 37v-15h80v15q0 -52 -32.5 -84.5t-75.5 -32.5q-70 0 -114 47zM595 458v-249q0 -57 -22 -100.5t-60.5 -67.5t-84 -35.5t-98.5 -11.5t-98.5 11.5t-84 35.5 t-60.5 67.5t-22 100.5v249q0 46 14.5 83.5t39.5 61.5t59.5 40t72 23t79.5 7q53 0 98.5 -11.5t84 -35.5t60.5 -67.5t22 -100.5zM169 455v-243q0 -118 161 -118t161 118v243q0 118 -161 118t-161 -118z" />
<glyph unicode="&#xd6;" horiz-adv-x="660" vert-adv-y="0" d="M373 802q0 27 17.5 44.5t44.5 17.5t44.5 -17.5t17.5 -44.5t-17.5 -44.5t-44.5 -17.5t-44.5 17.5t-17.5 44.5zM193 802q0 27 17.5 44.5t44.5 17.5t44.5 -17.5t17.5 -44.5t-17.5 -44.5t-44.5 -17.5t-44.5 17.5t-17.5 44.5zM595 458v-249q0 -57 -22 -100.5t-60.5 -67.5 t-84 -35.5t-98.5 -11.5t-98.5 11.5t-84 35.5t-60.5 67.5t-22 100.5v249q0 46 14.5 83.5t39.5 61.5t59.5 40t72 23t79.5 7q53 0 98.5 -11.5t84 -35.5t60.5 -67.5t22 -100.5zM169 455v-243q0 -118 161 -118t161 118v243q0 118 -161 118t-161 -118z" />
<glyph unicode="&#xd7;" horiz-adv-x="580" d="M165 77l-58 58l115 115l-116 116l60 60l131 -119l130 118l58 -58l-115 -115l116 -116l-60 -60l-131 119z" />
<glyph unicode="&#xd8;" horiz-adv-x="661" vert-adv-y="0" d="M440 556q-43 22 -97 22q-164 0 -164 -146v-227q0 -24 7 -49zM343 -6q-39 0 -76 9.5t-71 26.5l-37 -57h-99l65 109q-49 61 -49 144v215q0 61 21 107t58.5 72.5t84.5 39.5t103 13q81 0 150 -35l32 55h99l-66 -108q48 -61 48 -143v-215q0 -61 -20.5 -107t-57 -73t-83 -40 t-102.5 -13zM506 462q0 24 -6 48l-253 -400q41 -21 96 -21q163 0 163 146v227z" />
<glyph unicode="&#xd9;" horiz-adv-x="640" vert-adv-y="0" d="M321 706l-107 151h119l94 -151h-106zM179 667v-453q0 -120 141 -120t141 120v453h104v-457q0 -58 -20.5 -101t-55.5 -67.5t-77.5 -36t-91.5 -11.5t-91.5 11.5t-77.5 36t-55.5 67.5t-20.5 101v457h104z" />
<glyph unicode="&#xda;" horiz-adv-x="640" vert-adv-y="0" d="M363 857h119l-107 -151h-106zM179 667v-453q0 -120 141 -120t141 120v453h104v-457q0 -58 -20.5 -101t-55.5 -67.5t-77.5 -36t-91.5 -11.5t-91.5 11.5t-77.5 36t-55.5 67.5t-20.5 101v457h104z" />
<glyph unicode="&#xdb;" horiz-adv-x="640" vert-adv-y="0" d="M451 706l-78 88l-77 -88h-125l173 151h59l173 -151h-125zM179 667v-453q0 -120 141 -120t141 120v453h104v-457q0 -58 -20.5 -101t-55.5 -67.5t-77.5 -36t-91.5 -11.5t-91.5 11.5t-77.5 36t-55.5 67.5t-20.5 101v457h104z" />
<glyph unicode="&#xdc;" horiz-adv-x="640" vert-adv-y="0" d="M363 802q0 27 17.5 44.5t44.5 17.5t44.5 -17.5t17.5 -44.5t-17.5 -44.5t-44.5 -17.5t-44.5 17.5t-17.5 44.5zM183 802q0 27 17.5 44.5t44.5 17.5t44.5 -17.5t17.5 -44.5t-17.5 -44.5t-44.5 -17.5t-44.5 17.5t-17.5 44.5zM179 667v-453q0 -120 141 -120t141 120v453h104 v-457q0 -58 -20.5 -101t-55.5 -67.5t-77.5 -36t-91.5 -11.5t-91.5 11.5t-77.5 36t-55.5 67.5t-20.5 101v457h104z" />
<glyph unicode="&#xdd;" horiz-adv-x="601" vert-adv-y="0" d="M353 857h119l-107 -151h-106zM252 276l-217 391h115l159 -291l163 291h113l-218 -391v-276h-115v276z" />
<glyph unicode="&#xde;" horiz-adv-x="602" vert-adv-y="0" d="M85 0v667h103v-123h130q100 0 164.5 -54t64.5 -156t-64.5 -156.5t-164.5 -54.5h-130v-123h-103zM318 454h-130v-241h130q27 0 49.5 7t40 21.5t27 38t9.5 54.5q0 60 -34.5 90t-91.5 30z" />
<glyph unicode="&#xdf;" horiz-adv-x="635" vert-adv-y="0" d="M526 473q0 -40 -17 -74.5t-46 -58.5q19 -10 35 -25.5t30.5 -38.5t23 -38.5t23.5 -45.5q0 -31 -6.5 -58t-21 -52t-36.5 -43t-56 -28.5t-76 -10.5q-64 0 -107.5 37.5t-43.5 107.5v15h103v-15q0 -25 14.5 -37t33.5 -12q53 0 74.5 26.5t21.5 73.5q-59 100 -162 100h-98v94h98 q56 0 84.5 23.5t28.5 59.5q0 39 -32 68.5t-81 29.5q-135 0 -135 -127l13 -444h-116v447q0 110 64 165t174 55q96 0 154.5 -56.5t58.5 -137.5z" />
<glyph unicode="&#xe0;" horiz-adv-x="541" vert-adv-y="0" d="M269 515l-107 151h119l94 -151h-106zM97 444q68 39 172 39q93 0 148.5 -48.5t55.5 -147.5v-287h-98v33q-53 -39 -137 -39q-80 0 -131.5 43t-51.5 114q0 158 247 158q44 0 72 -3q-7 83 -105 83q-78 0 -125 -28l-14 -8l-45 84zM312 218q-22 0 -39.5 -1t-36.5 -3.5t-33 -7 t-26 -12t-18 -18.5t-6 -25q0 -18 10 -32t31.5 -22t52.5 -8q55 0 91.5 28.5t36.5 87.5v11q-28 2 -63 2z" />
<glyph unicode="&#xe1;" horiz-adv-x="541" vert-adv-y="0" d="M311 666h119l-107 -151h-106zM97 444q68 39 172 39q93 0 148.5 -48.5t55.5 -147.5v-287h-98v33q-53 -39 -137 -39q-80 0 -131.5 43t-51.5 114q0 158 247 158q44 0 72 -3q-7 83 -105 83q-78 0 -125 -28l-14 -8l-45 84zM312 218q-22 0 -39.5 -1t-36.5 -3.5t-33 -7t-26 -12 t-18 -18.5t-6 -25q0 -18 10 -32t31.5 -22t52.5 -8q55 0 91.5 28.5t36.5 87.5v11q-28 2 -63 2z" />
<glyph unicode="&#xe2;" horiz-adv-x="541" vert-adv-y="0" d="M399 515l-78 88l-77 -88h-125l173 151h59l173 -151h-125zM97 444q68 39 172 39q93 0 148.5 -48.5t55.5 -147.5v-287h-98v33q-53 -39 -137 -39q-80 0 -131.5 43t-51.5 114q0 158 247 158q44 0 72 -3q-7 83 -105 83q-78 0 -125 -28l-14 -8l-45 84zM312 218q-22 0 -39.5 -1 t-36.5 -3.5t-33 -7t-26 -12t-18 -18.5t-6 -25q0 -18 10 -32t31.5 -22t52.5 -8q55 0 91.5 28.5t36.5 87.5v11q-28 2 -63 2z" />
<glyph unicode="&#xe3;" horiz-adv-x="541" vert-adv-y="0" d="M252 596q-10 -18 -22 -18q-28 0 -28 -8v-15h-80v15q0 36 29 62t77 26q70 0 115 -17q11 -12 25 -12q26 0 26 37v-15h80v15q0 -52 -32.5 -84.5t-75.5 -32.5q-70 0 -114 47zM97 444q68 39 172 39q93 0 148.5 -48.5t55.5 -147.5v-287h-98v33q-53 -39 -137 -39 q-80 0 -131.5 43t-51.5 114q0 158 247 158q44 0 72 -3q-7 83 -105 83q-78 0 -125 -28l-14 -8l-45 84zM312 218q-22 0 -39.5 -1t-36.5 -3.5t-33 -7t-26 -12t-18 -18.5t-6 -25q0 -18 10 -32t31.5 -22t52.5 -8q55 0 91.5 28.5t36.5 87.5v11q-28 2 -63 2z" />
<glyph unicode="&#xe4;" horiz-adv-x="541" vert-adv-y="0" d="M311 611q0 27 17.5 44.5t44.5 17.5t44.5 -17.5t17.5 -44.5t-17.5 -44.5t-44.5 -17.5t-44.5 17.5t-17.5 44.5zM131 611q0 27 17.5 44.5t44.5 17.5t44.5 -17.5t17.5 -44.5t-17.5 -44.5t-44.5 -17.5t-44.5 17.5t-17.5 44.5zM97 444q68 39 172 39q93 0 148.5 -48.5 t55.5 -147.5v-287h-98v33q-53 -39 -137 -39q-80 0 -131.5 43t-51.5 114q0 158 247 158q44 0 72 -3q-7 83 -105 83q-78 0 -125 -28l-14 -8l-45 84zM312 218q-22 0 -39.5 -1t-36.5 -3.5t-33 -7t-26 -12t-18 -18.5t-6 -25q0 -18 10 -32t31.5 -22t52.5 -8q55 0 91.5 28.5 t36.5 87.5v11q-28 2 -63 2z" />
<glyph unicode="&#xe5;" horiz-adv-x="541" vert-adv-y="0" d="M181 620q0 32 29 52t73 20q45 0 73.5 -20t28.5 -52q0 -45 -28.5 -73.5t-73.5 -28.5q-44 0 -73 28.5t-29 73.5zM313 620q0 2 -30 2q-29 0 -29 -2q0 -31 29 -31q30 0 30 31zM97 444q68 39 172 39q93 0 148.5 -48.5t55.5 -147.5v-287h-98v33q-53 -39 -137 -39 q-80 0 -131.5 43t-51.5 114q0 158 247 158q44 0 72 -3q-7 83 -105 83q-78 0 -125 -28l-14 -8l-45 84zM312 218q-22 0 -39.5 -1t-36.5 -3.5t-33 -7t-26 -12t-18 -18.5t-6 -25q0 -18 10 -32t31.5 -22t52.5 -8q55 0 91.5 28.5t36.5 87.5v11q-28 2 -63 2z" />
<glyph unicode="&#xe6;" horiz-adv-x="793" vert-adv-y="0" d="M545 391q-34 0 -61.5 -29t-31.5 -82h186q-4 52 -31.5 81.5t-61.5 29.5zM296 220q-141 0 -141 -69q0 -17 9.5 -31.5t29 -23.5t46.5 -9q48 0 82.5 31t34.5 88v12q-31 2 -61 2zM111 436q76 47 162 47q88 0 134 -68q49 68 138 68q78 0 134 -56.5t56 -161.5v-60h-284v-1 q0 -30 8.5 -52.5t23 -36.5t33 -21t39.5 -7q50 0 94 37l12 10l59 -75l-12 -9q-74 -56 -153 -56q-47 0 -87 20t-65 58q-28 -39 -73.5 -58.5t-98.5 -19.5q-79 0 -127.5 45t-48.5 111q44 157 241 157q33 0 60 -3q-3 44 -26 65.5t-57 21.5q-58 0 -111 -33l-12 -7l-52 77z" />
<glyph unicode="&#xe7;" horiz-adv-x="505" vert-adv-y="0" d="M275 0h88l-20 -10q85 -13 85 -79q0 -102 -150 -102q-69 0 -112 16l-16 6l41 77l12 -4q31 -10 75 -10q62 0 62 17q0 -11 -52 -11h-64zM169 207q0 -117 123 -117q56 0 100 34l15 12l50 -85l-9 -8q-19 -16 -42 -26.5t-52 -16.5t-62 -6q-46 0 -84.5 11t-71.5 34.5t-52 66 t-19 100.5v65q0 58 19 100.5t52 66t71.5 34.5t84.5 11q88 0 145 -40l11 -8l-51 -85l-15 10q-43 27 -90 27q-122 -2 -123 -117v-63z" />
<glyph unicode="&#xe8;" horiz-adv-x="556" vert-adv-y="0" d="M284 515l-107 151h119l94 -151h-106zM468 42q-71 -48 -175 -48t-169.5 54.5t-65.5 166.5v56q0 57 19 100t51 66.5t70 34.5t82 11t81 -11t69 -35t50 -67t18 -102v-65h-338q6 -115 133 -115q76 0 126 35l14 10l47 -84zM280 389q-108 0 -119 -92h238q-4 49 -37.5 70.5 t-81.5 21.5z" />
<glyph unicode="&#xe9;" horiz-adv-x="556" vert-adv-y="0" d="M326 666h119l-107 -151h-106zM468 42q-71 -48 -175 -48t-169.5 54.5t-65.5 166.5v56q0 57 19 100t51 66.5t70 34.5t82 11t81 -11t69 -35t50 -67t18 -102v-65h-338q6 -115 133 -115q76 0 126 35l14 10l47 -84zM280 389q-108 0 -119 -92h238q-4 49 -37.5 70.5t-81.5 21.5z " />
<glyph unicode="&#xea;" horiz-adv-x="556" vert-adv-y="0" d="M414 515l-78 88l-77 -88h-125l173 151h59l173 -151h-125zM468 42q-71 -48 -175 -48t-169.5 54.5t-65.5 166.5v56q0 57 19 100t51 66.5t70 34.5t82 11t81 -11t69 -35t50 -67t18 -102v-65h-338q6 -115 133 -115q76 0 126 35l14 10l47 -84zM280 389q-108 0 -119 -92h238 q-4 49 -37.5 70.5t-81.5 21.5z" />
<glyph unicode="&#xeb;" horiz-adv-x="556" vert-adv-y="0" d="M326 611q0 27 17.5 44.5t44.5 17.5t44.5 -17.5t17.5 -44.5t-17.5 -44.5t-44.5 -17.5t-44.5 17.5t-17.5 44.5zM146 611q0 27 17.5 44.5t44.5 17.5t44.5 -17.5t17.5 -44.5t-17.5 -44.5t-44.5 -17.5t-44.5 17.5t-17.5 44.5zM468 42q-71 -48 -175 -48t-169.5 54.5 t-65.5 166.5v56q0 57 19 100t51 66.5t70 34.5t82 11t81 -11t69 -35t50 -67t18 -102v-65h-338q6 -115 133 -115q76 0 126 35l14 10l47 -84zM280 389q-108 0 -119 -92h238q-4 49 -37.5 70.5t-81.5 21.5z" />
<glyph unicode="&#xec;" horiz-adv-x="244" vert-adv-y="0" d="M123 516l-107 151h119l94 -151h-106zM72 0v477h100v-477h-100z" />
<glyph unicode="&#xed;" horiz-adv-x="244" vert-adv-y="0" d="M165 667h119l-107 -151h-106zM72 0v477h100v-477h-100z" />
<glyph unicode="&#xee;" horiz-adv-x="244" vert-adv-y="0" d="M253 516l-78 88l-77 -88h-125l173 151h59l173 -151h-125zM72 0v477h100v-477h-100z" />
<glyph unicode="&#xef;" horiz-adv-x="244" vert-adv-y="0" d="M165 612q0 27 17.5 44.5t44.5 17.5t44.5 -17.5t17.5 -44.5t-17.5 -44.5t-44.5 -17.5t-44.5 17.5t-17.5 44.5zM-15 612q0 27 17.5 44.5t44.5 17.5t44.5 -17.5t17.5 -44.5t-17.5 -44.5t-44.5 -17.5t-44.5 17.5t-17.5 44.5zM72 0v477h100v-477h-100z" />
<glyph unicode="&#xf0;" horiz-adv-x="573" vert-adv-y="0" d="M432 553q44 -67 57.5 -145.5t13.5 -199.5q0 -103 -64 -158.5t-157 -55.5q-61 0 -111 22.5t-83 72t-33 117.5v17q0 69 30 118.5t77.5 72.5t108.5 23q34 0 66 -9t58 -27q-6 28 -16 53t-24 48l-72 -45l-54 69l72 45q-13 12 -26 23.5t-27 21.5l-16 12l71 54l11 -9 q39 -29 65 -53l65 43l48 -69zM405 237q0 64 -36.5 97t-86.5 33t-86.5 -33t-36.5 -96v-19q0 -63 36.5 -96t86.5 -33t86.5 33t36.5 96v18z" />
<glyph unicode="&#xf1;" horiz-adv-x="578" vert-adv-y="0" d="M289 597q-10 -18 -22 -18q-28 0 -28 -8v-15h-80v15q0 36 29 62t77 26q70 0 115 -17q11 -12 25 -12q26 0 26 37v-15h80v15q0 -52 -32.5 -84.5t-75.5 -32.5q-70 0 -114 47zM75 0v477h104v-28q51 34 129 34q40 0 75 -11t65.5 -34t48.5 -66t18 -101v-271h-100v267 q0 68 -32 94t-86 26q-25 0 -45 -5t-37 -17.5t-26.5 -37t-9.5 -60.5v-267h-104z" />
<glyph unicode="&#xf2;" horiz-adv-x="560" vert-adv-y="0" d="M281 516l-107 151h119l94 -151h-106zM505 271v-65q0 -58 -18.5 -100.5t-50.5 -66t-70.5 -34.5t-84 -11t-84 11t-71.5 34.5t-52 66t-19 100.5v65q0 58 19 100.5t52 66t71.5 34.5t84 11t84 -11t70.5 -34.5t50.5 -66t18.5 -100.5zM159 270v-63q0 -117 123 -117t123 117v63 q0 34 -10 58t-28.5 36.5t-39 17.5t-45.5 5q-122 -2 -123 -117z" />
<glyph unicode="&#xf3;" horiz-adv-x="560" vert-adv-y="0" d="M323 667h119l-107 -151h-106zM505 271v-65q0 -58 -18.5 -100.5t-50.5 -66t-70.5 -34.5t-84 -11t-84 11t-71.5 34.5t-52 66t-19 100.5v65q0 58 19 100.5t52 66t71.5 34.5t84 11t84 -11t70.5 -34.5t50.5 -66t18.5 -100.5zM159 270v-63q0 -117 123 -117t123 117v63 q0 34 -10 58t-28.5 36.5t-39 17.5t-45.5 5q-122 -2 -123 -117z" />
<glyph unicode="&#xf4;" horiz-adv-x="560" vert-adv-y="0" d="M411 516l-78 88l-77 -88h-125l173 151h59l173 -151h-125zM505 271v-65q0 -58 -18.5 -100.5t-50.5 -66t-70.5 -34.5t-84 -11t-84 11t-71.5 34.5t-52 66t-19 100.5v65q0 58 19 100.5t52 66t71.5 34.5t84 11t84 -11t70.5 -34.5t50.5 -66t18.5 -100.5zM159 270v-63 q0 -117 123 -117t123 117v63q0 34 -10 58t-28.5 36.5t-39 17.5t-45.5 5q-122 -2 -123 -117z" />
<glyph unicode="&#xf5;" horiz-adv-x="560" vert-adv-y="0" d="M264 597q-10 -18 -22 -18q-28 0 -28 -8v-15h-80v15q0 36 29 62t77 26q70 0 115 -17q11 -12 25 -12q26 0 26 37v-15h80v15q0 -52 -32.5 -84.5t-75.5 -32.5q-70 0 -114 47zM505 271v-65q0 -58 -18.5 -100.5t-50.5 -66t-70.5 -34.5t-84 -11t-84 11t-71.5 34.5t-52 66 t-19 100.5v65q0 58 19 100.5t52 66t71.5 34.5t84 11t84 -11t70.5 -34.5t50.5 -66t18.5 -100.5zM159 270v-63q0 -117 123 -117t123 117v63q0 34 -10 58t-28.5 36.5t-39 17.5t-45.5 5q-122 -2 -123 -117z" />
<glyph unicode="&#xf6;" horiz-adv-x="560" vert-adv-y="0" d="M323 612q0 27 17.5 44.5t44.5 17.5t44.5 -17.5t17.5 -44.5t-17.5 -44.5t-44.5 -17.5t-44.5 17.5t-17.5 44.5zM143 612q0 27 17.5 44.5t44.5 17.5t44.5 -17.5t17.5 -44.5t-17.5 -44.5t-44.5 -17.5t-44.5 17.5t-17.5 44.5zM505 271v-65q0 -58 -18.5 -100.5t-50.5 -66 t-70.5 -34.5t-84 -11t-84 11t-71.5 34.5t-52 66t-19 100.5v65q0 58 19 100.5t52 66t71.5 34.5t84 11t84 -11t70.5 -34.5t50.5 -66t18.5 -100.5zM159 270v-63q0 -117 123 -117t123 117v63q0 34 -10 58t-28.5 36.5t-39 17.5t-45.5 5q-122 -2 -123 -117z" />
<glyph unicode="&#xf7;" horiz-adv-x="580" d="M80 208v86h420v-86h-420zM218 394q0 13 5.5 24t15.5 19t23.5 12.5t28.5 4.5q31 0 52 -17t21 -43q0 -13 -5.5 -24.5t-15 -19.5t-23 -12.5t-29.5 -4.5q-31 0 -52 17.5t-21 43.5zM218 103q0 26 21 43.5t52 17.5q21 0 37.5 -8t26 -22t9.5 -31q0 -13 -5.5 -24t-15 -19 t-23 -12.5t-29.5 -4.5q-31 0 -52 17t-21 43z" />
<glyph unicode="&#xf8;" horiz-adv-x="565" vert-adv-y="0" d="M352 379q-31 14 -55 14q-32 0 -60 -13.5t-48 -45t-20 -75.5v-70q0 -27 11 -55zM407 457l31 50h100l-66 -98q47 -57 47 -137v-65q0 -102 -64 -157.5t-158 -55.5q-52 0 -108 26l-34 -50h-103l66 98q-49 57 -49 137v64q0 69 33.5 119t84 72.5t110.5 22.5q55 0 110 -26z M415 342l-171 -245q30 -13 53 -13q33 0 61 13.5t47 45t19 75.5v70q0 26 -9 54z" />
<glyph unicode="&#xf9;" vert-adv-y="0" d="M286 515l-107 151h119l94 -151h-106zM285 90q120 0 120 120v267h100v-271q0 -58 -18 -100.5t-49.5 -66t-69.5 -34.5t-83 -11t-83 11t-69.5 34.5t-49.5 66t-18 100.5v271h100v-267q0 -120 120 -120z" />
<glyph unicode="&#xfa;" vert-adv-y="0" d="M328 666h119l-107 -151h-106zM285 90q120 0 120 120v267h100v-271q0 -58 -18 -100.5t-49.5 -66t-69.5 -34.5t-83 -11t-83 11t-69.5 34.5t-49.5 66t-18 100.5v271h100v-267q0 -120 120 -120z" />
<glyph unicode="&#xfb;" vert-adv-y="0" d="M416 515l-78 88l-77 -88h-125l173 151h59l173 -151h-125zM285 90q120 0 120 120v267h100v-271q0 -58 -18 -100.5t-49.5 -66t-69.5 -34.5t-83 -11t-83 11t-69.5 34.5t-49.5 66t-18 100.5v271h100v-267q0 -120 120 -120z" />
<glyph unicode="&#xfc;" vert-adv-y="0" d="M328 611q0 27 17.5 44.5t44.5 17.5t44.5 -17.5t17.5 -44.5t-17.5 -44.5t-44.5 -17.5t-44.5 17.5t-17.5 44.5zM148 611q0 27 17.5 44.5t44.5 17.5t44.5 -17.5t17.5 -44.5t-17.5 -44.5t-44.5 -17.5t-44.5 17.5t-17.5 44.5zM285 90q120 0 120 120v267h100v-271 q0 -58 -18 -100.5t-49.5 -66t-69.5 -34.5t-83 -11t-83 11t-69.5 34.5t-49.5 66t-18 100.5v271h100v-267q0 -120 120 -120z" />
<glyph unicode="&#xfd;" horiz-adv-x="590" vert-adv-y="0" d="M345 666h119l-107 -151h-106zM35 477h106l161 -350l161 350h107l-299 -662h-116l89 191z" />
<glyph unicode="&#xfe;" horiz-adv-x="578" vert-adv-y="0" d="M173 440q53 43 137 43q93 0 153 -55t60 -158v-64q0 -102 -60 -157t-153 -55q-85 0 -137 42v-221h-98v852h98v-227zM423 270q0 58 -36.5 87.5t-88.5 29.5t-88.5 -30t-36.5 -88v-62q0 -58 36.5 -87.5t88.5 -29.5t88.5 29.5t36.5 87.5v63z" />
<glyph unicode="&#xff;" horiz-adv-x="590" vert-adv-y="0" d="M345 611q0 27 17.5 44.5t44.5 17.5t44.5 -17.5t17.5 -44.5t-17.5 -44.5t-44.5 -17.5t-44.5 17.5t-17.5 44.5zM165 611q0 27 17.5 44.5t44.5 17.5t44.5 -17.5t17.5 -44.5t-17.5 -44.5t-44.5 -17.5t-44.5 17.5t-17.5 44.5zM35 477h106l161 -350l161 350h107l-299 -662h-116 l89 191z" />
<glyph unicode="&#x100;" horiz-adv-x="669" vert-adv-y="0" d="M205 746v86h300v-86h-300zM35 0l260 667h92l260 -667h-107l-62 165h-273l-62 -165h-108zM442 250l-101 274l-101 -274h202z" />
<glyph unicode="&#x101;" horiz-adv-x="541" vert-adv-y="0" d="M132 555v86h300v-86h-300zM97 444q68 39 172 39q93 0 148.5 -48.5t55.5 -147.5v-287h-98v33q-53 -39 -137 -39q-80 0 -131.5 43t-51.5 114q0 158 247 158q44 0 72 -3q-7 83 -105 83q-78 0 -125 -28l-14 -8l-45 84zM312 218q-22 0 -39.5 -1t-36.5 -3.5t-33 -7t-26 -12 t-18 -18.5t-6 -25q0 -18 10 -32t31.5 -22t52.5 -8q55 0 91.5 28.5t36.5 87.5v11q-28 2 -63 2z" />
<glyph unicode="&#x102;" horiz-adv-x="669" vert-adv-y="0" d="M202 848v15h81v-15q0 -30 73 -30q74 0 74 30v15h80v-15q0 -50 -45 -81t-109 -31t-109 31t-45 81zM35 0l260 667h92l260 -667h-107l-62 165h-273l-62 -165h-108zM442 250l-101 274l-101 -274h202z" />
<glyph unicode="&#x103;" horiz-adv-x="541" vert-adv-y="0" d="M129 657v15h81v-15q0 -30 73 -30q74 0 74 30v15h80v-15q0 -50 -45 -81t-109 -31t-109 31t-45 81zM97 444q68 39 172 39q93 0 148.5 -48.5t55.5 -147.5v-287h-98v33q-53 -39 -137 -39q-80 0 -131.5 43t-51.5 114q0 158 247 158q44 0 72 -3q-7 83 -105 83q-78 0 -125 -28 l-14 -8l-45 84zM312 218q-22 0 -39.5 -1t-36.5 -3.5t-33 -7t-26 -12t-18 -18.5t-6 -25q0 -18 10 -32t31.5 -22t52.5 -8q55 0 91.5 28.5t36.5 87.5v11q-28 2 -63 2z" />
<glyph unicode="&#x104;" horiz-adv-x="669" vert-adv-y="0" d="M661 0l-30 -26q-50 -27 -50 -48q0 -32 25 -32q12 0 20.5 7.5t22.5 27.5l8 12l65 -45l-7 -12q-8 -14 -14 -21.5t-19.5 -22.5t-33 -23t-42.5 -8q-50 0 -77.5 34t-27.5 80q0 41 41 72l4 5h115zM35 0l260 667h92l260 -667h-107l-62 165h-273l-62 -165h-108zM442 250l-101 274 l-101 -274h202z" />
<glyph unicode="&#x105;" horiz-adv-x="541" vert-adv-y="0" d="M498 0l-30 -26q-50 -27 -50 -48q0 -32 25 -32q12 0 20.5 7.5t22.5 27.5l8 12l65 -45l-7 -12q-8 -14 -14 -21.5t-19.5 -22.5t-33 -23t-42.5 -8q-50 0 -77.5 34t-27.5 80q0 41 41 72l4 5h115zM97 444q68 39 172 39q93 0 148.5 -48.5t55.5 -147.5v-287h-98v33 q-53 -39 -137 -39q-80 0 -131.5 43t-51.5 114q0 158 247 158q44 0 72 -3q-7 83 -105 83q-78 0 -125 -28l-14 -8l-45 84zM312 218q-22 0 -39.5 -1t-36.5 -3.5t-33 -7t-26 -12t-18 -18.5t-6 -25q0 -18 10 -32t31.5 -22t52.5 -8q55 0 91.5 28.5t36.5 87.5v11q-28 2 -63 2z" />
<glyph unicode="&#x106;" horiz-adv-x="601" vert-adv-y="0" d="M363 857h119l-107 -151h-106zM321 573q-32 0 -57 -5.5t-46.5 -18.5t-33.5 -36.5t-12 -57.5v-243q0 -118 149 -118q40 0 79.5 11t64.5 34l12 10l69 -74l-11 -10q-38 -37 -96.5 -54t-117.5 -17q-50 0 -94 11.5t-81.5 35.5t-59 67.5t-21.5 100.5v249q0 46 14.5 83.5 t38.5 61.5t57.5 40t69.5 23t76 7q129 0 204 -69l10 -10l-63 -78l-13 11q-58 46 -138 46z" />
<glyph unicode="&#x107;" horiz-adv-x="505" vert-adv-y="0" d="M333 666h119l-107 -151h-106zM169 207q0 -117 123 -117q56 0 100 34l15 12l50 -85l-9 -8q-19 -16 -42 -26.5t-52 -16.5t-62 -6q-46 0 -84.5 11t-71.5 34.5t-52 66t-19 100.5v65q0 58 19 100.5t52 66t71.5 34.5t84.5 11q88 0 145 -40l11 -8l-51 -85l-15 10q-43 27 -90 27 q-122 -2 -123 -117v-63z" />
<glyph unicode="&#x108;" horiz-adv-x="601" vert-adv-y="0" d="M451 706l-78 88l-77 -88h-125l173 151h59l173 -151h-125zM321 573q-32 0 -57 -5.5t-46.5 -18.5t-33.5 -36.5t-12 -57.5v-243q0 -118 149 -118q40 0 79.5 11t64.5 34l12 10l69 -74l-11 -10q-38 -37 -96.5 -54t-117.5 -17q-50 0 -94 11.5t-81.5 35.5t-59 67.5t-21.5 100.5 v249q0 46 14.5 83.5t38.5 61.5t57.5 40t69.5 23t76 7q129 0 204 -69l10 -10l-63 -78l-13 11q-58 46 -138 46z" />
<glyph unicode="&#x109;" horiz-adv-x="505" vert-adv-y="0" d="M421 515l-78 88l-77 -88h-125l173 151h59l173 -151h-125zM169 207q0 -117 123 -117q56 0 100 34l15 12l50 -85l-9 -8q-19 -16 -42 -26.5t-52 -16.5t-62 -6q-46 0 -84.5 11t-71.5 34.5t-52 66t-19 100.5v65q0 58 19 100.5t52 66t71.5 34.5t84.5 11q88 0 145 -40l11 -8 l-51 -85l-15 10q-43 27 -90 27q-122 -2 -123 -117v-63z" />
<glyph unicode="&#x10a;" horiz-adv-x="601" vert-adv-y="0" d="M272 802q0 27 18 44.5t44 17.5q27 0 44.5 -17.5t17.5 -44.5t-17.5 -44.5t-44.5 -17.5q-26 0 -44 17.5t-18 44.5zM321 573q-32 0 -57 -5.5t-46.5 -18.5t-33.5 -36.5t-12 -57.5v-243q0 -118 149 -118q40 0 79.5 11t64.5 34l12 10l69 -74l-11 -10q-38 -37 -96.5 -54 t-117.5 -17q-50 0 -94 11.5t-81.5 35.5t-59 67.5t-21.5 100.5v249q0 46 14.5 83.5t38.5 61.5t57.5 40t69.5 23t76 7q129 0 204 -69l10 -10l-63 -78l-13 11q-58 46 -138 46z" />
<glyph unicode="&#x10b;" horiz-adv-x="505" vert-adv-y="0" d="M242 611q0 27 18 44.5t44 17.5q27 0 44.5 -17.5t17.5 -44.5t-17.5 -44.5t-44.5 -17.5q-26 0 -44 17.5t-18 44.5zM169 207q0 -117 123 -117q56 0 100 34l15 12l50 -85l-9 -8q-19 -16 -42 -26.5t-52 -16.5t-62 -6q-46 0 -84.5 11t-71.5 34.5t-52 66t-19 100.5v65 q0 58 19 100.5t52 66t71.5 34.5t84.5 11q88 0 145 -40l11 -8l-51 -85l-15 10q-43 27 -90 27q-122 -2 -123 -117v-63z" />
<glyph unicode="&#x10c;" horiz-adv-x="601" vert-adv-y="0" d="M451 706l-78 88l-77 -88h-125l173 151h59l173 -151h-125zM321 573q-32 0 -57 -5.5t-46.5 -18.5t-33.5 -36.5t-12 -57.5v-243q0 -118 149 -118q40 0 79.5 11t64.5 34l12 10l69 -74l-11 -10q-38 -37 -96.5 -54t-117.5 -17q-50 0 -94 11.5t-81.5 35.5t-59 67.5t-21.5 100.5 v249q0 46 14.5 83.5t38.5 61.5t57.5 40t69.5 23t76 7q129 0 204 -69l10 -10l-63 -78l-13 11q-58 46 -138 46z" />
<glyph unicode="&#x10d;" horiz-adv-x="505" vert-adv-y="0" d="M421 515l-78 88l-77 -88h-125l173 151h59l173 -151h-125zM169 207q0 -117 123 -117q56 0 100 34l15 12l50 -85l-9 -8q-19 -16 -42 -26.5t-52 -16.5t-62 -6q-46 0 -84.5 11t-71.5 34.5t-52 66t-19 100.5v65q0 58 19 100.5t52 66t71.5 34.5t84.5 11q88 0 145 -40l11 -8 l-51 -85l-15 10q-43 27 -90 27q-122 -2 -123 -117v-63z" />
<glyph unicode="&#x10e;" horiz-adv-x="650" vert-adv-y="0" d="M451 706l-78 88l-77 -88h-125l173 151h59l173 -151h-125zM315 667q67 0 117.5 -15t81.5 -42.5t46 -64.5t15 -83v-257q0 -95 -64 -150t-196 -55h-230v667h230zM315 100q86 0 121 26t35 81v253q0 55 -35 81t-121 26h-126v-467h126z" />
<glyph unicode="&#x10f;" horiz-adv-x="610" vert-adv-y="0" d="M567 637q0 17 20 26.5t46 9.5t46 -9.5t20 -26.5q0 -23 -10 -51l-48 -160h-75l31 155q-30 18 -30 56zM268 -6q-40 0 -76 11t-68 34t-50.5 66t-18.5 101v65q0 58 18.5 101t50.5 66t68 34t76 11q86 0 137 -37v221h100v-667h-100v31q-9 -7 -19.5 -12.5t-21 -9.5t-22 -7 t-24 -4.5t-25 -2.5t-25.5 -1zM405 207v63q0 117 -125 117t-125 -117v-63q0 -117 125 -117t125 117z" />
<glyph unicode="&#x110;" horiz-adv-x="681" vert-adv-y="0" d="M127 388v279h209q129 0 204.5 -56t75.5 -176v-202q0 -120 -75 -176.5t-205 -56.5h-209v298h-72v90h72zM363 298h-136v-198h109q84 0 130 31t46 103v200q0 72 -46 102.5t-130 30.5h-109v-179h136v-90z" />
<glyph unicode="&#x111;" horiz-adv-x="615" vert-adv-y="0" d="M405 593v74h98v-74h62v-91h-62v-502h-98v36q-55 -42 -134 -42q-94 0 -155 55t-61 157v64q0 102 61 157.5t155 55.5q78 0 134 -43v62h-168v91h168zM405 269q0 58 -36.5 88t-86.5 30t-86.5 -30t-36.5 -87v-63q0 -57 36.5 -87t86.5 -30t86.5 30t36.5 87v62z" />
<glyph unicode="&#x112;" vert-adv-y="0" d="M155 746v86h300v-86h-300zM85 0v667h419v-100h-317v-174h267v-100h-265v-193h316v-100h-420z" />
<glyph unicode="&#x113;" horiz-adv-x="556" vert-adv-y="0" d="M147 555v86h300v-86h-300zM468 42q-71 -48 -175 -48t-169.5 54.5t-65.5 166.5v56q0 57 19 100t51 66.5t70 34.5t82 11t81 -11t69 -35t50 -67t18 -102v-65h-338q6 -115 133 -115q76 0 126 35l14 10l47 -84zM280 389q-108 0 -119 -92h238q-4 49 -37.5 70.5t-81.5 21.5z" />
<glyph unicode="&#x114;" vert-adv-y="0" d="M152 848v15h81v-15q0 -30 73 -30q74 0 74 30v15h80v-15q0 -50 -45 -81t-109 -31t-109 31t-45 81zM85 0v667h419v-100h-317v-174h267v-100h-265v-193h316v-100h-420z" />
<glyph unicode="&#x115;" horiz-adv-x="556" vert-adv-y="0" d="M144 657v15h81v-15q0 -30 73 -30q74 0 74 30v15h80v-15q0 -50 -45 -81t-109 -31t-109 31t-45 81zM468 42q-71 -48 -175 -48t-169.5 54.5t-65.5 166.5v56q0 57 19 100t51 66.5t70 34.5t82 11t81 -11t69 -35t50 -67t18 -102v-65h-338q6 -115 133 -115q76 0 126 35l14 10 l47 -84zM280 389q-108 0 -119 -92h238q-4 49 -37.5 70.5t-81.5 21.5z" />
<glyph unicode="&#x116;" vert-adv-y="0" d="M244 802q0 27 18 44.5t44 17.5q27 0 44.5 -17.5t17.5 -44.5t-17.5 -44.5t-44.5 -17.5q-26 0 -44 17.5t-18 44.5zM85 0v667h419v-100h-317v-174h267v-100h-265v-193h316v-100h-420z" />
<glyph unicode="&#x117;" horiz-adv-x="556" vert-adv-y="0" d="M236 611q0 27 18 44.5t44 17.5q27 0 44.5 -17.5t17.5 -44.5t-17.5 -44.5t-44.5 -17.5q-26 0 -44 17.5t-18 44.5zM468 42q-71 -48 -175 -48t-169.5 54.5t-65.5 166.5v56q0 57 19 100t51 66.5t70 34.5t82 11t81 -11t69 -35t50 -67t18 -102v-65h-338q6 -115 133 -115 q76 0 126 35l14 10l47 -84zM280 389q-108 0 -119 -92h238q-4 49 -37.5 70.5t-81.5 21.5z" />
<glyph unicode="&#x118;" vert-adv-y="0" d="M380 0l-30 -26q-50 -27 -50 -48q0 -32 25 -32q12 0 20.5 7.5t22.5 27.5l8 12l65 -45l-7 -12q-8 -14 -14 -21.5t-19.5 -22.5t-33 -23t-42.5 -8q-50 0 -77.5 34t-27.5 80q0 41 41 72l4 5h115zM85 0v667h419v-100h-317v-174h267v-100h-265v-193h316v-100h-420z" />
<glyph unicode="&#x119;" horiz-adv-x="556" vert-adv-y="0" d="M382 0l-30 -26q-50 -27 -50 -48q0 -32 25 -32q12 0 20.5 7.5t22.5 27.5l8 12l65 -45l-7 -12q-8 -14 -14 -21.5t-19.5 -22.5t-33 -23t-42.5 -8q-50 0 -77.5 34t-27.5 80q0 41 41 72l4 5h115zM468 42q-71 -48 -175 -48t-169.5 54.5t-65.5 166.5v56q0 57 19 100t51 66.5 t70 34.5t82 11t81 -11t69 -35t50 -67t18 -102v-65h-338q6 -115 133 -115q76 0 126 35l14 10l47 -84zM280 389q-108 0 -119 -92h238q-4 49 -37.5 70.5t-81.5 21.5z" />
<glyph unicode="&#x11a;" vert-adv-y="0" d="M422 706l-78 88l-77 -88h-125l173 151h59l173 -151h-125zM85 0v667h419v-100h-317v-174h267v-100h-265v-193h316v-100h-420z" />
<glyph unicode="&#x11b;" horiz-adv-x="556" vert-adv-y="0" d="M414 515l-78 88l-77 -88h-125l173 151h59l173 -151h-125zM468 42q-71 -48 -175 -48t-169.5 54.5t-65.5 166.5v56q0 57 19 100t51 66.5t70 34.5t82 11t81 -11t69 -35t50 -67t18 -102v-65h-338q6 -115 133 -115q76 0 126 35l14 10l47 -84zM280 389q-108 0 -119 -92h238 q-4 49 -37.5 70.5t-81.5 21.5z" />
<glyph unicode="&#x11c;" horiz-adv-x="640" vert-adv-y="0" d="M451 706l-78 88l-77 -88h-125l173 151h59l173 -151h-125zM460 527q-58 46 -139 46q-149 0 -149 -118v-243q0 -118 149 -118q67 0 108.5 25.5t41.5 80.5v72h-152v100h256v-171q0 -55 -21.5 -96t-58 -64.5t-80 -35t-94.5 -11.5q-50 0 -94 11.5t-81.5 35.5t-59 67.5 t-21.5 100.5v249q0 57 21.5 100.5t59 67.5t81.5 35.5t94 11.5q131 0 204 -69l10 -10l-62 -78z" />
<glyph unicode="&#x11d;" horiz-adv-x="580" vert-adv-y="0" d="M401 515l-78 88l-77 -88h-125l173 151h59l173 -151h-125zM405 15v16q-55 -37 -138 -37q-40 0 -75.5 11t-67.5 34t-50.5 66t-18.5 101v65q0 58 18.5 101t50.5 66t67.5 34t75.5 11q83 0 138 -37v31h100v-462q0 -86 -65 -145.5t-174 -59.5t-180 48l-12 7l47 86l14 -10 q48 -35 131 -35q63 0 101 31.5t38 77.5zM405 207v63q0 117 -127 117q-123 0 -123 -117v-63q0 -117 123 -117q127 0 127 117z" />
<glyph unicode="&#x11e;" horiz-adv-x="640" vert-adv-y="0" d="M181 848v15h81v-15q0 -30 73 -30q74 0 74 30v15h80v-15q0 -50 -45 -81t-109 -31t-109 31t-45 81zM460 527q-58 46 -139 46q-149 0 -149 -118v-243q0 -118 149 -118q67 0 108.5 25.5t41.5 80.5v72h-152v100h256v-171q0 -55 -21.5 -96t-58 -64.5t-80 -35t-94.5 -11.5 q-50 0 -94 11.5t-81.5 35.5t-59 67.5t-21.5 100.5v249q0 57 21.5 100.5t59 67.5t81.5 35.5t94 11.5q131 0 204 -69l10 -10l-62 -78z" />
<glyph unicode="&#x11f;" horiz-adv-x="580" vert-adv-y="0" d="M131 657v15h81v-15q0 -30 73 -30q74 0 74 30v15h80v-15q0 -50 -45 -81t-109 -31t-109 31t-45 81zM405 15v16q-55 -37 -138 -37q-40 0 -75.5 11t-67.5 34t-50.5 66t-18.5 101v65q0 58 18.5 101t50.5 66t67.5 34t75.5 11q83 0 138 -37v31h100v-462q0 -86 -65 -145.5 t-174 -59.5t-180 48l-12 7l47 86l14 -10q48 -35 131 -35q63 0 101 31.5t38 77.5zM405 207v63q0 117 -127 117q-123 0 -123 -117v-63q0 -117 123 -117q127 0 127 117z" />
<glyph unicode="&#x120;" horiz-adv-x="640" vert-adv-y="0" d="M272 802q0 27 18 44.5t44 17.5q27 0 44.5 -17.5t17.5 -44.5t-17.5 -44.5t-44.5 -17.5q-26 0 -44 17.5t-18 44.5zM460 527q-58 46 -139 46q-149 0 -149 -118v-243q0 -118 149 -118q67 0 108.5 25.5t41.5 80.5v72h-152v100h256v-171q0 -55 -21.5 -96t-58 -64.5t-80 -35 t-94.5 -11.5q-50 0 -94 11.5t-81.5 35.5t-59 67.5t-21.5 100.5v249q0 57 21.5 100.5t59 67.5t81.5 35.5t94 11.5q131 0 204 -69l10 -10l-62 -78z" />
<glyph unicode="&#x121;" horiz-adv-x="580" vert-adv-y="0" d="M222 611q0 27 18 44.5t44 17.5q27 0 44.5 -17.5t17.5 -44.5t-17.5 -44.5t-44.5 -17.5q-26 0 -44 17.5t-18 44.5zM405 15v16q-55 -37 -138 -37q-40 0 -75.5 11t-67.5 34t-50.5 66t-18.5 101v65q0 58 18.5 101t50.5 66t67.5 34t75.5 11q83 0 138 -37v31h100v-462 q0 -86 -65 -145.5t-174 -59.5t-180 48l-12 7l47 86l14 -10q48 -35 131 -35q63 0 101 31.5t38 77.5zM405 207v63q0 117 -127 117q-123 0 -123 -117v-63q0 -117 123 -117q127 0 127 117z" />
<glyph unicode="&#x122;" horiz-adv-x="640" vert-adv-y="0" d="M273 -94q0 31 20 46t45.5 15t46 -15t20.5 -46q0 -28 -11 -47l-50 -89h-75l32 85q-28 16 -28 51zM460 527q-58 46 -139 46q-149 0 -149 -118v-243q0 -118 149 -118q67 0 108.5 25.5t41.5 80.5v72h-152v100h256v-171q0 -55 -21.5 -96t-58 -64.5t-80 -35t-94.5 -11.5 q-50 0 -94 11.5t-81.5 35.5t-59 67.5t-21.5 100.5v249q0 57 21.5 100.5t59 67.5t81.5 35.5t94 11.5q131 0 204 -69l10 -10l-62 -78z" />
<glyph unicode="&#x123;" horiz-adv-x="580" vert-adv-y="0" d="M354 612q0 -47 -20 -69t-46 -22q-16 0 -30 8t-25 29.5t-11 53.5q0 28 11 47l49 59h76l-32 -55q28 -16 28 -51zM405 15v16q-55 -37 -138 -37q-40 0 -75.5 11t-67.5 34t-50.5 66t-18.5 101v65q0 58 18.5 101t50.5 66t67.5 34t75.5 11q83 0 138 -37v31h100v-462 q0 -86 -65 -145.5t-174 -59.5t-180 48l-12 7l47 86l14 -10q48 -35 131 -35q63 0 101 31.5t38 77.5zM405 207v63q0 117 -127 117q-123 0 -123 -117v-63q0 -117 123 -117q127 0 127 117z" />
<glyph unicode="&#x124;" horiz-adv-x="670" vert-adv-y="0" d="M466 706l-78 88l-77 -88h-125l173 151h59l173 -151h-125zM85 0v667h104v-274h292v274h104v-667h-104v293h-292v-293h-104z" />
<glyph unicode="&#x125;" horiz-adv-x="578" vert-adv-y="0" d="M272 706l-78 88l-77 -88h-125l173 151h59l173 -151h-125zM175 267v-267h-100v667h100v-218q52 34 131 34q41 0 76 -11t66 -34t49 -66t18 -101v-271h-100v267q0 68 -32.5 94t-87.5 26q-26 0 -46 -5t-37.5 -17.5t-27 -37t-9.5 -60.5z" />
<glyph unicode="&#x126;" horiz-adv-x="770" vert-adv-y="0" d="M134 577v90h101v-94h298v94h101v-90h61v-87h-61v-490h-101v295h-298v-295h-101v490h-59v87h59zM533 497h-298v-106h298v106z" />
<glyph unicode="&#x127;" horiz-adv-x="644" vert-adv-y="0" d="M239 440q57 43 137 43q92 0 147.5 -54.5t55.5 -157.5v-271h-100v266q0 42 -16.5 70t-41.5 39.5t-56 11.5q-52 0 -89 -30.5t-37 -89.5v-267h-100v502h-74v91h74v74h100v-74h155v-91h-155v-62z" />
<glyph unicode="&#x128;" horiz-adv-x="274" vert-adv-y="0" d="M121 787q-10 -18 -22 -18q-28 0 -28 -8v-15h-80v15q0 36 29 62t77 26q70 0 115 -17q11 -12 25 -12q26 0 26 37v-15h80v15q0 -52 -32.5 -84.5t-75.5 -32.5q-70 0 -114 47zM85 667h104v-667h-104v667z" />
<glyph unicode="&#x129;" horiz-adv-x="244" vert-adv-y="0" d="M106 597q-10 -18 -22 -18q-28 0 -28 -8v-15h-80v15q0 36 29 62t77 26q70 0 115 -17q11 -12 25 -12q26 0 26 37v-15h80v15q0 -52 -32.5 -84.5t-75.5 -32.5q-70 0 -114 47zM72 0v477h100v-477h-100z" />
<glyph unicode="&#x12a;" horiz-adv-x="274" vert-adv-y="0" d="M1 746v86h300v-86h-300zM85 667h104v-667h-104v667z" />
<glyph unicode="&#x12b;" horiz-adv-x="244" vert-adv-y="0" d="M-14 556v86h300v-86h-300zM72 0v477h100v-477h-100z" />
<glyph unicode="&#x12c;" horiz-adv-x="274" vert-adv-y="0" d="M-2 848v15h81v-15q0 -30 73 -30q74 0 74 30v15h80v-15q0 -50 -45 -81t-109 -31t-109 31t-45 81zM85 667h104v-667h-104v667z" />
<glyph unicode="&#x12d;" horiz-adv-x="244" vert-adv-y="0" d="M-17 658v15h81v-15q0 -30 73 -30q74 0 74 30v15h80v-15q0 -50 -45 -81t-109 -31t-109 31t-45 81zM72 0v477h100v-477h-100z" />
<glyph unicode="&#x12e;" horiz-adv-x="274" vert-adv-y="0" d="M226 0l-30 -26q-50 -27 -50 -48q0 -32 25 -32q12 0 20.5 7.5t22.5 27.5l8 12l65 -45l-7 -12q-8 -14 -14 -21.5t-19.5 -22.5t-33 -23t-42.5 -8q-50 0 -77.5 34t-27.5 80q0 41 41 72l4 5h115zM85 667h104v-667h-104v667z" />
<glyph unicode="&#x12f;" horiz-adv-x="262" vert-adv-y="0" d="M220 6l-30 -26q-50 -27 -50 -48q0 -32 25 -32q12 0 20.5 7.5t22.5 27.5l8 12l65 -45l-7 -12q-8 -14 -14 -21.5t-19.5 -22.5t-33 -23t-42.5 -8q-50 0 -77.5 34t-27.5 80q0 41 41 72l4 5h115zM81 0v477h100v-477h-100zM69 582q0 27 17.5 44.5t43.5 17.5q27 0 45 -17.5 t18 -44.5t-18 -44.5t-45 -17.5q-26 0 -43.5 17.5t-17.5 44.5z" />
<glyph unicode="&#x130;" horiz-adv-x="274" vert-adv-y="0" d="M90 802q0 27 18 44.5t44 17.5q27 0 44.5 -17.5t17.5 -44.5t-17.5 -44.5t-44.5 -17.5q-26 0 -44 17.5t-18 44.5zM85 667h104v-667h-104v667z" />
<glyph unicode="&#x131;" horiz-adv-x="244" vert-adv-y="0" d="M72 0v477h100v-477h-100z" />
<glyph unicode="&#x132;" horiz-adv-x="712" vert-adv-y="0" d="M533 209v458h104v-461q0 -69 -31 -118t-77 -71.5t-101 -22.5q-128 0 -212 100l-9 12l88 62l10 -12q19 -22 37.5 -36t36.5 -19t26.5 -6t22.5 -1q41 0 73 29.5t32 85.5zM85 667h104v-667h-104v667z" />
<glyph unicode="&#x133;" horiz-adv-x="442" vert-adv-y="0" d="M69 572q0 27 18 44.5t44 17.5q28 0 48.5 -18t20.5 -44q0 -17 -10 -31.5t-25.5 -22.5t-33.5 -8q-26 0 -44 17.5t-18 44.5zM82 0v477h100v-477h-100zM241 572q0 26 21.5 44t48.5 18t44.5 -17.5t17.5 -44.5t-17.5 -44.5t-44.5 -17.5t-48.5 18t-21.5 44zM362 477v-522 q0 -70 -43.5 -107.5t-112.5 -37.5h-54v92h54q56 0 56 53v522h100z" />
<glyph unicode="&#x134;" horiz-adv-x="551" vert-adv-y="0" d="M545 706l-78 88l-77 -88h-125l173 151h59l173 -151h-125zM377 213v454h104v-458q0 -109 -63 -162t-166 -53q-135 0 -190 90l-7 11l78 63l9 -13q35 -51 110 -51q125 0 125 119z" />
<glyph unicode="&#x135;" horiz-adv-x="255" vert-adv-y="0" d="M261 513l-78 88l-77 -88h-125l173 151h59l173 -151h-125zM180 477v-522q0 -69 -40.5 -107t-94.5 -38h-45v92h45q35 0 35 53v522h100z" />
<glyph unicode="&#x136;" horiz-adv-x="644" vert-adv-y="0" d="M278 -94q0 31 20 46t45.5 15t46 -15t20.5 -46q0 -28 -11 -47l-50 -89h-75l32 85q-28 16 -28 51zM189 245v-245h-104v667h104v-316l289 316h125l-288 -310l299 -357h-124l-251 298z" />
<glyph unicode="&#x137;" horiz-adv-x="529" vert-adv-y="0" d="M222 -94q0 31 20 46t45.5 15t46 -15t20.5 -46q0 -28 -11 -47l-50 -89h-75l32 85q-28 16 -28 51zM75 0v667h100v-409l192 219h122l-191 -219l205 -258h-118l-163 201l-47 -54v-147h-100z" />
<glyph unicode="&#x138;" horiz-adv-x="527" vert-adv-y="0" d="M75 0v477h98v-219l195 219h119l-189 -219l203 -258h-118l-163 201l-47 -54v-147h-98z" />
<glyph unicode="&#x139;" horiz-adv-x="580" vert-adv-y="0" d="M196 857h119l-107 -151h-106zM85 0v667h104v-567h336v-100h-440z" />
<glyph unicode="&#x13a;" horiz-adv-x="250" vert-adv-y="0" d="M168 857h119l-107 -151h-106zM75 0v667h100v-667h-100z" />
<glyph unicode="&#x13b;" horiz-adv-x="580" vert-adv-y="0" d="M255 -94q0 31 20 46t45.5 15t46 -15t20.5 -46q0 -28 -11 -47l-50 -89h-75l32 85q-28 16 -28 51zM85 0v667h104v-567h336v-100h-440z" />
<glyph unicode="&#x13c;" horiz-adv-x="250" vert-adv-y="0" d="M82 -94q0 31 20 46t45.5 15t46 -15t20.5 -46q0 -28 -11 -47l-50 -89h-75l32 85q-28 16 -28 51zM75 0v667h100v-667h-100z" />
<glyph unicode="&#x13d;" horiz-adv-x="610" vert-adv-y="0" d="M281 637q0 17 20 26.5t46 9.5t46 -9.5t20 -26.5q0 -23 -10 -51l-48 -160h-75l31 155q-30 18 -30 56zM85 0v667h104v-567h336v-100h-440z" />
<glyph unicode="&#x13e;" horiz-adv-x="280" vert-adv-y="0" d="M253 637q0 17 20 26.5t46 9.5t46 -9.5t20 -26.5q0 -23 -10 -51l-48 -160h-75l31 155q-30 18 -30 56zM75 0v667h100v-667h-100z" />
<glyph unicode="&#x13f;" horiz-adv-x="580" vert-adv-y="0" d="M85 0v667h104v-567h336v-100h-440zM232 334q0 28 22 47t55 19q21 0 38.5 -8.5t27.5 -23.5t10 -34t-10 -34t-27.5 -23.5t-38.5 -8.5q-33 0 -55 19t-22 47z" />
<glyph unicode="&#x140;" horiz-adv-x="394" vert-adv-y="0" d="M75 0v667h100v-667h-100zM212 334q0 28 19 47t47 19t47 -19t19 -47t-19 -47t-47 -19t-47 19t-19 47z" />
<glyph unicode="&#x141;" horiz-adv-x="655" vert-adv-y="0" d="M160 339v328h104v-277l153 63v-89l-153 -65v-199h336v-100h-440v249l-115 -55v91z" />
<glyph unicode="&#x142;" horiz-adv-x="470" vert-adv-y="0" d="M165 342v325h127v-277l133 63v-91l-133 -63l-27 -299h-100v251l-120 -58v90z" />
<glyph unicode="&#x143;" horiz-adv-x="670" vert-adv-y="0" d="M378 857h119l-107 -151h-106zM85 0v667h89l307 -479v479h104v-667h-89l-305 479v-479h-106z" />
<glyph unicode="&#x144;" horiz-adv-x="578" vert-adv-y="0" d="M348 667h119l-107 -151h-106zM75 0v477h104v-28q51 34 129 34q40 0 75 -11t65.5 -34t48.5 -66t18 -101v-271h-100v267q0 68 -32 94t-86 26q-25 0 -45 -5t-37 -17.5t-26.5 -37t-9.5 -60.5v-267h-104z" />
<glyph unicode="&#x145;" horiz-adv-x="670" vert-adv-y="0" d="M290 -94q0 31 20 46t45.5 15t46 -15t20.5 -46q0 -28 -11 -47l-50 -89h-75l32 85q-28 16 -28 51zM85 0v667h89l307 -479v479h104v-667h-89l-305 479v-479h-106z" />
<glyph unicode="&#x146;" horiz-adv-x="578" vert-adv-y="0" d="M245 -94q0 31 20 46t45.5 15t46 -15t20.5 -46q0 -28 -11 -47l-50 -89h-75l32 85q-28 16 -28 51zM75 0v477h104v-28q51 34 129 34q40 0 75 -11t65.5 -34t48.5 -66t18 -101v-271h-100v267q0 68 -32 94t-86 26q-25 0 -45 -5t-37 -17.5t-26.5 -37t-9.5 -60.5v-267h-104z" />
<glyph unicode="&#x147;" horiz-adv-x="670" vert-adv-y="0" d="M466 706l-78 88l-77 -88h-125l173 151h59l173 -151h-125zM85 0v667h89l307 -479v479h104v-667h-89l-305 479v-479h-106z" />
<glyph unicode="&#x148;" horiz-adv-x="578" vert-adv-y="0" d="M436 516l-78 88l-77 -88h-125l173 151h59l173 -151h-125zM75 0v477h104v-28q51 34 129 34q40 0 75 -11t65.5 -34t48.5 -66t18 -101v-271h-100v267q0 68 -32 94t-86 26q-25 0 -45 -5t-37 -17.5t-26.5 -37t-9.5 -60.5v-267h-104z" />
<glyph unicode="&#x149;" horiz-adv-x="662" vert-adv-y="0" d="M51 607q0 31 20 48.5t46 17.5q16 0 31 -7t25 -22.5t10 -36.5q0 -23 -10 -51l-48 -130h-75l31 125q-30 18 -30 56zM258 440q57 43 137 43q86 0 144.5 -55t58.5 -157v-271h-100v266q0 42 -16.5 70t-41 39.5t-56.5 11.5q-51 0 -88.5 -30.5t-37.5 -89.5v-267h-100v477h100 v-37z" />
<glyph unicode="&#x14a;" horiz-adv-x="666" vert-adv-y="0" d="M85 0v667h87l307 -479v479h102v-712q0 -47 -20.5 -80.5t-52 -49t-68.5 -15.5h-50v92h50q39 0 39 53v72l-290 452v-479h-104z" />
<glyph unicode="&#x14b;" horiz-adv-x="580" vert-adv-y="0" d="M175 440q58 43 139 43q90 0 145.5 -55t55.5 -158v-315q0 -69 -40.5 -107t-96.5 -38h-52v92h52q37 0 37 53v310q0 62 -31.5 92t-81.5 30q-24 0 -46 -7t-40.5 -21t-29.5 -37.5t-11 -54.5v-267h-100v477h100v-37z" />
<glyph unicode="&#x14c;" horiz-adv-x="660" vert-adv-y="0" d="M194 746v86h300v-86h-300zM595 458v-249q0 -57 -22 -100.5t-60.5 -67.5t-84 -35.5t-98.5 -11.5t-98.5 11.5t-84 35.5t-60.5 67.5t-22 100.5v249q0 46 14.5 83.5t39.5 61.5t59.5 40t72 23t79.5 7q53 0 98.5 -11.5t84 -35.5t60.5 -67.5t22 -100.5zM169 455v-243 q0 -118 161 -118t161 118v243q0 118 -161 118t-161 -118z" />
<glyph unicode="&#x14d;" horiz-adv-x="560" vert-adv-y="0" d="M144 556v86h300v-86h-300zM505 271v-65q0 -58 -18.5 -100.5t-50.5 -66t-70.5 -34.5t-84 -11t-84 11t-71.5 34.5t-52 66t-19 100.5v65q0 58 19 100.5t52 66t71.5 34.5t84 11t84 -11t70.5 -34.5t50.5 -66t18.5 -100.5zM159 270v-63q0 -117 123 -117t123 117v63q0 34 -10 58 t-28.5 36.5t-39 17.5t-45.5 5q-122 -2 -123 -117z" />
<glyph unicode="&#x14e;" horiz-adv-x="660" vert-adv-y="0" d="M191 848v15h81v-15q0 -30 73 -30q74 0 74 30v15h80v-15q0 -50 -45 -81t-109 -31t-109 31t-45 81zM595 458v-249q0 -57 -22 -100.5t-60.5 -67.5t-84 -35.5t-98.5 -11.5t-98.5 11.5t-84 35.5t-60.5 67.5t-22 100.5v249q0 46 14.5 83.5t39.5 61.5t59.5 40t72 23t79.5 7 q53 0 98.5 -11.5t84 -35.5t60.5 -67.5t22 -100.5zM169 455v-243q0 -118 161 -118t161 118v243q0 118 -161 118t-161 -118z" />
<glyph unicode="&#x14f;" horiz-adv-x="560" vert-adv-y="0" d="M141 658v15h81v-15q0 -30 73 -30q74 0 74 30v15h80v-15q0 -50 -45 -81t-109 -31t-109 31t-45 81zM505 271v-65q0 -58 -18.5 -100.5t-50.5 -66t-70.5 -34.5t-84 -11t-84 11t-71.5 34.5t-52 66t-19 100.5v65q0 58 19 100.5t52 66t71.5 34.5t84 11t84 -11t70.5 -34.5 t50.5 -66t18.5 -100.5zM159 270v-63q0 -117 123 -117t123 117v63q0 34 -10 58t-28.5 36.5t-39 17.5t-45.5 5q-122 -2 -123 -117z" />
<glyph unicode="&#x150;" horiz-adv-x="660" vert-adv-y="0" d="M494 857h114l-107 -151h-123zM313 857h136l-129 -151h-101zM595 458v-249q0 -57 -22 -100.5t-60.5 -67.5t-84 -35.5t-98.5 -11.5t-98.5 11.5t-84 35.5t-60.5 67.5t-22 100.5v249q0 46 14.5 83.5t39.5 61.5t59.5 40t72 23t79.5 7q53 0 98.5 -11.5t84 -35.5t60.5 -67.5 t22 -100.5zM169 455v-243q0 -118 161 -118t161 118v243q0 118 -161 118t-161 -118z" />
<glyph unicode="&#x151;" horiz-adv-x="560" vert-adv-y="0" d="M444 667h114l-107 -151h-123zM263 667h136l-129 -151h-101zM505 271v-65q0 -58 -18.5 -100.5t-50.5 -66t-70.5 -34.5t-84 -11t-84 11t-71.5 34.5t-52 66t-19 100.5v65q0 58 19 100.5t52 66t71.5 34.5t84 11t84 -11t70.5 -34.5t50.5 -66t18.5 -100.5zM159 270v-63 q0 -117 123 -117t123 117v63q0 34 -10 58t-28.5 36.5t-39 17.5t-45.5 5q-122 -2 -123 -117z" />
<glyph unicode="&#x152;" horiz-adv-x="903" vert-adv-y="0" d="M490 461q0 58 -43.5 85t-115.5 27q-159 0 -159 -134v-210q0 -135 159 -135q47 0 81 10.5t56 36.5t22 66v254zM490 631v36h347v-95h-245v-179h205v-100h-203v-198h244v-95h-348v36q-59 -42 -159 -42q-56 0 -102.5 13t-84 40t-58.5 73t-21 107v214q0 61 21 106.5t58.5 72.5 t84 40t102.5 13q100 0 159 -42z" />
<glyph unicode="&#x153;" horiz-adv-x="840" vert-adv-y="0" d="M372 269q0 59 -32 89.5t-73 30.5q-25 0 -48 -11.5t-40 -40t-17 -67.5v-63q0 -58 32 -88.5t73 -30.5t73 30.5t32 88.5v62zM577 391q-24 0 -46.5 -11.5t-39.5 -37.5t-20 -62h213q-5 55 -34.5 83t-72.5 28zM750 203h-284q0 -39 14.5 -66t35 -38.5t44.5 -11.5q30 0 54.5 9.5 t56.5 32.5l13 9l52 -77l-12 -8q-45 -32 -81.5 -45.5t-82.5 -13.5q-42 0 -79 19t-62 56q-50 -75 -152 -75q-87 0 -147 55.5t-60 156.5v64q0 102 60 157.5t147 55.5q48 0 88 -19t64 -56q55 75 158 75q89 0 146 -56t57 -162z" />
<glyph unicode="&#x154;" horiz-adv-x="622" vert-adv-y="0" d="M338 857h119l-107 -151h-106zM85 667h228q108 0 171 -52.5t63 -158.5q0 -134 -103 -185l121 -271h-111l-121 242h-20h-122v-242h-106v667zM193 342h120q65 0 97.5 26t32.5 86q0 25 -5.5 44t-16.5 32t-27 21.5t-36 12t-45 3.5h-120v-225z" />
<glyph unicode="&#x155;" horiz-adv-x="408" vert-adv-y="0" d="M268 667h119l-107 -151h-106zM75 0v477h100v-28q45 34 115 34q31 0 61 -6l14 -3l-14 -92l-15 2q-24 3 -56 3q-48 0 -76.5 -26t-28.5 -94v-267h-100z" />
<glyph unicode="&#x156;" horiz-adv-x="622" vert-adv-y="0" d="M270 -94q0 31 20 46t45.5 15t46 -15t20.5 -46q0 -28 -11 -47l-50 -89h-75l32 85q-28 16 -28 51zM85 667h228q108 0 171 -52.5t63 -158.5q0 -134 -103 -185l121 -271h-111l-121 242h-20h-122v-242h-106v667zM193 342h120q65 0 97.5 26t32.5 86q0 25 -5.5 44t-16.5 32 t-27 21.5t-36 12t-45 3.5h-120v-225z" />
<glyph unicode="&#x157;" horiz-adv-x="408" vert-adv-y="0" d="M77 -94q0 31 20 46t45.5 15t46 -15t20.5 -46q0 -28 -11 -47l-50 -89h-75l32 85q-28 16 -28 51zM75 0v477h100v-28q45 34 115 34q31 0 61 -6l14 -3l-14 -92l-15 2q-24 3 -56 3q-48 0 -76.5 -26t-28.5 -94v-267h-100z" />
<glyph unicode="&#x158;" horiz-adv-x="622" vert-adv-y="0" d="M426 706l-78 88l-77 -88h-125l173 151h59l173 -151h-125zM85 667h228q108 0 171 -52.5t63 -158.5q0 -134 -103 -185l121 -271h-111l-121 242h-20h-122v-242h-106v667zM193 342h120q65 0 97.5 26t32.5 86q0 25 -5.5 44t-16.5 32t-27 21.5t-36 12t-45 3.5h-120v-225z" />
<glyph unicode="&#x159;" horiz-adv-x="408" vert-adv-y="0" d="M356 516l-78 88l-77 -88h-125l173 151h59l173 -151h-125zM75 0v477h100v-28q45 34 115 34q31 0 61 -6l14 -3l-14 -92l-15 2q-24 3 -56 3q-48 0 -76.5 -26t-28.5 -94v-267h-100z" />
<glyph unicode="&#x15a;" horiz-adv-x="601" vert-adv-y="0" d="M335 857h119l-107 -151h-106zM532 191q0 -93 -65 -145t-179 -52q-62 0 -124 17t-100 54l-11 10l68 74l11 -10q23 -22 68 -33.5t88 -11.5q140 0 140 102q0 48 -37.5 70.5t-109.5 32.5q-220 30 -220 184q0 64 32 108t82.5 63t116.5 19q56 0 115.5 -15.5t99.5 -53.5l10 -10 l-62 -78l-12 11q-55 46 -151 46q-127 0 -127 -95q0 -42 34.5 -61.5t103.5 -30.5q38 -6 68.5 -14t61.5 -23.5t52 -35.5t34 -51.5t13 -70.5z" />
<glyph unicode="&#x15b;" horiz-adv-x="496" vert-adv-y="0" d="M290 667h119l-107 -151h-106zM428 444l12 -7l-48 -86l-15 8q-50 28 -128 28q-85 0 -85 -49q0 -21 19 -30.5t75 -18.5q192 -28 192 -148q0 -39 -18.5 -68.5t-49 -46t-64.5 -24.5t-69 -8q-49 0 -102.5 12t-91.5 36l-12 7l51 86l15 -10q25 -17 65.5 -26t74.5 -9q96 0 96 58 q0 26 -24.5 39t-80.5 22q-21 3 -36.5 6t-39 9.5t-41 16.5t-34 24t-25 34.5t-8.5 45.5q0 36 18.5 64.5t48.5 43.5t62 22.5t64 7.5q107 0 179 -39z" />
<glyph unicode="&#x15c;" horiz-adv-x="601" vert-adv-y="0" d="M423 706l-78 88l-77 -88h-125l173 151h59l173 -151h-125zM532 191q0 -93 -65 -145t-179 -52q-62 0 -124 17t-100 54l-11 10l68 74l11 -10q23 -22 68 -33.5t88 -11.5q140 0 140 102q0 48 -37.5 70.5t-109.5 32.5q-220 30 -220 184q0 64 32 108t82.5 63t116.5 19 q56 0 115.5 -15.5t99.5 -53.5l10 -10l-62 -78l-12 11q-55 46 -151 46q-127 0 -127 -95q0 -42 34.5 -61.5t103.5 -30.5q38 -6 68.5 -14t61.5 -23.5t52 -35.5t34 -51.5t13 -70.5z" />
<glyph unicode="&#x15d;" horiz-adv-x="496" vert-adv-y="0" d="M378 516l-78 88l-77 -88h-125l173 151h59l173 -151h-125zM428 444l12 -7l-48 -86l-15 8q-50 28 -128 28q-85 0 -85 -49q0 -21 19 -30.5t75 -18.5q192 -28 192 -148q0 -39 -18.5 -68.5t-49 -46t-64.5 -24.5t-69 -8q-49 0 -102.5 12t-91.5 36l-12 7l51 86l15 -10 q25 -17 65.5 -26t74.5 -9q96 0 96 58q0 26 -24.5 39t-80.5 22q-21 3 -36.5 6t-39 9.5t-41 16.5t-34 24t-25 34.5t-8.5 45.5q0 36 18.5 64.5t48.5 43.5t62 22.5t64 7.5q107 0 179 -39z" />
<glyph unicode="&#x15e;" horiz-adv-x="601" vert-adv-y="0" d="M277 0h88l-20 -10q85 -13 85 -79q0 -102 -150 -102q-69 0 -112 16l-16 6l41 77l12 -4q31 -10 75 -10q62 0 62 17q0 -11 -52 -11h-64zM532 191q0 -93 -65 -145t-179 -52q-62 0 -124 17t-100 54l-11 10l68 74l11 -10q23 -22 68 -33.5t88 -11.5q140 0 140 102 q0 48 -37.5 70.5t-109.5 32.5q-220 30 -220 184q0 64 32 108t82.5 63t116.5 19q56 0 115.5 -15.5t99.5 -53.5l10 -10l-62 -78l-12 11q-55 46 -151 46q-127 0 -127 -95q0 -42 34.5 -61.5t103.5 -30.5q38 -6 68.5 -14t61.5 -23.5t52 -35.5t34 -51.5t13 -70.5z" />
<glyph unicode="&#x15f;" horiz-adv-x="496" vert-adv-y="0" d="M232 0h88l-20 -10q85 -13 85 -79q0 -102 -150 -102q-69 0 -112 16l-16 6l41 77l12 -4q31 -10 75 -10q62 0 62 17q0 -11 -52 -11h-64zM428 444l12 -7l-48 -86l-15 8q-50 28 -128 28q-85 0 -85 -49q0 -21 19 -30.5t75 -18.5q192 -28 192 -148q0 -39 -18.5 -68.5t-49 -46 t-64.5 -24.5t-69 -8q-49 0 -102.5 12t-91.5 36l-12 7l51 86l15 -10q25 -17 65.5 -26t74.5 -9q96 0 96 58q0 26 -24.5 39t-80.5 22q-21 3 -36.5 6t-39 9.5t-41 16.5t-34 24t-25 34.5t-8.5 45.5q0 36 18.5 64.5t48.5 43.5t62 22.5t64 7.5q107 0 179 -39z" />
<glyph unicode="&#x160;" horiz-adv-x="601" vert-adv-y="0" d="M423 706l-78 88l-77 -88h-125l173 151h59l173 -151h-125zM532 191q0 -93 -65 -145t-179 -52q-62 0 -124 17t-100 54l-11 10l68 74l11 -10q23 -22 68 -33.5t88 -11.5q140 0 140 102q0 48 -37.5 70.5t-109.5 32.5q-220 30 -220 184q0 64 32 108t82.5 63t116.5 19 q56 0 115.5 -15.5t99.5 -53.5l10 -10l-62 -78l-12 11q-55 46 -151 46q-127 0 -127 -95q0 -42 34.5 -61.5t103.5 -30.5q38 -6 68.5 -14t61.5 -23.5t52 -35.5t34 -51.5t13 -70.5z" />
<glyph unicode="&#x161;" horiz-adv-x="496" vert-adv-y="0" d="M378 516l-78 88l-77 -88h-125l173 151h59l173 -151h-125zM428 444l12 -7l-48 -86l-15 8q-50 28 -128 28q-85 0 -85 -49q0 -21 19 -30.5t75 -18.5q192 -28 192 -148q0 -39 -18.5 -68.5t-49 -46t-64.5 -24.5t-69 -8q-49 0 -102.5 12t-91.5 36l-12 7l51 86l15 -10 q25 -17 65.5 -26t74.5 -9q96 0 96 58q0 26 -24.5 39t-80.5 22q-21 3 -36.5 6t-39 9.5t-41 16.5t-34 24t-25 34.5t-8.5 45.5q0 36 18.5 64.5t48.5 43.5t62 22.5t64 7.5q107 0 179 -39z" />
<glyph unicode="&#x162;" horiz-adv-x="620" vert-adv-y="0" d="M296 0h88l-20 -10q85 -13 85 -79q0 -102 -150 -102q-69 0 -112 16l-16 6l41 77l12 -4q31 -10 75 -10q62 0 62 17q0 -11 -52 -11h-64zM55 567v100h510v-100h-197l9 -567h-104l-21 567h-197z" />
<glyph unicode="&#x163;" horiz-adv-x="400" vert-adv-y="0" d="M234 0h88l-20 -10q85 -13 85 -79q0 -102 -150 -102q-69 0 -112 16l-16 6l41 77l12 -4q31 -10 75 -10q62 0 62 17q0 -11 -52 -11h-64zM45 385v92h80v104h100v-104h110v-92h-110v-245q0 -23 10.5 -33.5t24.5 -10.5h95v-96h-95q-54 0 -94.5 35.5t-40.5 99.5v250h-80z" />
<glyph unicode="&#x164;" horiz-adv-x="620" vert-adv-y="0" d="M441 706l-78 88l-77 -88h-125l173 151h59l173 -151h-125zM55 567v100h510v-100h-197l9 -567h-104l-21 567h-197z" />
<glyph unicode="&#x165;" horiz-adv-x="430" vert-adv-y="0" d="M350 637q0 17 20 26.5t46 9.5t46 -9.5t20 -26.5q0 -23 -10 -51l-48 -160h-75l31 155q-30 18 -30 56zM45 385v92h80v104h100v-104h110v-92h-110v-245q0 -23 10.5 -33.5t24.5 -10.5h95v-96h-95q-54 0 -94.5 35.5t-40.5 99.5v250h-80z" />
<glyph unicode="&#x166;" horiz-adv-x="620" vert-adv-y="0" d="M55 567v100h510v-100h-197v-199h130l30 -91h-151v-277h-104v277h-155v91h134v199h-197z" />
<glyph unicode="&#x167;" horiz-adv-x="470" vert-adv-y="0" d="M286 571v-94h96v-92h-96v-52h139v-86h-139v-106q0 -24 13 -34.5t28 -10.5h75v-96h-75q-65 0 -114 36t-49 101v110h-119v86h119v52h-62v92h62v94h122z" />
<glyph unicode="&#x168;" horiz-adv-x="640" vert-adv-y="0" d="M304 787q-10 -18 -22 -18q-28 0 -28 -8v-15h-80v15q0 36 29 62t77 26q70 0 115 -17q11 -12 25 -12q26 0 26 37v-15h80v15q0 -52 -32.5 -84.5t-75.5 -32.5q-70 0 -114 47zM179 667v-453q0 -120 141 -120t141 120v453h104v-457q0 -58 -20.5 -101t-55.5 -67.5t-77.5 -36 t-91.5 -11.5t-91.5 11.5t-77.5 36t-55.5 67.5t-20.5 101v457h104z" />
<glyph unicode="&#x169;" vert-adv-y="0" d="M269 596q-10 -18 -22 -18q-28 0 -28 -8v-15h-80v15q0 36 29 62t77 26q70 0 115 -17q11 -12 25 -12q26 0 26 37v-15h80v15q0 -52 -32.5 -84.5t-75.5 -32.5q-70 0 -114 47zM285 90q120 0 120 120v267h100v-271q0 -58 -18 -100.5t-49.5 -66t-69.5 -34.5t-83 -11t-83 11 t-69.5 34.5t-49.5 66t-18 100.5v271h100v-267q0 -120 120 -120z" />
<glyph unicode="&#x16a;" horiz-adv-x="640" vert-adv-y="0" d="M184 746v86h300v-86h-300zM179 667v-453q0 -120 141 -120t141 120v453h104v-457q0 -58 -20.5 -101t-55.5 -67.5t-77.5 -36t-91.5 -11.5t-91.5 11.5t-77.5 36t-55.5 67.5t-20.5 101v457h104z" />
<glyph unicode="&#x16b;" vert-adv-y="0" d="M149 555v86h300v-86h-300zM285 90q120 0 120 120v267h100v-271q0 -58 -18 -100.5t-49.5 -66t-69.5 -34.5t-83 -11t-83 11t-69.5 34.5t-49.5 66t-18 100.5v271h100v-267q0 -120 120 -120z" />
<glyph unicode="&#x16c;" horiz-adv-x="640" vert-adv-y="0" d="M181 848v15h81v-15q0 -30 73 -30q74 0 74 30v15h80v-15q0 -50 -45 -81t-109 -31t-109 31t-45 81zM179 667v-453q0 -120 141 -120t141 120v453h104v-457q0 -58 -20.5 -101t-55.5 -67.5t-77.5 -36t-91.5 -11.5t-91.5 11.5t-77.5 36t-55.5 67.5t-20.5 101v457h104z" />
<glyph unicode="&#x16d;" vert-adv-y="0" d="M146 657v15h81v-15q0 -30 73 -30q74 0 74 30v15h80v-15q0 -50 -45 -81t-109 -31t-109 31t-45 81zM285 90q120 0 120 120v267h100v-271q0 -58 -18 -100.5t-49.5 -66t-69.5 -34.5t-83 -11t-83 11t-69.5 34.5t-49.5 66t-18 100.5v271h100v-267q0 -120 120 -120z" />
<glyph unicode="&#x16e;" horiz-adv-x="640" vert-adv-y="0" d="M233 811q0 32 29 52t73 20q45 0 73.5 -20t28.5 -52q0 -45 -28.5 -73.5t-73.5 -28.5q-44 0 -73 28.5t-29 73.5zM365 811q0 2 -30 2q-29 0 -29 -2q0 -31 29 -31q30 0 30 31zM179 667v-453q0 -120 141 -120t141 120v453h104v-457q0 -58 -20.5 -101t-55.5 -67.5t-77.5 -36 t-91.5 -11.5t-91.5 11.5t-77.5 36t-55.5 67.5t-20.5 101v457h104z" />
<glyph unicode="&#x16f;" vert-adv-y="0" d="M198 620q0 32 29 52t73 20q45 0 73.5 -20t28.5 -52q0 -45 -28.5 -73.5t-73.5 -28.5q-44 0 -73 28.5t-29 73.5zM330 620q0 2 -30 2q-29 0 -29 -2q0 -31 29 -31q30 0 30 31zM285 90q120 0 120 120v267h100v-271q0 -58 -18 -100.5t-49.5 -66t-69.5 -34.5t-83 -11t-83 11 t-69.5 34.5t-49.5 66t-18 100.5v271h100v-267q0 -120 120 -120z" />
<glyph unicode="&#x170;" horiz-adv-x="640" vert-adv-y="0" d="M484 857h114l-107 -151h-123zM303 857h136l-129 -151h-101zM179 667v-453q0 -120 141 -120t141 120v453h104v-457q0 -58 -20.5 -101t-55.5 -67.5t-77.5 -36t-91.5 -11.5t-91.5 11.5t-77.5 36t-55.5 67.5t-20.5 101v457h104z" />
<glyph unicode="&#x171;" vert-adv-y="0" d="M449 666h114l-107 -151h-123zM268 666h136l-129 -151h-101zM285 90q120 0 120 120v267h100v-271q0 -58 -18 -100.5t-49.5 -66t-69.5 -34.5t-83 -11t-83 11t-69.5 34.5t-49.5 66t-18 100.5v271h100v-267q0 -120 120 -120z" />
<glyph unicode="&#x172;" horiz-adv-x="640" vert-adv-y="0" d="M407 0l-30 -26q-50 -27 -50 -48q0 -32 25 -32q12 0 20.5 7.5t22.5 27.5l8 12l65 -45l-7 -12q-8 -14 -14 -21.5t-19.5 -22.5t-33 -23t-42.5 -8q-50 0 -77.5 34t-27.5 80q0 41 41 72l4 5h115zM179 667v-453q0 -120 141 -120t141 120v453h104v-457q0 -58 -20.5 -101 t-55.5 -67.5t-77.5 -36t-91.5 -11.5t-91.5 11.5t-77.5 36t-55.5 67.5t-20.5 101v457h104z" />
<glyph unicode="&#x173;" vert-adv-y="0" d="M374 0l-30 -26q-50 -27 -50 -48q0 -32 25 -32q12 0 20.5 7.5t22.5 27.5l8 12l65 -45l-7 -12q-8 -14 -14 -21.5t-19.5 -22.5t-33 -23t-42.5 -8q-50 0 -77.5 34t-27.5 80q0 41 41 72l4 5h115zM285 90q120 0 120 120v267h100v-271q0 -58 -18 -100.5t-49.5 -66t-69.5 -34.5 t-83 -11t-83 11t-69.5 34.5t-49.5 66t-18 100.5v271h100v-267q0 -120 120 -120z" />
<glyph unicode="&#x174;" horiz-adv-x="862" vert-adv-y="0" d="M567 706l-78 88l-77 -88h-125l173 151h59l173 -151h-125zM227 0l-192 667h106l132 -522l118 357h91l118 -356l130 521h106l-191 -667h-87l-121 353l-121 -353h-89z" />
<glyph unicode="&#x175;" horiz-adv-x="820" vert-adv-y="0" d="M547 516l-78 88l-77 -88h-125l173 151h59l173 -151h-125zM204 0l-169 477h103l106 -338l131 338h82l101 -338l136 338h103l-198 -477h-82l-101 351l-130 -351h-82z" />
<glyph unicode="&#x176;" horiz-adv-x="601" vert-adv-y="0" d="M441 706l-78 88l-77 -88h-125l173 151h59l173 -151h-125zM252 276l-217 391h115l159 -291l163 291h113l-218 -391v-276h-115v276z" />
<glyph unicode="&#x177;" horiz-adv-x="590" vert-adv-y="0" d="M433 515l-78 88l-77 -88h-125l173 151h59l173 -151h-125zM35 477h106l161 -350l161 350h107l-299 -662h-116l89 191z" />
<glyph unicode="&#x178;" horiz-adv-x="601" vert-adv-y="0" d="M353 802q0 27 17.5 44.5t44.5 17.5t44.5 -17.5t17.5 -44.5t-17.5 -44.5t-44.5 -17.5t-44.5 17.5t-17.5 44.5zM173 802q0 27 17.5 44.5t44.5 17.5t44.5 -17.5t17.5 -44.5t-17.5 -44.5t-44.5 -17.5t-44.5 17.5t-17.5 44.5zM252 276l-217 391h115l159 -291l163 291h113 l-218 -391v-276h-115v276z" />
<glyph unicode="&#x179;" horiz-adv-x="600" vert-adv-y="0" d="M343 857h119l-107 -151h-106zM70 567v100h460v-66l-341 -501h351v-100h-480v66l338 501h-328z" />
<glyph unicode="&#x17a;" horiz-adv-x="490" vert-adv-y="0" d="M288 666h119l-107 -151h-106zM55 381v96h380v-64l-249 -317h249v-96h-380v64l249 317h-249z" />
<glyph unicode="&#x17b;" horiz-adv-x="600" vert-adv-y="0" d="M252 802q0 27 18 44.5t44 17.5q27 0 44.5 -17.5t17.5 -44.5t-17.5 -44.5t-44.5 -17.5q-26 0 -44 17.5t-18 44.5zM70 567v100h460v-66l-341 -501h351v-100h-480v66l338 501h-328z" />
<glyph unicode="&#x17c;" horiz-adv-x="490" vert-adv-y="0" d="M198 611q0 27 18 44.5t44 17.5q27 0 44.5 -17.5t17.5 -44.5t-17.5 -44.5t-44.5 -17.5q-26 0 -44 17.5t-18 44.5zM55 381v96h380v-64l-249 -317h249v-96h-380v64l249 317h-249z" />
<glyph unicode="&#x17d;" horiz-adv-x="600" vert-adv-y="0" d="M431 706l-78 88l-77 -88h-125l173 151h59l173 -151h-125zM70 567v100h460v-66l-341 -501h351v-100h-480v66l338 501h-328z" />
<glyph unicode="&#x17e;" horiz-adv-x="490" vert-adv-y="0" d="M376 515l-78 88l-77 -88h-125l173 151h59l173 -151h-125zM55 381v96h380v-64l-249 -317h249v-96h-380v64l249 317h-249z" />
<glyph unicode="&#x18f;" horiz-adv-x="646" vert-adv-y="0" d="M102 578q21 27 47.5 46t48.5 28.5t50 14.5t41.5 5.5t33.5 0.5q53 0 98 -13t81 -40t56 -72.5t20 -106.5v-214q0 -61 -20 -107t-56 -73t-81 -40t-98 -13t-98 13t-81 40t-56 73t-20 107v125h406v88q0 133 -151 133q-20 0 -32 -1t-32.5 -5.5t-39.5 -17.5t-36 -33l-9 -12 l-81 62zM474 225v27h-302v-27q0 -131 151 -131t151 131z" />
<glyph unicode="&#x192;" horiz-adv-x="400" vert-adv-y="0" d="M245 386v-425q0 -69 -40.5 -107.5t-94.5 -38.5h-75v92h75q35 0 35 54v425h-60v91h60v35q0 69 40.5 107t94.5 38h75v-92h-75q-35 0 -35 -53v-35h90v-91h-90z" />
<glyph unicode="&#x1a9;" horiz-adv-x="560" vert-adv-y="0" d="M352 358v-36l-154 -227h302v-95h-440v56l176 285l-176 269v57h439v-100h-300z" />
<glyph unicode="&#x1c4;" horiz-adv-x="1062" vert-adv-y="0" d="M410 858l77 -72l77 72h118l-170 -161h-51l-169 161h118zM545 567v100h447v-66l-323 -505h333v-96h-468v66l328 501h-317zM294 567h-105v-467h105q154 0 154 134v200q0 133 -154 133zM85 0v667h209q54 0 100 -13t83.5 -40t58.5 -72.5t21 -106.5v-193q0 -61 -21 -108 t-58 -76t-83.5 -43.5t-100.5 -14.5h-209z" />
<glyph unicode="&#x1c5;" horiz-adv-x="998" vert-adv-y="0" d="M414 858l77 -72l76 72h119l-170 -161h-51l-169 161h118zM943 425l-227 -332h227v-93h-362v67l233 329h-233v96h362v-67zM299 567h-110v-497h110q153 0 153 143v212q0 142 -153 142zM85 0v667h214q54 0 100 -13t83 -40t58 -72.5t21 -106.5v-193q0 -61 -21 -108t-57.5 -76 t-83.5 -43.5t-100 -14.5h-214z" />
<glyph unicode="&#x1c6;" horiz-adv-x="955" vert-adv-y="0" d="M386 440v227h103l14 -667h-98v36q-56 -42 -138 -42q-92 0 -152 55t-60 157v64q0 102 58.5 157.5t145.5 55.5q74 0 127 -43zM386 257q0 64 -34.5 97t-81.5 33t-81 -33t-34 -96v-69q0 -64 36 -96.5t87.5 -32.5t89 33t37.5 96zM870 413l-204 -317h234v-96h-378v65l219 322 h-234v90h363v-64zM417 858l77 -72l76 72h119l-170 -161h-51l-170 161h119z" />
<glyph unicode="&#x1c7;" horiz-adv-x="1006" vert-adv-y="0" d="M827 206v461h104v-461q0 -69 -30.5 -118t-76 -71.5t-98.5 -22.5q-122 0 -202 96l-10 11l85 60l10 -12q18 -21 35.5 -34.5t35 -18t25.5 -5.5t21 -1q39 0 70 29.5t31 86.5zM85 0v667h104v-567h321v-100h-425z" />
<glyph unicode="&#x1c8;" horiz-adv-x="725" vert-adv-y="0" d="M532 587q0 27 18 44.5t44 17.5q27 0 44.5 -17.5t17.5 -44.5t-17.5 -44.5t-44.5 -17.5q-17 0 -31.5 8t-22.5 22t-8 32zM646 507v-552q0 -35 -11.5 -63.5t-31.5 -46t-44 -26.5t-50 -9h-50v92h50q15 0 26 12t11 41v552h100zM85 0v667h104v-571h335v-96h-439z" />
<glyph unicode="&#x1c9;" horiz-adv-x="395" vert-adv-y="0" d="M202 572q0 27 18 44.5t44 17.5q27 0 44.5 -17.5t17.5 -44.5t-17.5 -44.5t-44.5 -17.5q-26 0 -44 17.5t-18 44.5zM315 477v-522q0 -69 -40.5 -107t-94.5 -38h-45v92h45q35 0 35 53v522h100zM75 0v667h100v-667h-100z" />
<glyph unicode="&#x1ca;" horiz-adv-x="1097" vert-adv-y="0" d="M888 209l30 458h104l-30 -461q0 -52 -17.5 -93.5t-46.5 -66.5t-64 -38.5t-72 -13.5q-116 0 -193 100l-9 12l81 62l9 -12q17 -22 34 -36t33.5 -19t24.5 -6t20 -1q37 0 66.5 29.5t29.5 85.5zM85 0v667h87l305 -479l2 479h102v-667h-87l-305 479l-2 -479h-102z" />
<glyph unicode="&#x1cb;" horiz-adv-x="802" vert-adv-y="0" d="M609 587q0 27 18 44.5t44 17.5q27 0 44.5 -17.5t17.5 -44.5t-17.5 -44.5t-44.5 -17.5q-26 0 -44 17.5t-18 44.5zM722 507v-552q0 -69 -40.5 -107t-94.5 -38h-45v92h45q35 0 35 53v552h100zM85 0v667h87l305 -479v479h104v-667h-87l-307 479v-479h-102z" />
<glyph unicode="&#x1cc;" horiz-adv-x="737" vert-adv-y="0" d="M175 440q54 43 130 43q43 0 80.5 -13.5t65.5 -39t44 -66.5t16 -93l4 -271h-100l-12 266q0 32 -9 55.5t-24 37.5t-34 21t-42 7q-31 0 -57 -12t-44 -40t-18 -68v-267h-100v477h100v-37zM656 477v-522q0 -69 -40.5 -107t-94.5 -38h-45v92h45q35 0 35 53v522h100zM543 572 q0 27 18.5 44.5t44.5 17.5q27 0 44.5 -17.5t17.5 -44.5t-17.5 -44.5t-44.5 -17.5q-26 0 -44.5 17.5t-18.5 44.5z" />
<glyph unicode="&#x1ea;" horiz-adv-x="660" vert-adv-y="0" d="M419 0l-30 -26q-50 -27 -50 -48q0 -32 25 -32q12 0 20.5 7.5t22.5 27.5l8 12l65 -45l-7 -12q-8 -14 -14 -21.5t-19.5 -22.5t-33 -23t-42.5 -8q-50 0 -77.5 34t-27.5 80q0 41 41 72l4 5h115zM595 458v-249q0 -57 -22 -100.5t-60.5 -67.5t-84 -35.5t-98.5 -11.5t-98.5 11.5 t-84 35.5t-60.5 67.5t-22 100.5v249q0 46 14.5 83.5t39.5 61.5t59.5 40t72 23t79.5 7q53 0 98.5 -11.5t84 -35.5t60.5 -67.5t22 -100.5zM169 455v-243q0 -118 161 -118t161 118v243q0 118 -161 118t-161 -118z" />
<glyph unicode="&#x1eb;" horiz-adv-x="560" vert-adv-y="0" d="M369 0l-30 -26q-50 -27 -50 -48q0 -32 25 -32q12 0 20.5 7.5t22.5 27.5l8 12l65 -45l-7 -12q-8 -14 -14 -21.5t-19.5 -22.5t-33 -23t-42.5 -8q-50 0 -77.5 34t-27.5 80q0 41 41 72l4 5h115zM505 271v-65q0 -58 -18.5 -100.5t-50.5 -66t-70.5 -34.5t-84 -11t-84 11 t-71.5 34.5t-52 66t-19 100.5v65q0 58 19 100.5t52 66t71.5 34.5t84 11t84 -11t70.5 -34.5t50.5 -66t18.5 -100.5zM159 270v-63q0 -117 123 -117t123 117v63q0 34 -10 58t-28.5 36.5t-39 17.5t-45.5 5q-122 -2 -123 -117z" />
<glyph unicode="&#x1f1;" horiz-adv-x="1062" vert-adv-y="0" d="M545 567v100h447v-66l-323 -505h333v-96h-468v66l328 501h-317zM294 567h-105v-467h105q154 0 154 134v200q0 133 -154 133zM85 0v667h209q54 0 100 -13t83.5 -40t58.5 -72.5t21 -106.5v-193q0 -61 -21 -108t-58 -76t-83.5 -43.5t-100.5 -14.5h-209z" />
<glyph unicode="&#x1f2;" horiz-adv-x="998" vert-adv-y="0" d="M943 425l-227 -332h227v-93h-362v67l233 329h-233v96h362v-67zM299 567h-110v-497h110q153 0 153 143v212q0 142 -153 142zM85 0v667h214q54 0 100 -13t83 -40t58 -72.5t21 -106.5v-193q0 -61 -21 -108t-57.5 -76t-83.5 -43.5t-100 -14.5h-214z" />
<glyph unicode="&#x1f3;" horiz-adv-x="955" vert-adv-y="0" d="M386 440v227h103l14 -667h-98v36q-56 -42 -138 -42q-92 0 -152 55t-60 157v64q0 102 58.5 157.5t145.5 55.5q74 0 127 -43zM386 257q0 64 -34.5 97t-81.5 33t-81 -33t-34 -96v-69q0 -64 36 -96.5t87.5 -32.5t89 33t37.5 96zM870 413l-204 -317h234v-96h-378v65l219 322 h-234v90h363v-64z" />
<glyph unicode="&#x1f4;" horiz-adv-x="640" vert-adv-y="0" d="M363 857h119l-107 -151h-106zM460 527q-58 46 -139 46q-149 0 -149 -118v-243q0 -118 149 -118q67 0 108.5 25.5t41.5 80.5v72h-152v100h256v-171q0 -55 -21.5 -96t-58 -64.5t-80 -35t-94.5 -11.5q-50 0 -94 11.5t-81.5 35.5t-59 67.5t-21.5 100.5v249q0 57 21.5 100.5 t59 67.5t81.5 35.5t94 11.5q131 0 204 -69l10 -10l-62 -78z" />
<glyph unicode="&#x1f5;" horiz-adv-x="580" vert-adv-y="0" d="M313 666h119l-107 -151h-106zM405 15v16q-55 -37 -138 -37q-40 0 -75.5 11t-67.5 34t-50.5 66t-18.5 101v65q0 58 18.5 101t50.5 66t67.5 34t75.5 11q83 0 138 -37v31h100v-462q0 -86 -65 -145.5t-174 -59.5t-180 48l-12 7l47 86l14 -10q48 -35 131 -35q63 0 101 31.5 t38 77.5zM405 207v63q0 117 -127 117q-123 0 -123 -117v-63q0 -117 123 -117q127 0 127 117z" />
<glyph unicode="&#x200;" horiz-adv-x="669" vert-adv-y="0" d="M256 706l-107 151h114l116 -151h-123zM437 706l-129 151h136l94 -151h-101zM35 0l260 667h92l260 -667h-107l-62 165h-273l-62 -165h-108zM442 250l-101 274l-101 -274h202z" />
<glyph unicode="&#x201;" horiz-adv-x="541" vert-adv-y="0" d="M183 515l-107 151h114l116 -151h-123zM364 515l-129 151h136l94 -151h-101zM97 444q68 39 172 39q93 0 148.5 -48.5t55.5 -147.5v-287h-98v33q-53 -39 -137 -39q-80 0 -131.5 43t-51.5 114q0 158 247 158q44 0 72 -3q-7 83 -105 83q-78 0 -125 -28l-14 -8l-45 84z M312 218q-22 0 -39.5 -1t-36.5 -3.5t-33 -7t-26 -12t-18 -18.5t-6 -25q0 -18 10 -32t31.5 -22t52.5 -8q55 0 91.5 28.5t36.5 87.5v11q-28 2 -63 2z" />
<glyph unicode="&#x202;" horiz-adv-x="669" vert-adv-y="0" d="M202 736v15q0 50 45 81t109 31t109 -31t45 -81v-15h-80v15q0 30 -74 30q-73 0 -73 -30v-15h-81zM35 0l260 667h92l260 -667h-107l-62 165h-273l-62 -165h-108zM442 250l-101 274l-101 -274h202z" />
<glyph unicode="&#x203;" horiz-adv-x="541" vert-adv-y="0" d="M129 545v15q0 50 45 81t109 31t109 -31t45 -81v-15h-80v15q0 30 -74 30q-73 0 -73 -30v-15h-81zM97 444q68 39 172 39q93 0 148.5 -48.5t55.5 -147.5v-287h-98v33q-53 -39 -137 -39q-80 0 -131.5 43t-51.5 114q0 158 247 158q44 0 72 -3q-7 83 -105 83q-78 0 -125 -28 l-14 -8l-45 84zM312 218q-22 0 -39.5 -1t-36.5 -3.5t-33 -7t-26 -12t-18 -18.5t-6 -25q0 -18 10 -32t31.5 -22t52.5 -8q55 0 91.5 28.5t36.5 87.5v11q-28 2 -63 2z" />
<glyph unicode="&#x204;" vert-adv-y="0" d="M206 706l-107 151h114l116 -151h-123zM387 706l-129 151h136l94 -151h-101zM85 0v667h419v-100h-317v-174h267v-100h-265v-193h316v-100h-420z" />
<glyph unicode="&#x205;" horiz-adv-x="556" vert-adv-y="0" d="M198 515l-107 151h114l116 -151h-123zM379 515l-129 151h136l94 -151h-101zM468 42q-71 -48 -175 -48t-169.5 54.5t-65.5 166.5v56q0 57 19 100t51 66.5t70 34.5t82 11t81 -11t69 -35t50 -67t18 -102v-65h-338q6 -115 133 -115q76 0 126 35l14 10l47 -84zM280 389 q-108 0 -119 -92h238q-4 49 -37.5 70.5t-81.5 21.5z" />
<glyph unicode="&#x206;" vert-adv-y="0" d="M152 736v15q0 50 45 81t109 31t109 -31t45 -81v-15h-80v15q0 30 -74 30q-73 0 -73 -30v-15h-81zM85 0v667h419v-100h-317v-174h267v-100h-265v-193h316v-100h-420z" />
<glyph unicode="&#x207;" horiz-adv-x="556" vert-adv-y="0" d="M144 545v15q0 50 45 81t109 31t109 -31t45 -81v-15h-80v15q0 30 -74 30q-73 0 -73 -30v-15h-81zM468 42q-71 -48 -175 -48t-169.5 54.5t-65.5 166.5v56q0 57 19 100t51 66.5t70 34.5t82 11t81 -11t69 -35t50 -67t18 -102v-65h-338q6 -115 133 -115q76 0 126 35l14 10 l47 -84zM280 389q-108 0 -119 -92h238q-4 49 -37.5 70.5t-81.5 21.5z" />
<glyph unicode="&#x208;" horiz-adv-x="274" vert-adv-y="0" d="M52 706l-107 151h114l116 -151h-123zM233 706l-129 151h136l94 -151h-101zM85 667h104v-667h-104v667z" />
<glyph unicode="&#x209;" horiz-adv-x="244" vert-adv-y="0" d="M37 516l-107 151h114l116 -151h-123zM218 516l-129 151h136l94 -151h-101zM72 0v477h100v-477h-100z" />
<glyph unicode="&#x20a;" horiz-adv-x="274" vert-adv-y="0" d="M-2 736v15q0 50 45 81t109 31t109 -31t45 -81v-15h-80v15q0 30 -74 30q-73 0 -73 -30v-15h-81zM85 667h104v-667h-104v667z" />
<glyph unicode="&#x20b;" horiz-adv-x="244" vert-adv-y="0" d="M-17 546v15q0 50 45 81t109 31t109 -31t45 -81v-15h-80v15q0 30 -74 30q-73 0 -73 -30v-15h-81zM72 0v477h100v-477h-100z" />
<glyph unicode="&#x20c;" horiz-adv-x="660" vert-adv-y="0" d="M245 706l-107 151h114l116 -151h-123zM426 706l-129 151h136l94 -151h-101zM595 458v-249q0 -57 -22 -100.5t-60.5 -67.5t-84 -35.5t-98.5 -11.5t-98.5 11.5t-84 35.5t-60.5 67.5t-22 100.5v249q0 46 14.5 83.5t39.5 61.5t59.5 40t72 23t79.5 7q53 0 98.5 -11.5t84 -35.5 t60.5 -67.5t22 -100.5zM169 455v-243q0 -118 161 -118t161 118v243q0 118 -161 118t-161 -118z" />
<glyph unicode="&#x20d;" horiz-adv-x="560" vert-adv-y="0" d="M195 516l-107 151h114l116 -151h-123zM376 516l-129 151h136l94 -151h-101zM505 271v-65q0 -58 -18.5 -100.5t-50.5 -66t-70.5 -34.5t-84 -11t-84 11t-71.5 34.5t-52 66t-19 100.5v65q0 58 19 100.5t52 66t71.5 34.5t84 11t84 -11t70.5 -34.5t50.5 -66t18.5 -100.5z M159 270v-63q0 -117 123 -117t123 117v63q0 34 -10 58t-28.5 36.5t-39 17.5t-45.5 5q-122 -2 -123 -117z" />
<glyph unicode="&#x20e;" horiz-adv-x="660" vert-adv-y="0" d="M191 736v15q0 50 45 81t109 31t109 -31t45 -81v-15h-80v15q0 30 -74 30q-73 0 -73 -30v-15h-81zM595 458v-249q0 -57 -22 -100.5t-60.5 -67.5t-84 -35.5t-98.5 -11.5t-98.5 11.5t-84 35.5t-60.5 67.5t-22 100.5v249q0 46 14.5 83.5t39.5 61.5t59.5 40t72 23t79.5 7 q53 0 98.5 -11.5t84 -35.5t60.5 -67.5t22 -100.5zM169 455v-243q0 -118 161 -118t161 118v243q0 118 -161 118t-161 -118z" />
<glyph unicode="&#x20f;" horiz-adv-x="560" vert-adv-y="0" d="M141 546v15q0 50 45 81t109 31t109 -31t45 -81v-15h-80v15q0 30 -74 30q-73 0 -73 -30v-15h-81zM505 271v-65q0 -58 -18.5 -100.5t-50.5 -66t-70.5 -34.5t-84 -11t-84 11t-71.5 34.5t-52 66t-19 100.5v65q0 58 19 100.5t52 66t71.5 34.5t84 11t84 -11t70.5 -34.5 t50.5 -66t18.5 -100.5zM159 270v-63q0 -117 123 -117t123 117v63q0 34 -10 58t-28.5 36.5t-39 17.5t-45.5 5q-122 -2 -123 -117z" />
<glyph unicode="&#x210;" horiz-adv-x="622" vert-adv-y="0" d="M210 706l-107 151h114l116 -151h-123zM391 706l-129 151h136l94 -151h-101zM85 667h228q108 0 171 -52.5t63 -158.5q0 -134 -103 -185l121 -271h-111l-121 242h-20h-122v-242h-106v667zM193 342h120q65 0 97.5 26t32.5 86q0 25 -5.5 44t-16.5 32t-27 21.5t-36 12t-45 3.5 h-120v-225z" />
<glyph unicode="&#x211;" horiz-adv-x="408" vert-adv-y="0" d="M140 516l-107 151h114l116 -151h-123zM321 516l-129 151h136l94 -151h-101zM75 0v477h100v-28q45 34 115 34q31 0 61 -6l14 -3l-14 -92l-15 2q-24 3 -56 3q-48 0 -76.5 -26t-28.5 -94v-267h-100z" />
<glyph unicode="&#x212;" horiz-adv-x="622" vert-adv-y="0" d="M156 736v15q0 50 45 81t109 31t109 -31t45 -81v-15h-80v15q0 30 -74 30q-73 0 -73 -30v-15h-81zM85 667h228q108 0 171 -52.5t63 -158.5q0 -134 -103 -185l121 -271h-111l-121 242h-20h-122v-242h-106v667zM193 342h120q65 0 97.5 26t32.5 86q0 25 -5.5 44t-16.5 32 t-27 21.5t-36 12t-45 3.5h-120v-225z" />
<glyph unicode="&#x213;" horiz-adv-x="408" vert-adv-y="0" d="M86 546v15q0 50 45 81t109 31t109 -31t45 -81v-15h-80v15q0 30 -74 30q-73 0 -73 -30v-15h-81zM75 0v477h100v-28q45 34 115 34q31 0 61 -6l14 -3l-14 -92l-15 2q-24 3 -56 3q-48 0 -76.5 -26t-28.5 -94v-267h-100z" />
<glyph unicode="&#x214;" horiz-adv-x="640" vert-adv-y="0" d="M240 706l-107 151h114l116 -151h-123zM421 706l-129 151h136l94 -151h-101zM179 667v-453q0 -120 141 -120t141 120v453h104v-457q0 -58 -20.5 -101t-55.5 -67.5t-77.5 -36t-91.5 -11.5t-91.5 11.5t-77.5 36t-55.5 67.5t-20.5 101v457h104z" />
<glyph unicode="&#x215;" vert-adv-y="0" d="M200 515l-107 151h114l116 -151h-123zM381 515l-129 151h136l94 -151h-101zM285 90q120 0 120 120v267h100v-271q0 -58 -18 -100.5t-49.5 -66t-69.5 -34.5t-83 -11t-83 11t-69.5 34.5t-49.5 66t-18 100.5v271h100v-267q0 -120 120 -120z" />
<glyph unicode="&#x216;" horiz-adv-x="640" vert-adv-y="0" d="M181 736v15q0 50 45 81t109 31t109 -31t45 -81v-15h-80v15q0 30 -74 30q-73 0 -73 -30v-15h-81zM179 667v-453q0 -120 141 -120t141 120v453h104v-457q0 -58 -20.5 -101t-55.5 -67.5t-77.5 -36t-91.5 -11.5t-91.5 11.5t-77.5 36t-55.5 67.5t-20.5 101v457h104z" />
<glyph unicode="&#x217;" vert-adv-y="0" d="M146 545v15q0 50 45 81t109 31t109 -31t45 -81v-15h-80v15q0 30 -74 30q-73 0 -73 -30v-15h-81zM285 90q120 0 120 120v267h100v-271q0 -58 -18 -100.5t-49.5 -66t-69.5 -34.5t-83 -11t-83 11t-69.5 34.5t-49.5 66t-18 100.5v271h100v-267q0 -120 120 -120z" />
<glyph unicode="&#x218;" horiz-adv-x="601" vert-adv-y="0" d="M245 -94q0 31 20 46t45.5 15t46 -15t20.5 -46q0 -28 -11 -47l-50 -89h-75l32 85q-28 16 -28 51zM532 191q0 -93 -65 -145t-179 -52q-62 0 -124 17t-100 54l-11 10l68 74l11 -10q23 -22 68 -33.5t88 -11.5q140 0 140 102q0 48 -37.5 70.5t-109.5 32.5q-220 30 -220 184 q0 64 32 108t82.5 63t116.5 19q56 0 115.5 -15.5t99.5 -53.5l10 -10l-62 -78l-12 11q-55 46 -151 46q-127 0 -127 -95q0 -42 34.5 -61.5t103.5 -30.5q38 -6 68.5 -14t61.5 -23.5t52 -35.5t34 -51.5t13 -70.5z" />
<glyph unicode="&#x219;" horiz-adv-x="496" vert-adv-y="0" d="M200 -94q0 31 20 46t45.5 15t46 -15t20.5 -46q0 -28 -11 -47l-50 -89h-75l32 85q-28 16 -28 51zM428 444l12 -7l-48 -86l-15 8q-50 28 -128 28q-85 0 -85 -49q0 -21 19 -30.5t75 -18.5q192 -28 192 -148q0 -39 -18.5 -68.5t-49 -46t-64.5 -24.5t-69 -8q-49 0 -102.5 12 t-91.5 36l-12 7l51 86l15 -10q25 -17 65.5 -26t74.5 -9q96 0 96 58q0 26 -24.5 39t-80.5 22q-21 3 -36.5 6t-39 9.5t-41 16.5t-34 24t-25 34.5t-8.5 45.5q0 36 18.5 64.5t48.5 43.5t62 22.5t64 7.5q107 0 179 -39z" />
<glyph unicode="&#x21a;" horiz-adv-x="620" vert-adv-y="0" d="M264 -94q0 31 20 46t45.5 15t46 -15t20.5 -46q0 -28 -11 -47l-50 -89h-75l32 85q-28 16 -28 51zM55 567v100h510v-100h-197l9 -567h-104l-21 567h-197z" />
<glyph unicode="&#x21b;" horiz-adv-x="400" vert-adv-y="0" d="M202 -94q0 31 20 46t45.5 15t46 -15t20.5 -46q0 -28 -11 -47l-50 -89h-75l32 85q-28 16 -28 51zM45 385v92h80v104h100v-104h110v-92h-110v-245q0 -23 10.5 -33.5t24.5 -10.5h95v-96h-95q-54 0 -94.5 35.5t-40.5 99.5v250h-80z" />
<glyph unicode="&#x237;" horiz-adv-x="255" vert-adv-y="0" d="M180 477v-522q0 -69 -40.5 -107t-94.5 -38h-45v92h45q35 0 35 53v522h100z" />
<glyph unicode="&#x259;" horiz-adv-x="566" vert-adv-y="0" d="M85 427q74 56 186 56q104 0 170.5 -54.5t66.5 -157.5v-64q0 -103 -64.5 -158t-160.5 -55q-62 0 -111.5 22.5t-81.5 73t-32 122.5v62h352q0 57 -38 85.5t-101 28.5q-83 0 -126 -36l-12 -10l-60 76zM283 88q49 0 85.5 27.5t40.5 79.5h-252q5 -51 41 -79t85 -28z" />
<glyph unicode="&#x2bc;" horiz-adv-x="232" d="M51 637q0 17 20 26.5t46 9.5t46 -9.5t20 -26.5q0 -23 -10 -51l-48 -160h-75l31 155q-30 18 -30 56z" />
<glyph unicode="&#x2c6;" horiz-adv-x="458" d="M330 516l-78 88l-77 -88h-125l173 151h59l173 -151h-125z" />
<glyph unicode="&#x2c7;" horiz-adv-x="458" d="M330 516l-78 88l-77 -88h-125l173 151h59l173 -151h-125z" />
<glyph unicode="&#x2d8;" horiz-adv-x="408" vert-adv-y="0" d="M50 658v15h81v-15q0 -30 73 -30q74 0 74 30v15h80v-15q0 -50 -45 -81t-109 -31t-109 31t-45 81z" />
<glyph unicode="&#x2d9;" horiz-adv-x="224" vert-adv-y="0" d="M50 612q0 27 18 44.5t44 17.5q27 0 44.5 -17.5t17.5 -44.5t-17.5 -44.5t-44.5 -17.5q-26 0 -44 17.5t-18 44.5z" />
<glyph unicode="&#x2da;" horiz-adv-x="310" vert-adv-y="0" d="M53 621q0 32 29 52t73 20q45 0 73.5 -20t28.5 -52q0 -45 -28.5 -73.5t-73.5 -28.5q-44 0 -73 28.5t-29 73.5zM185 621q0 2 -30 2q-29 0 -29 -2q0 -31 29 -31q30 0 30 31z" />
<glyph unicode="&#x2db;" horiz-adv-x="316" d="M210 0l-30 -26q-50 -27 -50 -48q0 -32 25 -32q12 0 20.5 7.5t22.5 27.5l8 12l65 -45l-7 -12q-8 -14 -14 -21.5t-19.5 -22.5t-33 -23t-42.5 -8q-50 0 -77.5 34t-27.5 80q0 41 41 72l4 5h115z" />
<glyph unicode="&#x2dc;" horiz-adv-x="452" d="M180 597q-10 -18 -22 -18q-28 0 -28 -8v-15h-80v15q0 36 29 62t77 26q70 0 115 -17q11 -12 25 -12q26 0 26 37v-15h80v15q0 -52 -32.5 -84.5t-75.5 -32.5q-70 0 -114 47z" />
<glyph unicode="&#x2dd;" horiz-adv-x="463" d="M325 667h114l-107 -151h-123zM144 667h136l-129 -151h-101z" />
<glyph unicode="&#x300;" horiz-adv-x="287" d="M157 516l-107 151h119l94 -151h-106z" />
<glyph unicode="&#x301;" horiz-adv-x="287" d="M144 667h119l-107 -151h-106z" />
<glyph unicode="&#x302;" horiz-adv-x="458" d="M330 516l-78 88l-77 -88h-125l173 151h59l173 -151h-125z" />
<glyph unicode="&#x304;" horiz-adv-x="400" d="M50 556v86h300v-86h-300z" />
<glyph unicode="&#x307;" horiz-adv-x="224" vert-adv-y="0" d="M50 612q0 27 18 44.5t44 17.5q27 0 44.5 -17.5t17.5 -44.5t-17.5 -44.5t-44.5 -17.5q-26 0 -44 17.5t-18 44.5z" />
<glyph unicode="&#x30f;" horiz-adv-x="463" d="M157 516l-107 151h114l116 -151h-123zM338 516l-129 151h136l94 -151h-101z" />
<glyph unicode="&#x311;" horiz-adv-x="408" vert-adv-y="0" d="M50 546v15q0 50 45 81t109 31t109 -31t45 -81v-15h-80v15q0 30 -74 30q-73 0 -73 -30v-15h-81z" />
<glyph unicode="&#x312;" horiz-adv-x="232" vert-adv-y="0" d="M182 613q0 -47 -20 -69t-46 -22q-16 0 -30 8t-25 29.5t-11 53.5q0 28 11 47l49 59h76l-32 -55q28 -16 28 -51z" />
<glyph unicode="&#x315;" horiz-adv-x="232" d="M51 637q0 17 20 26.5t46 9.5t46 -9.5t20 -26.5q0 -23 -10 -51l-48 -160h-75l31 155q-30 18 -30 56z" />
<glyph unicode="&#x323;" horiz-adv-x="232" vert-adv-y="0" d="M50 -121q0 28 19 47t47 19t47 -19t19 -47t-19 -47t-47 -19t-47 19t-19 47z" />
<glyph unicode="&#x326;" horiz-adv-x="232" d="M54 -94q0 31 20 46t45.5 15t46 -15t20.5 -46q0 -28 -11 -47l-50 -89h-75l32 85q-28 16 -28 51z" />
<glyph unicode="&#x3a9;" horiz-adv-x="660" vert-adv-y="0" d="M280 94v-94h-215v94h59q-59 77 -59 212v137q0 60 20.5 105.5t57 72t83.5 39.5t104 13t104 -13t83.5 -40t57 -72.5t20.5 -106.5v-138q0 -136 -59 -213h59v-90h-215v94h15q32 0 64 55t32 155v135q0 73 -41 103.5t-120 30.5t-120 -30.5t-41 -103.5v-135q0 -100 32 -155 t64 -55h15z" />
<glyph unicode="&#x3b1;" horiz-adv-x="639" vert-adv-y="0" d="M405 440v37h98l14 -341q0 -24 15.5 -35t36.5 -11h25v-90h-25q-101 0 -135 61q-58 -67 -163 -67q-94 0 -155 55t-61 157v64q0 102 61 157.5t155 55.5q78 0 134 -43zM405 269q0 58 -36.5 88t-86.5 30t-86.5 -30t-36.5 -87v-63q0 -57 36.5 -87t86.5 -30t86.5 30t36.5 87v62z " />
<glyph unicode="&#x3b2;" horiz-adv-x="605" vert-adv-y="0" d="M526 473q0 -40 -17 -74.5t-46 -58.5q39 -21 60.5 -61.5t21.5 -86.5q0 -39 -10.5 -72t-32 -60.5t-59 -43.5t-87.5 -16h-181v-185h-100v630q0 111 63 166.5t172 55.5q98 0 157 -56.5t59 -137.5zM175 445v-349h181q50 0 69.5 26.5t19.5 73.5q0 41 -36 70.5t-99 29.5h-100v94 h100q57 0 86.5 23.5t29.5 59.5q0 39 -33 68.5t-83 29.5q-135 0 -135 -126z" />
<glyph unicode="&#x3b3;" horiz-adv-x="636" vert-adv-y="0" d="M45 385v92h45q43 0 79 -21t54 -61l122 -288l157 370h106l-207 -465v-197h-113v197l-166 352q-10 21 -32 21h-45z" />
<glyph unicode="&#x3b4;" horiz-adv-x="581" vert-adv-y="0" d="M87 117v400h368v-400h-368z" />
<glyph unicode="&#x3bc;" horiz-adv-x="620" vert-adv-y="0" d="M295 -6q-69 0 -120 38v-217h-100v662h100v-267q0 -41 17.5 -68.5t44 -39.5t58.5 -12q50 0 85 30t35 90v267h100v-342q0 -24 10.5 -34.5t24.5 -10.5h25v-96h-25q-70 0 -105 59q-51 -59 -150 -59z" />
<glyph unicode="&#x3c0;" horiz-adv-x="600" vert-adv-y="0" d="M490 381v-247q0 -23 10.5 -33.5t24.5 -10.5h25v-96h-25q-26 0 -50.5 8.5t-45 24.5t-33 42.5t-12.5 59.5l1 252h-170l-5 -381h-100v381h-60v96h490v-96h-50z" />
<glyph unicode="&#x1e0c;" horiz-adv-x="650" vert-adv-y="0" d="M265 -121q0 28 19 47t47 19t47 -19t19 -47t-19 -47t-47 -19t-47 19t-19 47zM315 667q67 0 117.5 -15t81.5 -42.5t46 -64.5t15 -83v-257q0 -95 -64 -150t-196 -55h-230v667h230zM315 100q86 0 121 26t35 81v253q0 55 -35 81t-121 26h-126v-467h126z" />
<glyph unicode="&#x1e0d;" horiz-adv-x="580" vert-adv-y="0" d="M218 -121q0 28 19 47t47 19t47 -19t19 -47t-19 -47t-47 -19t-47 19t-19 47zM268 -6q-40 0 -76 11t-68 34t-50.5 66t-18.5 101v65q0 58 18.5 101t50.5 66t68 34t76 11q86 0 137 -37v221h100v-667h-100v31q-9 -7 -19.5 -12.5t-21 -9.5t-22 -7t-24 -4.5t-25 -2.5t-25.5 -1z M405 207v63q0 117 -125 117t-125 -117v-63q0 -117 125 -117t125 117z" />
<glyph unicode="&#x1e24;" horiz-adv-x="670" vert-adv-y="0" d="M283 -121q0 28 19 47t47 19t47 -19t19 -47t-19 -47t-47 -19t-47 19t-19 47zM85 0v667h104v-274h292v274h104v-667h-104v293h-292v-293h-104z" />
<glyph unicode="&#x1e25;" horiz-adv-x="578" vert-adv-y="0" d="M243 -121q0 28 19 47t47 19t47 -19t19 -47t-19 -47t-47 -19t-47 19t-19 47zM175 267v-267h-100v667h100v-218q52 34 131 34q41 0 76 -11t66 -34t49 -66t18 -101v-271h-100v267q0 68 -32.5 94t-87.5 26q-26 0 -46 -5t-37.5 -17.5t-27 -37t-9.5 -60.5z" />
<glyph unicode="&#x1e44;" horiz-adv-x="670" vert-adv-y="0" d="M288 802q0 27 18 44.5t44 17.5q27 0 44.5 -17.5t17.5 -44.5t-17.5 -44.5t-44.5 -17.5q-26 0 -44 17.5t-18 44.5zM85 0v667h89l307 -479v479h104v-667h-89l-305 479v-479h-106z" />
<glyph unicode="&#x1e45;" horiz-adv-x="578" vert-adv-y="0" d="M258 612q0 27 18 44.5t44 17.5q27 0 44.5 -17.5t17.5 -44.5t-17.5 -44.5t-44.5 -17.5q-26 0 -44 17.5t-18 44.5zM75 0v477h104v-28q51 34 129 34q40 0 75 -11t65.5 -34t48.5 -66t18 -101v-271h-100v267q0 68 -32 94t-86 26q-25 0 -45 -5t-37 -17.5t-26.5 -37t-9.5 -60.5 v-267h-104z" />
<glyph unicode="&#x1e5a;" horiz-adv-x="622" vert-adv-y="0" d="M265 -121q0 28 19 47t47 19t47 -19t19 -47t-19 -47t-47 -19t-47 19t-19 47zM85 667h228q108 0 171 -52.5t63 -158.5q0 -134 -103 -185l121 -271h-111l-121 242h-20h-122v-242h-106v667zM193 342h120q65 0 97.5 26t32.5 86q0 25 -5.5 44t-16.5 32t-27 21.5t-36 12t-45 3.5 h-120v-225z" />
<glyph unicode="&#x1e5b;" horiz-adv-x="408" vert-adv-y="0" d="M72 -121q0 28 19 47t47 19t47 -19t19 -47t-19 -47t-47 -19t-47 19t-19 47zM75 0v477h100v-28q45 34 115 34q31 0 61 -6l14 -3l-14 -92l-15 2q-24 3 -56 3q-48 0 -76.5 -26t-28.5 -94v-267h-100z" />
<glyph unicode="&#x1e62;" horiz-adv-x="601" vert-adv-y="0" d="M240 -121q0 28 19 47t47 19t47 -19t19 -47t-19 -47t-47 -19t-47 19t-19 47zM532 191q0 -93 -65 -145t-179 -52q-62 0 -124 17t-100 54l-11 10l68 74l11 -10q23 -22 68 -33.5t88 -11.5q140 0 140 102q0 48 -37.5 70.5t-109.5 32.5q-220 30 -220 184q0 64 32 108t82.5 63 t116.5 19q56 0 115.5 -15.5t99.5 -53.5l10 -10l-62 -78l-12 11q-55 46 -151 46q-127 0 -127 -95q0 -42 34.5 -61.5t103.5 -30.5q38 -6 68.5 -14t61.5 -23.5t52 -35.5t34 -51.5t13 -70.5z" />
<glyph unicode="&#x1e63;" horiz-adv-x="496" vert-adv-y="0" d="M195 -121q0 28 19 47t47 19t47 -19t19 -47t-19 -47t-47 -19t-47 19t-19 47zM428 444l12 -7l-48 -86l-15 8q-50 28 -128 28q-85 0 -85 -49q0 -21 19 -30.5t75 -18.5q192 -28 192 -148q0 -39 -18.5 -68.5t-49 -46t-64.5 -24.5t-69 -8q-49 0 -102.5 12t-91.5 36l-12 7l51 86 l15 -10q25 -17 65.5 -26t74.5 -9q96 0 96 58q0 26 -24.5 39t-80.5 22q-21 3 -36.5 6t-39 9.5t-41 16.5t-34 24t-25 34.5t-8.5 45.5q0 36 18.5 64.5t48.5 43.5t62 22.5t64 7.5q107 0 179 -39z" />
<glyph unicode="&#x1e6c;" horiz-adv-x="620" vert-adv-y="0" d="M259 -121q0 28 19 47t47 19t47 -19t19 -47t-19 -47t-47 -19t-47 19t-19 47zM55 567v100h510v-100h-197l9 -567h-104l-21 567h-197z" />
<glyph unicode="&#x1e6d;" horiz-adv-x="400" vert-adv-y="0" d="M197 -121q0 28 19 47t47 19t47 -19t19 -47t-19 -47t-47 -19t-47 19t-19 47zM45 385v92h80v104h100v-104h110v-92h-110v-245q0 -23 10.5 -33.5t24.5 -10.5h95v-96h-95q-54 0 -94.5 35.5t-40.5 99.5v250h-80z" />
<glyph unicode="&#x1e80;" horiz-adv-x="862" vert-adv-y="0" d="M437 706l-107 151h119l94 -151h-106zM227 0l-192 667h106l132 -522l118 357h91l118 -356l130 521h106l-191 -667h-87l-121 353l-121 -353h-89z" />
<glyph unicode="&#x1e81;" horiz-adv-x="820" vert-adv-y="0" d="M417 516l-107 151h119l94 -151h-106zM204 0l-169 477h103l106 -338l131 338h82l101 -338l136 338h103l-198 -477h-82l-101 351l-130 -351h-82z" />
<glyph unicode="&#x1e82;" horiz-adv-x="862" vert-adv-y="0" d="M479 857h119l-107 -151h-106zM227 0l-192 667h106l132 -522l118 357h91l118 -356l130 521h106l-191 -667h-87l-121 353l-121 -353h-89z" />
<glyph unicode="&#x1e83;" horiz-adv-x="820" vert-adv-y="0" d="M459 667h119l-107 -151h-106zM204 0l-169 477h103l106 -338l131 338h82l101 -338l136 338h103l-198 -477h-82l-101 351l-130 -351h-82z" />
<glyph unicode="&#x1e84;" horiz-adv-x="862" vert-adv-y="0" d="M479 802q0 27 17.5 44.5t44.5 17.5t44.5 -17.5t17.5 -44.5t-17.5 -44.5t-44.5 -17.5t-44.5 17.5t-17.5 44.5zM299 802q0 27 17.5 44.5t44.5 17.5t44.5 -17.5t17.5 -44.5t-17.5 -44.5t-44.5 -17.5t-44.5 17.5t-17.5 44.5zM227 0l-192 667h106l132 -522l118 357h91 l118 -356l130 521h106l-191 -667h-87l-121 353l-121 -353h-89z" />
<glyph unicode="&#x1e85;" horiz-adv-x="820" vert-adv-y="0" d="M459 612q0 27 17.5 44.5t44.5 17.5t44.5 -17.5t17.5 -44.5t-17.5 -44.5t-44.5 -17.5t-44.5 17.5t-17.5 44.5zM279 612q0 27 17.5 44.5t44.5 17.5t44.5 -17.5t17.5 -44.5t-17.5 -44.5t-44.5 -17.5t-44.5 17.5t-17.5 44.5zM204 0l-169 477h103l106 -338l131 338h82 l101 -338l136 338h103l-198 -477h-82l-101 351l-130 -351h-82z" />
<glyph unicode="&#x1e92;" horiz-adv-x="600" vert-adv-y="0" d="M248 -121q0 28 19 47t47 19t47 -19t19 -47t-19 -47t-47 -19t-47 19t-19 47zM70 567v100h460v-66l-341 -501h351v-100h-480v66l338 501h-328z" />
<glyph unicode="&#x1e93;" horiz-adv-x="490" vert-adv-y="0" d="M195 -121q0 28 19 47t47 19t47 -19t19 -47t-19 -47t-47 -19t-47 19t-19 47zM55 381v96h380v-64l-249 -317h249v-96h-380v64l249 317h-249z" />
<glyph unicode="&#x1eb8;" vert-adv-y="0" d="M239 -121q0 28 19 47t47 19t47 -19t19 -47t-19 -47t-47 -19t-47 19t-19 47zM85 0v667h419v-100h-317v-174h267v-100h-265v-193h316v-100h-420z" />
<glyph unicode="&#x1eb9;" horiz-adv-x="556" vert-adv-y="0" d="M241 -121q0 28 19 47t47 19t47 -19t19 -47t-19 -47t-47 -19t-47 19t-19 47zM468 42q-71 -48 -175 -48t-169.5 54.5t-65.5 166.5v56q0 57 19 100t51 66.5t70 34.5t82 11t81 -11t69 -35t50 -67t18 -102v-65h-338q6 -115 133 -115q76 0 126 35l14 10l47 -84zM280 389 q-108 0 -119 -92h238q-4 49 -37.5 70.5t-81.5 21.5z" />
<glyph unicode="&#x1ebc;" vert-adv-y="0" d="M275 787q-10 -18 -22 -18q-28 0 -28 -8v-15h-80v15q0 36 29 62t77 26q70 0 115 -17q11 -12 25 -12q26 0 26 37v-15h80v15q0 -52 -32.5 -84.5t-75.5 -32.5q-70 0 -114 47zM85 0v667h419v-100h-317v-174h267v-100h-265v-193h316v-100h-420z" />
<glyph unicode="&#x1ebd;" horiz-adv-x="556" vert-adv-y="0" d="M267 596q-10 -18 -22 -18q-28 0 -28 -8v-15h-80v15q0 36 29 62t77 26q70 0 115 -17q11 -12 25 -12q26 0 26 37v-15h80v15q0 -52 -32.5 -84.5t-75.5 -32.5q-70 0 -114 47zM468 42q-71 -48 -175 -48t-169.5 54.5t-65.5 166.5v56q0 57 19 100t51 66.5t70 34.5t82 11t81 -11 t69 -35t50 -67t18 -102v-65h-338q6 -115 133 -115q76 0 126 35l14 10l47 -84zM280 389q-108 0 -119 -92h238q-4 49 -37.5 70.5t-81.5 21.5z" />
<glyph unicode="&#x1eca;" horiz-adv-x="274" vert-adv-y="0" d="M85 -121q0 28 19 47t47 19t47 -19t19 -47t-19 -47t-47 -19t-47 19t-19 47zM85 667h104v-667h-104v667z" />
<glyph unicode="&#x1ecb;" horiz-adv-x="262" vert-adv-y="0" d="M80 -96q0 28 19 47t47 19t47 -19t19 -47t-19 -47t-47 -19t-47 19t-19 47zM81 0v477h100v-477h-100zM69 582q0 27 17.5 44.5t43.5 17.5q27 0 45 -17.5t18 -44.5t-18 -44.5t-45 -17.5q-26 0 -43.5 17.5t-17.5 44.5z" />
<glyph unicode="&#x1ecc;" horiz-adv-x="660" vert-adv-y="0" d="M278 -121q0 28 19 47t47 19t47 -19t19 -47t-19 -47t-47 -19t-47 19t-19 47zM595 458v-249q0 -57 -22 -100.5t-60.5 -67.5t-84 -35.5t-98.5 -11.5t-98.5 11.5t-84 35.5t-60.5 67.5t-22 100.5v249q0 46 14.5 83.5t39.5 61.5t59.5 40t72 23t79.5 7q53 0 98.5 -11.5t84 -35.5 t60.5 -67.5t22 -100.5zM169 455v-243q0 -118 161 -118t161 118v243q0 118 -161 118t-161 -118z" />
<glyph unicode="&#x1ecd;" horiz-adv-x="560" vert-adv-y="0" d="M228 -121q0 28 19 47t47 19t47 -19t19 -47t-19 -47t-47 -19t-47 19t-19 47zM505 271v-65q0 -58 -18.5 -100.5t-50.5 -66t-70.5 -34.5t-84 -11t-84 11t-71.5 34.5t-52 66t-19 100.5v65q0 58 19 100.5t52 66t71.5 34.5t84 11t84 -11t70.5 -34.5t50.5 -66t18.5 -100.5z M159 270v-63q0 -117 123 -117t123 117v63q0 34 -10 58t-28.5 36.5t-39 17.5t-45.5 5q-122 -2 -123 -117z" />
<glyph unicode="&#x1ee4;" horiz-adv-x="640" vert-adv-y="0" d="M266 -121q0 28 19 47t47 19t47 -19t19 -47t-19 -47t-47 -19t-47 19t-19 47zM179 667v-453q0 -120 141 -120t141 120v453h104v-457q0 -58 -20.5 -101t-55.5 -67.5t-77.5 -36t-91.5 -11.5t-91.5 11.5t-77.5 36t-55.5 67.5t-20.5 101v457h104z" />
<glyph unicode="&#x1ee5;" vert-adv-y="0" d="M233 -121q0 28 19 47t47 19t47 -19t19 -47t-19 -47t-47 -19t-47 19t-19 47zM285 90q120 0 120 120v267h100v-271q0 -58 -18 -100.5t-49.5 -66t-69.5 -34.5t-83 -11t-83 11t-69.5 34.5t-49.5 66t-18 100.5v271h100v-267q0 -120 120 -120z" />
<glyph unicode="&#x1ef2;" horiz-adv-x="601" vert-adv-y="0" d="M311 706l-107 151h119l94 -151h-106zM252 276l-217 391h115l159 -291l163 291h113l-218 -391v-276h-115v276z" />
<glyph unicode="&#x1ef3;" horiz-adv-x="590" vert-adv-y="0" d="M303 515l-107 151h119l94 -151h-106zM35 477h106l161 -350l161 350h107l-299 -662h-116l89 191z" />
<glyph unicode="&#x1ef8;" horiz-adv-x="601" vert-adv-y="0" d="M294 787q-10 -18 -22 -18q-28 0 -28 -8v-15h-80v15q0 36 29 62t77 26q70 0 115 -17q11 -12 25 -12q26 0 26 37v-15h80v15q0 -52 -32.5 -84.5t-75.5 -32.5q-70 0 -114 47zM252 276l-217 391h115l159 -291l163 291h113l-218 -391v-276h-115v276z" />
<glyph unicode="&#x1ef9;" horiz-adv-x="590" vert-adv-y="0" d="M286 596q-10 -18 -22 -18q-28 0 -28 -8v-15h-80v15q0 36 29 62t77 26q70 0 115 -17q11 -12 25 -12q26 0 26 37v-15h80v15q0 -52 -32.5 -84.5t-75.5 -32.5q-70 0 -114 47zM35 477h106l161 -350l161 350h107l-299 -662h-116l89 191z" />
<glyph unicode="&#x2013;" horiz-adv-x="460" d="M80 188v96h300v-96h-300z" />
<glyph unicode="&#x2014;" horiz-adv-x="600" d="M80 188v96h440v-96h-440z" />
<glyph unicode="&#x2018;" horiz-adv-x="232" d="M182 516q0 -45 -20 -70.5t-46 -25.5t-46 25.5t-20 70.5q0 23 10 50l49 101h74l-31 -95q30 -18 30 -56z" />
<glyph unicode="&#x2019;" horiz-adv-x="232" d="M51 637q0 17 20 26.5t46 9.5t46 -9.5t20 -26.5q0 -23 -10 -51l-48 -160h-75l31 155q-30 18 -30 56z" />
<glyph unicode="&#x201a;" horiz-adv-x="232" d="M51 30q0 31 20 48.5t46 17.5q12 0 23.5 -4t21 -12t15.5 -21t6 -29q0 -22 -10 -50l-48 -101h-75l31 95q-30 18 -30 56z" />
<glyph unicode="&#x201c;" horiz-adv-x="392" d="M182 516q0 -45 -20 -70.5t-46 -25.5t-46 25.5t-20 70.5q0 23 10 50l49 101h74l-31 -95q30 -18 30 -56zM342 516q0 -45 -20 -70.5t-46 -25.5t-46 25.5t-20 70.5q0 23 10 50l49 101h74l-31 -95q30 -18 30 -56z" />
<glyph unicode="&#x201d;" horiz-adv-x="392" d="M211 637q0 17 20 26.5t46 9.5t46 -9.5t20 -26.5q0 -23 -10 -51l-48 -130h-75l31 125q-30 18 -30 56zM51 637q0 17 20 26.5t46 9.5t46 -9.5t20 -26.5q0 -23 -10 -51l-48 -160h-75l31 155q-30 18 -30 56z" />
<glyph unicode="&#x201e;" horiz-adv-x="392" d="M211 32q0 31 20 48.5t46 17.5t46 -17.5t20 -48.5q0 -24 -10 -52l-49 -129h-74l31 126q-30 17 -30 55zM51 32q0 31 20 48.5t46 17.5t46 -17.5t20 -48.5q0 -24 -10 -52l-49 -129h-74l31 126q-30 17 -30 55z" />
<glyph unicode="&#x2020;" horiz-adv-x="384" vert-adv-y="0" d="M142 492v175h100v-175h87v-90h-87v-587h-100v587h-87v90h87z" />
<glyph unicode="&#x2021;" horiz-adv-x="384" vert-adv-y="0" d="M142 492v175h100v-175h87v-90h-87v-315h87v-87h-87v-185h-100v185h-87v87h87v315h-87v90h87z" />
<glyph unicode="&#x2022;" horiz-adv-x="355" vert-adv-y="0" d="M80 250q0 43 27.5 70.5t70.5 27.5q42 0 69.5 -27.5t27.5 -70.5t-27.5 -70.5t-69.5 -27.5q-43 0 -70.5 27.5t-27.5 70.5z" />
<glyph unicode="&#x2026;" horiz-adv-x="602" vert-adv-y="0" d="M50 30q0 28 19 47t47 19q29 0 48.5 -19t19.5 -47t-19.5 -47t-48.5 -19q-28 0 -47 19t-19 47zM418 30q0 28 19.5 47t48.5 19q28 0 47 -19t19 -47t-19 -47t-47 -19q-29 0 -48.5 19t-19.5 47zM226 30q0 14 6 26.5t15.5 21t23.5 13.5t30 5q32 0 53.5 -19t21.5 -47 q0 -19 -10 -34t-27 -23.5t-38 -8.5q-32 0 -53.5 19t-21.5 47z" />
<glyph unicode="&#x2030;" horiz-adv-x="1082" vert-adv-y="0" d="M243 535q0 24 -14 36t-32 12t-31.5 -12t-13.5 -36v-42q0 -25 13.5 -36.5t31.5 -11.5t32 12t14 36v42zM60 535q0 65 40.5 101.5t96.5 36.5q57 0 99.5 -36.5t42.5 -101.5v-42q0 -65 -42.5 -101.5t-99.5 -36.5q-56 0 -96.5 36.5t-40.5 101.5v42zM930 174q0 25 -13.5 36.5 t-31.5 11.5t-32 -12t-14 -36v-42q0 -24 14 -36t32 -12t31.5 12t13.5 36v42zM743 174q0 44 21.5 76.5t53 47t67.5 14.5q56 0 96.5 -36.5t40.5 -101.5v-42q0 -65 -40.5 -101.5t-96.5 -36.5q-57 0 -99.5 36.5t-42.5 101.5v42zM607 174q0 24 -14 36t-32 12q-12 0 -22 -4.5 t-17 -15.5t-7 -28v-42q0 -17 7 -28t17 -15.5t22 -4.5q18 0 32 12t14 36v42zM418 174q1 65 44 101.5t100 36.5t99.5 -36.5t41.5 -101.5v-42q0 -65 -42.5 -101.5t-100 -36.5t-100 36.5t-42.5 101.5v42zM126 0l390 667h113l-395 -667h-108z" />
<glyph unicode="&#x2032;" horiz-adv-x="334" d="M50 426l142 241h116l-155 -241h-103z" />
<glyph unicode="&#x2033;" horiz-adv-x="510" d="M206 456l166 211h112l-161 -211h-117zM50 426l146 241h132l-179 -241h-99z" />
<glyph unicode="&#x2034;" horiz-adv-x="660" d="M367 456l155 211h112l-158 -211h-109zM203 456l155 211h123l-169 -211h-109zM50 426l144 241h122l-167 -241h-99z" />
<glyph unicode="&#x2039;" horiz-adv-x="415" d="M231 452h121l-171 -202l171 -187h-121l-151 158v58z" />
<glyph unicode="&#x203a;" horiz-adv-x="415" d="M201 452l151 -173v-58l-151 -158h-121l172 187l-172 202h121z" />
<glyph unicode="&#x2044;" horiz-adv-x="484" vert-adv-y="0" d="M0 0l406 667h98l-406 -667h-98z" />
<glyph unicode="&#x20ac;" horiz-adv-x="661" vert-adv-y="0" d="M131 446q0 59 21.5 104t58.5 71t82 39t98 13q19 0 32.5 -0.5t41 -5.5t48.5 -14.5t47.5 -28.5t46.5 -46l9 -12l-80 -62l-10 12q-16 20 -34 33t-38 17.5t-31.5 5.5t-31.5 1q-150 0 -150 -128v-6h292l-31 -86h-261v-39h250l-33 -81h-217v-5q0 -134 150 -134q14 0 21 0.5 t21.5 2t25 5t24 10t26 18t24.5 26.5l10 12l80 -62l-9 -12q-26 -35 -58.5 -57.5t-66.5 -30.5t-53 -10t-45 -2q-53 0 -98 13t-82 39t-58.5 71.5t-21.5 104.5v6h-71l31 86h40v39h-71l31 86h40v7z" />
<glyph unicode="&#x20b9;" horiz-adv-x="655" vert-adv-y="0" d="M494 438q-10 -82 -76.5 -129.5t-154.5 -55.5l230 -253h-126l-239 243h-32v97h131q34 0 62.5 10.5t48 32t24.5 52.5h-292l43 97h233q-37 38 -119 38h-157l43 97h493l-43 -87h-132q34 -22 52 -48h123l-43 -94h-69z" />
<glyph unicode="&#x20ba;" horiz-adv-x="574" vert-adv-y="0" d="M405 323h104v-90q0 -50 -14 -89t-38.5 -66t-59.5 -44.5t-76 -25.5t-89 -8h-92v247l-90 -43v90l90 43v44l-90 -43v90l90 43v196h110v-146l160 65v-91l-160 -65v-43l160 65v-91l-160 -65v-200q36 2 63 9.5t48.5 23t32.5 42t11 62.5v90z" />
<glyph unicode="&#x2122;" horiz-adv-x="728" vert-adv-y="0" d="M60 592v75h267v-75h-97v-258h-81v258h-89zM338 334v333h72l98 -146l94 146h66v-333h-76v191l-56 -109h-56l-59 109v-191h-83z" />
<glyph unicode="&#x2126;" horiz-adv-x="660" vert-adv-y="0" d="M293 94v-94h-228v94h59q-59 77 -59 212v137q0 60 21 105.5t58.5 72t84 39.5t102.5 13t102.5 -13t83.5 -40t57.5 -72.5t20.5 -106.5v-138q0 -136 -59 -213h59v-90h-225v94h16q35 0 70 55t35 155v135q0 134 -159.5 134t-159.5 -134v-135q0 -100 35 -155t70 -55h16z" />
<glyph unicode="&#x2206;" horiz-adv-x="709" d="M688 0h-653l281 667h92zM181 83h361l-180 447z" />
<glyph unicode="&#x2211;" horiz-adv-x="560" vert-adv-y="0" d="M352 358v-36l-154 -227h302v-95h-440v56l176 285l-176 269v57h439v-100h-300z" />
<glyph unicode="&#x2212;" horiz-adv-x="580" d="M80 193v86h420v-86h-420z" />
<glyph unicode="&#x221a;" horiz-adv-x="567" d="M273 0l-238 295h101l162 -191l164 563h88l-196 -667h-81z" />
<glyph unicode="&#x221e;" horiz-adv-x="810" vert-adv-y="0" d="M357 255q-17 31 -31.5 51t-32.5 32.5t-37 12.5q-13 0 -25 -5t-22.5 -13.5t-19 -20.5t-13 -26.5t-4.5 -30.5q0 -39 26 -67.5t58 -28.5q19 0 37 12.5t33 32.5t31 51zM80 255q0 77 49.5 130.5t126.5 53.5q21 0 40 -5t34.5 -13.5t29.5 -21.5t25 -26.5t22 -31.5q33 47 71 72.5 t89 25.5q74 0 118.5 -53t44.5 -131t-44.5 -131t-118.5 -53q-51 0 -89 25.5t-71 72.5q-31 -48 -65.5 -73t-85.5 -25q-77 0 -126.5 53.5t-49.5 130.5zM640 255q0 27 -10 49.5t-26.5 34.5t-36.5 12q-29 0 -56.5 -25t-55.5 -71q60 -96 112 -96q30 0 51.5 27.5t21.5 68.5z" />
<glyph unicode="&#x222b;" horiz-adv-x="380" vert-adv-y="0" d="M235 515v-554q0 -69 -36 -107.5t-89 -38.5h-75v87h75q13 0 24 14.5t11 44.5v557q0 66 36 102.5t89 36.5h75v-87h-75q-8 0 -15.5 -5t-13.5 -18t-6 -32z" />
<glyph unicode="&#x2248;" horiz-adv-x="580" vert-adv-y="0" d="M131 132l-12 -11l-51 64l10 10q59 58 124 58q32 0 61.5 -10t58.5 -28q40 -27 68 -27q30 0 69 40l13 12l50 -66l-9 -10q-61 -60 -125 -60q-59 0 -120 41q-38 24 -66 24q-33 0 -71 -37zM131 272l-12 -11l-51 64l10 10q59 58 124 58q22 0 43 -5t39.5 -13t37.5 -20 q40 -27 68 -27q30 0 69 40l13 12l50 -66l-9 -10q-61 -60 -125 -60q-59 0 -120 41q-38 24 -66 24q-33 0 -71 -37z" />
<glyph unicode="&#x2260;" horiz-adv-x="580" d="M320 361l76 98h98l-66 -98h72v-82h-128l-46 -56h174v-82h-240l-76 -98h-98l66 98h-72v82h128l46 56h-174v82h240z" />
<glyph unicode="&#x2264;" horiz-adv-x="580" d="M80 80v86h420v-86h-420zM500 388l-276 -65l276 -65v-88l-420 109v88l420 109v-88z" />
<glyph unicode="&#x2265;" horiz-adv-x="580" d="M80 166h420v-86h-420v86zM80 258l276 65l-276 65v88l420 -109v-88l-420 -109v88z" />
<glyph unicode="&#x25fc;" horiz-adv-x="475" vert-adv-y="950" d="M0 475h475v-475h-475v475z" />
<glyph unicode="&#xe000;" horiz-adv-x="547" vert-adv-y="0" d="M269 81h109v134q-31 3 -64 3q-57 0 -90.5 -8t-48 -24t-14.5 -43q0 -28 28 -45t80 -17zM274 492q92 0 148.5 -48.5t56.5 -147.5v-296h-210q-91 0 -151 42.5t-60 113.5q0 73 66.5 113t187.5 40q36 0 65 -3q-2 21 -7.5 36.5t-14.5 26t-21.5 17t-27 9.5t-32.5 3h-186v94h186z " />
<glyph unicode="&#xe001;" horiz-adv-x="560" vert-adv-y="0" d="M179 81h100q51 0 87.5 33t36.5 96v57q0 63 -36.5 96t-87.5 33h-100v-315zM505 219q0 -71 -32.5 -121.5t-82.5 -74t-111 -23.5h-204v667h104v-175h100q61 0 111 -23t82.5 -74t32.5 -121v-55z" />
<glyph unicode="&#xe002;" horiz-adv-x="485" vert-adv-y="0" d="M55 273q0 106 66.5 162.5t170.5 56.5h123v-96h-123q-58 0 -97.5 -31.5t-39.5 -92.5v-55q0 -62 39 -93.5t98 -31.5h133v-92h-133q-104 0 -170.5 56t-66.5 162v55z" />
<glyph unicode="&#xe003;" horiz-adv-x="560" vert-adv-y="0" d="M161 210q0 -63 36.5 -96t86.5 -33h101v315h-101q-32 0 -59 -13t-45.5 -43t-18.5 -73v-57zM485 0h-201q-60 0 -111 23t-84.5 74.5t-33.5 121.5v55q0 70 33.5 121t84.5 74t111 23h101v175h100v-667z" />
<glyph unicode="&#xe004;" horiz-adv-x="566" vert-adv-y="0" d="M283 404q-49 0 -85.5 -27.5t-40.5 -79.5h252q-5 51 -41 79t-85 28zM478 0h-170q-74 0 -129 22t-88 70.5t-33 120.5v66q0 105 64.5 162t160.5 57t160.5 -59t64.5 -171v-65h-352q0 -40 20 -66t53 -37.5t79 -11.5l155 1l15 1v-90z" />
<glyph unicode="&#xe005;" horiz-adv-x="380" vert-adv-y="0" d="M75 0v518q0 69 40.5 107t94.5 38h115v-92h-115q-35 0 -35 -53v-26h130v-91h-130v-401h-100z" />
<glyph unicode="&#xe006;" horiz-adv-x="556" vert-adv-y="0" d="M370 396h-101q-48 0 -81 -32.5t-33 -96.5v-57q0 -33 9.5 -58.5t26 -40.5t36 -22.5t42.5 -7.5h101v315zM55 273q0 70 31.5 121.5t79 74.5t103.5 23h213v-466v-11v-15h-1q-7 -79 -75 -132t-172 -53h-147v96h147q51 0 86.5 22t45.5 67h-97q-56 0 -103.5 23t-79 74t-31.5 121 v55z" />
<glyph unicode="&#xe007;" vert-adv-y="0" d="M175 492h115q94 0 154.5 -56.5t60.5 -161.5v-274h-100v271q0 43 -16.5 72t-41.5 41t-57 12h-115v-396h-100v667h100v-175z" />
<glyph unicode="&#xe008;" horiz-adv-x="527" vert-adv-y="0" d="M296 262l205 -262h-118l-174 205h-32v-205h-102v667h102v-372h16l172 197h123z" />
<glyph unicode="&#xe010;" horiz-adv-x="838" vert-adv-y="0" d="M75 492h496q89 0 145.5 -53.5t56.5 -135.5v-303h-100v300q0 26 -12 47.5t-35.5 35t-52.5 13.5h-100v-396h-98v396h-200v-396h-100v492z" />
<glyph unicode="&#xe011;" vert-adv-y="0" d="M75 492h215q94 0 154.5 -56.5t60.5 -161.5v-274h-100v271q0 43 -16.5 72t-41.5 41t-57 12h-115v-396h-100v492z" />
<glyph unicode="&#xe012;" horiz-adv-x="560" vert-adv-y="0" d="M405 267q0 64 -37 96.5t-90 32.5h-103v-315h103q53 0 90 32.5t37 96.5v57zM75 492h203q97 0 162 -57t65 -162v-55q0 -105 -65 -161.5t-162 -56.5h-103v-190h-100v682z" />
<glyph unicode="&#xe013;" horiz-adv-x="560" vert-adv-y="0" d="M385 396h-103q-53 0 -90 -32.5t-37 -96.5v-57q0 -64 37 -96.5t90 -32.5h103v315zM55 273q0 105 65 162t162 57h203v-682h-100v190h-103q-97 0 -162 56.5t-65 161.5v55z" />
<glyph unicode="&#xe014;" horiz-adv-x="409" vert-adv-y="0" d="M65 0v273q0 70 31.5 121.5t78 74.5t100.5 23h79v-96h-79q-45 0 -77.5 -32t-32.5 -93l-2 -271h-98z" />
<glyph unicode="&#xe015;" horiz-adv-x="496" vert-adv-y="0" d="M50 351q0 47 30 80.5t72 47t90 13.5h174v-96h-15q-112 1 -159 1t-69.5 -13t-22.5 -36q0 -11 3 -18t13.5 -13.5t31 -11t55.5 -9.5q193 -31 193 -154q0 -47 -26 -80.5t-72 -50.5t-107 -17h-181v95h181q62 0 83.5 14.5t21.5 41.5q0 9 -3 16t-10.5 14t-20.5 13t-33 11t-48 9 q-40 6 -69 15t-56 24.5t-41.5 42t-14.5 61.5z" />
<glyph unicode="&#xe016;" horiz-adv-x="380" vert-adv-y="0" d="M210 0q-54 0 -94.5 37t-40.5 104v481h100v-130h130v-91h-130v-261q0 -28 10.5 -39.5t24.5 -11.5h115v-89h-115z" />
<glyph unicode="&#xe017;" horiz-adv-x="660" vert-adv-y="0" d="M179 0h-104v441q0 61 19.5 106.5t55 72.5t80.5 40t100 13t100 -13t80.5 -40t55 -72.5t19.5 -106.5v-441h-104v150h-302v-150zM179 250h302v187q0 38 -11 65t-32 42t-47.5 22t-60.5 7q-71 0 -111 -31t-40 -105v-187z" />
<glyph unicode="&#xe018;" horiz-adv-x="581" vert-adv-y="0" d="M511 0h-186q-55 0 -101 13t-82 40t-56.5 73t-20.5 107v202q0 61 20.5 106.5t56.5 72.5t82 40t101 13h176v-100h-176q-156 0 -156 -135v-201q0 -136 156 -136h186v-95z" />
<glyph unicode="&#xe019;" horiz-adv-x="589" vert-adv-y="0" d="M65 435q0 61 20 106.5t56 72.5t81 40t98 13h181v-100h-181q-151 0 -151 -134v-205q0 -134 151 -134t151 132v46h-153v100h257v-144q0 -61 -20 -107.5t-56 -73.5t-81 -40t-98 -13t-98 13t-81 40t-56 73t-20 107v208z" />
<glyph unicode="&#xe01a;" horiz-adv-x="531" vert-adv-y="0" d="M446 206q0 -103 -63.5 -157.5t-159.5 -54.5h-153v100h153q48 0 83.5 29t35.5 86v458h104v-461z" />
<glyph unicode="&#xe01b;" horiz-adv-x="589" vert-adv-y="0" d="M497 567h-212q-58 0 -92 -24t-34 -66t34 -61t104 -30q51 -8 89.5 -20.5t71.5 -34t50.5 -56.5t17.5 -81q0 -81 -69 -137.5t-186 -56.5h-206v96h206q36 0 65 8t47.5 22t28.5 31.5t10 37.5q0 46 -38 68t-110 33q-48 7 -85 19t-68.5 32.5t-48.5 54t-17 78.5q0 86 66.5 136.5 t163.5 50.5h212v-100z" />
<glyph unicode="&#xe01c;" horiz-adv-x="778" vert-adv-y="0" d="M283 120q-61 0 -100.5 44.5t-39.5 111.5t39.5 111.5t100.5 44.5t100.5 -44.5t39.5 -111.5t-39.5 -111.5t-100.5 -44.5z" />
<glyph unicode="&#xe01d;" horiz-adv-x="1060" vert-adv-y="0" d="M317 517h448v-545h-448v545z" />
<glyph unicode="&#xe01e;" horiz-adv-x="1060" vert-adv-y="0" d="M317 517h448v-545h-448v545z" />
<glyph unicode="&#xe01f;" horiz-adv-x="1060" vert-adv-y="0" d="M317 517h448v-545h-448v545z" />
<glyph unicode="&#xe020;" horiz-adv-x="1060" vert-adv-y="0" d="M317 517h448v-545h-448v545z" />
<glyph unicode="&#xfb01;" horiz-adv-x="562" vert-adv-y="0" d="M45 386v91h60v45q0 69 41.5 107t100.5 38h91v-92h-91q-17 0 -29.5 -12t-12.5 -41v-45h276v-477h-100v386h-176v-386h-100v386h-60zM367 572q0 27 18.5 44.5t44.5 17.5q27 0 45 -17.5t18 -44.5t-18 -44.5t-45 -17.5q-7 0 -14 1.5t-13.5 4.5t-12 7t-10 9.5t-7.5 11.5 t-4.5 13t-1.5 15z" />
<glyph unicode="&#xfb02;" horiz-adv-x="556" vert-adv-y="0" d="M45 386v91h60v45q0 70 42 107.5t104 37.5h230v-667h-100v575h-130q-16 0 -28.5 -12t-12.5 -41v-45h117v-91h-117v-386h-105v386h-60z" />
</font>
</defs>
</svg>
